<?xml version="1.0" encoding="UTF-8" standalone="no"?>
<svg
   xmlns:dc="http://purl.org/dc/elements/1.1/"
   xmlns:cc="http://creativecommons.org/ns#"
   xmlns:rdf="http://www.w3.org/1999/02/22-rdf-syntax-ns#"
   xmlns:svg="http://www.w3.org/2000/svg"
   xmlns="http://www.w3.org/2000/svg"
   xmlns:sodipodi="http://sodipodi.sourceforge.net/DTD/sodipodi-0.dtd"
   xmlns:inkscape="http://www.inkscape.org/namespaces/inkscape"
   width="1080"
   height="1080"
   viewBox="0 0 285.74999 285.75001"
   version="1.1"
   id="svg8"
   inkscape:version="1.0.2 (e86c870879, 2021-01-15)"
   sodipodi:docname="Amigos.svg">
  <defs
     id="defs2">
    <pattern
       id="EMFhbasepattern"
       patternUnits="userSpaceOnUse"
       width="6"
       height="6"
       x="0"
       y="0" />
  </defs>
  <sodipodi:namedview
     id="base"
     pagecolor="#ffffff"
     bordercolor="#666666"
     borderopacity="1.0"
     inkscape:pageopacity="0.0"
     inkscape:pageshadow="2"
     inkscape:zoom="0.33602431"
     inkscape:cx="629.33957"
     inkscape:cy="717.78605"
     inkscape:document-units="mm"
     inkscape:current-layer="layer1"
     inkscape:document-rotation="0"
     showgrid="false"
     units="px"
     inkscape:pagecheckerboard="true"
     inkscape:window-width="1366"
     inkscape:window-height="705"
     inkscape:window-x="-8"
     inkscape:window-y="-8"
     inkscape:window-maximized="1" />
  <metadata
     id="metadata5">
    <rdf:RDF>
      <cc:Work
         rdf:about="">
        <dc:format>image/svg+xml</dc:format>
        <dc:type
           rdf:resource="http://purl.org/dc/dcmitype/StillImage" />
        <dc:title></dc:title>
      </cc:Work>
    </rdf:RDF>
  </metadata>
  <g
     inkscape:label="Capa 1"
     inkscape:groupmode="layer"
     id="layer1">
    <path
       style="fill:#ffffff;fill-opacity:1;fill-rule:evenodd;stroke:none;stroke-width:0.123108"
       d="m 32.548787,25.030105 c 0.07438,0 0.148753,-0.005 0.22313,-0.005 v 6.56373 z"
       id="path5888" />
    <path
       style="fill:#ffffff;fill-opacity:1;fill-rule:evenodd;stroke:none;stroke-width:0.123108"
       d="m 32.548787,25.030105 0.22313,6.55909 0.22313,6.55908 -1.217917,0.0418 -0.223129,-6.55908 -0.223131,-6.55909 z"
       id="path5890" />
    <path
       style="fill:#ffffff;fill-opacity:1;fill-rule:evenodd;stroke:none;stroke-width:0.123108"
       d="m 30.926448,25.099835 c 0.134808,-0.0139 0.269615,-0.0232 0.404422,-0.0279 l 0.223131,6.55909 z"
       id="path5892" />
    <path
       style="fill:#ffffff;fill-opacity:1;fill-rule:evenodd;stroke:none;stroke-width:0.123108"
       d="m 30.926448,25.099835 0.627553,6.5312 0.627552,6.53119 -1.213269,0.11621 -0.627552,-6.53119 -0.627553,-6.5312 z"
       id="path5894" />
    <path
       style="fill:#ffffff;fill-opacity:1;fill-rule:evenodd;stroke:none;stroke-width:0.123108"
       d="m 29.262271,25.276485 c 0.148753,-0.0279 0.302155,-0.0465 0.450908,-0.0604 l 0.627553,6.5312 z"
       id="path5896" />
    <path
       style="fill:#ffffff;fill-opacity:1;fill-rule:evenodd;stroke:none;stroke-width:0.123108"
       d="m 29.262271,25.276485 1.078461,6.47076 1.078461,6.47076 -1.199323,0.19989 -1.078461,-6.47076 -1.07846,-6.47077 z"
       id="path5898" />
    <path
       style="fill:#ffffff;fill-opacity:1;fill-rule:evenodd;stroke:none;stroke-width:0.123108"
       d="m 27.658527,25.555395 c 0.134807,-0.0325 0.269614,-0.0558 0.404422,-0.079 l 1.07846,6.47077 z"
       id="path5900" />
    <path
       style="fill:#ffffff;fill-opacity:1;fill-rule:evenodd;stroke:none;stroke-width:0.123108"
       d="m 27.658527,25.555395 1.482882,6.39174 1.482884,6.39173 -1.180729,0.27427 -1.482883,-6.39174 -1.482884,-6.39174 z"
       id="path5902" />
    <path
       style="fill:#ffffff;fill-opacity:1;fill-rule:evenodd;stroke:none;stroke-width:0.123108"
       d="m 26.050133,25.945865 c 0.144104,-0.0465 0.28356,-0.0837 0.427664,-0.11621 l 1.482884,6.39174 z"
       id="path5904" />
    <path
       style="fill:#ffffff;fill-opacity:1;fill-rule:evenodd;stroke:none;stroke-width:0.123108"
       d="m 26.050133,25.945865 1.910548,6.27553 1.910549,6.27553 -1.162134,0.35328 -1.910549,-6.27552 -1.910549,-6.27553 z"
       id="path5906" />
    <path
       style="fill:#ffffff;fill-opacity:1;fill-rule:evenodd;stroke:none;stroke-width:0.123108"
       d="m 24.492872,26.433965 c 0.130159,-0.0511 0.264967,-0.0976 0.395126,-0.13481 l 1.910549,6.27553 z"
       id="path5908" />
    <path
       style="fill:#ffffff;fill-opacity:1;fill-rule:evenodd;stroke:none;stroke-width:0.123108"
       d="m 24.492872,26.433965 2.305675,6.14072 2.305674,6.14072 -1.138891,0.42766 -2.305675,-6.14072 -2.305675,-6.14071 z"
       id="path5910" />
    <path
       style="fill:#ffffff;fill-opacity:1;fill-rule:evenodd;stroke:none;stroke-width:0.123108"
       d="m 22.949558,27.028975 c 0.130159,-0.0604 0.264967,-0.11621 0.404422,-0.16734 l 2.305675,6.14071 z"
       id="path5912" />
    <path
       style="fill:#ffffff;fill-opacity:1;fill-rule:evenodd;stroke:none;stroke-width:0.123108"
       d="m 22.949558,27.028975 2.710097,5.97337 2.710097,5.97337 -1.106351,0.50205 -2.710097,-5.97337 -2.710098,-5.97337 z"
       id="path5914" />
    <path
       style="fill:#ffffff;fill-opacity:1;fill-rule:evenodd;stroke:none;stroke-width:0.123108"
       d="m 21.462026,27.716965 c 0.125511,-0.0651 0.251021,-0.13016 0.38118,-0.18594 l 2.710098,5.97337 z"
       id="path5916" />
    <path
       style="fill:#ffffff;fill-opacity:1;fill-rule:evenodd;stroke:none;stroke-width:0.123108"
       d="m 21.462026,27.716965 3.091278,5.78743 3.091277,5.78743 -1.078461,0.57641 -3.091278,-5.78743 -3.091277,-5.78742 z"
       id="path5918" />
    <path
       style="fill:#ffffff;fill-opacity:1;fill-rule:evenodd;stroke:none;stroke-width:0.123108"
       d="m 20.002386,28.511865 c 0.06508,-0.0372 0.12551,-0.0744 0.190589,-0.11157 0.06508,-0.0372 0.125511,-0.0744 0.19059,-0.10691 l 3.091277,5.78742 z"
       id="path5920" />
    <path
       style="fill:#ffffff;fill-opacity:1;fill-rule:evenodd;stroke:none;stroke-width:0.123108"
       d="m 20.002386,28.511865 3.472456,5.56894 3.472458,5.56895 -1.036624,0.64615 -3.472457,-5.56895 -3.472457,-5.56895 z"
       id="path5922" />
    <path
       style="fill:#ffffff;fill-opacity:1;fill-rule:evenodd;stroke:none;stroke-width:0.123108"
       d="m 18.612473,29.399735 c 0.116213,-0.0837 0.232426,-0.16735 0.353289,-0.24173 l 3.472457,5.56895 z"
       id="path5924" />
    <path
       style="fill:#ffffff;fill-opacity:1;fill-rule:evenodd;stroke:none;stroke-width:0.123108"
       d="m 18.612473,29.399735 3.825746,5.32722 3.825747,5.32723 -0.990139,0.71122 -3.825747,-5.32722 -3.825746,-5.32723 z"
       id="path5926" />
    <path
       style="fill:#ffffff;fill-opacity:1;fill-rule:evenodd;stroke:none;stroke-width:0.123108"
       d="m 17.296937,30.357335 c 0.106916,-0.0883 0.213833,-0.16735 0.325397,-0.24638 l 3.825746,5.32723 z"
       id="path5928" />
    <path
       style="fill:#ffffff;fill-opacity:1;fill-rule:evenodd;stroke:none;stroke-width:0.123108"
       d="m 17.296937,30.357335 4.151143,5.08085 4.151144,5.08085 -0.939004,0.76701 -4.151144,-5.08085 -4.151144,-5.08086 z"
       id="path5930" />
    <path
       style="fill:#ffffff;fill-opacity:1;fill-rule:evenodd;stroke:none;stroke-width:0.123108"
       d="m 16.023238,31.417195 c 0.106916,-0.10227 0.218481,-0.19988 0.334694,-0.29286 l 4.151144,5.08086 z"
       id="path5932" />
    <path
       style="fill:#ffffff;fill-opacity:1;fill-rule:evenodd;stroke:none;stroke-width:0.123108"
       d="m 16.023238,31.417195 4.485838,4.788 4.485839,4.78799 -0.887872,0.83209 -4.485837,-4.788 -4.485839,-4.78799 z"
       id="path5934" />
    <path
       style="fill:#ffffff;fill-opacity:1;fill-rule:evenodd;stroke:none;stroke-width:0.123108"
       d="m 14.833212,32.551445 c 0.09762,-0.10227 0.199887,-0.20454 0.302155,-0.30216 l 4.485839,4.78799 z"
       id="path5936" />
    <path
       style="fill:#ffffff;fill-opacity:1;fill-rule:evenodd;stroke:none;stroke-width:0.123108"
       d="m 14.833212,32.551445 4.787994,4.48583 4.787992,4.48584 -0.832087,0.88787 -4.787994,-4.48584 -4.787993,-4.48583 z"
       id="path5938" />
    <path
       style="fill:#ffffff;fill-opacity:1;fill-rule:evenodd;stroke:none;stroke-width:0.123108"
       d="m 13.708266,33.774005 c 0.09297,-0.11621 0.19059,-0.22778 0.292858,-0.33469 l 4.787993,4.48583 z"
       id="path5940" />
    <path
       style="fill:#ffffff;fill-opacity:1;fill-rule:evenodd;stroke:none;stroke-width:0.123108"
       d="m 13.708266,33.774005 5.080851,4.15114 5.080851,4.15115 -0.767008,0.939 -5.080852,-4.15114 -5.080851,-4.15114 z"
       id="path5942" />
    <path
       style="fill:#ffffff;fill-opacity:1;fill-rule:evenodd;stroke:none;stroke-width:0.123108"
       d="m 12.694885,35.038405 c 0.07903,-0.11156 0.15805,-0.21848 0.246372,-0.32539 l 5.080851,4.15114 z"
       id="path5944" />
    <path
       style="fill:#ffffff;fill-opacity:1;fill-rule:evenodd;stroke:none;stroke-width:0.123108"
       d="m 12.694885,35.038405 5.327223,3.82575 5.327224,3.82575 -0.711226,0.99013 -5.327224,-3.82574 -5.327224,-3.82575 z"
       id="path5946" />
    <path
       style="fill:#ffffff;fill-opacity:1;fill-rule:evenodd;stroke:none;stroke-width:0.123108"
       d="m 11.741935,36.381835 c 0.07438,-0.12086 0.15805,-0.23708 0.241723,-0.35329 l 5.327224,3.82575 z"
       id="path5948" />
    <path
       style="fill:#ffffff;fill-opacity:1;fill-rule:evenodd;stroke:none;stroke-width:0.123108"
       d="m 11.741935,36.381835 5.568947,3.47246 5.568948,3.47245 -0.646147,1.03663 -5.568947,-3.47246 -5.568948,-3.47246 z"
       id="path5950" />
    <path
       style="fill:#ffffff;fill-opacity:1;fill-rule:evenodd;stroke:none;stroke-width:0.123108"
       d="m 10.877306,37.799635 c 0.03254,-0.0651 0.06973,-0.12551 0.106917,-0.19059 0.03719,-0.0651 0.07438,-0.12551 0.111565,-0.19059 l 5.568948,3.47246 z"
       id="path5952" />
    <path
       style="fill:#ffffff;fill-opacity:1;fill-rule:evenodd;stroke:none;stroke-width:0.123108"
       d="m 10.877306,37.799635 5.78743,3.09128 5.787429,3.09128 -0.576419,1.07846 -5.787429,-3.09128 -5.787429,-3.09128 z"
       id="path5954" />
    <path
       style="fill:#ffffff;fill-opacity:1;fill-rule:evenodd;stroke:none;stroke-width:0.123108"
       d="m 10.114946,39.259285 c 0.05578,-0.13016 0.120862,-0.25567 0.185942,-0.38119 l 5.787429,3.09128 z"
       id="path5956" />
    <path
       style="fill:#ffffff;fill-opacity:1;fill-rule:evenodd;stroke:none;stroke-width:0.123108"
       d="m 10.114946,39.259285 5.973371,2.71009 5.97337,2.7101 -0.502041,1.10635 -5.973371,-2.7101 -5.973371,-2.71009 z"
       id="path5958" />
    <path
       style="fill:#ffffff;fill-opacity:1;fill-rule:evenodd;stroke:none;stroke-width:0.123108"
       d="m 9.445557,40.770055 c 0.05113,-0.13946 0.106917,-0.27426 0.167347,-0.40442 l 5.973371,2.71009 z"
       id="path5960" />
    <path
       style="fill:#ffffff;fill-opacity:1;fill-rule:evenodd;stroke:none;stroke-width:0.123108"
       d="m 9.445557,40.770055 6.140718,2.30567 6.140718,2.30568 -0.427666,1.13889 -6.140718,-2.30567 -6.140717,-2.30568 z"
       id="path5962" />
    <path
       style="fill:#ffffff;fill-opacity:1;fill-rule:evenodd;stroke:none;stroke-width:0.123108"
       d="m 8.883084,42.304075 c 0.03719,-0.13016 0.08367,-0.26497 0.134808,-0.39513 l 6.140717,2.30568 z"
       id="path5964" />
    <path
       style="fill:#ffffff;fill-opacity:1;fill-rule:evenodd;stroke:none;stroke-width:0.123108"
       d="m 8.883084,42.304075 6.275525,1.91055 6.275526,1.91054 -0.353289,1.16214 -6.275525,-1.91055 -6.275526,-1.91055 z"
       id="path5966" />
    <path
       style="fill:#ffffff;fill-opacity:1;fill-rule:evenodd;stroke:none;stroke-width:0.123108"
       d="m 8.413583,43.893875 c 0.03254,-0.14411 0.06973,-0.28356 0.116212,-0.42767 l 6.275526,1.91055 z"
       id="path5968" />
    <path
       style="fill:#ffffff;fill-opacity:1;fill-rule:evenodd;stroke:none;stroke-width:0.123108"
       d="m 8.413583,43.893875 6.391738,1.48288 6.391738,1.48288 -0.274263,1.18073 -6.391739,-1.48288 -6.39174,-1.48288 z"
       id="path5970" />
    <path
       style="fill:#ffffff;fill-opacity:1;fill-rule:evenodd;stroke:none;stroke-width:0.123108"
       d="m 8.060292,45.479025 c 0.02322,-0.13481 0.04648,-0.26962 0.07903,-0.40442 l 6.39174,1.48288 z"
       id="path5972" />
    <path
       style="fill:#ffffff;fill-opacity:1;fill-rule:evenodd;stroke:none;stroke-width:0.123108"
       d="m 8.060292,45.479025 6.470765,1.07846 6.470763,1.07846 -0.199886,1.19932 -6.470764,-1.07846 -6.470763,-1.07846 z"
       id="path5974" />
    <path
       style="fill:#ffffff;fill-opacity:1;fill-rule:evenodd;stroke:none;stroke-width:0.123108"
       d="m 7.799975,47.129255 c 0.01396,-0.14876 0.03252,-0.30216 0.06043,-0.45091 l 6.470763,1.07846 z"
       id="path5976" />
    <path
       style="fill:#ffffff;fill-opacity:1;fill-rule:evenodd;stroke:none;stroke-width:0.123108"
       d="m 7.799975,47.129255 6.531195,0.62755 6.531195,0.62755 -0.116214,1.21327 -6.531194,-0.62755 -6.531198,-0.62755 z"
       id="path5978" />
    <path
       style="fill:#ffffff;fill-opacity:1;fill-rule:evenodd;stroke:none;stroke-width:0.123108"
       d="m 7.65587,48.746945 c 0.0047,-0.13481 0.01396,-0.26962 0.02787,-0.40442 l 6.531197,0.62755 z"
       id="path5980" />
    <path
       style="fill:#ffffff;fill-opacity:1;fill-rule:evenodd;stroke:none;stroke-width:0.123108"
       d="m 7.65587,48.746945 6.559087,0.22313 6.559086,0.22313 -0.04184,1.21792 -6.559084,-0.22313 -6.559085,-0.22313 z"
       id="path5982" />
    <path
       style="fill:#ffffff;fill-opacity:1;fill-rule:evenodd;stroke:none;stroke-width:0.123108"
       d="m 7.609382,50.187995 c 0,-0.0744 0.0047,-0.14876 0.0047,-0.22313 l 6.559085,0.22313 z"
       id="path5984" />
    <path
       style="fill:#ffffff;fill-opacity:1;fill-rule:evenodd;stroke:none;stroke-width:0.123108"
       d="m 7.609382,50.187995 h 6.563738 6.563734 V 193.05148 H 14.17312 7.609382 Z"
       id="path5986" />
    <path
       style="fill:#ffffff;fill-opacity:1;fill-rule:evenodd;stroke:none;stroke-width:0.123108"
       d="m 7.609382,193.05148 h 6.563738 6.563734 v 0.005 H 14.17312 7.609382 Z"
       id="path5988" />
    <path
       style="fill:#ffffff;fill-opacity:1;fill-rule:evenodd;stroke:none;stroke-width:0.123108"
       d="m 7.614035,193.27927 c 0,-0.0744 -0.0047,-0.14876 -0.0047,-0.22314 h 6.563738 z"
       id="path5990" />
    <path
       style="fill:#ffffff;fill-opacity:1;fill-rule:evenodd;stroke:none;stroke-width:0.123108"
       d="m 7.614035,193.27927 6.559085,-0.22314 6.559086,-0.22313 0.04184,1.21792 -6.559087,0.22312 -6.559088,0.22314 z"
       id="path5992" />
    <path
       style="fill:#ffffff;fill-opacity:1;fill-rule:evenodd;stroke:none;stroke-width:0.123108"
       d="m 7.683759,194.9016 c -0.01396,-0.13481 -0.02326,-0.26962 -0.02787,-0.40442 l 6.559087,-0.22314 z"
       id="path5994" />
    <path
       style="fill:#ffffff;fill-opacity:1;fill-rule:evenodd;stroke:none;stroke-width:0.123108"
       d="m 7.683759,194.9016 6.531198,-0.62756 6.531194,-0.62754 0.116214,1.21327 -6.531195,0.62754 -6.531195,0.62756 z"
       id="path5996" />
    <path
       style="fill:#ffffff;fill-opacity:1;fill-rule:evenodd;stroke:none;stroke-width:0.123108"
       d="m 7.860407,196.56578 c -0.02792,-0.14875 -0.04648,-0.30216 -0.06043,-0.45091 l 6.531195,-0.62756 z"
       id="path5998" />
    <path
       style="fill:#ffffff;fill-opacity:1;fill-rule:evenodd;stroke:none;stroke-width:0.123108"
       d="m 7.860407,196.56578 6.470763,-1.07847 6.470764,-1.07845 0.199886,1.19932 -6.470763,1.07845 -6.470765,1.07847 z"
       id="path6000" />
    <path
       style="fill:#ffffff;fill-opacity:1;fill-rule:evenodd;stroke:none;stroke-width:0.123108"
       d="m 8.139317,198.16952 c -0.03252,-0.13481 -0.05578,-0.26961 -0.07903,-0.40442 l 6.470765,-1.07847 z"
       id="path6002" />
    <path
       style="fill:#ffffff;fill-opacity:1;fill-rule:evenodd;stroke:none;stroke-width:0.123108"
       d="m 8.139317,198.16952 6.39174,-1.48289 6.391739,-1.48287 0.274263,1.18072 -6.391738,1.48289 -6.391738,1.48288 z"
       id="path6004" />
    <path
       style="fill:#ffffff;fill-opacity:1;fill-rule:evenodd;stroke:none;stroke-width:0.123108"
       d="m 8.529795,199.77791 c -0.04649,-0.1441 -0.08367,-0.28355 -0.116212,-0.42766 l 6.391738,-1.48288 z"
       id="path6006" />
    <path
       style="fill:#ffffff;fill-opacity:1;fill-rule:evenodd;stroke:none;stroke-width:0.123108"
       d="m 8.529795,199.77791 6.275526,-1.91054 6.275525,-1.91055 0.353289,1.16214 -6.275526,1.91054 -6.275525,1.91056 z"
       id="path6008" />
    <path
       style="fill:#ffffff;fill-opacity:1;fill-rule:evenodd;stroke:none;stroke-width:0.123108"
       d="m 9.017892,201.33517 c -0.05113,-0.13015 -0.09762,-0.26496 -0.134808,-0.39511 l 6.275525,-1.91056 z"
       id="path6010" />
    <path
       style="fill:#ffffff;fill-opacity:1;fill-rule:evenodd;stroke:none;stroke-width:0.123108"
       d="m 9.017892,201.33517 6.140717,-2.30567 6.140718,-2.30568 0.427666,1.13889 -6.140718,2.30568 -6.140718,2.30568 z"
       id="path6012" />
    <path
       style="fill:#ffffff;fill-opacity:1;fill-rule:evenodd;stroke:none;stroke-width:0.123108"
       d="m 9.612904,202.8785 c -0.06043,-0.13017 -0.116213,-0.26498 -0.167347,-0.40443 l 6.140718,-2.30568 z"
       id="path6014" />
    <path
       style="fill:#ffffff;fill-opacity:1;fill-rule:evenodd;stroke:none;stroke-width:0.123108"
       d="m 9.612904,202.8785 5.973371,-2.71011 5.973371,-2.7101 0.502041,1.10635 -5.97337,2.71011 -5.973371,2.7101 z"
       id="path6016" />
    <path
       style="fill:#ffffff;fill-opacity:1;fill-rule:evenodd;stroke:none;stroke-width:0.123108"
       d="m 10.300888,204.36603 c -0.06508,-0.12553 -0.130159,-0.25103 -0.185942,-0.38118 l 5.973371,-2.7101 z"
       id="path6018" />
    <path
       style="fill:#ffffff;fill-opacity:1;fill-rule:evenodd;stroke:none;stroke-width:0.123108"
       d="m 10.300888,204.36603 5.787429,-3.09128 5.787429,-3.09128 0.576419,1.07846 -5.787429,3.09127 -5.78743,3.09128 z"
       id="path6020" />
    <path
       style="fill:#ffffff;fill-opacity:1;fill-rule:evenodd;stroke:none;stroke-width:0.123108"
       d="m 11.095788,205.82566 c -0.03719,-0.0651 -0.07438,-0.12551 -0.111565,-0.19058 -0.03719,-0.0651 -0.07438,-0.12552 -0.106917,-0.1906 l 5.78743,-3.09128 z"
       id="path6022" />
    <path
       style="fill:#ffffff;fill-opacity:1;fill-rule:evenodd;stroke:none;stroke-width:0.123108"
       d="m 11.095788,205.82566 5.568948,-3.47246 5.568947,-3.47245 0.646147,1.03662 -5.568948,3.47246 -5.568947,3.47245 z"
       id="path6024" />
    <path
       style="fill:#ffffff;fill-opacity:1;fill-rule:evenodd;stroke:none;stroke-width:0.123108"
       d="m 11.983658,207.21558 c -0.08367,-0.11621 -0.167347,-0.23243 -0.241723,-0.3533 l 5.568947,-3.47245 z"
       id="path6026" />
    <path
       style="fill:#ffffff;fill-opacity:1;fill-rule:evenodd;stroke:none;stroke-width:0.123108"
       d="m 11.983658,207.21558 5.327224,-3.82575 5.327224,-3.82574 0.711226,0.99013 -5.327224,3.82574 -5.327223,3.82576 z"
       id="path6028" />
    <path
       style="fill:#ffffff;fill-opacity:1;fill-rule:evenodd;stroke:none;stroke-width:0.123108"
       d="m 12.941257,208.5311 c -0.08832,-0.1069 -0.167347,-0.21382 -0.246372,-0.32538 l 5.327223,-3.82576 z"
       id="path6030" />
    <path
       style="fill:#ffffff;fill-opacity:1;fill-rule:evenodd;stroke:none;stroke-width:0.123108"
       d="m 12.941257,208.5311 5.080851,-4.15114 5.080852,-4.15114 0.767008,0.93901 -5.080851,4.15114 -5.080851,4.15114 z"
       id="path6032" />
    <path
       style="fill:#ffffff;fill-opacity:1;fill-rule:evenodd;stroke:none;stroke-width:0.123108"
       d="m 14.001124,209.80481 c -0.102268,-0.10692 -0.199887,-0.21848 -0.292858,-0.3347 l 5.080851,-4.15114 z"
       id="path6034" />
    <path
       style="fill:#ffffff;fill-opacity:1;fill-rule:evenodd;stroke:none;stroke-width:0.123108"
       d="m 14.001124,209.80481 4.787993,-4.48584 4.787994,-4.48583 0.832087,0.88787 -4.787992,4.48583 -4.787994,4.48584 z"
       id="path6036" />
    <path
       style="fill:#ffffff;fill-opacity:1;fill-rule:evenodd;stroke:none;stroke-width:0.123108"
       d="m 15.135367,210.99484 c -0.102268,-0.0976 -0.204536,-0.19989 -0.302155,-0.30216 l 4.787994,-4.48584 z"
       id="path6038" />
    <path
       style="fill:#ffffff;fill-opacity:1;fill-rule:evenodd;stroke:none;stroke-width:0.123108"
       d="m 15.135367,210.99484 4.485839,-4.788 4.485837,-4.78799 0.887872,0.83209 -4.485839,4.78799 -4.485838,4.788 z"
       id="path6040" />
    <path
       style="fill:#ffffff;fill-opacity:1;fill-rule:evenodd;stroke:none;stroke-width:0.123108"
       d="m 16.357932,212.11978 c -0.116213,-0.093 -0.227778,-0.19059 -0.334694,-0.29285 l 4.485838,-4.788 z"
       id="path6042" />
    <path
       style="fill:#ffffff;fill-opacity:1;fill-rule:evenodd;stroke:none;stroke-width:0.123108"
       d="m 16.357932,212.11978 4.151144,-5.08085 4.151144,-5.08085 0.939004,0.76701 -4.151144,5.08085 -4.151143,5.08085 z"
       id="path6044" />
    <path
       style="fill:#ffffff;fill-opacity:1;fill-rule:evenodd;stroke:none;stroke-width:0.123108"
       d="m 17.622334,213.13317 c -0.111564,-0.079 -0.218481,-0.15806 -0.325397,-0.24638 l 4.151143,-5.08085 z"
       id="path6046" />
    <path
       style="fill:#ffffff;fill-opacity:1;fill-rule:evenodd;stroke:none;stroke-width:0.123108"
       d="m 17.622334,213.13317 3.825746,-5.32723 3.825747,-5.32722 0.990139,0.71123 -3.825747,5.32722 -3.825746,5.32722 z"
       id="path6048" />
    <path
       style="fill:#ffffff;fill-opacity:1;fill-rule:evenodd;stroke:none;stroke-width:0.123108"
       d="m 18.965762,214.08611 c -0.120863,-0.0744 -0.237076,-0.15804 -0.353289,-0.24172 l 3.825746,-5.32722 z"
       id="path6050" />
    <path
       style="fill:#ffffff;fill-opacity:1;fill-rule:evenodd;stroke:none;stroke-width:0.123108"
       d="m 18.965762,214.08611 3.472457,-5.56894 3.472457,-5.56896 1.036624,0.64615 -3.472458,5.56896 -3.472456,5.56894 z"
       id="path6052" />
    <path
       style="fill:#ffffff;fill-opacity:1;fill-rule:evenodd;stroke:none;stroke-width:0.123108"
       d="m 20.383565,214.95074 c -0.06508,-0.0325 -0.12551,-0.0697 -0.19059,-0.10692 -0.06508,-0.0372 -0.125511,-0.0744 -0.190589,-0.11156 l 3.472456,-5.56894 z"
       id="path6054" />
    <path
       style="fill:#ffffff;fill-opacity:1;fill-rule:evenodd;stroke:none;stroke-width:0.123108"
       d="m 20.383565,214.95074 3.091277,-5.78742 3.091278,-5.78744 1.078461,0.57642 -3.091277,5.78744 -3.091278,5.78742 z"
       id="path6056" />
    <path
       style="fill:#ffffff;fill-opacity:1;fill-rule:evenodd;stroke:none;stroke-width:0.123108"
       d="m 21.843206,215.7131 c -0.130159,-0.0558 -0.255669,-0.12087 -0.38118,-0.18594 l 3.091278,-5.78742 z"
       id="path6058" />
    <path
       style="fill:#ffffff;fill-opacity:1;fill-rule:evenodd;stroke:none;stroke-width:0.123108"
       d="m 21.843206,215.7131 2.710098,-5.97336 2.710097,-5.97337 1.106351,0.50203 -2.710097,5.97337 -2.710097,5.97337 z"
       id="path6060" />
    <path
       style="fill:#ffffff;fill-opacity:1;fill-rule:evenodd;stroke:none;stroke-width:0.123108"
       d="m 23.35398,216.38249 c -0.139455,-0.0511 -0.274263,-0.10692 -0.404422,-0.16735 l 2.710097,-5.97337 z"
       id="path6062" />
    <path
       style="fill:#ffffff;fill-opacity:1;fill-rule:evenodd;stroke:none;stroke-width:0.123108"
       d="m 23.35398,216.38249 2.305675,-6.14072 2.305675,-6.14071 1.138891,0.42766 -2.305674,6.14072 -2.305675,6.14072 z"
       id="path6064" />
    <path
       style="fill:#ffffff;fill-opacity:1;fill-rule:evenodd;stroke:none;stroke-width:0.123108"
       d="m 24.887998,216.94496 c -0.130159,-0.0372 -0.264967,-0.0837 -0.395126,-0.1348 l 2.305675,-6.14072 z"
       id="path6066" />
    <path
       style="fill:#ffffff;fill-opacity:1;fill-rule:evenodd;stroke:none;stroke-width:0.123108"
       d="m 24.887998,216.94496 1.910549,-6.27552 1.910549,-6.27553 1.162134,0.3533 -1.910549,6.27553 -1.910548,6.27551 z"
       id="path6068" />
    <path
       style="fill:#ffffff;fill-opacity:1;fill-rule:evenodd;stroke:none;stroke-width:0.123108"
       d="m 26.477797,217.41446 c -0.144104,-0.0325 -0.28356,-0.0697 -0.427664,-0.11621 l 1.910548,-6.27551 z"
       id="path6070" />
    <path
       style="fill:#ffffff;fill-opacity:1;fill-rule:evenodd;stroke:none;stroke-width:0.123108"
       d="m 26.477797,217.41446 1.482884,-6.39172 1.482883,-6.39174 1.180729,0.27425 -1.482884,6.39174 -1.482882,6.39175 z"
       id="path6072" />
    <path
       style="fill:#ffffff;fill-opacity:1;fill-rule:evenodd;stroke:none;stroke-width:0.123108"
       d="m 28.062949,217.76776 c -0.134808,-0.0233 -0.269615,-0.0465 -0.404422,-0.079 l 1.482882,-6.39175 z"
       id="path6074" />
    <path
       style="fill:#ffffff;fill-opacity:1;fill-rule:evenodd;stroke:none;stroke-width:0.123108"
       d="m 28.062949,217.76776 1.07846,-6.47077 1.078461,-6.47076 1.199323,0.19988 -1.078461,6.47076 -1.078461,6.47077 z"
       id="path6076" />
    <path
       style="fill:#ffffff;fill-opacity:1;fill-rule:evenodd;stroke:none;stroke-width:0.123108"
       d="m 29.713179,218.02807 c -0.148753,-0.014 -0.302155,-0.0325 -0.450908,-0.0604 l 1.078461,-6.47077 z"
       id="path6078" />
    <path
       style="fill:#ffffff;fill-opacity:1;fill-rule:evenodd;stroke:none;stroke-width:0.123108"
       d="m 29.713179,218.02807 0.627553,-6.5312 0.627552,-6.53118 1.213269,0.11621 -0.627552,6.53119 -0.627553,6.5312 z"
       id="path6080" />
    <path
       style="fill:#ffffff;fill-opacity:1;fill-rule:evenodd;stroke:none;stroke-width:0.123108"
       d="m 31.33087,218.17218 c -0.134807,-0.005 -0.269614,-0.014 -0.404422,-0.0279 l 0.627553,-6.53119 z"
       id="path6082" />
    <path
       style="fill:#ffffff;fill-opacity:1;fill-rule:evenodd;stroke:none;stroke-width:0.123108"
       d="m 31.33087,218.17218 0.223131,-6.55909 0.223129,-6.55908 1.217917,0.0418 -0.22313,6.55909 -0.22313,6.55908 z"
       id="path6084" />
    <path
       style="fill:#ffffff;fill-opacity:1;fill-rule:evenodd;stroke:none;stroke-width:0.123108"
       d="m 32.771917,218.21867 c -0.07438,0 -0.148753,-0.005 -0.22313,-0.005 l 0.22313,-6.55908 z"
       id="path6086" />
    <path
       style="fill:#ffffff;fill-opacity:1;fill-rule:evenodd;stroke:none;stroke-width:0.123108"
       d="m 32.771917,218.21867 v -6.56374 -6.55909 h 83.534213 v 6.55909 6.56374 z"
       id="path6088" />
    <path
       style="fill:#ffffff;fill-opacity:1;fill-rule:evenodd;stroke:none;stroke-width:0.123108"
       d="m 116.30613,205.09584 c 1.15283,0 2.28243,0.30216 3.28187,0.87857 0.9297,0.53459 1.71531,1.2923 2.28243,2.20341 l -5.5643,3.47711 z"
       id="path6090" />
    <path
       style="fill:#ffffff;fill-opacity:1;fill-rule:evenodd;stroke:none;stroke-width:0.123108"
       d="m 110.74183,215.13203 5.5643,-3.4771 5.5643,-3.47711 26.56638,42.50622 -5.56428,3.47711 -5.56431,3.47711 z"
       id="path6092" />
    <path
       style="fill:#ffffff;fill-opacity:1;fill-rule:evenodd;stroke:none;stroke-width:0.123108"
       d="m 148.42287,257.65685 c -0.56711,0.90182 -1.34808,1.65488 -2.26848,2.18481 -0.99944,0.57642 -2.12903,0.88323 -3.28186,0.88323 -1.15284,0 -2.28245,-0.3068 -3.28188,-0.88323 -0.9297,-0.53457 -1.71531,-1.29229 -2.28243,-2.2034 l 5.56431,-3.47711 z"
       id="path6094" />
    <path
       style="fill:#ffffff;fill-opacity:1;fill-rule:evenodd;stroke:none;stroke-width:0.123108"
       d="m 148.42287,257.65685 -5.55034,-3.4957 -5.55036,-3.49569 27.15676,-43.09659 5.55034,3.4957 5.55036,3.49569 z"
       id="path6096" />
    <path
       style="fill:#ffffff;fill-opacity:1;fill-rule:evenodd;stroke:none;stroke-width:0.123108"
       d="m 164.47893,207.56887 c 0.56711,-0.90182 1.34807,-1.65489 2.26848,-2.18482 0.99943,-0.57642 2.12902,-0.87858 3.28186,-0.87858 0.014,0 0.0326,0 0.0465,0 l -0.0465,6.5591 z"
       id="path6098" />
    <path
       style="fill:#ffffff;fill-opacity:1;fill-rule:evenodd;stroke:none;stroke-width:0.123108"
       d="m 169.98278,217.62365 0.0465,-6.55908 0.0465,-6.5591 82.94385,0.59037 -0.0465,6.55909 -0.0465,6.55908 z"
       id="path6100" />
    <path
       style="fill:#ffffff;fill-opacity:1;fill-rule:evenodd;stroke:none;stroke-width:0.123108"
       d="m 252.97312,218.21867 c -0.014,0 -0.0325,-0.005 -0.0465,-0.005 l 0.0465,-6.55908 z"
       id="path6102" />
    <path
       style="fill:#ffffff;fill-opacity:1;fill-rule:evenodd;stroke:none;stroke-width:0.123108"
       d="m 252.97312,218.21867 v -6.56374 -6.55909 h 0.005 v 6.55909 6.56374 z"
       id="path6104" />
    <path
       style="fill:#ffffff;fill-opacity:1;fill-rule:evenodd;stroke:none;stroke-width:0.123108"
       d="m 253.2009,218.21401 c -0.0744,0 -0.14876,0.005 -0.22312,0.005 v -6.56374 z"
       id="path6106" />
    <path
       style="fill:#ffffff;fill-opacity:1;fill-rule:evenodd;stroke:none;stroke-width:0.123108"
       d="m 253.2009,218.21401 -0.22312,-6.55908 -0.22314,-6.55909 1.21792,-0.0418 0.22313,6.55908 0.22314,6.55909 z"
       id="path6108" />
    <path
       style="fill:#ffffff;fill-opacity:1;fill-rule:evenodd;stroke:none;stroke-width:0.123108"
       d="m 254.82324,218.14429 c -0.13481,0.0139 -0.26961,0.0232 -0.40442,0.0279 l -0.22313,-6.55909 z"
       id="path6110" />
    <path
       style="fill:#ffffff;fill-opacity:1;fill-rule:evenodd;stroke:none;stroke-width:0.123108"
       d="m 254.82324,218.14429 -0.62755,-6.5312 -0.62754,-6.53119 1.21325,-0.11621 0.62757,6.53118 0.62756,6.5312 z"
       id="path6112" />
    <path
       style="fill:#ffffff;fill-opacity:1;fill-rule:evenodd;stroke:none;stroke-width:0.123108"
       d="m 256.48741,217.96764 c -0.14875,0.0279 -0.30214,0.0465 -0.45089,0.0604 l -0.62756,-6.5312 z"
       id="path6114" />
    <path
       style="fill:#ffffff;fill-opacity:1;fill-rule:evenodd;stroke:none;stroke-width:0.123108"
       d="m 256.48741,217.96764 -1.07844,-6.47077 -1.07847,-6.47076 1.19932,-0.19988 1.07847,6.47076 1.07844,6.47077 z"
       id="path6116" />
    <path
       style="fill:#ffffff;fill-opacity:1;fill-rule:evenodd;stroke:none;stroke-width:0.123108"
       d="m 258.09116,217.68874 c -0.1348,0.0325 -0.26961,0.0558 -0.40443,0.079 l -1.07844,-6.47077 z"
       id="path6118" />
    <path
       style="fill:#ffffff;fill-opacity:1;fill-rule:evenodd;stroke:none;stroke-width:0.123108"
       d="m 258.09116,217.68874 -1.48288,-6.39175 -1.48288,-6.39174 1.18072,-0.27425 1.48289,6.39174 1.48288,6.39172 z"
       id="path6120" />
    <path
       style="fill:#ffffff;fill-opacity:1;fill-rule:evenodd;stroke:none;stroke-width:0.123108"
       d="m 259.69956,217.29825 c -0.14411,0.0465 -0.28356,0.0837 -0.42766,0.11621 l -1.48289,-6.39172 z"
       id="path6122" />
    <path
       style="fill:#ffffff;fill-opacity:1;fill-rule:evenodd;stroke:none;stroke-width:0.123108"
       d="m 259.69956,217.29825 -1.91055,-6.27551 -1.91055,-6.27553 1.16213,-0.3533 1.91055,6.27553 1.91055,6.27552 z"
       id="path6124" />
    <path
       style="fill:#ffffff;fill-opacity:1;fill-rule:evenodd;stroke:none;stroke-width:0.123108"
       d="m 261.25682,216.81016 c -0.13016,0.0511 -0.26497,0.0976 -0.39513,0.1348 l -1.91055,-6.27552 z"
       id="path6126" />
    <path
       style="fill:#ffffff;fill-opacity:1;fill-rule:evenodd;stroke:none;stroke-width:0.123108"
       d="m 261.25682,216.81016 -2.30568,-6.14072 -2.30567,-6.14072 1.13889,-0.42766 2.30567,6.14071 2.30568,6.14072 z"
       id="path6128" />
    <path
       style="fill:#ffffff;fill-opacity:1;fill-rule:evenodd;stroke:none;stroke-width:0.123108"
       d="m 262.80013,216.21514 c -0.13017,0.0604 -0.26495,0.11622 -0.40442,0.16735 l -2.30568,-6.14072 z"
       id="path6130" />
    <path
       style="fill:#ffffff;fill-opacity:1;fill-rule:evenodd;stroke:none;stroke-width:0.123108"
       d="m 262.80013,216.21514 -2.7101,-5.97337 -2.71008,-5.97337 1.10635,-0.50203 2.7101,5.97337 2.71009,5.97336 z"
       id="path6132" />
    <path
       style="fill:#ffffff;fill-opacity:1;fill-rule:evenodd;stroke:none;stroke-width:0.123108"
       d="m 264.28766,215.52716 c -0.12551,0.0651 -0.25101,0.13016 -0.38117,0.18594 l -2.71009,-5.97336 z"
       id="path6134" />
    <path
       style="fill:#ffffff;fill-opacity:1;fill-rule:evenodd;stroke:none;stroke-width:0.123108"
       d="m 264.28766,215.52716 -3.09127,-5.78742 -3.09129,-5.78744 1.07847,-0.57642 3.09128,5.78744 3.09128,5.78742 z"
       id="path6136" />
    <path
       style="fill:#ffffff;fill-opacity:1;fill-rule:evenodd;stroke:none;stroke-width:0.123108"
       d="m 265.74731,214.73226 c -0.0651,0.0372 -0.12551,0.0744 -0.1906,0.11156 -0.0651,0.0372 -0.12551,0.0744 -0.19058,0.10692 l -3.09128,-5.78742 z"
       id="path6138" />
    <path
       style="fill:#ffffff;fill-opacity:1;fill-rule:evenodd;stroke:none;stroke-width:0.123108"
       d="m 265.74731,214.73226 -3.47246,-5.56894 -3.47246,-5.56896 1.03662,-0.64615 3.47246,5.56896 3.47246,5.56894 z"
       id="path6140" />
    <path
       style="fill:#ffffff;fill-opacity:1;fill-rule:evenodd;stroke:none;stroke-width:0.123108"
       d="m 267.13722,213.84439 c -0.11622,0.0837 -0.23244,0.16734 -0.35329,0.24172 l -3.47246,-5.56894 z"
       id="path6142" />
    <path
       style="fill:#ffffff;fill-opacity:1;fill-rule:evenodd;stroke:none;stroke-width:0.123108"
       d="m 267.13722,213.84439 -3.82575,-5.32722 -3.82574,-5.32722 0.99014,-0.71123 3.82574,5.32722 3.82574,5.32723 z"
       id="path6144" />
    <path
       style="fill:#ffffff;fill-opacity:1;fill-rule:evenodd;stroke:none;stroke-width:0.123108"
       d="m 268.45275,212.88679 c -0.10692,0.0883 -0.21383,0.16734 -0.3254,0.24638 l -3.82574,-5.32723 z"
       id="path6146" />
    <path
       style="fill:#ffffff;fill-opacity:1;fill-rule:evenodd;stroke:none;stroke-width:0.123108"
       d="m 268.45275,212.88679 -4.15114,-5.08085 -4.15114,-5.08085 0.93899,-0.76701 4.15116,5.08085 4.15114,5.08085 z"
       id="path6148" />
    <path
       style="fill:#ffffff;fill-opacity:1;fill-rule:evenodd;stroke:none;stroke-width:0.123108"
       d="m 269.72646,211.82693 c -0.10692,0.10226 -0.21849,0.19988 -0.3347,0.29285 l -4.15114,-5.08085 z"
       id="path6150" />
    <path
       style="fill:#ffffff;fill-opacity:1;fill-rule:evenodd;stroke:none;stroke-width:0.123108"
       d="m 269.72646,211.82693 -4.48584,-4.788 -4.48584,-4.78799 0.88787,-0.83209 4.48584,4.78799 4.48584,4.788 z"
       id="path6152" />
    <path
       style="fill:#ffffff;fill-opacity:1;fill-rule:evenodd;stroke:none;stroke-width:0.123108"
       d="m 270.91648,210.69268 c -0.0976,0.10227 -0.19989,0.20453 -0.30215,0.30216 l -4.48584,-4.788 z"
       id="path6154" />
    <path
       style="fill:#ffffff;fill-opacity:1;fill-rule:evenodd;stroke:none;stroke-width:0.123108"
       d="m 270.91648,210.69268 -4.78799,-4.48584 -4.78799,-4.48583 0.83209,-0.88787 4.78799,4.48583 4.78798,4.48584 z"
       id="path6156" />
    <path
       style="fill:#ffffff;fill-opacity:1;fill-rule:evenodd;stroke:none;stroke-width:0.123108"
       d="m 272.04142,209.47011 c -0.093,0.11622 -0.19058,0.22778 -0.29286,0.3347 l -4.78798,-4.48584 z"
       id="path6158" />
    <path
       style="fill:#ffffff;fill-opacity:1;fill-rule:evenodd;stroke:none;stroke-width:0.123108"
       d="m 272.04142,209.47011 -5.08084,-4.15114 -5.08086,-4.15114 0.767,-0.93901 5.08086,4.15114 5.08086,4.15114 z"
       id="path6160" />
    <path
       style="fill:#ffffff;fill-opacity:1;fill-rule:evenodd;stroke:none;stroke-width:0.123108"
       d="m 273.0548,208.20572 c -0.079,0.11156 -0.15805,0.21848 -0.24636,0.32538 l -5.08085,-4.15114 z"
       id="path6162" />
    <path
       style="fill:#ffffff;fill-opacity:1;fill-rule:evenodd;stroke:none;stroke-width:0.123108"
       d="m 273.0548,208.20572 -5.32722,-3.82576 -5.32722,-3.82574 0.71122,-0.99013 5.32722,3.82574 5.32725,3.82575 z"
       id="path6164" />
    <path
       style="fill:#ffffff;fill-opacity:1;fill-rule:evenodd;stroke:none;stroke-width:0.123108"
       d="m 274.00776,206.86228 c -0.0744,0.12087 -0.15805,0.23709 -0.24171,0.3533 l -5.32725,-3.82575 z"
       id="path6166" />
    <path
       style="fill:#ffffff;fill-opacity:1;fill-rule:evenodd;stroke:none;stroke-width:0.123108"
       d="m 274.00776,206.86228 -5.56896,-3.47245 -5.56894,-3.47246 0.64614,-1.03662 5.56895,3.47245 5.56896,3.47246 z"
       id="path6168" />
    <path
       style="fill:#ffffff;fill-opacity:1;fill-rule:evenodd;stroke:none;stroke-width:0.123108"
       d="m 274.87239,205.44448 c -0.0326,0.0651 -0.0697,0.12551 -0.10692,0.1906 -0.0372,0.0651 -0.0744,0.12551 -0.11156,0.19058 l -5.56896,-3.47246 z"
       id="path6170" />
    <path
       style="fill:#ffffff;fill-opacity:1;fill-rule:evenodd;stroke:none;stroke-width:0.123108"
       d="m 274.87239,205.44448 -5.78744,-3.09128 -5.78743,-3.09127 0.57642,-1.07846 5.78743,3.09128 5.78743,3.09128 z"
       id="path6172" />
    <path
       style="fill:#ffffff;fill-opacity:1;fill-rule:evenodd;stroke:none;stroke-width:0.123108"
       d="m 275.63475,203.98485 c -0.0558,0.13015 -0.12087,0.25565 -0.18595,0.38118 l -5.78742,-3.09128 z"
       id="path6174" />
    <path
       style="fill:#ffffff;fill-opacity:1;fill-rule:evenodd;stroke:none;stroke-width:0.123108"
       d="m 275.63475,203.98485 -5.97338,-2.7101 -5.97337,-2.71011 0.50205,-1.10635 5.97337,2.7101 5.97337,2.71011 z"
       id="path6176" />
    <path
       style="fill:#ffffff;fill-opacity:1;fill-rule:evenodd;stroke:none;stroke-width:0.123108"
       d="m 276.30414,202.47407 c -0.0511,0.13945 -0.10692,0.27426 -0.16735,0.40443 l -5.97336,-2.71011 z"
       id="path6178" />
    <path
       style="fill:#ffffff;fill-opacity:1;fill-rule:evenodd;stroke:none;stroke-width:0.123108"
       d="m 276.30414,202.47407 -6.14071,-2.30568 -6.14074,-2.30568 0.42767,-1.13889 6.14072,2.30568 6.14071,2.30567 z"
       id="path6180" />
    <path
       style="fill:#ffffff;fill-opacity:1;fill-rule:evenodd;stroke:none;stroke-width:0.123108"
       d="m 276.86661,200.94006 c -0.0372,0.13015 -0.0837,0.26496 -0.13482,0.39511 l -6.14071,-2.30567 z"
       id="path6182" />
    <path
       style="fill:#ffffff;fill-opacity:1;fill-rule:evenodd;stroke:none;stroke-width:0.123108"
       d="m 276.86661,200.94006 -6.27553,-1.91056 -6.27552,-1.91054 0.35328,-1.16214 6.27553,1.91055 6.27552,1.91054 z"
       id="path6184" />
    <path
       style="fill:#ffffff;fill-opacity:1;fill-rule:evenodd;stroke:none;stroke-width:0.123108"
       d="m 277.33611,199.35025 c -0.0325,0.14411 -0.0697,0.28356 -0.11622,0.42766 l -6.27552,-1.91054 z"
       id="path6186" />
    <path
       style="fill:#ffffff;fill-opacity:1;fill-rule:evenodd;stroke:none;stroke-width:0.123108"
       d="m 277.33611,199.35025 -6.39174,-1.48288 -6.39174,-1.48289 0.27426,-1.18072 6.39174,1.48287 6.39175,1.48289 z"
       id="path6188" />
    <path
       style="fill:#ffffff;fill-opacity:1;fill-rule:evenodd;stroke:none;stroke-width:0.123108"
       d="m 277.68939,197.7651 c -0.0232,0.13481 -0.0465,0.26961 -0.079,0.40442 l -6.39174,-1.48289 z"
       id="path6190" />
    <path
       style="fill:#ffffff;fill-opacity:1;fill-rule:evenodd;stroke:none;stroke-width:0.123108"
       d="m 277.68939,197.7651 -6.47076,-1.07847 -6.47077,-1.07845 0.19989,-1.19932 6.47077,1.07845 6.47076,1.07847 z"
       id="path6192" />
    <path
       style="fill:#ffffff;fill-opacity:1;fill-rule:evenodd;stroke:none;stroke-width:0.123108"
       d="m 277.94972,196.11487 c -0.014,0.14875 -0.0325,0.30216 -0.0604,0.45091 l -6.47076,-1.07847 z"
       id="path6194" />
    <path
       style="fill:#ffffff;fill-opacity:1;fill-rule:evenodd;stroke:none;stroke-width:0.123108"
       d="m 277.94972,196.11487 -6.5312,-0.62756 -6.5312,-0.62754 0.11622,-1.21327 6.53119,0.62754 6.5312,0.62756 z"
       id="path6196" />
    <path
       style="fill:#ffffff;fill-opacity:1;fill-rule:evenodd;stroke:none;stroke-width:0.123108"
       d="m 278.09382,194.49718 c -0.005,0.1348 -0.0139,0.26961 -0.0279,0.40442 l -6.53119,-0.62756 z"
       id="path6198" />
    <path
       style="fill:#ffffff;fill-opacity:1;fill-rule:evenodd;stroke:none;stroke-width:0.123108"
       d="m 278.09382,194.49718 -6.55909,-0.22314 -6.55908,-0.22312 0.0418,-1.21792 6.55908,0.22313 6.5591,0.22314 z"
       id="path6200" />
    <path
       style="fill:#ffffff;fill-opacity:1;fill-rule:evenodd;stroke:none;stroke-width:0.123108"
       d="m 278.1403,193.05613 c 0,0.0744 -0.005,0.14875 -0.005,0.22314 l -6.5591,-0.22314 z"
       id="path6202" />
    <path
       style="fill:#ffffff;fill-opacity:1;fill-rule:evenodd;stroke:none;stroke-width:0.123108"
       d="m 278.1403,193.05613 h -6.56373 -6.55908 V 50.187995 h 6.55908 6.56373 z"
       id="path6204" />
    <path
       style="fill:#ffffff;fill-opacity:1;fill-rule:evenodd;stroke:none;stroke-width:0.123108"
       d="m 278.13566,49.964865 c 0,0.0744 0.005,0.14875 0.005,0.22313 v 0 h -6.56373 z"
       id="path6206" />
    <path
       style="fill:#ffffff;fill-opacity:1;fill-rule:evenodd;stroke:none;stroke-width:0.123108"
       d="m 278.13566,49.964865 -6.5591,0.22313 -6.55908,0.22313 -0.0418,-1.21792 6.55908,-0.22313 6.55909,-0.22313 z"
       id="path6208" />
    <path
       style="fill:#ffffff;fill-opacity:1;fill-rule:evenodd;stroke:none;stroke-width:0.123108"
       d="m 278.06593,48.342525 c 0.014,0.1348 0.0232,0.26961 0.0279,0.40442 l -6.55908,0.22313 z"
       id="path6210" />
    <path
       style="fill:#ffffff;fill-opacity:1;fill-rule:evenodd;stroke:none;stroke-width:0.123108"
       d="m 278.06593,48.342525 -6.5312,0.62755 -6.53119,0.62755 -0.11622,-1.21327 6.5312,-0.62755 6.5312,-0.62755 z"
       id="path6212" />
    <path
       style="fill:#ffffff;fill-opacity:1;fill-rule:evenodd;stroke:none;stroke-width:0.123108"
       d="m 277.88928,46.678345 c 0.0279,0.14875 0.0465,0.30215 0.0604,0.45091 l -6.5312,0.62755 z"
       id="path6214" />
    <path
       style="fill:#ffffff;fill-opacity:1;fill-rule:evenodd;stroke:none;stroke-width:0.123108"
       d="m 277.88928,46.678345 -6.47076,1.07846 -6.47077,1.07846 -0.19989,-1.19932 6.47077,-1.07846 6.47076,-1.07846 z"
       id="path6216" />
    <path
       style="fill:#ffffff;fill-opacity:1;fill-rule:evenodd;stroke:none;stroke-width:0.123108"
       d="m 277.61037,45.074605 c 0.0325,0.1348 0.0558,0.26961 0.079,0.40442 l -6.47076,1.07846 z"
       id="path6218" />
    <path
       style="fill:#ffffff;fill-opacity:1;fill-rule:evenodd;stroke:none;stroke-width:0.123108"
       d="m 277.61037,45.074605 -6.39174,1.48288 -6.39174,1.48288 -0.27426,-1.18073 6.39174,-1.48288 6.39174,-1.48288 z"
       id="path6220" />
    <path
       style="fill:#ffffff;fill-opacity:1;fill-rule:evenodd;stroke:none;stroke-width:0.123108"
       d="m 277.21989,43.466205 c 0.0465,0.14411 0.0837,0.28356 0.11622,0.42767 l -6.39174,1.48288 z"
       id="path6222" />
    <path
       style="fill:#ffffff;fill-opacity:1;fill-rule:evenodd;stroke:none;stroke-width:0.123108"
       d="m 277.21989,43.466205 -6.27552,1.91055 -6.27553,1.91055 -0.35328,-1.16214 6.27552,-1.91054 6.27553,-1.91055 z"
       id="path6224" />
    <path
       style="fill:#ffffff;fill-opacity:1;fill-rule:evenodd;stroke:none;stroke-width:0.123108"
       d="m 276.73179,41.908945 c 0.0511,0.13016 0.0976,0.26497 0.13482,0.39513 l -6.27553,1.91055 z"
       id="path6226" />
    <path
       style="fill:#ffffff;fill-opacity:1;fill-rule:evenodd;stroke:none;stroke-width:0.123108"
       d="m 276.73179,41.908945 -6.14071,2.30568 -6.14072,2.30567 -0.42767,-1.13889 6.14074,-2.30568 6.14071,-2.30567 z"
       id="path6228" />
    <path
       style="fill:#ffffff;fill-opacity:1;fill-rule:evenodd;stroke:none;stroke-width:0.123108"
       d="m 276.13679,40.365635 c 0.0604,0.13016 0.11622,0.26496 0.16735,0.40442 l -6.14071,2.30567 z"
       id="path6230" />
    <path
       style="fill:#ffffff;fill-opacity:1;fill-rule:evenodd;stroke:none;stroke-width:0.123108"
       d="m 276.13679,40.365635 -5.97336,2.71009 -5.97337,2.7101 -0.50205,-1.10635 5.97337,-2.7101 5.97338,-2.71009 z"
       id="path6232" />
    <path
       style="fill:#ffffff;fill-opacity:1;fill-rule:evenodd;stroke:none;stroke-width:0.123108"
       d="m 275.4488,38.878095 c 0.0651,0.12552 0.13016,0.25103 0.18595,0.38119 l -5.97338,2.71009 z"
       id="path6234" />
    <path
       style="fill:#ffffff;fill-opacity:1;fill-rule:evenodd;stroke:none;stroke-width:0.123108"
       d="m 275.4488,38.878095 -5.78742,3.09128 -5.78743,3.09128 -0.57642,-1.07846 5.78743,-3.09128 5.78744,-3.09128 z"
       id="path6236" />
    <path
       style="fill:#ffffff;fill-opacity:1;fill-rule:evenodd;stroke:none;stroke-width:0.123108"
       d="m 274.65391,37.418455 c 0.0372,0.0651 0.0744,0.12551 0.11156,0.19059 0.0372,0.0651 0.0744,0.12552 0.10692,0.19059 l -5.78744,3.09128 z"
       id="path6238" />
    <path
       style="fill:#ffffff;fill-opacity:1;fill-rule:evenodd;stroke:none;stroke-width:0.123108"
       d="m 274.65391,37.418455 -5.56896,3.47246 -5.56895,3.47246 -0.64614,-1.03663 5.56894,-3.47245 5.56896,-3.47246 z"
       id="path6240" />
    <path
       style="fill:#ffffff;fill-opacity:1;fill-rule:evenodd;stroke:none;stroke-width:0.123108"
       d="m 273.76604,36.028545 c 0.0837,0.11621 0.16734,0.23243 0.24172,0.35329 l -5.56896,3.47246 z"
       id="path6242" />
    <path
       style="fill:#ffffff;fill-opacity:1;fill-rule:evenodd;stroke:none;stroke-width:0.123108"
       d="m 273.76604,36.028545 -5.32724,3.82575 -5.32722,3.82574 -0.71122,-0.99013 5.32722,-3.82575 5.32722,-3.82575 z"
       id="path6244" />
    <path
       style="fill:#ffffff;fill-opacity:1;fill-rule:evenodd;stroke:none;stroke-width:0.123108"
       d="m 272.80844,34.713015 c 0.0883,0.10691 0.16735,0.21383 0.24636,0.32539 l -5.32722,3.82575 z"
       id="path6246" />
    <path
       style="fill:#ffffff;fill-opacity:1;fill-rule:evenodd;stroke:none;stroke-width:0.123108"
       d="m 272.80844,34.713015 -5.08085,4.15114 -5.08086,4.15114 -0.767,-0.939 5.08086,-4.15115 5.08084,-4.15114 z"
       id="path6248" />
    <path
       style="fill:#ffffff;fill-opacity:1;fill-rule:evenodd;stroke:none;stroke-width:0.123108"
       d="m 271.74856,33.439315 c 0.10228,0.10691 0.19989,0.21848 0.29286,0.33469 l -5.08084,4.15114 z"
       id="path6250" />
    <path
       style="fill:#ffffff;fill-opacity:1;fill-rule:evenodd;stroke:none;stroke-width:0.123108"
       d="m 271.74856,33.439315 -4.78798,4.48583 -4.78799,4.48584 -0.83209,-0.88787 4.78799,-4.48584 4.78799,-4.48583 z"
       id="path6252" />
    <path
       style="fill:#ffffff;fill-opacity:1;fill-rule:evenodd;stroke:none;stroke-width:0.123108"
       d="m 270.61433,32.249285 c 0.10226,0.0976 0.20453,0.19989 0.30215,0.30216 l -4.78799,4.48583 z"
       id="path6254" />
    <path
       style="fill:#ffffff;fill-opacity:1;fill-rule:evenodd;stroke:none;stroke-width:0.123108"
       d="m 270.61433,32.249285 -4.48584,4.78799 -4.48584,4.788 -0.88787,-0.83209 4.48584,-4.78799 4.48584,-4.788 z"
       id="path6256" />
    <path
       style="fill:#ffffff;fill-opacity:1;fill-rule:evenodd;stroke:none;stroke-width:0.123108"
       d="m 269.39176,31.124335 c 0.11621,0.093 0.22778,0.19059 0.3347,0.29286 l -4.48584,4.788 z"
       id="path6258" />
    <path
       style="fill:#ffffff;fill-opacity:1;fill-rule:evenodd;stroke:none;stroke-width:0.123108"
       d="m 269.39176,31.124335 -4.15114,5.08086 -4.15116,5.08085 -0.93899,-0.76701 4.15114,-5.08085 4.15114,-5.08085 z"
       id="path6260" />
    <path
       style="fill:#ffffff;fill-opacity:1;fill-rule:evenodd;stroke:none;stroke-width:0.123108"
       d="m 268.12735,30.110955 c 0.11157,0.079 0.21848,0.15805 0.3254,0.24638 l -4.15114,5.08085 z"
       id="path6262" />
    <path
       style="fill:#ffffff;fill-opacity:1;fill-rule:evenodd;stroke:none;stroke-width:0.123108"
       d="m 268.12735,30.110955 -3.82574,5.32723 -3.82574,5.32722 -0.99014,-0.71122 3.82574,-5.32723 3.82575,-5.32722 z"
       id="path6264" />
    <path
       style="fill:#ffffff;fill-opacity:1;fill-rule:evenodd;stroke:none;stroke-width:0.123108"
       d="m 266.78393,29.158005 c 0.12085,0.0744 0.23707,0.15805 0.35329,0.24173 l -3.82575,5.32722 z"
       id="path6266" />
    <path
       style="fill:#ffffff;fill-opacity:1;fill-rule:evenodd;stroke:none;stroke-width:0.123108"
       d="m 266.78393,29.158005 -3.47246,5.56895 -3.47246,5.56895 -1.03662,-0.64615 3.47246,-5.56895 3.47246,-5.56894 z"
       id="path6268" />
    <path
       style="fill:#ffffff;fill-opacity:1;fill-rule:evenodd;stroke:none;stroke-width:0.123108"
       d="m 265.36613,28.293385 c 0.0651,0.0325 0.12551,0.0697 0.19058,0.10691 0.0651,0.0372 0.12552,0.0744 0.19061,0.11157 l -3.47247,5.56894 z"
       id="path6270" />
    <path
       style="fill:#ffffff;fill-opacity:1;fill-rule:evenodd;stroke:none;stroke-width:0.123108"
       d="m 265.36613,28.293385 -3.09128,5.78742 -3.09127,5.78743 -1.07847,-0.57641 3.09129,-5.78743 3.09127,-5.78743 z"
       id="path6272" />
    <path
       style="fill:#ffffff;fill-opacity:1;fill-rule:evenodd;stroke:none;stroke-width:0.123108"
       d="m 263.90648,27.531025 c 0.13016,0.0558 0.25567,0.12086 0.38118,0.18594 l -3.09127,5.78743 z"
       id="path6274" />
    <path
       style="fill:#ffffff;fill-opacity:1;fill-rule:evenodd;stroke:none;stroke-width:0.123108"
       d="m 263.90648,27.531025 -2.71009,5.97337 -2.7101,5.97337 -1.10635,-0.50205 2.71009,-5.97337 2.7101,-5.97337 z"
       id="path6276" />
    <path
       style="fill:#ffffff;fill-opacity:1;fill-rule:evenodd;stroke:none;stroke-width:0.123108"
       d="m 262.39571,26.861635 c 0.13946,0.0511 0.27425,0.10691 0.40442,0.16734 l -2.7101,5.97337 z"
       id="path6278" />
    <path
       style="fill:#ffffff;fill-opacity:1;fill-rule:evenodd;stroke:none;stroke-width:0.123108"
       d="m 262.39571,26.861635 -2.30568,6.14071 -2.30567,6.14072 -1.13889,-0.42766 2.30567,-6.14072 2.30568,-6.14072 z"
       id="path6280" />
    <path
       style="fill:#ffffff;fill-opacity:1;fill-rule:evenodd;stroke:none;stroke-width:0.123108"
       d="m 260.86169,26.299155 c 0.13016,0.0372 0.26497,0.0837 0.39513,0.13481 l -2.30568,6.14072 z"
       id="path6282" />
    <path
       style="fill:#ffffff;fill-opacity:1;fill-rule:evenodd;stroke:none;stroke-width:0.123108"
       d="m 260.86169,26.299155 -1.91055,6.27553 -1.91055,6.27552 -1.16213,-0.35328 1.91055,-6.27553 1.91055,-6.27553 z"
       id="path6284" />
    <path
       style="fill:#ffffff;fill-opacity:1;fill-rule:evenodd;stroke:none;stroke-width:0.123108"
       d="m 259.27189,25.829655 c 0.14411,0.0325 0.28356,0.0697 0.42767,0.11621 l -1.91055,6.27553 z"
       id="path6286" />
    <path
       style="fill:#ffffff;fill-opacity:1;fill-rule:evenodd;stroke:none;stroke-width:0.123108"
       d="m 259.27189,25.829655 -1.48288,6.39174 -1.48289,6.39174 -1.18072,-0.27427 1.48288,-6.39173 1.48288,-6.39174 z"
       id="path6288" />
    <path
       style="fill:#ffffff;fill-opacity:1;fill-rule:evenodd;stroke:none;stroke-width:0.123108"
       d="m 257.68673,25.476365 c 0.13482,0.0232 0.26963,0.0465 0.40443,0.079 l -1.48288,6.39174 z"
       id="path6290" />
    <path
       style="fill:#ffffff;fill-opacity:1;fill-rule:evenodd;stroke:none;stroke-width:0.123108"
       d="m 257.68673,25.476365 -1.07844,6.47077 -1.07847,6.47076 -1.19932,-0.19989 1.07847,-6.47076 1.07844,-6.47076 z"
       id="path6292" />
    <path
       style="fill:#ffffff;fill-opacity:1;fill-rule:evenodd;stroke:none;stroke-width:0.123108"
       d="m 256.03652,25.216045 c 0.14875,0.0139 0.30214,0.0325 0.45089,0.0604 l -1.07844,6.47076 z"
       id="path6294" />
    <path
       style="fill:#ffffff;fill-opacity:1;fill-rule:evenodd;stroke:none;stroke-width:0.123108"
       d="m 256.03652,25.216045 -0.62756,6.5312 -0.62756,6.53119 -1.21326,-0.11621 0.62755,-6.53119 0.62755,-6.5312 z"
       id="path6296" />
    <path
       style="fill:#ffffff;fill-opacity:1;fill-rule:evenodd;stroke:none;stroke-width:0.123108"
       d="m 254.41882,25.071945 c 0.13481,0.005 0.26961,0.0139 0.40442,0.0279 l -0.62755,6.53119 z"
       id="path6298" />
    <path
       style="fill:#ffffff;fill-opacity:1;fill-rule:evenodd;stroke:none;stroke-width:0.123108"
       d="m 254.41882,25.071945 -0.22313,6.55909 -0.22313,6.55908 -1.21792,-0.0418 0.22314,-6.55908 0.22312,-6.55909 z"
       id="path6300" />
    <path
       style="fill:#ffffff;fill-opacity:1;fill-rule:evenodd;stroke:none;stroke-width:0.123108"
       d="m 252.97778,25.025455 c 0.0744,0 0.14875,0.005 0.22312,0.005 l -0.22312,6.55908 z"
       id="path6302" />
    <path
       style="fill:#ffffff;fill-opacity:1;fill-rule:evenodd;stroke:none;stroke-width:0.123108"
       d="m 252.97778,25.025455 v 6.56374 6.56373 H 32.771917 v -6.56373 -6.56374 z"
       id="path6304" />
    <path
       style="fill:#ffffff;fill-opacity:1;fill-rule:evenodd;stroke:none;stroke-width:0.123108"
       d="m 126.26795,96.236405 h 6.56373 c 0,2.80306 -0.37189,5.582885 -1.0924,8.265095 l -6.33596,-1.69672 -6.34061,-1.70137 c 0.42767,-1.580495 0.64615,-3.216775 0.64615,-4.867005 z"
       id="path6306" />
    <path
       style="fill:#ffffff;fill-opacity:1;fill-rule:evenodd;stroke:none;stroke-width:0.123108"
       d="m 125.40332,102.80478 6.33596,1.69672 c -0.72053,2.68685 -1.7897,5.27609 -3.19355,7.70727 l -5.6805,-3.28187 -5.68052,-3.28186 c 0.82279,-1.43176 1.45499,-2.95647 1.878,-4.54163 z"
       id="path6308" />
    <path
       style="fill:#ffffff;fill-opacity:1;fill-rule:evenodd;stroke:none;stroke-width:0.123108"
       d="m 122.86522,108.9269 5.68051,3.28187 c -1.39921,2.42654 -3.10987,4.64854 -5.07621,6.61487 l -4.63923,-4.63924 -4.63925,-4.63924 c 1.15749,-1.15748 2.16622,-2.46836 2.99366,-3.90012 z"
       id="path6310" />
    <path
       style="fill:#ffffff;fill-opacity:1;fill-rule:evenodd;stroke:none;stroke-width:0.123108"
       d="m 118.83029,114.1844 4.63923,4.63924 c -1.96633,1.96633 -4.18833,3.67699 -6.61486,5.0762 l -3.28187,-5.68051 -3.28187,-5.68051 c 1.43175,-0.82744 2.74264,-1.83618 3.90012,-2.99366 z"
       id="path6312" />
    <path
       style="fill:#ffffff;fill-opacity:1;fill-rule:evenodd;stroke:none;stroke-width:0.123108"
       d="m 113.57279,118.21933 3.28187,5.68051 c -2.43119,1.40386 -5.02042,2.47303 -7.70263,3.19355 l -1.70136,-6.33596 -1.70137,-6.3406 c 1.58515,-0.42302 3.10987,-1.05522 4.54162,-1.87801 z"
       id="path6314" />
    <path
       style="fill:#ffffff;fill-opacity:1;fill-rule:evenodd;stroke:none;stroke-width:0.123108"
       d="m 107.45067,120.75743 1.70136,6.33596 c -2.68686,0.72052 -5.46668,1.09241 -8.26975,1.09241 v -6.56374 -6.55909 c 1.65023,0 3.28652,-0.21848 4.86702,-0.64614 z"
       id="path6316" />
    <path
       style="fill:#ffffff;fill-opacity:1;fill-rule:evenodd;stroke:none;stroke-width:0.123108"
       d="m 100.88228,121.62206 v 6.56374 c -2.803065,0 -5.582885,-0.37189 -8.269745,-1.09241 l 1.70137,-6.33596 1.69671,-6.3406 c 1.58051,0.42766 3.22144,0.64614 4.871665,0.64614 z"
       id="path6318" />
    <path
       style="fill:#ffffff;fill-opacity:1;fill-rule:evenodd;stroke:none;stroke-width:0.123108"
       d="m 94.313905,120.75743 -1.70137,6.33596 c -2.68685,-0.72052 -5.27609,-1.78969 -7.70727,-3.19355 l 3.28186,-5.68051 3.28187,-5.68051 c 1.43175,0.82279 2.95647,1.45499 4.54162,1.87801 z"
       id="path6320" />
    <path
       style="fill:#ffffff;fill-opacity:1;fill-rule:evenodd;stroke:none;stroke-width:0.123108"
       d="m 88.187125,118.21933 -3.28186,5.68051 c -2.42654,-1.39921 -4.64854,-3.10987 -6.61487,-5.0762 l 4.63924,-4.63924 4.63924,-4.63924 c 1.15749,1.15749 2.46837,2.16623 3.90012,2.99366 z"
       id="path6322" />
    <path
       style="fill:#ffffff;fill-opacity:1;fill-rule:evenodd;stroke:none;stroke-width:0.123108"
       d="m 82.929635,114.1844 -4.63924,4.63924 c -1.96633,-1.96633 -3.677,-4.18833 -5.0762,-6.61487 l 5.68051,-3.28187 5.68051,-3.28186 c 0.82744,1.43175 1.83617,2.74263 2.99366,3.90012 z"
       id="path6324" />
    <path
       style="fill:#ffffff;fill-opacity:1;fill-rule:evenodd;stroke:none;stroke-width:0.123108"
       d="m 78.894705,108.9269 -5.68051,3.28187 c -1.40386,-2.43118 -2.47303,-5.02042 -3.19355,-7.70727 l 6.33596,-1.69672 6.3406,-1.70137 c 0.42302,1.58516 1.05522,3.10987 1.87801,4.54163 z"
       id="path6326" />
    <path
       style="fill:#ffffff;fill-opacity:1;fill-rule:evenodd;stroke:none;stroke-width:0.123108"
       d="m 76.356605,102.80478 -6.33596,1.69672 c -0.72052,-2.68221 -1.08776,-5.462035 -1.08776,-8.265095 h 6.55909 6.56373 c 0,1.65023 0.21384,3.28651 0.6415,4.867005 z"
       id="path6328" />
    <path
       style="fill:#ffffff;fill-opacity:1;fill-rule:evenodd;stroke:none;stroke-width:0.123108"
       d="m 75.491975,96.236405 h -6.55909 c 0,-2.80307 0.36724,-5.5829 1.08776,-8.26975 l 6.33596,1.69671 6.33595,1.69672 c -0.42301,1.58515 -0.63685,3.22144 -0.63685,4.87632 z"
       id="path6330" />
    <path
       style="fill:#ffffff;fill-opacity:1;fill-rule:evenodd;stroke:none;stroke-width:0.123108"
       d="m 76.356605,89.663365 -6.33596,-1.69671 c 0.71587,-2.68686 1.78969,-5.28074 3.19355,-7.71193 l 5.68051,3.28652 5.68051,3.28651 c -0.82744,1.42711 -1.45499,2.95183 -1.88266,4.53233 z"
       id="path6332" />
    <path
       style="fill:#ffffff;fill-opacity:1;fill-rule:evenodd;stroke:none;stroke-width:0.123108"
       d="m 84.579865,86.818465 c 0,0 0,0 -0.005,0.005 0,0 0,0 0,0.005 l -5.68051,-3.28651 z"
       id="path6334" />
    <path
       style="fill:#ffffff;fill-opacity:1;fill-rule:evenodd;stroke:none;stroke-width:0.123108"
       d="m 78.894705,83.541245 -5.68516,-3.27722 c 1.40385,-2.43118 3.10987,-4.65783 5.0762,-6.62416 l 4.64389,4.64389 4.63924,4.63924 c -1.15749,1.15748 -2.16622,2.46372 -2.98901,3.89547 z"
       id="path6336" />
    <path
       style="fill:#ffffff;fill-opacity:1;fill-rule:evenodd;stroke:none;stroke-width:0.123108"
       d="m 82.929635,78.283755 -4.64389,-4.64389 c 1.96633,-1.96633 4.19298,-3.67235 6.62417,-5.07621 l 3.27721,5.68517 3.27722,5.68516 c -1.43175,0.82279 -2.73798,1.83152 -3.89547,2.98901 z"
       id="path6338" />
    <path
       style="fill:#ffffff;fill-opacity:1;fill-rule:evenodd;stroke:none;stroke-width:0.123108"
       d="m 91.473645,79.929335 c -0.005,0 -0.005,0 -0.005,0 -0.005,0.005 -0.005,0.005 -0.005,0.005 l -3.27722,-5.68516 z"
       id="path6340" />
    <path
       style="fill:#ffffff;fill-opacity:1;fill-rule:evenodd;stroke:none;stroke-width:0.123108"
       d="m 88.187125,74.248825 -3.28651,-5.68052 c 2.43118,-1.40385 5.02507,-2.47767 7.71192,-3.19354 l 1.69672,6.33595 1.69672,6.33596 c -1.58051,0.42767 -3.10523,1.05522 -4.53233,1.88266 z"
       id="path6342" />
    <path
       style="fill:#ffffff;fill-opacity:1;fill-rule:evenodd;stroke:none;stroke-width:0.123108"
       d="m 94.309255,71.710715 -1.69672,-6.33595 c 2.68221,-0.72053 5.46203,-1.08776 8.265095,-1.08776 v 6.55908 6.56374 c -1.650225,0 -3.286505,0.21383 -4.871655,0.63685 z"
       id="path6344" />
    <path
       style="fill:#ffffff;fill-opacity:1;fill-rule:evenodd;stroke:none;stroke-width:0.123108"
       d="m 100.87763,70.846085 v -6.55908 c 2.80307,0 5.5829,0.36723 8.26975,1.08776 l -1.69671,6.33595 -1.69672,6.33596 c -1.58515,-0.42302 -3.22144,-0.63685 -4.87632,-0.63685 z"
       id="path6346" />
    <path
       style="fill:#ffffff;fill-opacity:1;fill-rule:evenodd;stroke:none;stroke-width:0.123108"
       d="m 107.45067,71.710715 1.69671,-6.33595 c 2.68686,0.71587 5.28074,1.78969 7.71193,3.19354 l -3.28652,5.68052 -3.28651,5.68051 c -1.42711,-0.82744 -2.95183,-1.45499 -4.53233,-1.88266 z"
       id="path6348" />
    <path
       style="fill:#ffffff;fill-opacity:1;fill-rule:evenodd;stroke:none;stroke-width:0.123108"
       d="m 110.29557,79.933985 c 0,0 0,0 -0.005,-0.005 0,0 0,0 -0.005,0 l 3.28651,-5.68051 z"
       id="path6350" />
    <path
       style="fill:#ffffff;fill-opacity:1;fill-rule:evenodd;stroke:none;stroke-width:0.123108"
       d="m 113.57279,74.248825 3.27722,-5.68517 c 2.43118,1.40386 4.65783,3.11452 6.62416,5.08086 l -4.64388,4.63924 -4.63925,4.63924 c -1.15748,-1.15749 -2.46372,-2.16622 -3.89547,-2.98901 z"
       id="path6352" />
    <path
       style="fill:#ffffff;fill-opacity:1;fill-rule:evenodd;stroke:none;stroke-width:0.123108"
       d="m 118.83029,78.283755 4.64388,-4.63924 c 1.96169,1.96633 3.67235,4.18833 5.07156,6.61486 l -5.68051,3.28187 -5.68052,3.28187 c -0.82744,-1.43175 -1.83617,-2.74264 -2.99366,-3.90012 z"
       id="path6354" />
    <path
       style="fill:#ffffff;fill-opacity:1;fill-rule:evenodd;stroke:none;stroke-width:0.123108"
       d="m 122.86522,83.541245 5.68051,-3.28187 c 1.40385,2.43119 2.47302,5.02042 3.19355,7.70728 l -6.33596,1.69671 -6.34061,1.70137 c -0.42302,-1.58515 -1.05522,-3.10987 -1.87801,-4.54162 z"
       id="path6356" />
    <path
       style="fill:#ffffff;fill-opacity:1;fill-rule:evenodd;stroke:none;stroke-width:0.123108"
       d="m 125.40332,89.663365 6.33596,-1.69671 c 0.72051,2.68221 1.0924,5.46203 1.0924,8.2651 h -6.56372 -6.55909 c 0,-1.65023 -0.21848,-3.28652 -0.64616,-4.86702 z"
       id="path6358" />
    <path
       style="fill:#ffffff;fill-opacity:1;fill-rule:evenodd;stroke:none;stroke-width:0.123108"
       d="m 119.70886,96.231755 h 6.55909 6.56373 v 0.005 h -6.56373 -6.55909 z"
       id="path6360" />
    <path
       style="fill:#ffffff;fill-opacity:1;fill-rule:evenodd;stroke:none;stroke-width:0.123108"
       d="m 100.87763,121.66854 v -6.55908 c 6.70785,0 13.80617,1.01338 20.686,3.12846 l -1.92914,6.27088 -1.92914,6.27088 c -5.59219,-1.71996 -11.37032,-2.5474 -16.82771,-2.5474 z"
       id="path6362" />
    <path
       style="fill:#ffffff;fill-opacity:1;fill-rule:evenodd;stroke:none;stroke-width:0.123108"
       d="m 119.63448,124.5088 1.92914,-6.27088 c 6.95422,2.13833 13.68065,5.4016 19.56105,9.83166 l -3.95125,5.24355 -3.94661,5.2389 c -4.66249,-3.51429 -10.00831,-6.07564 -15.52147,-7.77235 z"
       id="path6364" />
    <path
       style="fill:#ffffff;fill-opacity:1;fill-rule:evenodd;stroke:none;stroke-width:0.123108"
       d="m 137.17342,133.31313 3.95125,-5.24355 c 3.00296,2.26849 5.79208,4.83448 8.28369,7.71657 l -4.96464,4.2906 -4.95999,4.29525 c -1.88265,-2.17551 -3.98844,-4.10931 -6.25692,-5.81997 z"
       id="path6366" />
    <path
       style="fill:#ffffff;fill-opacity:1;fill-rule:evenodd;stroke:none;stroke-width:0.123108"
       d="m 144.44372,140.07675 4.96464,-4.2906 c 2.51486,2.90999 4.73222,6.13607 6.57303,9.68755 l -5.82926,3.0169 -5.82462,3.01691 c -1.35737,-2.61713 -2.989,-4.99254 -4.84378,-7.13551 z"
       id="path6368" />
    <path
       style="fill:#ffffff;fill-opacity:1;fill-rule:evenodd;stroke:none;stroke-width:0.123108"
       d="m 150.15213,148.4906 5.82926,-3.0169 c 1.83618,3.54683 3.29117,7.41442 4.2906,11.6167 l -6.38709,1.51542 -6.38244,1.51542 c -0.73912,-3.11917 -1.81757,-5.98732 -3.17495,-8.61373 z"
       id="path6370" />
    <path
       style="fill:#ffffff;fill-opacity:1;fill-rule:evenodd;stroke:none;stroke-width:0.123108"
       d="m 153.8849,158.60582 6.38709,-1.51542 c 0.9762,4.1279 1.51543,8.58585 1.51543,13.37849 h -6.56374 -6.55909 c 0,-3.70953 -0.40441,-7.1541 -1.16213,-10.34765 z"
       id="path6372" />
    <path
       style="fill:#ffffff;fill-opacity:1;fill-rule:evenodd;stroke:none;stroke-width:0.123108"
       d="m 155.22368,170.46889 h 6.56374 c 0,0.72517 -0.014,1.45034 -0.0372,2.18945 l -6.55908,-0.21847 -6.55909,-0.21849 c 0.0232,-0.59036 0.0325,-1.17142 0.0325,-1.75249 z"
       id="path6374" />
    <path
       style="fill:#ffffff;fill-opacity:1;fill-rule:evenodd;stroke:none;stroke-width:0.123108"
       d="m 161.75023,172.65834 c -0.0372,1.07847 -0.33934,2.12904 -0.87858,3.0634 -0.57176,0.99478 -1.40385,1.82687 -2.39864,2.39864 -0.99943,0.57642 -2.12903,0.88322 -3.28186,0.88322 v -6.56373 z"
       id="path6376" />
    <path
       style="fill:#ffffff;fill-opacity:1;fill-rule:evenodd;stroke:none;stroke-width:0.123108"
       d="m 155.19115,165.88079 v 6.55908 6.56373 H 47.149843 v -6.56373 -6.55908 z"
       id="path6378" />
    <path
       style="fill:#ffffff;fill-opacity:1;fill-rule:evenodd;stroke:none;stroke-width:0.123108"
       d="m 47.149843,179.0036 c -1.152837,0 -2.282433,-0.3068 -3.281867,-0.88322 -0.994787,-0.57177 -1.826875,-1.40386 -2.398646,-2.39864 -0.576418,-0.99945 -0.878573,-2.12904 -0.878573,-3.28187 0,0 0,0 0,0 h 6.559086 z"
       id="path6380" />
    <path
       style="fill:#ffffff;fill-opacity:1;fill-rule:evenodd;stroke:none;stroke-width:0.123108"
       d="m 47.149843,172.43987 h -6.559086 c 0,-4.65318 0.511339,-9.03675 1.45964,-13.14606 l 6.39174,1.47358 6.396388,1.46894 c -0.73447,3.18889 -1.124947,6.59162 -1.129596,10.20354 z"
       id="path6382" />
    <path
       style="fill:#ffffff;fill-opacity:1;fill-rule:evenodd;stroke:none;stroke-width:0.123108"
       d="m 48.442137,160.76739 -6.39174,-1.47358 c 0.95295,-4.1558 2.356808,-8.03268 4.118605,-11.626 l 5.889696,2.8914 5.889697,2.89603 c -1.33413,2.71475 -2.38935,5.64333 -3.10987,8.78109 z"
       id="path6384" />
    <path
       style="fill:#ffffff;fill-opacity:1;fill-rule:evenodd;stroke:none;stroke-width:0.123108"
       d="m 52.058698,150.55921 -5.889696,-2.8914 c 3.523591,-7.16339 8.497523,-13.20649 14.363983,-18.06422 l 4.18368,5.05297 4.18833,5.05296 c -4.46724,3.70023 -8.27439,8.28834 -10.9566,13.74572 z"
       id="path6386" />
    <path
       style="fill:#ffffff;fill-opacity:1;fill-rule:evenodd;stroke:none;stroke-width:0.123108"
       d="m 64.716665,134.65656 -4.18368,-5.05297 c 5.76418,-4.77869 12.393,-8.4092 19.31467,-10.84038 l 2.17551,6.1872 2.17552,6.19185 c -5.48063,1.9245 -10.73347,4.78335 -15.29369,8.56726 z"
       id="path6388" />
    <path
       style="fill:#ffffff;fill-opacity:1;fill-rule:evenodd;stroke:none;stroke-width:0.123108"
       d="m 82.023165,124.95041 -2.17551,-6.1872 c 6.91237,-2.43119 14.11761,-3.65375 21.029975,-3.65375 v 6.55908 6.56374 c -5.485265,0 -11.198315,0.98549 -16.678945,2.90998 z"
       id="path6390" />
  </g>
</svg>
