<?xml version="1.0" encoding="UTF-8" standalone="no"?>
<svg
   xmlns:dc="http://purl.org/dc/elements/1.1/"
   xmlns:cc="http://creativecommons.org/ns#"
   xmlns:rdf="http://www.w3.org/1999/02/22-rdf-syntax-ns#"
   xmlns:svg="http://www.w3.org/2000/svg"
   xmlns="http://www.w3.org/2000/svg"
   xmlns:sodipodi="http://sodipodi.sourceforge.net/DTD/sodipodi-0.dtd"
   xmlns:inkscape="http://www.inkscape.org/namespaces/inkscape"
   width="1080"
   height="1080"
   viewBox="0 0 285.74999 285.75001"
   version="1.1"
   id="svg8"
   inkscape:version="1.0.2 (e86c870879, 2021-01-15)"
   sodipodi:docname="Camara.svg">
  <defs
     id="defs2">
    <pattern
       id="EMFhbasepattern"
       patternUnits="userSpaceOnUse"
       width="6"
       height="6"
       x="0"
       y="0" />
  </defs>
  <sodipodi:namedview
     id="base"
     pagecolor="#ffffff"
     bordercolor="#666666"
     borderopacity="1.0"
     inkscape:pageopacity="0.0"
     inkscape:pageshadow="2"
     inkscape:zoom="0.23760507"
     inkscape:cx="177.3883"
     inkscape:cy="688.41369"
     inkscape:document-units="mm"
     inkscape:current-layer="layer1"
     inkscape:document-rotation="0"
     showgrid="false"
     units="px"
     inkscape:window-width="1366"
     inkscape:window-height="705"
     inkscape:window-x="-8"
     inkscape:window-y="-8"
     inkscape:window-maximized="1" />
  <metadata
     id="metadata5">
    <rdf:RDF>
      <cc:Work
         rdf:about="">
        <dc:format>image/svg+xml</dc:format>
        <dc:type
           rdf:resource="http://purl.org/dc/dcmitype/StillImage" />
        <dc:title></dc:title>
      </cc:Work>
    </rdf:RDF>
  </metadata>
  <g
     inkscape:label="Capa 1"
     inkscape:groupmode="layer"
     id="layer1">
    <path
       style="fill:#ffffff;fill-opacity:1;fill-rule:evenodd;stroke:none;stroke-width:0.141951"
       d="m 211.61449,75.989713 c -1.1629,0 -2.30435,-0.305462 -3.30648,-0.884231 -1.00749,-0.584126 -1.84349,-1.420126 -2.42762,-2.422253 -0.1554,-0.278666 -0.29475,-0.562691 -0.41264,-0.852076 l 6.14674,-2.459767 z"
       id="path10346" />
    <path
       style="fill:#ffffff;fill-opacity:1;fill-rule:evenodd;stroke:none;stroke-width:0.141951"
       d="m 217.76122,66.911621 -6.14673,2.459765 -6.14674,2.459767 -8.16707,-20.417669 6.14674,-2.459767 6.14673,-2.459766 z"
       id="path10348" />
    <path
       style="fill:#ffffff;fill-opacity:1;fill-rule:evenodd;stroke:none;stroke-width:0.141951"
       d="m 203.44742,42.335391 c 1.16289,0 2.30436,0.305461 3.31185,0.88423 1.00212,0.584127 1.83811,1.420126 2.42224,2.422254 0.15541,0.278666 0.29475,0.562691 0.41264,0.852076 l -6.14673,2.459766 z"
       id="path10350" />
    <path
       style="fill:#ffffff;fill-opacity:1;fill-rule:evenodd;stroke:none;stroke-width:0.141951"
       d="m 203.44742,42.335391 v 6.618326 6.618326 h -58.53065 v -6.618326 -6.618326 z"
       id="path10352" />
    <path
       style="fill:#ffffff;fill-opacity:1;fill-rule:evenodd;stroke:none;stroke-width:0.141951"
       d="m 138.70037,46.676156 c 0.13397,-0.359051 0.29474,-0.702025 0.4823,-1.028922 0.58414,-1.007487 1.42013,-1.843486 2.42761,-2.427613 1.00214,-0.578769 2.1436,-0.88423 3.30649,-0.88423 v 6.618326 z"
       id="path10354" />
    <path
       style="fill:#ffffff;fill-opacity:1;fill-rule:evenodd;stroke:none;stroke-width:0.141951"
       d="m 138.70037,46.676156 6.2164,2.277561 6.21641,2.277562 -7.48648,20.41767 -6.21641,-2.277563 -6.2164,-2.277561 z"
       id="path10356" />
    <path
       style="fill:#ffffff;fill-opacity:1;fill-rule:evenodd;stroke:none;stroke-width:0.141951"
       d="m 143.6467,71.648949 c -0.13398,0.35905 -0.29475,0.702025 -0.48231,1.03428 -0.58413,1.002127 -1.42013,1.838127 -2.42225,2.422253 -1.00749,0.578769 -2.14895,0.884231 -3.31185,0.884231 v -6.618327 z"
       id="path10358" />
    <path
       style="fill:#ffffff;fill-opacity:1;fill-rule:evenodd;stroke:none;stroke-width:0.141951"
       d="m 137.43029,62.75306 v 6.618326 6.618327 H 71.413159 V 69.371386 62.75306 Z"
       id="path10360" />
    <path
       style="fill:#ffffff;fill-opacity:1;fill-rule:evenodd;stroke:none;stroke-width:0.141951"
       d="m 71.413159,62.75306 v 6.618326 6.618327 H 39.425479 V 69.371386 62.75306 Z"
       id="path10362" />
    <path
       style="fill:#ffffff;fill-opacity:1;fill-rule:evenodd;stroke:none;stroke-width:0.141951"
       d="m 39.425479,62.75306 v 6.618326 6.618327 H 14.243686 V 69.371386 62.75306 Z"
       id="path10364" />
    <path
       style="fill:#ffffff;fill-opacity:1;fill-rule:evenodd;stroke:none;stroke-width:0.141951"
       d="m 7.6253583,69.371386 c 0,-1.162895 0.3054613,-2.304356 0.8842311,-3.306483 0.5841296,-1.007485 1.4201288,-1.843485 2.4222536,-2.427612 1.007489,-0.578768 2.148949,-0.884231 3.311843,-0.884231 v 6.618326 z"
       id="path10366" />
    <path
       style="fill:#ffffff;fill-opacity:1;fill-rule:evenodd;stroke:none;stroke-width:0.141951"
       d="m 7.6253583,69.371386 h 6.6183277 6.618327 V 236.79629 H 14.243686 7.6253583 Z"
       id="path10368" />
    <path
       style="fill:#ffffff;fill-opacity:1;fill-rule:evenodd;stroke:none;stroke-width:0.141951"
       d="m 14.243686,243.41461 c -1.162894,0 -2.304354,-0.30546 -3.306484,-0.88423 -1.0074838,-0.58413 -1.843483,-1.42012 -2.4276126,-2.42226 -0.5787698,-1.00749 -0.8842311,-2.14894 -0.8842311,-3.31183 h 6.6183277 z"
       id="path10370" />
    <path
       style="fill:#ffffff;fill-opacity:1;fill-rule:evenodd;stroke:none;stroke-width:0.141951"
       d="m 14.243686,243.41461 v -6.61832 -6.61834 H 271.50632 v 6.61834 6.61832 z"
       id="path10372" />
    <path
       style="fill:#ffffff;fill-opacity:1;fill-rule:evenodd;stroke:none;stroke-width:0.141951"
       d="m 278.12464,236.79629 c 0,1.16289 -0.30546,2.30434 -0.88423,3.31183 -0.58413,1.00214 -1.42012,1.83813 -2.42226,2.42226 -1.00748,0.57877 -2.14894,0.88423 -3.31183,0.88423 v -6.61832 z"
       id="path10374" />
    <path
       style="fill:#ffffff;fill-opacity:1;fill-rule:evenodd;stroke:none;stroke-width:0.141951"
       d="m 278.12464,236.79629 h -6.61832 -6.61833 V 69.371386 h 6.61833 6.61832 z"
       id="path10376" />
    <path
       style="fill:#ffffff;fill-opacity:1;fill-rule:evenodd;stroke:none;stroke-width:0.141951"
       d="m 271.50632,62.75306 c 1.16289,0 2.30435,0.305463 3.31183,0.884231 1.00214,0.584127 1.83813,1.420127 2.42226,2.422254 0.57877,1.007485 0.88423,2.148946 0.88423,3.311841 v 0 h -6.61832 z"
       id="path10378" />
    <path
       style="fill:#ffffff;fill-opacity:1;fill-rule:evenodd;stroke:none;stroke-width:0.141951"
       d="m 271.50632,62.75306 v 6.618326 6.618327 H 211.61449 V 69.371386 62.75306 Z"
       id="path10380" />
    <path
       style="fill:#ffffff;fill-opacity:1;fill-rule:evenodd;stroke:none;stroke-width:0.141951"
       d="m 48.299929,56.831401 c -1.162895,0 -2.304355,-0.305461 -3.306479,-0.88423 -1.007489,-0.584127 -1.843488,-1.420127 -2.427617,-2.422253 -0.578765,-1.007487 -0.884227,-2.148947 -0.884227,-3.311843 0,-1.162897 0.305462,-2.304356 0.884227,-3.306484 0.584129,-1.007486 1.420128,-1.843484 2.422252,-2.427612 1.007489,-0.578769 2.148949,-0.884231 3.311844,-0.884231 v 6.618327 z"
       id="path10382" />
    <path
       style="fill:#ffffff;fill-opacity:1;fill-rule:evenodd;stroke:none;stroke-width:0.141951"
       d="m 48.299929,56.831401 v -6.618326 -6.618327 h 0.0054 v 6.618327 6.618326 z"
       id="path10384" />
    <path
       style="fill:#ffffff;fill-opacity:1;fill-rule:evenodd;stroke:none;stroke-width:0.141951"
       d="m 48.305289,43.594748 c 1.162899,0 2.304359,0.305462 3.311843,0.884231 1.002126,0.584128 1.838127,1.420126 2.422253,2.422253 0.578769,1.007487 0.884231,2.148946 0.884231,3.311843 0,1.162896 -0.305462,2.304356 -0.884231,3.311843 -0.584126,1.002126 -1.420127,1.838126 -2.422253,2.422253 -1.007484,0.578769 -2.148944,0.88423 -3.311843,0.88423 v -6.618326 z"
       id="path10386" />
    <path
       style="fill:#ffffff;fill-opacity:1;fill-rule:evenodd;stroke:none;stroke-width:0.141951"
       d="m 48.305289,50.213075 v 6.618326 c -0.139333,0 -0.273309,0.01608 -0.407281,0.05359 l -1.714871,-6.393251 -1.71487,-6.393249 c 1.243279,-0.332257 2.53479,-0.503744 3.837022,-0.503744 z"
       id="path10388" />
    <path
       style="fill:#ffffff;fill-opacity:1;fill-rule:evenodd;stroke:none;stroke-width:0.141951"
       d="m 46.183137,50.491741 1.714871,6.393249 c -0.133972,0.03751 -0.267948,0.0911 -0.385846,0.16077 l -3.306485,-5.734096 -3.306483,-5.734097 c 1.125386,-0.648435 2.325793,-1.14146 3.569073,-1.479075 z"
       id="path10390" />
    <path
       style="fill:#ffffff;fill-opacity:1;fill-rule:evenodd;stroke:none;stroke-width:0.141951"
       d="m 44.205677,51.311664 3.306485,5.734096 c -0.117898,0.06967 -0.230437,0.150051 -0.326896,0.246511 l -4.67838,-4.678378 -4.67838,-4.67838 c 0.911024,-0.916383 1.945306,-1.709511 3.070688,-2.357946 z"
       id="path10392" />
    <path
       style="fill:#ffffff;fill-opacity:1;fill-rule:evenodd;stroke:none;stroke-width:0.141951"
       d="m 42.506886,52.613893 4.67838,4.678378 c -0.09646,0.09646 -0.176849,0.209002 -0.246514,0.326899 l -5.734097,-3.306484 -5.734096,-3.306484 c 0.648435,-1.125383 1.441562,-2.159664 2.357947,-3.070689 z"
       id="path10394" />
    <path
       style="fill:#ffffff;fill-opacity:1;fill-rule:evenodd;stroke:none;stroke-width:0.141951"
       d="m 41.204655,54.312686 5.734097,3.306484 c -0.06967,0.117896 -0.123253,0.251871 -0.160771,0.385845 l -6.393245,-1.71487 -6.393252,-1.71487 c 0.337615,-1.24328 0.830639,-2.44369 1.479075,-3.569073 z"
       id="path10396" />
    <path
       style="fill:#ffffff;fill-opacity:1;fill-rule:evenodd;stroke:none;stroke-width:0.141951"
       d="m 40.384736,56.290145 6.393245,1.71487 c -0.0375,0.133973 -0.0536,0.267949 -0.0536,0.407281 h -6.618323 -6.618326 c 0,-1.302229 0.171489,-2.59374 0.503745,-3.837021 z"
       id="path10398" />
    <path
       style="fill:#ffffff;fill-opacity:1;fill-rule:evenodd;stroke:none;stroke-width:0.141951"
       d="m 33.48774,58.412296 h 6.618327 6.618327 v 2.08464 H 40.106067 33.48774 Z"
       id="path10400" />
    <path
       style="fill:#ffffff;fill-opacity:1;fill-rule:evenodd;stroke:none;stroke-width:0.141951"
       d="m 40.106067,60.496936 h 6.618327 c 0,0.139332 0.01609,0.273307 0.0536,0.407281 l -6.393252,1.71487 -6.39325,1.71487 c -0.332255,-1.243281 -0.503745,-2.534793 -0.503745,-3.837021 z"
       id="path10402" />
    <path
       style="fill:#ffffff;fill-opacity:1;fill-rule:evenodd;stroke:none;stroke-width:0.141951"
       d="m 40.384736,62.619087 6.393245,-1.71487 c 0.0375,0.133974 0.0911,0.267948 0.160771,0.385847 l -5.734097,3.306482 -5.734096,3.306484 c -0.648436,-1.125383 -1.14146,-2.325793 -1.479075,-3.569073 z"
       id="path10404" />
    <path
       style="fill:#ffffff;fill-opacity:1;fill-rule:evenodd;stroke:none;stroke-width:0.141951"
       d="m 41.204655,64.596546 5.734097,-3.306482 c 0.06967,0.117896 0.15005,0.230434 0.246514,0.326896 l -4.67838,4.678379 -4.67838,4.67838 C 36.912121,70.062693 36.118994,69.028413 35.470559,67.90303 Z"
       id="path10406" />
    <path
       style="fill:#ffffff;fill-opacity:1;fill-rule:evenodd;stroke:none;stroke-width:0.141951"
       d="m 42.506886,66.295339 4.67838,-4.678379 c 0.09646,0.09646 0.208998,0.176846 0.326896,0.246513 l -3.306485,5.734095 -3.306483,5.734096 C 39.773812,72.683229 38.73953,71.890101 37.828506,70.973719 Z"
       id="path10408" />
    <path
       style="fill:#ffffff;fill-opacity:1;fill-rule:evenodd;stroke:none;stroke-width:0.141951"
       d="m 44.205677,67.597568 3.306485,-5.734095 c 0.117898,0.06967 0.251874,0.123256 0.385846,0.160768 l -1.714871,6.393249 -1.71487,6.393249 c -1.24328,-0.337614 -2.443687,-0.83064 -3.569073,-1.479075 z"
       id="path10410" />
    <path
       style="fill:#ffffff;fill-opacity:1;fill-rule:evenodd;stroke:none;stroke-width:0.141951"
       d="m 46.183137,68.41749 1.714871,-6.393249 c 0.133972,0.03751 0.267948,0.05359 0.407281,0.05359 v 6.618324 6.618328 c -1.302232,0 -2.593743,-0.171487 -3.837022,-0.503744 z"
       id="path10412" />
    <path
       style="fill:#ffffff;fill-opacity:1;fill-rule:evenodd;stroke:none;stroke-width:0.141951"
       d="m 48.305289,75.314484 v -6.618328 -6.618325 h 14.914008 v 6.618325 6.618328 z"
       id="path10414" />
    <path
       style="fill:#ffffff;fill-opacity:1;fill-rule:evenodd;stroke:none;stroke-width:0.141951"
       d="m 63.219297,68.696156 v -6.618325 c 0.139337,0 0.273309,-0.01607 0.40728,-0.05359 l 1.714871,6.393249 1.714871,6.393249 c -1.243279,0.332257 -2.534791,0.503745 -3.837022,0.503745 z"
       id="path10416" />
    <path
       style="fill:#ffffff;fill-opacity:1;fill-rule:evenodd;stroke:none;stroke-width:0.141951"
       d="m 65.341448,68.41749 -1.714871,-6.393249 c 0.133977,-0.03751 0.267955,-0.0911 0.385847,-0.160768 l 3.306483,5.734095 3.306484,5.734096 c -1.125381,0.648435 -2.325788,1.141461 -3.569072,1.479075 z"
       id="path10418" />
    <path
       style="fill:#ffffff;fill-opacity:1;fill-rule:evenodd;stroke:none;stroke-width:0.141951"
       d="m 67.318907,67.597568 -3.306483,-5.734095 c 0.117898,-0.06967 0.230435,-0.150052 0.3269,-0.246513 l 4.67838,4.678379 4.678381,4.67838 c -0.91103,0.916382 -1.945307,1.70951 -3.070694,2.357945 z"
       id="path10420" />
    <path
       style="fill:#ffffff;fill-opacity:1;fill-rule:evenodd;stroke:none;stroke-width:0.141951"
       d="m 69.017704,66.295339 -4.67838,-4.678379 c 0.09646,-0.09646 0.176844,-0.209 0.24651,-0.326896 l 5.734096,3.306482 5.734096,3.306484 c -0.648436,1.125383 -1.441562,2.159663 -2.357941,3.070689 z"
       id="path10422" />
    <path
       style="fill:#ffffff;fill-opacity:1;fill-rule:evenodd;stroke:none;stroke-width:0.141951"
       d="m 70.31993,64.596546 -5.734096,-3.306482 c 0.06967,-0.117899 0.123258,-0.251873 0.16077,-0.385847 l 6.393251,1.71487 6.393251,1.71487 c -0.337619,1.24328 -0.830644,2.44369 -1.47908,3.569073 z"
       id="path10424" />
    <path
       style="fill:#ffffff;fill-opacity:1;fill-rule:evenodd;stroke:none;stroke-width:0.141951"
       d="m 71.139855,62.619087 -6.393251,-1.71487 c 0.0375,-0.133974 0.0536,-0.267949 0.0536,-0.407281 h 6.618327 6.618322 c 0,1.302228 -0.171485,2.59374 -0.503739,3.837021 z"
       id="path10426" />
    <path
       style="fill:#ffffff;fill-opacity:1;fill-rule:evenodd;stroke:none;stroke-width:0.141951"
       d="m 78.036846,60.496936 h -6.618323 -6.618327 v -2.089999 h 6.618327 6.618323 z"
       id="path10428" />
    <path
       style="fill:#ffffff;fill-opacity:1;fill-rule:evenodd;stroke:none;stroke-width:0.141951"
       d="m 64.800196,58.406937 c 0,-1.162896 0.305461,-2.304356 0.884226,-3.306483 0.58413,-1.007486 1.420129,-1.843485 2.427612,-2.427613 1.002129,-0.578768 2.14359,-0.88423 3.306489,-0.88423 1.162895,0 2.304355,0.305462 3.311838,0.88423 1.00213,0.584128 1.83813,1.420127 2.422253,2.422255 0.57877,1.007485 0.884232,2.148945 0.884232,3.311841 v 0 h -6.618323 z"
       id="path10430" />
    <path
       style="fill:#ffffff;fill-opacity:1;fill-rule:evenodd;stroke:none;stroke-width:0.141951"
       d="m 64.800196,58.406937 h 6.618327 6.618323 v 0.0054 h -6.618323 -6.618327 z"
       id="path10432" />
    <path
       style="fill:#ffffff;fill-opacity:1;fill-rule:evenodd;stroke:none;stroke-width:0.141951"
       d="m 78.036846,58.412296 c 0,1.162897 -0.305462,2.304357 -0.884232,3.311843 -0.584123,1.002127 -1.420123,1.838127 -2.422253,2.422253 -1.007483,0.578769 -2.148943,0.884231 -3.311838,0.884231 -1.162899,0 -2.30436,-0.305462 -3.306489,-0.884231 -1.007483,-0.584126 -1.843482,-1.420126 -2.427612,-2.422253 -0.578765,-1.007486 -0.884226,-2.148946 -0.884226,-3.311843 h 6.618327 z"
       id="path10434" />
    <path
       style="fill:#ffffff;fill-opacity:1;fill-rule:evenodd;stroke:none;stroke-width:0.141951"
       d="m 71.418523,58.412296 h -6.618327 c 0,-0.139332 -0.0161,-0.273308 -0.0536,-0.407281 l 6.393251,-1.71487 6.393251,-1.71487 c 0.332255,1.243281 0.50374,2.534792 0.50374,3.837021 z"
       id="path10436" />
    <path
       style="fill:#ffffff;fill-opacity:1;fill-rule:evenodd;stroke:none;stroke-width:0.141951"
       d="m 71.139855,56.290145 -6.393251,1.71487 c -0.0375,-0.133974 -0.0911,-0.267949 -0.16077,-0.385845 l 5.734096,-3.306484 5.734096,-3.306484 c 0.648436,1.125383 1.141461,2.325793 1.47908,3.569073 z"
       id="path10438" />
    <path
       style="fill:#ffffff;fill-opacity:1;fill-rule:evenodd;stroke:none;stroke-width:0.141951"
       d="m 70.31993,54.312686 -5.734096,3.306484 c -0.06967,-0.117897 -0.150051,-0.230436 -0.24651,-0.326899 l 4.67838,-4.678378 4.678381,-4.67838 c 0.916379,0.911025 1.709505,1.945306 2.357941,3.070689 z"
       id="path10440" />
    <path
       style="fill:#ffffff;fill-opacity:1;fill-rule:evenodd;stroke:none;stroke-width:0.141951"
       d="m 69.017704,52.613893 -4.67838,4.678378 c -0.09646,-0.09646 -0.209002,-0.176845 -0.3269,-0.246511 l 3.306483,-5.734096 3.306484,-5.734097 c 1.125387,0.648435 2.159664,1.441563 3.070694,2.357946 z"
       id="path10442" />
    <path
       style="fill:#ffffff;fill-opacity:1;fill-rule:evenodd;stroke:none;stroke-width:0.141951"
       d="m 67.318907,51.311664 -3.306483,5.734096 c -0.117892,-0.06967 -0.25187,-0.123256 -0.385847,-0.16077 l 1.714871,-6.393249 1.714871,-6.393249 c 1.243284,0.337615 2.443691,0.83064 3.569072,1.479075 z"
       id="path10444" />
    <path
       style="fill:#ffffff;fill-opacity:1;fill-rule:evenodd;stroke:none;stroke-width:0.141951"
       d="M 65.341448,50.491741 63.626577,56.88499 C 63.492606,56.84748 63.358634,56.8314 63.219297,56.8314 V 50.213076 43.59475 c 1.302231,0 2.593743,0.171487 3.837022,0.503744 z"
       id="path10446" />
    <path
       style="fill:#ffffff;fill-opacity:1;fill-rule:evenodd;stroke:none;stroke-width:0.141951"
       d="m 63.219297,43.594748 v 6.618327 6.618326 H 48.299929 v -6.618326 -6.618327 z"
       id="path10448" />
    <path
       style="fill:#ffffff;fill-opacity:1;fill-rule:evenodd;stroke:none;stroke-width:0.141951"
       d="m 239.22925,153.28748 h 6.61833 c 0,6.22176 -0.81993,12.39529 -2.41689,18.35446 l -6.39325,-1.70951 -6.39325,-1.71486 c 1.30222,-4.84988 1.96674,-9.86587 1.96674,-14.93009 z"
       id="path10450" />
    <path
       style="fill:#ffffff;fill-opacity:1;fill-rule:evenodd;stroke:none;stroke-width:0.141951"
       d="m 237.03744,169.93243 6.39325,1.70951 c -1.59697,5.96453 -3.97636,11.71471 -7.08456,17.1112 l -5.73409,-3.31185 -5.7341,-3.31185 c 2.53478,-4.38363 4.46938,-9.06201 5.76625,-13.91187 z"
       id="path10452" />
    <path
       style="fill:#ffffff;fill-opacity:1;fill-rule:evenodd;stroke:none;stroke-width:0.141951"
       d="m 230.61204,185.44129 5.73409,3.31185 c -3.11355,5.39111 -6.90772,10.32136 -11.27528,14.68356 l -4.67837,-4.67838 -4.67838,-4.67838 c 3.54764,-3.54763 6.63441,-7.56151 9.16384,-11.9505 z"
       id="path10454" />
    <path
       style="fill:#ffffff;fill-opacity:1;fill-rule:evenodd;stroke:none;stroke-width:0.141951"
       d="m 220.39248,198.75832 4.67837,4.67838 c -4.36219,4.36756 -9.29245,8.16172 -14.68355,11.27527 l -3.31186,-5.73409 -3.31184,-5.7341 c 4.38899,-2.52943 8.40287,-5.61621 11.9505,-9.16384 z"
       id="path10456" />
    <path
       style="fill:#ffffff;fill-opacity:1;fill-rule:evenodd;stroke:none;stroke-width:0.141951"
       d="m 207.07544,208.97788 3.31186,5.73409 c -5.39651,3.1082 -11.14667,5.48759 -17.1112,7.08456 l -1.70951,-6.39325 -1.71488,-6.39325 c 4.84987,-1.29687 9.52825,-3.23145 13.91189,-5.76625 z"
       id="path10458" />
    <path
       style="fill:#ffffff;fill-opacity:1;fill-rule:evenodd;stroke:none;stroke-width:0.141951"
       d="m 191.56659,215.40328 1.70951,6.39325 c -5.95917,1.59698 -12.12736,2.41689 -18.35448,2.41689 v -6.61833 -6.61833 c 5.06423,0 10.08023,-0.6645 14.93009,-1.96673 z"
       id="path10460" />
    <path
       style="fill:#ffffff;fill-opacity:1;fill-rule:evenodd;stroke:none;stroke-width:0.141951"
       d="m 174.92162,217.59509 v 6.61833 c -6.2271,0 -12.39528,-0.81991 -18.35981,-2.41689 l 1.71487,-6.39325 1.70951,-6.39325 c 4.84987,1.30223 9.87122,1.96673 14.93543,1.96673 z"
       id="path10462" />
    <path
       style="fill:#ffffff;fill-opacity:1;fill-rule:evenodd;stroke:none;stroke-width:0.141951"
       d="m 158.27668,215.40328 -1.71487,6.39325 c -5.96454,-1.59697 -11.71471,-3.97636 -17.11119,-7.08456 l 3.31185,-5.73409 3.31184,-5.7341 c 4.38364,2.5348 9.06201,4.46938 13.91188,5.76625 z"
       id="path10464" />
    <path
       style="fill:#ffffff;fill-opacity:1;fill-rule:evenodd;stroke:none;stroke-width:0.141951"
       d="m 142.76247,208.97788 -3.31185,5.73409 c -5.39112,-3.11355 -10.32137,-6.90771 -14.68357,-11.27527 l 4.67838,-4.67838 4.67838,-4.67838 c 3.54764,3.54763 7.56151,6.63441 11.9505,9.16384 z"
       id="path10466" />
    <path
       style="fill:#ffffff;fill-opacity:1;fill-rule:evenodd;stroke:none;stroke-width:0.141951"
       d="m 129.44543,198.75832 -4.67838,4.67838 c -4.36756,-4.3622 -8.16171,-9.29245 -11.27527,-14.68356 l 5.7341,-3.31185 5.73409,-3.31185 c 2.52943,4.38899 5.6162,8.40287 9.16384,11.9505 z"
       id="path10468" />
    <path
       style="fill:#ffffff;fill-opacity:1;fill-rule:evenodd;stroke:none;stroke-width:0.141951"
       d="m 119.22588,185.44129 -5.7341,3.31185 c -3.1082,-5.39649 -5.48759,-11.14667 -7.08456,-17.1112 l 6.39325,-1.70951 6.39325,-1.71486 c 1.29687,4.84986 3.23146,9.52824 5.76625,13.91187 z"
       id="path10470" />
    <path
       style="fill:#ffffff;fill-opacity:1;fill-rule:evenodd;stroke:none;stroke-width:0.141951"
       d="m 112.80047,169.93243 -6.39325,1.70951 c -1.59697,-5.95917 -2.41689,-12.1327 -2.41689,-18.35446 h 6.61833 6.61832 c 0,5.06422 0.66452,10.08021 1.96674,14.93009 z"
       id="path10472" />
    <path
       style="fill:#ffffff;fill-opacity:1;fill-rule:evenodd;stroke:none;stroke-width:0.141951"
       d="m 110.60866,153.28748 h -6.61833 c 0,-6.22712 0.81992,-12.3953 2.41689,-18.35983 l 6.39325,1.71487 6.39325,1.70951 c -1.30222,4.84987 -1.96674,9.87122 -1.96674,14.93545 z"
       id="path10474" />
    <path
       style="fill:#ffffff;fill-opacity:1;fill-rule:evenodd;stroke:none;stroke-width:0.141951"
       d="m 112.80047,136.64252 -6.39325,-1.71487 c 1.59697,-5.96453 3.97636,-11.71471 7.08456,-17.11118 l 5.7341,3.31184 5.73409,3.31183 c -2.53479,4.38365 -4.46938,9.06203 -5.76625,13.91189 z"
       id="path10476" />
    <path
       style="fill:#ffffff;fill-opacity:1;fill-rule:evenodd;stroke:none;stroke-width:0.141951"
       d="m 119.22588,121.12831 -5.7341,-3.31184 c 3.11356,-5.39113 6.90771,-10.32138 11.27527,-14.68358 l 4.67838,4.67838 4.67838,4.67838 c -3.54764,3.54764 -6.63441,7.5615 -9.16384,11.95049 z"
       id="path10478" />
    <path
       style="fill:#ffffff;fill-opacity:1;fill-rule:evenodd;stroke:none;stroke-width:0.141951"
       d="m 129.44543,107.81127 -4.67838,-4.67838 c 4.3622,-4.367563 9.29245,-8.161712 14.68357,-11.275271 l 3.31185,5.734095 3.31184,5.734096 c -4.38899,2.52944 -8.40286,5.6162 -11.9505,9.16384 z"
       id="path10480" />
    <path
       style="fill:#ffffff;fill-opacity:1;fill-rule:evenodd;stroke:none;stroke-width:0.141951"
       d="m 142.76247,97.591714 -3.31185,-5.734095 c 5.39648,-3.108202 11.14665,-5.487584 17.11119,-7.084556 l 1.7095,6.393249 1.71488,6.393249 c -4.84987,1.296871 -9.52824,3.231459 -13.91188,5.766249 z"
       id="path10482" />
    <path
       style="fill:#ffffff;fill-opacity:1;fill-rule:evenodd;stroke:none;stroke-width:0.141951"
       d="m 158.27131,91.166312 -1.7095,-6.393249 c 5.95917,-1.596973 12.13271,-2.416895 18.35446,-2.416895 v 6.618325 6.618326 c -5.06423,0 -10.08021,0.664511 -14.93008,1.966742 z"
       id="path10484" />
    <path
       style="fill:#ffffff;fill-opacity:1;fill-rule:evenodd;stroke:none;stroke-width:0.141951"
       d="m 174.91627,88.974493 v -6.618325 c 6.22713,0 12.39529,0.819922 18.35983,2.416895 l -1.71486,6.393249 -1.70953,6.393249 c -4.84986,-1.302231 -9.87121,-1.966742 -14.93544,-1.966742 z"
       id="path10486" />
    <path
       style="fill:#ffffff;fill-opacity:1;fill-rule:evenodd;stroke:none;stroke-width:0.141951"
       d="m 191.56124,91.166312 1.71486,-6.393249 c 5.96453,1.596972 11.71469,3.976354 17.1112,7.084556 l -3.31186,5.734095 -3.31184,5.734096 c -4.38364,-2.53479 -9.06202,-4.469378 -13.91189,-5.766249 z"
       id="path10488" />
    <path
       style="fill:#ffffff;fill-opacity:1;fill-rule:evenodd;stroke:none;stroke-width:0.141951"
       d="m 207.07544,97.591714 3.31186,-5.734095 c 5.3911,3.113559 10.32136,6.907708 14.68355,11.275271 l -4.67837,4.67838 -4.67838,4.67838 c -3.54763,-3.54764 -7.56151,-6.6344 -11.9505,-9.16384 z"
       id="path10490" />
    <path
       style="fill:#ffffff;fill-opacity:1;fill-rule:evenodd;stroke:none;stroke-width:0.141951"
       d="m 220.39248,107.81127 4.67837,-4.67838 c 4.36756,4.3622 8.16173,9.29245 11.27528,14.68358 l -5.73409,3.31184 -5.7341,3.31183 c -2.52943,-4.38899 -5.6162,-8.40285 -9.16384,-11.95049 z"
       id="path10492" />
    <path
       style="fill:#ffffff;fill-opacity:1;fill-rule:evenodd;stroke:none;stroke-width:0.141951"
       d="m 230.61204,121.12831 5.73409,-3.31184 c 3.1082,5.39647 5.48759,11.14665 7.08456,17.11118 l -6.39325,1.70951 -6.39325,1.71487 c -1.29687,-4.84986 -3.23147,-9.52824 -5.76625,-13.91189 z"
       id="path10494" />
    <path
       style="fill:#ffffff;fill-opacity:1;fill-rule:evenodd;stroke:none;stroke-width:0.141951"
       d="m 237.03744,136.63716 6.39325,-1.70951 c 1.59696,5.95917 2.41689,12.13271 2.41689,18.35447 h -6.61833 -6.61832 c 0,-5.06423 -0.66452,-10.08022 -1.96674,-14.93009 z"
       id="path10496" />
    <path
       style="fill:#ffffff;fill-opacity:1;fill-rule:evenodd;stroke:none;stroke-width:0.141951"
       d="m 232.61093,153.28212 h 6.61832 6.61833 v 0.006 h -6.61833 -6.61832 z"
       id="path10498" />
    <path
       style="fill:#ffffff;fill-opacity:1;fill-rule:evenodd;stroke:none;stroke-width:0.141951"
       d="m 217.79337,153.28748 h 6.61833 c 0,4.34075 -0.57342,8.64937 -1.68807,12.80793 l -6.39325,-1.70951 -6.39325,-1.71487 c 0.81993,-3.04925 1.23792,-6.20033 1.23792,-9.38355 z"
       id="path10500" />
    <path
       style="fill:#ffffff;fill-opacity:1;fill-rule:evenodd;stroke:none;stroke-width:0.141951"
       d="m 216.33038,164.3859 6.39325,1.70951 c -1.11466,4.16392 -2.77059,8.17779 -4.94097,11.93442 l -5.7341,-3.30648 -5.7341,-3.30649 c 1.59163,-2.75986 2.80812,-5.70193 3.62267,-8.74583 z"
       id="path10502" />
    <path
       style="fill:#ffffff;fill-opacity:1;fill-rule:evenodd;stroke:none;stroke-width:0.141951"
       d="m 212.04856,174.72335 5.7341,3.30648 c -2.17573,3.762 -4.82307,7.20782 -7.86696,10.25171 l -4.67839,-4.67838 -4.68373,-4.68374 c 2.23468,-2.22933 4.17464,-4.74804 5.76088,-7.50256 z"
       id="path10504" />
    <path
       style="fill:#ffffff;fill-opacity:1;fill-rule:evenodd;stroke:none;stroke-width:0.141951"
       d="m 205.23731,183.60316 4.67839,4.67838 c -3.0439,3.04389 -6.48972,5.69122 -10.25171,7.86696 l -3.30649,-5.7341 -3.30647,-5.7341 c 2.75451,-1.58624 5.27322,-3.52619 7.50255,-5.76088 z"
       id="path10506" />
    <path
       style="fill:#ffffff;fill-opacity:1;fill-rule:evenodd;stroke:none;stroke-width:0.141951"
       d="m 196.3575,190.4144 3.30649,5.7341 c -3.75663,2.17039 -7.7705,3.82631 -11.93442,4.94098 l -1.70952,-6.39325 -1.71486,-6.39326 c 3.04924,-0.81455 5.98597,-2.03105 8.74584,-3.62267 z"
       id="path10508" />
    <path
       style="fill:#ffffff;fill-opacity:1;fill-rule:evenodd;stroke:none;stroke-width:0.141951"
       d="m 186.02005,194.69623 1.70952,6.39325 c -4.15857,1.11466 -8.46182,1.68807 -12.80795,1.68807 v -6.61834 -6.61832 c 3.18323,0 6.33432,-0.41799 9.38357,-1.23792 z"
       id="path10510" />
    <path
       style="fill:#ffffff;fill-opacity:1;fill-rule:evenodd;stroke:none;stroke-width:0.141951"
       d="m 174.92162,196.15921 v 6.61834 c -4.34611,0 -8.64936,-0.57341 -12.81327,-1.68807 l 1.71485,-6.39325 1.70952,-6.39326 c 3.04926,0.81993 6.20568,1.23792 9.3889,1.23792 z"
       id="path10512" />
    <path
       style="fill:#ffffff;fill-opacity:1;fill-rule:evenodd;stroke:none;stroke-width:0.141951"
       d="m 163.8232,194.69623 -1.71485,6.39325 c -4.15857,-1.11467 -8.17779,-2.77059 -11.93444,-4.94098 l 3.30649,-5.7341 3.30648,-5.7341 c 2.75987,1.59162 5.70196,2.80812 8.74584,3.62267 z"
       id="path10514" />
    <path
       style="fill:#ffffff;fill-opacity:1;fill-rule:evenodd;stroke:none;stroke-width:0.141951"
       d="m 153.4804,190.4144 -3.30649,5.7341 c -3.76199,-2.17574 -7.2078,-4.82307 -10.2517,-7.86696 l 4.67839,-4.67838 4.68373,-4.68374 c 2.22934,2.23469 4.74805,4.17464 7.50255,5.76088 z"
       id="path10516" />
    <path
       style="fill:#ffffff;fill-opacity:1;fill-rule:evenodd;stroke:none;stroke-width:0.141951"
       d="m 144.6006,183.60316 -4.67839,4.67838 c -3.0439,-3.04389 -5.69122,-6.48971 -7.86696,-10.25171 l 5.73409,-3.30648 5.7341,-3.30649 c 1.58626,2.75452 3.5262,5.27323 5.76089,7.50256 z"
       id="path10518" />
    <path
       style="fill:#ffffff;fill-opacity:1;fill-rule:evenodd;stroke:none;stroke-width:0.141951"
       d="m 137.78934,174.72335 -5.73409,3.30648 c -2.17038,-3.75663 -3.82631,-7.7705 -4.94097,-11.93442 l 6.39325,-1.70951 6.39324,-1.71487 c 0.81457,3.04926 2.03106,5.98597 3.62267,8.74583 z"
       id="path10520" />
    <path
       style="fill:#ffffff;fill-opacity:1;fill-rule:evenodd;stroke:none;stroke-width:0.141951"
       d="m 133.50753,164.3859 -6.39325,1.70951 c -1.11467,-4.15856 -1.68808,-8.46181 -1.68808,-12.80793 h 6.61833 6.61833 c 0,3.18322 0.41799,6.3343 1.23791,9.38355 z"
       id="path10522" />
    <path
       style="fill:#ffffff;fill-opacity:1;fill-rule:evenodd;stroke:none;stroke-width:0.141951"
       d="m 132.04453,153.28748 h -6.61833 c 0,-4.34613 0.57341,-8.64938 1.68808,-12.8133 l 6.39325,1.71488 6.39324,1.70951 c -0.81992,3.04925 -1.23791,6.20568 -1.23791,9.38891 z"
       id="path10524" />
    <path
       style="fill:#ffffff;fill-opacity:1;fill-rule:evenodd;stroke:none;stroke-width:0.141951"
       d="m 133.50753,142.18906 -6.39325,-1.71488 c 1.11466,-4.15855 2.77059,-8.17779 4.94097,-11.93442 l 5.73409,3.30648 5.7341,3.30649 c -1.59161,2.75987 -2.8081,5.70194 -3.62267,8.74584 z"
       id="path10526" />
    <path
       style="fill:#ffffff;fill-opacity:1;fill-rule:evenodd;stroke:none;stroke-width:0.141951"
       d="m 137.78934,131.84624 -5.73409,-3.30648 c 2.17574,-3.762 4.82306,-7.20781 7.86696,-10.25171 l 4.67839,4.67838 4.68373,4.68374 c -2.23469,2.22933 -4.17463,4.74805 -5.76089,7.50256 z"
       id="path10528" />
    <path
       style="fill:#ffffff;fill-opacity:1;fill-rule:evenodd;stroke:none;stroke-width:0.141951"
       d="m 144.6006,122.96643 -4.67839,-4.67838 c 3.0439,-3.04389 6.48971,-5.69122 10.2517,-7.86696 l 3.30649,5.73409 3.30648,5.7341 c -2.7545,1.58626 -5.27321,3.5262 -7.50255,5.76089 z"
       id="path10530" />
    <path
       style="fill:#ffffff;fill-opacity:1;fill-rule:evenodd;stroke:none;stroke-width:0.141951"
       d="m 153.4804,116.15518 -3.30649,-5.73409 c 3.75665,-2.17038 7.77051,-3.82631 11.93444,-4.94097 l 1.71485,6.39324 1.70952,6.39326 c -3.04388,0.81456 -5.98597,2.03105 -8.74584,3.62266 z"
       id="path10532" />
    <path
       style="fill:#ffffff;fill-opacity:1;fill-rule:evenodd;stroke:none;stroke-width:0.141951"
       d="m 163.8232,111.87336 -1.71485,-6.39324 c 4.15854,-1.11467 8.46716,-1.68808 12.80792,-1.68808 v 6.61833 6.61832 c -3.18323,0 -6.33429,0.418 -9.38355,1.23793 z"
       id="path10534" />
    <path
       style="fill:#ffffff;fill-opacity:1;fill-rule:evenodd;stroke:none;stroke-width:0.141951"
       d="m 174.91627,110.41037 v -6.61833 c 4.34612,0 8.65473,0.57341 12.8133,1.68808 l -1.71487,6.39324 -1.70951,6.39326 c -3.04925,-0.81993 -6.20569,-1.23793 -9.38892,-1.23793 z"
       id="path10536" />
    <path
       style="fill:#ffffff;fill-opacity:1;fill-rule:evenodd;stroke:none;stroke-width:0.141951"
       d="m 186.0147,111.87336 1.71487,-6.39324 c 4.15855,1.11466 8.17779,2.77059 11.93442,4.94097 l -3.30649,5.73409 -3.30647,5.7341 c -2.75987,-1.59161 -5.6966,-2.8081 -8.74584,-3.62266 z"
       id="path10538" />
    <path
       style="fill:#ffffff;fill-opacity:1;fill-rule:evenodd;stroke:none;stroke-width:0.141951"
       d="m 196.3575,116.15518 3.30649,-5.73409 c 3.76199,2.17574 7.20781,4.82307 10.25171,7.86696 l -4.67839,4.67838 -4.68373,4.68374 c -2.22933,-2.23469 -4.74804,-4.17463 -7.50255,-5.76089 z"
       id="path10540" />
    <path
       style="fill:#ffffff;fill-opacity:1;fill-rule:evenodd;stroke:none;stroke-width:0.141951"
       d="m 205.23731,122.96643 4.67839,-4.67838 c 3.04389,3.0439 5.69123,6.48971 7.86696,10.25171 l -5.7341,3.30648 -5.7341,3.30649 c -1.58624,-2.75451 -3.5262,-5.27323 -5.76088,-7.50256 z"
       id="path10542" />
    <path
       style="fill:#ffffff;fill-opacity:1;fill-rule:evenodd;stroke:none;stroke-width:0.141951"
       d="m 212.04856,131.84624 5.7341,-3.30648 c 2.17038,3.75663 3.82631,7.77051 4.94097,11.93442 l -6.39325,1.71488 -6.39325,1.70951 c -0.81455,-3.0439 -2.03104,-5.98597 -3.62267,-8.74584 z"
       id="path10544" />
    <path
       style="fill:#ffffff;fill-opacity:1;fill-rule:evenodd;stroke:none;stroke-width:0.141951"
       d="m 216.33038,142.18906 6.39325,-1.71488 c 1.11465,4.15857 1.68807,8.46717 1.68807,12.80794 h -6.61833 -6.61832 c 0,-3.18323 -0.41799,-6.3343 -1.23792,-9.38355 z"
       id="path10546" />
    <path
       style="fill:#ffffff;fill-opacity:1;fill-rule:evenodd;stroke:none;stroke-width:0.141951"
       d="m 211.17505,153.28212 h 6.61832 6.61833 v 0.006 h -6.61833 -6.61832 z"
       id="path10548" />
    <path
       style="fill:#ffffff;fill-opacity:1;fill-rule:evenodd;stroke:none;stroke-width:0.141951"
       d="m 266.0616,146.66379 v 6.61833 6.61832 h -28.58472 v -6.61832 -6.61833 z"
       id="path10550" />
    <path
       style="fill:#ffffff;fill-opacity:1;fill-rule:evenodd;stroke:none;stroke-width:0.141951"
       d="m 111.5679,146.46551 v 6.61833 6.61832 H 19.007812 v -6.61832 -6.61833 z"
       id="path10552" />
  </g>
</svg>
