<?xml version="1.0" encoding="UTF-8" standalone="no"?>
<svg
   xmlns:dc="http://purl.org/dc/elements/1.1/"
   xmlns:cc="http://creativecommons.org/ns#"
   xmlns:rdf="http://www.w3.org/1999/02/22-rdf-syntax-ns#"
   xmlns:svg="http://www.w3.org/2000/svg"
   xmlns="http://www.w3.org/2000/svg"
   xmlns:sodipodi="http://sodipodi.sourceforge.net/DTD/sodipodi-0.dtd"
   xmlns:inkscape="http://www.inkscape.org/namespaces/inkscape"
   width="1080"
   height="1080"
   viewBox="0 0 285.74999 285.75001"
   version="1.1"
   id="svg8"
   inkscape:version="1.0.2 (e86c870879, 2021-01-15)"
   sodipodi:docname="Config.svg">
  <defs
     id="defs2">
    <pattern
       id="EMFhbasepattern"
       patternUnits="userSpaceOnUse"
       width="6"
       height="6"
       x="0"
       y="0" />
  </defs>
  <sodipodi:namedview
     id="base"
     pagecolor="#ffffff"
     bordercolor="#666666"
     borderopacity="1.0"
     inkscape:pageopacity="0.0"
     inkscape:pageshadow="2"
     inkscape:zoom="0.33602431"
     inkscape:cx="587.96257"
     inkscape:cy="201.83612"
     inkscape:document-units="mm"
     inkscape:current-layer="layer1"
     inkscape:document-rotation="0"
     showgrid="false"
     units="px"
     inkscape:pagecheckerboard="true"
     inkscape:window-width="1366"
     inkscape:window-height="705"
     inkscape:window-x="-8"
     inkscape:window-y="-8"
     inkscape:window-maximized="1" />
  <metadata
     id="metadata5">
    <rdf:RDF>
      <cc:Work
         rdf:about="">
        <dc:format>image/svg+xml</dc:format>
        <dc:type
           rdf:resource="http://purl.org/dc/dcmitype/StillImage" />
        <dc:title></dc:title>
      </cc:Work>
    </rdf:RDF>
  </metadata>
  <g
     inkscape:label="Capa 1"
     inkscape:groupmode="layer"
     id="layer1">
    <path
       style="fill:#ffffff;fill-opacity:1;fill-rule:evenodd;stroke:none;stroke-width:0.145458"
       d="m 53.731501,162.71029 c 1.026625,0.14822 2.01482,0.4886 2.915175,1.01014 1.235249,0.71371 2.261872,1.74033 2.975572,2.97558 0.19764,0.33488 0.36783,0.68624 0.510569,1.0431 l -7.554209,3.02497 z"
       id="path2795" />
    <path
       style="fill:#ffffff;fill-opacity:1;fill-rule:evenodd;stroke:none;stroke-width:0.145458"
       d="m 45.024398,173.78906 7.55421,-3.02498 7.554209,-3.02497 6.977757,17.43067 -7.554209,3.02497 -7.554204,3.02498 z"
       id="path2797" />
    <path
       style="fill:#ffffff;fill-opacity:1;fill-rule:evenodd;stroke:none;stroke-width:0.145458"
       d="m 67.110574,185.16978 c 0.384299,0.96075 0.581939,1.98737 0.581939,3.02497 0,1.4274 -0.373322,2.83283 -1.092507,4.06807 -0.192147,0.34039 -0.417236,0.66979 -0.658795,0.97723 l -6.384846,-5.0453 z"
       id="path2799" />
    <path
       style="fill:#ffffff;fill-opacity:1;fill-rule:evenodd;stroke:none;stroke-width:0.145458"
       d="m 53.171525,183.14946 6.38484,5.04529 6.384846,5.0453 -23.705719,29.98075 -6.384845,-5.04529 -6.38484,-5.04529 z"
       id="path2801" />
    <path
       style="fill:#ffffff;fill-opacity:1;fill-rule:evenodd;stroke:none;stroke-width:0.145458"
       d="m 30.036762,223.86314 c -0.477628,-0.48313 -0.889377,-1.03213 -1.229756,-1.61956 -0.719187,-1.23524 -1.092502,-2.64067 -1.092502,-4.06807 0,-1.42739 0.373315,-2.83283 1.092502,-4.06808 0.192152,-0.34037 0.417241,-0.66978 0.658801,-0.97721 l 6.38484,5.04529 z"
       id="path2803" />
    <path
       style="fill:#ffffff;fill-opacity:1;fill-rule:evenodd;stroke:none;stroke-width:0.145458"
       d="m 30.036762,223.86314 5.813885,-5.68763 5.813885,-5.68762 31.380709,32.07245 -5.813885,5.68762 -5.813883,5.68762 z"
       id="path2805" />
    <path
       style="fill:#ffffff;fill-opacity:1;fill-rule:evenodd;stroke:none;stroke-width:0.145458"
       d="m 72.22723,256.67123 c -0.296459,0.22508 -0.603897,0.43371 -0.927805,0.62036 -1.235242,0.71919 -2.640679,1.0925 -4.068069,1.0925 -1.427393,0 -2.83283,-0.37331 -4.068072,-1.0925 -0.642325,-0.36781 -1.229756,-0.82349 -1.745811,-1.35601 l 5.813883,-5.68763 z"
       id="path2807" />
    <path
       style="fill:#ffffff;fill-opacity:1;fill-rule:evenodd;stroke:none;stroke-width:0.145458"
       d="m 72.22723,256.67123 -4.995874,-6.42328 -4.995877,-6.42326 31.369724,-24.40295 4.99588,6.42327 4.995877,6.42328 z"
       id="path2809" />
    <path
       style="fill:#ffffff;fill-opacity:1;fill-rule:evenodd;stroke:none;stroke-width:0.145458"
       d="m 93.605203,219.42174 c 0.296459,-0.22509 0.603897,-0.43371 0.927805,-0.62037 1.235243,-0.71919 2.64068,-1.09251 4.068075,-1.09251 1.169364,0 2.327747,0.25255 3.387307,0.74115 l -3.387307,7.395 z"
       id="path2811" />
    <path
       style="fill:#ffffff;fill-opacity:1;fill-rule:evenodd;stroke:none;stroke-width:0.145458"
       d="m 95.213767,233.24001 3.387316,-7.395 3.387307,-7.395 16.73346,7.66949 -3.38732,7.39502 -3.38731,7.395 z"
       id="path2813" />
    <path
       style="fill:#ffffff;fill-opacity:1;fill-rule:evenodd;stroke:none;stroke-width:0.145458"
       d="m 118.72185,226.1195 c 0.23607,0.10433 0.46116,0.21961 0.68075,0.35137 1.23525,0.71369 2.26187,1.74032 2.97557,2.97556 0.54351,0.93329 0.88937,1.9709 1.02662,3.04146 l -8.07026,1.02663 z"
       id="path2815" />
    <path
       style="fill:#ffffff;fill-opacity:1;fill-rule:evenodd;stroke:none;stroke-width:0.145458"
       d="m 107.26427,234.54114 8.07026,-1.02662 8.07026,-1.02663 4.8806,38.34748 -8.07027,1.02663 -8.07027,1.02662 z"
       id="path2817" />
    <path
       style="fill:#ffffff;fill-opacity:1;fill-rule:evenodd;stroke:none;stroke-width:0.145458"
       d="m 120.21512,279.99815 c -1.4274,0 -2.83283,-0.37333 -4.06808,-1.09253 -1.23523,-0.71369 -2.26187,-1.74031 -2.97556,-2.97555 -0.5435,-0.93329 -0.88938,-1.9709 -1.02663,-3.04145 l 8.07027,-1.02662 z"
       id="path2819" />
    <path
       style="fill:#ffffff;fill-opacity:1;fill-rule:evenodd;stroke:none;stroke-width:0.145458"
       d="m 120.21512,279.99815 v -8.13615 -8.13614 h 44.62253 v 8.13614 8.13615 z"
       id="path2821" />
    <path
       style="fill:#ffffff;fill-opacity:1;fill-rule:evenodd;stroke:none;stroke-width:0.145458"
       d="m 172.90791,272.88862 c -0.13725,1.07055 -0.48311,2.10816 -1.02661,3.04145 -0.71371,1.23524 -1.74033,2.26186 -2.97558,2.97555 -1.23525,0.7192 -2.64067,1.09253 -4.06807,1.09253 V 271.862 Z"
       id="path2823" />
    <path
       style="fill:#ffffff;fill-opacity:1;fill-rule:evenodd;stroke:none;stroke-width:0.145458"
       d="m 172.90791,272.88862 -8.07026,-1.02662 -8.07027,-1.02663 4.88059,-38.34748 8.07027,1.02663 8.07027,1.02662 z"
       id="path2825" />
    <path
       style="fill:#ffffff;fill-opacity:1;fill-rule:evenodd;stroke:none;stroke-width:0.145458"
       d="m 161.64797,232.48789 c 0.13725,-1.07056 0.48313,-2.10817 1.02663,-3.04146 0.71369,-1.23524 1.74032,-2.26187 2.97556,-2.97556 0.25804,-0.14824 0.52156,-0.28548 0.79056,-0.40076 l 3.27752,7.44441 z"
       id="path2827" />
    <path
       style="fill:#ffffff;fill-opacity:1;fill-rule:evenodd;stroke:none;stroke-width:0.145458"
       d="m 172.99575,240.95892 -3.27751,-7.4444 -3.27752,-7.44441 17.43068,-7.66951 3.27751,7.44441 3.27751,7.44441 z"
       id="path2829" />
    <path
       style="fill:#ffffff;fill-opacity:1;fill-rule:evenodd;stroke:none;stroke-width:0.145458"
       d="m 183.8714,218.4006 c 1.03211,-0.45567 2.14658,-0.69174 3.27751,-0.69174 1.4274,0 2.83283,0.37332 4.06808,1.09251 0.35135,0.19764 0.68076,0.42822 0.99918,0.67527 l -5.06726,6.36837 z"
       id="path2831" />
    <path
       style="fill:#ffffff;fill-opacity:1;fill-rule:evenodd;stroke:none;stroke-width:0.145458"
       d="m 182.08166,232.21338 5.06725,-6.36837 5.06726,-6.36837 30.67798,24.40294 -5.06725,6.36838 -5.06724,6.36838 z"
       id="path2833" />
    <path
       style="fill:#ffffff;fill-opacity:1;fill-rule:evenodd;stroke:none;stroke-width:0.145458"
       d="m 223.51453,256.06183 c -0.48313,0.47764 -1.03213,0.8894 -1.61956,1.22976 -1.23523,0.71919 -2.64067,1.0925 -4.06807,1.0925 -1.4274,0 -2.83282,-0.37331 -4.06807,-1.0925 -0.35136,-0.19764 -0.68076,-0.42821 -0.99917,-0.67525 l 5.06724,-6.36838 z"
       id="path2835" />
    <path
       style="fill:#ffffff;fill-opacity:1;fill-rule:evenodd;stroke:none;stroke-width:0.145458"
       d="m 223.51453,256.06183 -5.68763,-5.81388 -5.68762,-5.81389 32.07244,-31.37521 5.68762,5.81389 5.68763,5.81389 z"
       id="path2837" />
    <path
       style="fill:#ffffff;fill-opacity:1;fill-rule:evenodd;stroke:none;stroke-width:0.145458"
       d="m 256.33908,213.89881 c 0.2196,0.28548 0.42274,0.59293 0.6039,0.90586 0.71919,1.23524 1.09251,2.64068 1.09251,4.06807 0,1.42739 -0.37332,2.83283 -1.09251,4.06808 -0.36782,0.64232 -0.82349,1.22975 -1.35601,1.74581 l -5.68763,-5.81389 z"
       id="path2839" />
    <path
       style="fill:#ffffff;fill-opacity:1;fill-rule:evenodd;stroke:none;stroke-width:0.145458"
       d="m 256.33908,213.89881 -6.43974,4.97393 -6.43973,4.97391 -23.70572,-30.67798 6.43973,-4.97392 6.43975,-4.97391 z"
       id="path2841" />
    <path
       style="fill:#ffffff;fill-opacity:1;fill-rule:evenodd;stroke:none;stroke-width:0.145458"
       d="m 219.75389,193.16867 c -0.21961,-0.28548 -0.42273,-0.59291 -0.6039,-0.90585 -0.71918,-1.23524 -1.09252,-2.64067 -1.09252,-4.06807 0,-0.93879 0.1647,-1.87207 0.48313,-2.75597 l 7.65302,2.75597 z"
       id="path2843" />
    <path
       style="fill:#ffffff;fill-opacity:1;fill-rule:evenodd;stroke:none;stroke-width:0.145458"
       d="m 233.84666,190.95072 -7.65304,-2.75597 -7.65302,-2.75597 6.27505,-17.43067 7.65301,2.75597 7.65305,2.75597 z"
       id="path2845" />
    <path
       style="fill:#ffffff;fill-opacity:1;fill-rule:evenodd;stroke:none;stroke-width:0.145458"
       d="m 224.81565,168.00811 c 0.1592,-0.45567 0.36782,-0.89486 0.60937,-1.3121 0.71371,-1.23525 1.74033,-2.26187 2.97558,-2.97558 0.90035,-0.52154 1.88855,-0.86192 2.91517,-1.01014 l 1.15289,8.05379 z"
       id="path2847" />
    <path
       style="fill:#ffffff;fill-opacity:1;fill-rule:evenodd;stroke:none;stroke-width:0.145458"
       d="m 233.62157,178.81788 -1.15291,-8.0538 -1.15289,-8.05379 39.04472,-5.57782 1.15291,8.0538 1.15288,8.05379 z"
       id="path2849" />
    <path
       style="fill:#ffffff;fill-opacity:1;fill-rule:evenodd;stroke:none;stroke-width:0.145458"
       d="m 279.64954,165.31254 c -0.022,1.38347 -0.39528,2.74498 -1.09252,3.9418 -0.71369,1.23524 -1.74031,2.26187 -2.97556,2.97557 -0.90036,0.52154 -1.88856,0.86192 -2.91518,1.01015 l -1.15288,-8.05379 z"
       id="path2851" />
    <path
       style="fill:#ffffff;fill-opacity:1;fill-rule:evenodd;stroke:none;stroke-width:0.145458"
       d="m 279.64954,165.31254 -8.13614,-0.12627 -8.13616,-0.12627 0.69723,-44.62254 8.13614,0.12628 8.13615,0.12626 z"
       id="path2853" />
    <path
       style="fill:#ffffff;fill-opacity:1;fill-rule:evenodd;stroke:none;stroke-width:0.145458"
       d="m 273.22077,112.48798 c 1.07603,0.13725 2.11913,0.48861 3.05792,1.03211 1.23524,0.71371 2.26186,1.74033 2.97557,2.97557 0.71919,1.23525 1.0925,2.64068 1.0925,4.06808 0,0.0439 0,0.0824 0,0.12626 l -8.13615,-0.12626 z"
       id="path2855" />
    <path
       style="fill:#ffffff;fill-opacity:1;fill-rule:evenodd;stroke:none;stroke-width:0.145458"
       d="m 273.22077,112.48798 -1.01016,8.07576 -1.01015,8.07576 -39.04471,-4.8806 1.01016,-8.07576 1.01014,-8.07576 z"
       id="path2857" />
    <path
       style="fill:#ffffff;fill-opacity:1;fill-rule:evenodd;stroke:none;stroke-width:0.145458"
       d="m 232.15575,123.7589 c -1.07605,-0.13725 -2.11913,-0.48861 -3.05792,-1.03211 -1.23525,-0.71371 -2.26188,-1.74033 -2.97557,-2.97557 -0.17568,-0.30195 -0.33489,-0.61488 -0.46665,-0.93879 l 7.5103,-3.12929 z"
       id="path2859" />
    <path
       style="fill:#ffffff;fill-opacity:1;fill-rule:evenodd;stroke:none;stroke-width:0.145458"
       d="m 240.67619,112.55386 -7.51028,3.12928 -7.5103,3.12929 -6.97227,-16.73345 7.51028,-3.129282 7.51031,-3.129291 z"
       id="path2861" />
    <path
       style="fill:#ffffff;fill-opacity:1;fill-rule:evenodd;stroke:none;stroke-width:0.145458"
       d="m 218.68334,102.07898 c -0.41175,-0.99368 -0.62587,-2.05325 -0.62587,-3.129282 0,-1.427395 0.37334,-2.832832 1.09252,-4.068074 0.14823,-0.25803 0.30745,-0.505077 0.48311,-0.74115 l 6.56052,4.809224 z"
       id="path2863" />
    <path
       style="fill:#ffffff;fill-opacity:1;fill-rule:evenodd;stroke:none;stroke-width:0.145458"
       d="m 232.75416,103.75892 -6.56054,-4.809222 -6.56052,-4.809224 23.0085,-31.375215 6.56052,4.809218 6.56052,4.809218 z"
       id="path2865" />
    <path
       style="fill:#ffffff;fill-opacity:1;fill-rule:evenodd;stroke:none;stroke-width:0.145458"
       d="m 255.02151,61.886861 c 0.47212,0.488611 0.88386,1.032116 1.22425,1.619542 0.71918,1.235248 1.0925,2.640679 1.0925,4.068074 0,1.427395 -0.37332,2.832826 -1.0925,4.068074 -0.14823,0.258025 -0.30744,0.505077 -0.48312,0.741144 l -6.56052,-4.809218 z"
       id="path2867" />
    <path
       style="fill:#ffffff;fill-opacity:1;fill-rule:evenodd;stroke:none;stroke-width:0.145458"
       d="m 255.02151,61.886861 -5.81939,5.687616 -5.81936,5.687616 -30.67801,-31.375213 5.81938,-5.687616 5.81937,-5.687616 z"
       id="path2869" />
    <path
       style="fill:#ffffff;fill-opacity:1;fill-rule:evenodd;stroke:none;stroke-width:0.145458"
       d="m 213.62159,29.710113 c 0.26351,-0.203135 0.5435,-0.389796 0.83447,-0.554486 1.23524,-0.719195 2.64069,-1.092508 4.06807,-1.092508 1.4274,0 2.83284,0.373313 4.06808,1.092508 0.64232,0.367825 1.22975,0.823497 1.75129,1.356021 l -5.81937,5.687616 z"
       id="path2871" />
    <path
       style="fill:#ffffff;fill-opacity:1;fill-rule:evenodd;stroke:none;stroke-width:0.145458"
       d="m 213.62159,29.710113 4.90254,6.489151 4.90256,6.489151 -31.37523,23.705719 -4.90255,-6.489152 -4.90254,-6.489151 z"
       id="path2873" />
    <path
       style="fill:#ffffff;fill-opacity:1;fill-rule:evenodd;stroke:none;stroke-width:0.145458"
       d="m 192.05146,66.394134 c -0.26351,0.203126 -0.5435,0.389786 -0.83447,0.554483 -1.23525,0.719188 -2.64068,1.092508 -4.06808,1.092508 -1.13093,0 -2.2454,-0.236067 -3.27751,-0.691737 l 3.27751,-7.444406 z"
       id="path2875" />
    <path
       style="fill:#ffffff;fill-opacity:1;fill-rule:evenodd;stroke:none;stroke-width:0.145458"
       d="m 190.42642,52.460571 -3.27751,7.444411 -3.27751,7.444406 -17.43068,-7.674986 3.27752,-7.444406 3.27751,-7.444412 z"
       id="path2877" />
    <path
       style="fill:#ffffff;fill-opacity:1;fill-rule:evenodd;stroke:none;stroke-width:0.145458"
       d="m 166.44072,59.674402 c -0.269,-0.115291 -0.53252,-0.252539 -0.79056,-0.400765 -1.23524,-0.713701 -2.26187,-1.740325 -2.97556,-2.975573 -0.56547,-0.977211 -0.92232,-2.064227 -1.0431,-3.184184 l 8.08674,-0.883884 z"
       id="path2879" />
    <path
       style="fill:#ffffff;fill-opacity:1;fill-rule:evenodd;stroke:none;stroke-width:0.145458"
       d="m 177.80497,51.346111 -8.08673,0.883885 -8.08674,0.883884 -4.18336,-38.342001 8.08673,-0.883885 8.08674,-0.883876 z"
       id="path2881" />
    <path
       style="fill:#ffffff;fill-opacity:1;fill-rule:evenodd;stroke:none;stroke-width:0.145458"
       d="m 165.53487,5.7518472 c 1.4274,0 2.83283,0.3733222 4.06808,1.0925078 1.23524,0.7136974 2.26187,1.7403291 2.97557,2.9755656 0.56547,0.9772204 0.92231,2.0642394 1.04309,3.1841974 l -8.08674,0.883876 z"
       id="path2883" />
    <path
       style="fill:#ffffff;fill-opacity:1;fill-rule:evenodd;stroke:none;stroke-width:0.145458"
       d="m 165.53487,5.7518472 v 8.1361468 8.136147 H 120.21512 V 13.887994 5.7518472 Z"
       id="path2885" />
    <path
       style="fill:#ffffff;fill-opacity:1;fill-rule:evenodd;stroke:none;stroke-width:0.145458"
       d="m 112.15583,12.75706 c 0.14824,-1.032111 0.48861,-2.031293 1.01565,-2.9371394 0.71369,-1.2352365 1.74033,-2.2618682 2.97556,-2.9755656 1.23525,-0.7191856 2.64068,-1.0925078 4.06808,-1.0925078 v 8.1361468 z"
       id="path2887" />
    <path
       style="fill:#ffffff;fill-opacity:1;fill-rule:evenodd;stroke:none;stroke-width:0.145458"
       d="m 112.15583,12.75706 8.05929,1.130934 8.05928,1.130943 -5.57782,39.741935 -8.05928,-1.130931 -8.05929,-1.130936 z"
       id="path2889" />
    <path
       style="fill:#ffffff;fill-opacity:1;fill-rule:evenodd;stroke:none;stroke-width:0.145458"
       d="m 122.69658,54.760872 c -0.14822,1.032116 -0.4886,2.03129 -1.01564,2.937138 -0.71369,1.235247 -1.74032,2.261872 -2.97557,2.975566 -0.38979,0.225089 -0.79055,0.417242 -1.21328,0.576447 l -2.85479,-7.620082 z"
       id="path2891" />
    <path
       style="fill:#ffffff;fill-opacity:1;fill-rule:evenodd;stroke:none;stroke-width:0.145458"
       d="m 111.78252,46.009853 2.85478,7.620088 2.85479,7.620082 -16.73345,6.275047 -2.854787,-7.620088 -2.854789,-7.620087 z"
       id="path2893" />
    <path
       style="fill:#ffffff;fill-opacity:1;fill-rule:evenodd;stroke:none;stroke-width:0.145458"
       d="m 100.75864,67.52507 c -0.911336,0.340373 -1.877569,0.516055 -2.854787,0.516055 -1.427394,0 -2.832826,-0.37332 -4.068074,-1.092508 -0.31293,-0.181168 -0.620367,-0.384299 -0.905847,-0.603896 l 4.973921,-6.439739 z"
       id="path2895" />
    <path
       style="fill:#ffffff;fill-opacity:1;fill-rule:evenodd;stroke:none;stroke-width:0.145458"
       d="m 102.87777,53.465238 -4.973917,6.439744 -4.973921,6.439739 -30.677988,-23.705718 4.97392,-6.439739 4.973921,-6.439748 z"
       id="path2897" />
    <path
       style="fill:#ffffff;fill-opacity:1;fill-rule:evenodd;stroke:none;stroke-width:0.145458"
       d="m 61.472372,30.445772 c 0.505076,-0.505083 1.070544,-0.938794 1.685419,-1.290145 1.235248,-0.719195 2.640679,-1.092508 4.068073,-1.092508 1.427395,0 2.832827,0.373313 4.068075,1.092508 0.312929,0.181164 0.620367,0.384298 0.905846,0.603889 l -4.973921,6.439748 z"
       id="path2899" />
    <path
       style="fill:#ffffff;fill-opacity:1;fill-rule:evenodd;stroke:none;stroke-width:0.145458"
       d="m 61.472372,30.445772 5.753492,5.753492 5.753494,5.753494 -31.375212,31.375213 -5.753499,-5.753494 -5.753495,-5.753494 z"
       id="path2901" />
    <path
       style="fill:#ffffff;fill-opacity:1;fill-rule:evenodd;stroke:none;stroke-width:0.145458"
       d="m 29.361495,72.477023 c -0.203131,-0.263517 -0.389786,-0.543505 -0.554489,-0.834472 -0.719187,-1.235248 -1.092502,-2.640679 -1.092502,-4.068074 0,-1.427395 0.373315,-2.832826 1.092502,-4.068074 0.351358,-0.614875 0.78507,-1.180343 1.290146,-1.68542 l 5.753495,5.753494 z"
       id="path2903" />
    <path
       style="fill:#ffffff;fill-opacity:1;fill-rule:evenodd;stroke:none;stroke-width:0.145458"
       d="m 29.361495,72.477023 6.489152,-4.902546 6.489151,-4.902546 23.705724,31.375216 -6.489157,4.902551 -6.489151,4.902542 z"
       id="path2905" />
    <path
       style="fill:#ffffff;fill-opacity:1;fill-rule:evenodd;stroke:none;stroke-width:0.145458"
       d="m 66.045522,94.047147 c 0.203126,0.263517 0.389786,0.54351 0.554484,0.834477 0.719185,1.235242 1.092507,2.640679 1.092507,4.068074 0,1.076032 -0.21411,2.135602 -0.62586,3.129282 l -7.510288,-3.129282 z"
       id="path2907" />
    <path
       style="fill:#ffffff;fill-opacity:1;fill-rule:evenodd;stroke:none;stroke-width:0.145458"
       d="m 52.046082,95.820407 7.510283,3.129291 7.510288,3.129282 -6.972269,16.73345 -7.510289,-3.12929 -7.510284,-3.12928 z"
       id="path2909" />
    <path
       style="fill:#ffffff;fill-opacity:1;fill-rule:evenodd;stroke:none;stroke-width:0.145458"
       d="m 60.094384,118.81243 c -0.131756,0.32391 -0.290967,0.63684 -0.466648,0.93879 -0.713695,1.23524 -1.74032,2.26186 -2.975567,2.97557 -0.938784,0.5435 -1.981879,0.89486 -3.057915,1.03211 l -1.010159,-8.07576 z"
       id="path2911" />
    <path
       style="fill:#ffffff;fill-opacity:1;fill-rule:evenodd;stroke:none;stroke-width:0.145458"
       d="m 51.573941,107.60738 1.010154,8.07576 1.010159,8.07576 -39.044718,4.88607 -1.010158,-8.07574 -1.010149,-8.07576 z"
       id="path2913" />
    <path
       style="fill:#ffffff;fill-opacity:1;fill-rule:evenodd;stroke:none;stroke-width:0.145458"
       d="m 5.40324,120.56923 c 0,-1.4274 0.3733133,-2.83283 1.0924989,-4.06808 0.7136974,-1.23524 1.740329,-2.26187 2.9755745,-2.97556 0.9387846,-0.54351 1.9818806,-0.89487 3.0579156,-1.03212 l 1.010149,8.07576 z"
       id="path2915" />
    <path
       style="fill:#ffffff;fill-opacity:1;fill-rule:evenodd;stroke:none;stroke-width:0.145458"
       d="m 5.40324,120.56923 h 8.136138 8.136152 v 44.61704 H 13.539378 5.40324 Z"
       id="path2917" />
    <path
       style="fill:#ffffff;fill-opacity:1;fill-rule:evenodd;stroke:none;stroke-width:0.145458"
       d="m 12.386491,173.24006 c -1.026632,-0.14823 -2.014819,-0.48861 -2.9151776,-1.01015 -1.2352455,-0.7137 -2.2618771,-1.74033 -2.9755745,-2.97557 C 5.7765533,168.01908 5.40324,166.61366 5.40324,165.18627 h 8.136138 z"
       id="path2919" />
    <path
       style="fill:#ffffff;fill-opacity:1;fill-rule:evenodd;stroke:none;stroke-width:0.145458"
       d="m 12.386491,173.24006 1.152887,-8.05379 1.152905,-8.0538 39.039218,5.57782 -1.152893,8.05379 -1.152899,8.0538 z"
       id="path2921" />
    <path
       style="fill:#ffffff;fill-opacity:1;fill-rule:evenodd;stroke:none;stroke-width:0.145458"
       d="m 188.65316,143.03421 h 8.13615 c 0,4.80922 -0.63135,9.58001 -1.86659,14.18609 l -7.86165,-2.10814 -7.85615,-2.10816 c 0.86742,-3.23908 1.31209,-6.58796 1.31209,-9.96979 z"
       id="path2923" />
    <path
       style="fill:#ffffff;fill-opacity:1;fill-rule:evenodd;stroke:none;stroke-width:0.145458"
       d="m 187.06107,155.11216 7.86165,2.10814 c -1.23523,4.6061 -3.07439,9.04749 -5.479,13.21439 l -7.04364,-4.06807 -7.04364,-4.06809 c 1.69092,-2.92615 2.98106,-6.05544 3.84848,-9.29453 z"
       id="path2925" />
    <path
       style="fill:#ffffff;fill-opacity:1;fill-rule:evenodd;stroke:none;stroke-width:0.145458"
       d="m 182.40008,166.36662 7.04364,4.06807 c -2.4046,4.16688 -5.33626,7.97693 -8.70711,11.34778 l -5.75349,-5.7535 -5.75349,-5.7535 c 2.37167,-2.37168 4.4359,-5.05077 6.12681,-7.97694 z"
       id="path2927" />
    <path
       style="fill:#ffffff;fill-opacity:1;fill-rule:evenodd;stroke:none;stroke-width:0.145458"
       d="m 174.98312,176.02897 5.75349,5.7535 c -3.37084,3.37084 -7.18088,6.30248 -11.34777,8.70709 l -4.06808,-7.04363 -4.06807,-7.04363 c 2.92615,-1.69092 5.60527,-3.75516 7.97694,-6.12683 z"
       id="path2929" />
    <path
       style="fill:#ffffff;fill-opacity:1;fill-rule:evenodd;stroke:none;stroke-width:0.145458"
       d="m 165.32076,183.44593 4.06808,7.04363 c -4.16688,2.40462 -8.60828,4.24375 -13.21437,5.479 l -2.10817,-7.86164 -2.10814,-7.85617 c 3.2391,-0.86741 6.36837,-2.15755 9.29453,-3.84845 z"
       id="path2931" />
    <path
       style="fill:#ffffff;fill-opacity:1;fill-rule:evenodd;stroke:none;stroke-width:0.145458"
       d="m 154.0663,188.10692 2.10817,7.86164 c -4.60609,1.23524 -9.37688,1.86659 -14.1861,1.86659 v -8.13614 -8.13614 c 3.38182,0 6.7362,-0.44469 9.96979,-1.31212 z"
       id="path2933" />
    <path
       style="fill:#ffffff;fill-opacity:1;fill-rule:evenodd;stroke:none;stroke-width:0.145458"
       d="m 141.98837,189.69901 v 8.13614 c -4.80922,0 -9.58001,-0.63135 -14.1861,-1.86659 l 2.10265,-7.86164 2.10816,-7.85617 c 3.23908,0.86743 6.59346,1.31212 9.97529,1.31212 z"
       id="path2935" />
    <path
       style="fill:#ffffff;fill-opacity:1;fill-rule:evenodd;stroke:none;stroke-width:0.145458"
       d="m 129.90492,188.10692 -2.10265,7.86164 c -4.61159,-1.23525 -9.05297,-3.07438 -13.21987,-5.479 l 4.06807,-7.04363 4.06808,-7.04363 c 2.92616,1.6909 6.05544,2.98104 9.29453,3.84845 z"
       id="path2937" />
    <path
       style="fill:#ffffff;fill-opacity:1;fill-rule:evenodd;stroke:none;stroke-width:0.145458"
       d="m 118.65047,183.44593 -4.06807,7.04363 c -4.16689,-2.40461 -7.97694,-5.33625 -11.34778,-8.70709 l 5.7535,-5.7535 5.75349,-5.7535 c 2.37168,2.37167 5.05078,4.43591 7.97694,6.12683 z"
       id="path2939" />
    <path
       style="fill:#ffffff;fill-opacity:1;fill-rule:evenodd;stroke:none;stroke-width:0.145458"
       d="m 108.98812,176.02897 -5.7535,5.7535 c -3.370846,-3.37085 -6.302491,-7.1809 -8.707104,-11.34778 l 7.043644,-4.06807 7.04363,-4.06809 c 1.69092,2.92617 3.75515,5.60526 6.12682,7.97694 z"
       id="path2941" />
    <path
       style="fill:#ffffff;fill-opacity:1;fill-rule:evenodd;stroke:none;stroke-width:0.145458"
       d="m 101.57116,166.36662 -7.043644,4.06807 c -2.404606,-4.1669 -4.24375,-8.60829 -5.478992,-13.21439 l 7.861647,-2.10814 7.856159,-2.10816 c 0.86741,3.23909 2.15756,6.36838 3.84846,9.29453 z"
       id="path2943" />
    <path
       style="fill:#ffffff;fill-opacity:1;fill-rule:evenodd;stroke:none;stroke-width:0.145458"
       d="m 96.910171,155.11216 -7.861647,2.10814 c -1.235248,-4.60608 -1.866594,-9.37687 -1.866594,-14.18609 h 8.136143 8.136147 c 0,3.38183 0.44469,6.73071 1.31211,9.96979 z"
       id="path2945" />
    <path
       style="fill:#ffffff;fill-opacity:1;fill-rule:evenodd;stroke:none;stroke-width:0.145458"
       d="M 95.318073,143.03421 H 87.18193 c 0,-4.81471 0.631346,-9.58001 1.866594,-14.1861 l 7.861647,2.10266 7.856159,2.10815 c -0.86742,3.23909 -1.31211,6.59347 -1.31211,9.97529 z"
       id="path2947" />
    <path
       style="fill:#ffffff;fill-opacity:1;fill-rule:evenodd;stroke:none;stroke-width:0.145458"
       d="m 96.910171,130.95077 -7.861647,-2.10266 c 1.235242,-4.61158 3.074386,-9.05298 5.478992,-13.21987 l 7.043644,4.06808 7.04363,4.06807 c -1.6909,2.92616 -2.98105,6.05544 -3.84846,9.29453 z"
       id="path2949" />
    <path
       style="fill:#ffffff;fill-opacity:1;fill-rule:evenodd;stroke:none;stroke-width:0.145458"
       d="m 101.57116,119.69632 -7.043644,-4.06808 c 2.404613,-4.16688 5.336258,-7.97693 8.707104,-11.34778 l 5.7535,5.7535 5.75349,5.75349 c -2.37167,2.37167 -4.4359,5.05078 -6.12682,7.97694 z"
       id="path2951" />
    <path
       style="fill:#ffffff;fill-opacity:1;fill-rule:evenodd;stroke:none;stroke-width:0.145458"
       d="m 108.98812,110.03396 -5.7535,-5.7535 c 3.37084,-3.37084 7.18089,-6.302492 11.34778,-8.707099 l 4.06807,7.043639 4.06808,7.04364 c -2.92616,1.69092 -5.60526,3.75515 -7.97694,6.12681 z"
       id="path2953" />
    <path
       style="fill:#ffffff;fill-opacity:1;fill-rule:evenodd;stroke:none;stroke-width:0.145458"
       d="m 118.65047,102.617 -4.06807,-7.043639 c 4.1669,-2.404612 8.60828,-4.24375 13.21438,-5.478998 l 2.10814,7.861648 2.10816,7.856149 c -3.23909,0.86742 -6.36837,2.15756 -9.29453,3.84848 z"
       id="path2955" />
    <path
       style="fill:#ffffff;fill-opacity:1;fill-rule:evenodd;stroke:none;stroke-width:0.145458"
       d="m 129.90492,97.956011 -2.10814,-7.861648 c 4.60608,-1.235242 9.37688,-1.866594 14.18609,-1.866594 v 8.136149 8.136142 c -3.38182,0 -6.73071,0.44469 -9.96979,1.3121 z"
       id="path2957" />
    <path
       style="fill:#ffffff;fill-opacity:1;fill-rule:evenodd;stroke:none;stroke-width:0.145458"
       d="m 141.98287,96.363918 v -8.136149 c 4.81472,0 9.58001,0.631352 14.1861,1.866594 l -2.10267,7.861648 -2.10814,7.856149 c -3.23908,-0.86741 -6.59346,-1.3121 -9.97529,-1.3121 z"
       id="path2959" />
    <path
       style="fill:#ffffff;fill-opacity:1;fill-rule:evenodd;stroke:none;stroke-width:0.145458"
       d="m 154.0663,97.956011 2.10267,-7.861648 c 4.61159,1.235248 9.05299,3.074386 13.21987,5.478998 l -4.06808,7.043639 -4.06807,7.04364 c -2.92616,-1.69092 -6.05543,-2.98106 -9.29453,-3.84848 z"
       id="path2961" />
    <path
       style="fill:#ffffff;fill-opacity:1;fill-rule:evenodd;stroke:none;stroke-width:0.145458"
       d="m 165.32076,102.617 4.06808,-7.043639 c 4.16689,2.404607 7.97693,5.336259 11.34777,8.707099 l -5.75349,5.7535 -5.75349,5.75349 c -2.37167,-2.37166 -5.05079,-4.43589 -7.97694,-6.12681 z"
       id="path2963" />
    <path
       style="fill:#ffffff;fill-opacity:1;fill-rule:evenodd;stroke:none;stroke-width:0.145458"
       d="m 174.98312,110.03396 5.75349,-5.7535 c 3.37085,3.37085 6.30251,7.1809 8.70711,11.34778 l -7.04364,4.06808 -7.04364,4.06807 c -1.69091,-2.92616 -3.75514,-5.60527 -6.12681,-7.97694 z"
       id="path2965" />
    <path
       style="fill:#ffffff;fill-opacity:1;fill-rule:evenodd;stroke:none;stroke-width:0.145458"
       d="m 182.40008,119.69632 7.04364,-4.06808 c 2.40461,4.16689 4.24377,8.60829 5.479,13.21438 l -7.86165,2.10815 -7.85615,2.10815 c -0.86742,-3.23909 -2.15756,-6.36837 -3.84848,-9.29453 z"
       id="path2967" />
    <path
       style="fill:#ffffff;fill-opacity:1;fill-rule:evenodd;stroke:none;stroke-width:0.145458"
       d="m 187.06107,130.95077 7.86165,-2.10815 c 1.23524,4.60609 1.86659,9.37688 1.86659,14.18609 h -8.13615 -8.13615 c 0,-3.38181 -0.44467,-6.7307 -1.31209,-9.96979 z"
       id="path2969" />
    <path
       style="fill:#ffffff;fill-opacity:1;fill-rule:evenodd;stroke:none;stroke-width:0.145458"
       d="m 180.51701,143.02871 h 8.13615 8.13615 v 0.005 h -8.13615 -8.13615 z"
       id="path2971" />
  </g>
</svg>
