<?xml version="1.0" encoding="UTF-8" standalone="no"?>
<svg
   xmlns:dc="http://purl.org/dc/elements/1.1/"
   xmlns:cc="http://creativecommons.org/ns#"
   xmlns:rdf="http://www.w3.org/1999/02/22-rdf-syntax-ns#"
   xmlns:svg="http://www.w3.org/2000/svg"
   xmlns="http://www.w3.org/2000/svg"
   xmlns:sodipodi="http://sodipodi.sourceforge.net/DTD/sodipodi-0.dtd"
   xmlns:inkscape="http://www.inkscape.org/namespaces/inkscape"
   width="1080"
   height="1080"
   viewBox="0 0 285.74999 285.75001"
   version="1.1"
   id="svg8"
   inkscape:version="1.0.2 (e86c870879, 2021-01-15)"
   sodipodi:docname="Equis.svg">
  <defs
     id="defs2" />
  <sodipodi:namedview
     id="base"
     pagecolor="#ffffff"
     bordercolor="#666666"
     borderopacity="1.0"
     inkscape:pageopacity="0.0"
     inkscape:pageshadow="2"
     inkscape:zoom="0.16801215"
     inkscape:cx="235.17537"
     inkscape:cy="813.18168"
     inkscape:document-units="mm"
     inkscape:current-layer="layer1"
     inkscape:document-rotation="0"
     showgrid="false"
     units="px"
     inkscape:pagecheckerboard="true"
     inkscape:window-width="1366"
     inkscape:window-height="705"
     inkscape:window-x="-8"
     inkscape:window-y="-8"
     inkscape:window-maximized="1" />
  <metadata
     id="metadata5">
    <rdf:RDF>
      <cc:Work
         rdf:about="">
        <dc:format>image/svg+xml</dc:format>
        <dc:type
           rdf:resource="http://purl.org/dc/dcmitype/StillImage" />
        <dc:title></dc:title>
      </cc:Work>
    </rdf:RDF>
  </metadata>
  <g
     inkscape:label="Capa 1"
     inkscape:groupmode="layer"
     id="layer1">
    <path
       style="fill:#ffffff;fill-opacity:1;fill-rule:evenodd;stroke:none;stroke-width:0.120362"
       d="m 242.87841,17.930388 c 2.18599,-2.190536 4.9128,-3.762997 7.90775,-4.567404 2.99039,-0.799866 6.13531,-0.799866 9.12571,0 2.99495,0.804407 5.72175,2.376868 7.90774,4.567404 2.19054,2.185991 3.763,4.912795 4.56741,7.907742 0.79986,2.990398 0.79986,6.135315 0,9.125718 -0.80441,2.994942 -2.37687,5.721751 -4.56741,7.907742 L 42.87159,267.81961 c -2.185991,2.19054 -4.912799,3.763 -7.907743,4.56741 -2.990399,0.79986 -6.135318,0.79986 -9.125716,0 -2.994947,-0.80441 -5.721755,-2.37687 -7.907747,-4.56741 -2.190535,-2.18599 -3.762992,-4.91279 -4.567403,-7.90773 -0.799862,-2.99041 -0.799862,-6.13532 0,-9.12572 0.804411,-2.99494 2.376868,-5.72176 4.567403,-7.90775 z"
       id="path5306" />
    <path
       style="fill:#ffffff;fill-opacity:1;fill-rule:evenodd;stroke:none;stroke-width:0.120362"
       d="m 267.81961,242.87841 c 2.19054,2.18599 3.763,4.91281 4.56741,7.90775 0.79986,2.9904 0.79986,6.13531 0,9.12572 -0.80441,2.99494 -2.37687,5.72174 -4.56741,7.90773 -2.18599,2.19054 -4.91279,3.763 -7.90774,4.56741 -2.9904,0.79986 -6.13532,0.79986 -9.12571,0 -2.99495,-0.80441 -5.72176,-2.37687 -7.90775,-4.56741 L 17.930384,42.87159 c -2.190535,-2.185991 -3.762992,-4.9128 -4.567403,-7.907742 -0.799862,-2.990403 -0.799862,-6.13532 0,-9.125718 0.804411,-2.994947 2.376868,-5.721751 4.567403,-7.907742 2.185992,-2.190536 4.9128,-3.762997 7.907747,-4.567404 2.990398,-0.799866 6.135317,-0.799866 9.125716,0 2.994944,0.804407 5.721752,2.376868 7.907743,4.567404 z"
       id="path5308" />
  </g>
</svg>
