<?xml version="1.0" encoding="UTF-8" standalone="no"?>
<svg
   xmlns:dc="http://purl.org/dc/elements/1.1/"
   xmlns:cc="http://creativecommons.org/ns#"
   xmlns:rdf="http://www.w3.org/1999/02/22-rdf-syntax-ns#"
   xmlns:svg="http://www.w3.org/2000/svg"
   xmlns="http://www.w3.org/2000/svg"
   xmlns:sodipodi="http://sodipodi.sourceforge.net/DTD/sodipodi-0.dtd"
   xmlns:inkscape="http://www.inkscape.org/namespaces/inkscape"
   width="1080"
   height="1080"
   viewBox="0 0 285.74999 285.75001"
   version="1.1"
   id="svg8"
   inkscape:version="1.0.2 (e86c870879, 2021-01-15)"
   sodipodi:docname="Evento.svg">
  <defs
     id="defs2">
    <pattern
       id="EMFhbasepattern"
       patternUnits="userSpaceOnUse"
       width="6"
       height="6"
       x="0"
       y="0" />
  </defs>
  <sodipodi:namedview
     id="base"
     pagecolor="#ffffff"
     bordercolor="#666666"
     borderopacity="1.0"
     inkscape:pageopacity="0.0"
     inkscape:pageshadow="2"
     inkscape:zoom="0.23760507"
     inkscape:cx="859.52111"
     inkscape:cy="-18.962296"
     inkscape:document-units="mm"
     inkscape:current-layer="layer1"
     inkscape:document-rotation="0"
     showgrid="false"
     units="px"
     inkscape:pagecheckerboard="true"
     inkscape:window-width="1366"
     inkscape:window-height="705"
     inkscape:window-x="-8"
     inkscape:window-y="-8"
     inkscape:window-maximized="1" />
  <metadata
     id="metadata5">
    <rdf:RDF>
      <cc:Work
         rdf:about="">
        <dc:format>image/svg+xml</dc:format>
        <dc:type
           rdf:resource="http://purl.org/dc/dcmitype/StillImage" />
        <dc:title></dc:title>
      </cc:Work>
    </rdf:RDF>
  </metadata>
  <g
     inkscape:label="Capa 1"
     inkscape:groupmode="layer"
     id="layer1">
    <path
       style="fill:#ffffff;fill-opacity:1;fill-rule:evenodd;stroke:none;stroke-width:0.128953"
       d="m 41.307571,51.857788 c -1.81153,0 -3.588973,-0.47723 -5.152147,-1.382997 -1.568045,-0.900892 -2.873126,-2.205976 -3.774021,-3.76915 -0.905766,-1.568046 -1.382997,-3.345487 -1.382997,-5.157015 0,-1.811533 0.477231,-3.588975 1.382997,-5.152152 0.900895,-1.568042 2.205976,-2.873121 3.769151,-3.774019 1.568044,-0.905767 3.345487,-1.382997 5.157017,-1.382997 v 10.309168 z"
       id="path4616" />
    <path
       style="fill:#ffffff;fill-opacity:1;fill-rule:evenodd;stroke:none;stroke-width:0.128953"
       d="M 41.307571,51.857788 V 41.548626 31.239458 h 0.0049 v 10.309168 10.309162 z"
       id="path4618" />
    <path
       style="fill:#ffffff;fill-opacity:1;fill-rule:evenodd;stroke:none;stroke-width:0.128953"
       d="m 41.31244,31.239458 c 1.811531,0 3.588973,0.47723 5.152148,1.382997 1.568045,0.900898 2.873126,2.205977 3.77402,3.76915 0.905765,1.568046 1.382997,3.345488 1.382997,5.157021 0,1.811528 -0.477232,3.588969 -1.382997,5.157015 -0.900894,1.563174 -2.205975,2.868258 -3.76915,3.76915 -1.568045,0.905767 -3.345487,1.382997 -5.157018,1.382997 V 41.548626 Z"
       id="path4620" />
    <path
       style="fill:#ffffff;fill-opacity:1;fill-rule:evenodd;stroke:none;stroke-width:0.128953"
       d="m 41.31244,41.548626 v 10.309162 c -0.793761,0 -1.582653,0.102264 -2.342327,0.306789 l -2.668598,-9.958545 -2.663728,-9.958544 c 2.493288,-0.66715 5.074232,-1.00803 7.674653,-1.00803 z"
       id="path4622" />
    <path
       style="fill:#ffffff;fill-opacity:1;fill-rule:evenodd;stroke:none;stroke-width:0.128953"
       d="m 36.301515,42.206032 2.668598,9.958545 c -0.759675,0.20453 -1.494999,0.506449 -2.176758,0.900897 L 31.636337,44.139309 26.47932,35.213138 c 2.254674,-1.30508 4.665177,-2.298502 7.158467,-2.96565 z"
       id="path4624" />
    <path
       style="fill:#ffffff;fill-opacity:1;fill-rule:evenodd;stroke:none;stroke-width:0.128953"
       d="m 31.636337,44.139309 5.157018,8.926165 c -0.686629,0.399318 -1.31482,0.881418 -1.874836,1.436561 L 27.62857,47.212091 20.338623,39.922142 c 1.82614,-1.821271 3.890894,-3.408793 6.140697,-4.709004 z"
       id="path4626" />
    <path
       style="fill:#ffffff;fill-opacity:1;fill-rule:evenodd;stroke:none;stroke-width:0.128953"
       d="m 27.62857,47.212091 7.289949,7.289944 c -0.555147,0.560017 -1.037247,1.18821 -1.436562,1.874839 l -8.926169,-5.15702 -8.926169,-5.157017 c 1.300212,-2.249802 2.887735,-4.314555 4.709004,-6.140695 z"
       id="path4628" />
    <path
       style="fill:#ffffff;fill-opacity:1;fill-rule:evenodd;stroke:none;stroke-width:0.128953"
       d="m 24.555788,51.219854 8.926169,5.15702 C 33.08751,57.05863 32.785588,57.793959 32.58106,58.553633 L 22.622514,55.885032 12.66397,53.221305 c 0.667149,-2.493289 1.660569,-4.903791 2.965649,-7.158468 z"
       id="path4630" />
    <path
       style="fill:#ffffff;fill-opacity:1;fill-rule:evenodd;stroke:none;stroke-width:0.128953"
       d="m 22.622514,55.885032 9.958546,2.668601 c -0.204528,0.759674 -0.30679,1.548566 -0.30679,2.342327 H 21.965105 11.655941 c 0,-2.600421 0.340878,-5.181366 1.008029,-7.674655 z"
       id="path4632" />
    <path
       style="fill:#ffffff;fill-opacity:1;fill-rule:evenodd;stroke:none;stroke-width:0.128953"
       d="M 11.655941,60.89596 H 21.965105 32.27427 V 244.84904 H 21.965105 11.655941 Z"
       id="path4634" />
    <path
       style="fill:#ffffff;fill-opacity:1;fill-rule:evenodd;stroke:none;stroke-width:0.128953"
       d="M 21.965105,244.84904 H 32.27427 c 0,0.79377 0.102262,1.58266 0.30679,2.34234 l -9.958546,2.66859 -9.958544,2.66372 c -0.667151,-2.49328 -1.008029,-5.07422 -1.008029,-7.67465 z"
       id="path4636" />
    <path
       style="fill:#ffffff;fill-opacity:1;fill-rule:evenodd;stroke:none;stroke-width:0.128953"
       d="m 22.622514,249.85997 9.958546,-2.66859 c 0.204528,0.75967 0.50645,1.49499 0.900897,2.17675 l -8.926169,5.15701 -8.926169,5.15703 c -1.30508,-2.25467 -2.2985,-4.66519 -2.965649,-7.15848 z"
       id="path4638" />
    <path
       style="fill:#ffffff;fill-opacity:1;fill-rule:evenodd;stroke:none;stroke-width:0.128953"
       d="m 24.555788,254.52514 8.926169,-5.15701 c 0.399315,0.68662 0.881415,1.31483 1.436562,1.87484 l -7.289949,7.28994 -7.289947,7.28996 c -1.821269,-1.82614 -3.408792,-3.8909 -4.709004,-6.1407 z"
       id="path4640" />
    <path
       style="fill:#ffffff;fill-opacity:1;fill-rule:evenodd;stroke:none;stroke-width:0.128953"
       d="m 27.62857,258.53291 7.289949,-7.28994 c 0.560016,0.55515 1.188207,1.03725 1.874836,1.43656 l -5.157018,8.92617 -5.157017,8.92617 c -2.249803,-1.30022 -4.314557,-2.88773 -6.140697,-4.709 z"
       id="path4642" />
    <path
       style="fill:#ffffff;fill-opacity:1;fill-rule:evenodd;stroke:none;stroke-width:0.128953"
       d="m 31.636337,261.6057 5.157018,-8.92617 c 0.681759,0.39445 1.417083,0.69637 2.176758,0.9009 l -2.668598,9.95854 -2.663728,9.95855 c -2.49329,-0.66716 -4.903793,-1.66057 -7.158467,-2.96565 z"
       id="path4644" />
    <path
       style="fill:#ffffff;fill-opacity:1;fill-rule:evenodd;stroke:none;stroke-width:0.128953"
       d="m 36.301515,263.53897 2.668598,-9.95854 c 0.759674,0.20452 1.548566,0.30678 2.342327,0.30678 v 10.30917 10.30917 c -2.600421,0 -5.181365,-0.34089 -7.674653,-1.00803 z"
       id="path4646" />
    <path
       style="fill:#ffffff;fill-opacity:1;fill-rule:evenodd;stroke:none;stroke-width:0.128953"
       d="m 41.31244,274.50555 v -10.30917 -10.30917 h 203.12511 v 10.30917 10.30917 z"
       id="path4648" />
    <path
       style="fill:#ffffff;fill-opacity:1;fill-rule:evenodd;stroke:none;stroke-width:0.128953"
       d="m 244.43755,264.19638 v -10.30917 c 0.79376,0 1.58265,-0.10226 2.34233,-0.30678 l 2.6686,9.95854 2.66372,9.95855 c -2.49328,0.66714 -5.07423,1.00803 -7.67465,1.00803 z"
       id="path4650" />
    <path
       style="fill:#ffffff;fill-opacity:1;fill-rule:evenodd;stroke:none;stroke-width:0.128953"
       d="m 249.44848,263.53897 -2.6686,-9.95854 c 0.75968,-0.20453 1.495,-0.50645 2.17676,-0.9009 l 5.15701,8.92617 5.15703,8.92617 c -2.25469,1.30508 -4.66519,2.29849 -7.15848,2.96565 z"
       id="path4652" />
    <path
       style="fill:#ffffff;fill-opacity:1;fill-rule:evenodd;stroke:none;stroke-width:0.128953"
       d="m 254.11365,261.6057 -5.15701,-8.92617 c 0.68662,-0.39931 1.31482,-0.88141 1.87484,-1.43656 l 7.28994,7.28994 7.28996,7.28996 c -1.82616,1.82127 -3.89091,3.40878 -6.1407,4.709 z"
       id="path4654" />
    <path
       style="fill:#ffffff;fill-opacity:1;fill-rule:evenodd;stroke:none;stroke-width:0.128953"
       d="m 258.12142,258.53291 -7.28994,-7.28994 c 0.55515,-0.56001 1.03724,-1.18822 1.43655,-1.87484 l 8.92618,5.15701 8.92616,5.15703 c -1.30021,2.2498 -2.88773,4.31456 -4.70899,6.1407 z"
       id="path4656" />
    <path
       style="fill:#ffffff;fill-opacity:1;fill-rule:evenodd;stroke:none;stroke-width:0.128953"
       d="m 261.19421,254.52514 -8.92618,-5.15701 c 0.39446,-0.68176 0.69638,-1.41708 0.9009,-2.17675 l 9.95854,2.66859 9.95856,2.66372 c -0.66715,2.49329 -1.66058,4.90381 -2.96566,7.15848 z"
       id="path4658" />
    <path
       style="fill:#ffffff;fill-opacity:1;fill-rule:evenodd;stroke:none;stroke-width:0.128953"
       d="m 263.12747,249.85997 -9.95854,-2.66859 c 0.20452,-0.75968 0.30679,-1.54857 0.30679,-2.34234 h 10.30916 10.30918 c 0,2.60043 -0.34089,5.18137 -1.00803,7.67465 z"
       id="path4660" />
    <path
       style="fill:#ffffff;fill-opacity:1;fill-rule:evenodd;stroke:none;stroke-width:0.128953"
       d="m 274.09406,244.84904 c 0,0 0,0 0,0 v 0 h -10.30918 z"
       id="path4662" />
    <path
       style="fill:#ffffff;fill-opacity:1;fill-rule:evenodd;stroke:none;stroke-width:0.128953"
       d="m 274.09406,244.84904 h -10.30918 -10.30916 l -0.005,-183.957949 h 10.30917 10.30916 z"
       id="path4664" />
    <path
       style="fill:#ffffff;fill-opacity:1;fill-rule:evenodd;stroke:none;stroke-width:0.128953"
       d="m 253.47085,60.891091 c 0,0 0,0 0,0 0,-1.811533 0.47723,-3.588975 1.383,-5.152147 0.9009,-1.568046 2.20597,-2.873126 3.77402,-3.774024 1.56317,-0.905766 3.34062,-1.382997 5.15215,-1.382997 1.81152,0 3.58896,0.477231 5.15701,1.382997 0.77915,0.448012 1.495,0.998292 2.13293,1.636222 l -7.28994,7.289949 z"
       id="path4666" />
    <path
       style="fill:#ffffff;fill-opacity:1;fill-rule:evenodd;stroke:none;stroke-width:0.128953"
       d="m 256.49007,68.181035 7.28995,-7.289944 7.28994,-7.289949 0.005,0.0049 -7.28995,7.289949 -7.28994,7.289944 z"
       id="path4668" />
    <path
       style="fill:#ffffff;fill-opacity:1;fill-rule:evenodd;stroke:none;stroke-width:0.128953"
       d="m 274.09406,60.89596 c 0,1.811528 -0.47723,3.588969 -1.383,5.157016 -0.90089,1.563172 -2.20598,2.868256 -3.76916,3.76915 -1.56804,0.905767 -3.34549,1.382998 -5.15702,1.382998 -1.81152,0 -3.58896,-0.477231 -5.15214,-1.382998 -0.78402,-0.448012 -1.49986,-0.998286 -2.1378,-1.636222 l 7.28994,-7.289944 z"
       id="path4670" />
    <path
       style="fill:#ffffff;fill-opacity:1;fill-rule:evenodd;stroke:none;stroke-width:0.128953"
       d="m 263.78488,60.89596 h -10.30916 c 0,-0.793761 -0.10227,-1.582653 -0.30679,-2.342327 l 9.95854,-2.668601 9.95856,-2.663727 c 0.66714,2.493289 1.00803,5.074234 1.00803,7.674655 z"
       id="path4672" />
    <path
       style="fill:#ffffff;fill-opacity:1;fill-rule:evenodd;stroke:none;stroke-width:0.128953"
       d="m 263.12747,55.885032 -9.95854,2.668601 c -0.20452,-0.759674 -0.50644,-1.495003 -0.9009,-2.176759 l 8.92618,-5.15702 8.92616,-5.157017 c 1.30508,2.254677 2.29851,4.665179 2.96566,7.158468 z"
       id="path4674" />
    <path
       style="fill:#ffffff;fill-opacity:1;fill-rule:evenodd;stroke:none;stroke-width:0.128953"
       d="m 261.19421,51.219854 -8.92618,5.15702 c -0.39931,-0.686629 -0.8814,-1.314822 -1.43655,-1.874839 l 7.28994,-7.289944 7.28996,-7.289949 c 1.82126,1.82614 3.40878,3.890893 4.70899,6.140695 z"
       id="path4676" />
    <path
       style="fill:#ffffff;fill-opacity:1;fill-rule:evenodd;stroke:none;stroke-width:0.128953"
       d="m 258.12142,47.212091 -7.28994,7.289944 c -0.56002,-0.555143 -1.18822,-1.037243 -1.87484,-1.436561 l 5.15701,-8.926165 5.15703,-8.926171 c 2.24979,1.300211 4.31454,2.887733 6.1407,4.709004 z"
       id="path4678" />
    <path
       style="fill:#ffffff;fill-opacity:1;fill-rule:evenodd;stroke:none;stroke-width:0.128953"
       d="m 254.11365,44.139309 -5.15701,8.926165 c -0.68176,-0.394448 -1.41708,-0.696367 -2.17676,-0.900897 l 2.6686,-9.958545 2.66372,-9.958544 c 2.49329,0.667148 4.90379,1.66057 7.15848,2.96565 z"
       id="path4680" />
    <path
       style="fill:#ffffff;fill-opacity:1;fill-rule:evenodd;stroke:none;stroke-width:0.128953"
       d="m 249.44848,42.206032 -2.6686,9.958545 c -0.75968,-0.204525 -1.54857,-0.306789 -2.34233,-0.306789 V 41.548626 31.239458 c 2.60042,0 5.18137,0.34088 7.67465,1.00803 z"
       id="path4682" />
    <path
       style="fill:#ffffff;fill-opacity:1;fill-rule:evenodd;stroke:none;stroke-width:0.128953"
       d="M 244.43755,31.239458 V 41.548626 51.857788 H 41.307571 V 41.548626 31.239458 Z"
       id="path4684" />
    <path
       style="fill:#ffffff;fill-opacity:1;fill-rule:evenodd;stroke:none;stroke-width:0.128953"
       d="M 22.140413,112.37361 V 102.06444 91.755275 H 263.95533 v 10.309165 10.30917 z"
       id="path4686" />
    <path
       style="fill:#ffffff;fill-opacity:1;fill-rule:evenodd;stroke:none;stroke-width:0.128953"
       d="M 52.030661,11.244451 H 62.339823 72.648987 V 71.852797 H 62.339823 52.030661 Z"
       id="path4688" />
    <path
       style="fill:#ffffff;fill-opacity:1;fill-rule:evenodd;stroke:none;stroke-width:0.128953"
       d="m 213.21788,11.244451 h 10.30916 10.30916 v 60.608346 h -10.30916 -10.30916 z"
       id="path4690" />
  </g>
</svg>
