<?xml version="1.0" encoding="UTF-8" standalone="no"?>
<svg
   xmlns:dc="http://purl.org/dc/elements/1.1/"
   xmlns:cc="http://creativecommons.org/ns#"
   xmlns:rdf="http://www.w3.org/1999/02/22-rdf-syntax-ns#"
   xmlns:svg="http://www.w3.org/2000/svg"
   xmlns="http://www.w3.org/2000/svg"
   xmlns:sodipodi="http://sodipodi.sourceforge.net/DTD/sodipodi-0.dtd"
   xmlns:inkscape="http://www.inkscape.org/namespaces/inkscape"
   width="1080"
   height="1080"
   viewBox="0 0 285.74999 285.75001"
   version="1.1"
   id="svg8"
   inkscape:version="1.0.2 (e86c870879, 2021-01-15)"
   sodipodi:docname="Mensaje.svg">
  <defs
     id="defs2">
    <pattern
       id="EMFhbasepattern"
       patternUnits="userSpaceOnUse"
       width="6"
       height="6"
       x="0"
       y="0" />
  </defs>
  <sodipodi:namedview
     id="base"
     pagecolor="#ffffff"
     bordercolor="#666666"
     borderopacity="1.0"
     inkscape:pageopacity="0.0"
     inkscape:pageshadow="2"
     inkscape:zoom="0.47521013"
     inkscape:cx="626.35088"
     inkscape:cy="477.36682"
     inkscape:document-units="mm"
     inkscape:current-layer="layer1"
     inkscape:document-rotation="0"
     showgrid="false"
     units="px"
     inkscape:pagecheckerboard="true"
     inkscape:window-width="1366"
     inkscape:window-height="705"
     inkscape:window-x="-8"
     inkscape:window-y="-8"
     inkscape:window-maximized="1" />
  <metadata
     id="metadata5">
    <rdf:RDF>
      <cc:Work
         rdf:about="">
        <dc:format>image/svg+xml</dc:format>
        <dc:type
           rdf:resource="http://purl.org/dc/dcmitype/StillImage" />
        <dc:title></dc:title>
      </cc:Work>
    </rdf:RDF>
  </metadata>
  <g
     inkscape:label="Capa 1"
     inkscape:groupmode="layer"
     id="layer1"
     style="opacity:0.999">
    <path
       style="fill:#ffffff;fill-opacity:1;fill-rule:evenodd;stroke:none;stroke-width:0.120345"
       d="m 33.739215,43.192959 c -0.91268,0 -1.81174,-0.24066 -2.60182,-0.69927 -0.79463,-0.45407 -1.45303,-1.11247 -1.9071,-1.90255 -0.45861,-0.79463 -0.69927,-1.69369 -0.69927,-2.60637 0,-0.91268 0.24066,-1.81174 0.69927,-2.60182 0.45407,-0.79462 1.11247,-1.45302 1.90256,-1.90709 0.79462,-0.45862 1.69368,-0.69927 2.60636,-0.69927 H 258.75372 v 5.20818 5.20819 z"
       id="path1629" />
    <path
       style="fill:#ffffff;fill-opacity:1;fill-rule:evenodd;stroke:none;stroke-width:0.120345"
       d="m 258.75372,32.776589 c 0.5585,0 1.11701,0.0908 1.64827,0.2679 l -1.64827,4.94028 z"
       id="path1631" />
    <path
       style="fill:#ffffff;fill-opacity:1;fill-rule:evenodd;stroke:none;stroke-width:0.120345"
       d="m 257.10545,42.925059 1.64827,-4.94029 1.64827,-4.94028 6.74295,2.24765 -1.64828,4.94028 -1.64827,4.94028 z"
       id="path1633" />
    <path
       style="fill:#ffffff;fill-opacity:1;fill-rule:evenodd;stroke:none;stroke-width:0.120345"
       d="m 267.14494,35.292139 c 0.33147,0.10897 0.65386,0.25428 0.95809,0.43136 0.79007,0.45407 1.44848,1.11248 1.90255,1.90256 0.16801,0.2906 0.30424,0.59029 0.41321,0.9036 l -4.92213,1.70276 z"
       id="path1635" />
    <path
       style="fill:#ffffff;fill-opacity:1;fill-rule:evenodd;stroke:none;stroke-width:0.120345"
       d="m 260.57454,41.935179 4.92212,-1.70276 4.92212,-1.70276 2.24765,6.4932 -4.92212,1.70276 -4.92212,1.70277 z"
       id="path1637" />
    <path
       style="fill:#ffffff;fill-opacity:1;fill-rule:evenodd;stroke:none;stroke-width:0.120345"
       d="m 272.66643,45.022859 c 0.19071,0.54489 0.28607,1.12155 0.28607,1.70276 v 0 h -5.20819 z"
       id="path1639" />
    <path
       style="fill:#ffffff;fill-opacity:1;fill-rule:evenodd;stroke:none;stroke-width:0.120345"
       d="m 262.53613,46.725619 h 5.20818 5.20819 V 195.32011 h -5.20819 -5.20818 z"
       id="path1641" />
    <path
       style="fill:#ffffff;fill-opacity:1;fill-rule:evenodd;stroke:none;stroke-width:0.120345"
       d="m 272.9525,195.32011 c 0,0.80825 -0.18617,1.60741 -0.54942,2.32938 l -4.65877,-2.32938 z"
       id="path1643" />
    <path
       style="fill:#ffffff;fill-opacity:1;fill-rule:evenodd;stroke:none;stroke-width:0.120345"
       d="m 263.08555,192.99073 4.65876,2.32938 4.65877,2.32938 -2.24766,4.49529 -4.65876,-2.32937 -4.65875,-2.32938 z"
       id="path1645" />
    <path
       style="fill:#ffffff;fill-opacity:1;fill-rule:evenodd;stroke:none;stroke-width:0.120345"
       d="m 270.15542,202.14478 c -0.0454,0.0908 -0.0953,0.18618 -0.14984,0.27699 -0.24973,0.43591 -0.56759,0.83549 -0.93084,1.18058 l -3.57808,-3.78694 z"
       id="path1647" />
    <path
       style="fill:#ffffff;fill-opacity:1;fill-rule:evenodd;stroke:none;stroke-width:0.120345"
       d="m 261.91859,196.02846 3.57807,3.78695 3.57808,3.78694 -4.49529,4.24556 -3.57808,-3.78695 -3.57808,-3.78695 z"
       id="path1649" />
    <path
       style="fill:#ffffff;fill-opacity:1;fill-rule:evenodd;stroke:none;stroke-width:0.120345"
       d="m 264.57944,207.84791 c -0.29514,0.27698 -0.62207,0.52219 -0.97171,0.72197 -0.79462,0.45861 -1.69367,0.69927 -2.60636,0.69927 v -5.20819 z"
       id="path1651" />
    <path
       style="fill:#ffffff;fill-opacity:1;fill-rule:evenodd;stroke:none;stroke-width:0.120345"
       d="m 261.00137,198.85278 v 5.20818 5.20819 H 146.12159 v -5.20819 -5.20818 z"
       id="path1653" />
    <path
       style="fill:#ffffff;fill-opacity:1;fill-rule:evenodd;stroke:none;stroke-width:0.120345"
       d="m 145.09994,198.95268 c 0.33601,-0.0681 0.67657,-0.0999 1.02165,-0.0999 v 5.20818 z"
       id="path1655" />
    <path
       style="fill:#ffffff;fill-opacity:1;fill-rule:evenodd;stroke:none;stroke-width:0.120345"
       d="m 145.09994,198.95268 1.02165,5.10828 1.02167,5.1083 -11.23825,2.24764 -1.02165,-5.10828 -1.02166,-5.1083 z"
       id="path1657" />
    <path
       style="fill:#ffffff;fill-opacity:1;fill-rule:evenodd;stroke:none;stroke-width:0.120345"
       d="m 131.55502,202.30371 c 0.22704,-0.19071 0.4677,-0.35871 0.72651,-0.50401 0.4904,-0.28608 1.02166,-0.48586 1.58017,-0.59938 l 1.02166,5.1083 z"
       id="path1659" />
    <path
       style="fill:#ffffff;fill-opacity:1;fill-rule:evenodd;stroke:none;stroke-width:0.120345"
       d="m 131.55502,202.30371 3.32834,4.00491 3.32834,4.0049 -47.200605,39.20895 -3.32833,-4.0049 -3.32834,-4.00489 z"
       id="path1661" />
    <path
       style="fill:#ffffff;fill-opacity:1;fill-rule:evenodd;stroke:none;stroke-width:0.120345"
       d="m 91.011095,249.52247 c -0.22703,0.19071 -0.46769,0.35873 -0.72197,0.50402 -0.0908,0.0545 -0.18617,0.10443 -0.27698,0.14986 l -2.32938,-4.65878 z"
       id="path1663" />
    <path
       style="fill:#ffffff;fill-opacity:1;fill-rule:evenodd;stroke:none;stroke-width:0.120345"
       d="m 85.353385,240.85881 2.32938,4.65876 2.32938,4.65878 -4.4953,2.24764 -2.32938,-4.65877 -2.32938,-4.65876 z"
       id="path1665" />
    <path
       style="fill:#ffffff;fill-opacity:1;fill-rule:evenodd;stroke:none;stroke-width:0.120345"
       d="m 85.516845,252.42399 c -0.72197,0.36325 -1.52113,0.54942 -2.32938,0.54942 -0.91268,0 -1.81174,-0.24066 -2.60182,-0.69926 -0.39504,-0.22704 -0.7583,-0.50402 -1.08069,-0.82641 l 3.68251,-3.68252 z"
       id="path1667" />
    <path
       style="fill:#ffffff;fill-opacity:1;fill-rule:evenodd;stroke:none;stroke-width:0.120345"
       d="m 86.869975,244.08271 -3.68251,3.68251 -3.68251,3.68252 -2.24765,-2.24766 3.68251,-3.68251 3.68251,-3.6825 z"
       id="path1669" />
    <path
       style="fill:#ffffff;fill-opacity:1;fill-rule:evenodd;stroke:none;stroke-width:0.120345"
       d="m 77.257305,249.20008 c -0.32239,-0.32239 -0.59937,-0.68564 -0.82641,-1.07614 -0.45861,-0.79463 -0.69926,-1.69368 -0.69926,-2.60637 h 5.20818 z"
       id="path1671" />
    <path
       style="fill:#ffffff;fill-opacity:1;fill-rule:evenodd;stroke:none;stroke-width:0.120345"
       d="m 86.148005,245.51757 h -5.20819 -5.20818 v -32.71576 h 5.20818 5.20819 z"
       id="path1673" />
    <path
       style="fill:#ffffff;fill-opacity:1;fill-rule:evenodd;stroke:none;stroke-width:0.120345"
       d="m 85.861945,211.09905 c 0.1907,0.54489 0.28606,1.12155 0.28606,1.70276 v 0 h -5.20819 z"
       id="path1675" />
    <path
       style="fill:#ffffff;fill-opacity:1;fill-rule:evenodd;stroke:none;stroke-width:0.120345"
       d="m 85.861945,211.09905 -4.92213,1.70276 -4.92212,1.70277 -2.24765,-6.49321 4.92213,-1.70275 4.92212,-1.70277 z"
       id="path1677" />
    <path
       style="fill:#ffffff;fill-opacity:1;fill-rule:evenodd;stroke:none;stroke-width:0.120345"
       d="m 81.021555,201.64986 c 0.0908,0.0454 0.18616,0.0953 0.27698,0.14984 0.79008,0.45407 1.44848,1.11246 1.90255,1.90709 0.16801,0.28607 0.30423,0.58575 0.41321,0.89906 l -4.92212,1.70277 z"
       id="path1679" />
    <path
       style="fill:#ffffff;fill-opacity:1;fill-rule:evenodd;stroke:none;stroke-width:0.120345"
       d="m 81.021555,201.64986 -2.32938,4.65876 -2.32938,4.65875 -4.4953,-2.24765 2.32938,-4.65876 2.32938,-4.65876 z"
       id="path1681" />
    <path
       style="fill:#ffffff;fill-opacity:1;fill-rule:evenodd;stroke:none;stroke-width:0.120345"
       d="m 74.196875,198.85278 c 0.80825,0 1.60741,0.18616 2.32938,0.54942 l -2.32938,4.65876 z"
       id="path1683" />
    <path
       style="fill:#ffffff;fill-opacity:1;fill-rule:evenodd;stroke:none;stroke-width:0.120345"
       d="m 74.196875,198.85278 v 5.20818 5.20819 h -49.44825 v -5.20819 -5.20818 z"
       id="path1685" />
    <path
       style="fill:#ffffff;fill-opacity:1;fill-rule:evenodd;stroke:none;stroke-width:0.120345"
       d="m 24.748625,209.26915 c -0.80825,0 -1.60741,-0.18617 -2.32938,-0.54943 l 2.32938,-4.65876 z"
       id="path1687" />
    <path
       style="fill:#ffffff;fill-opacity:1;fill-rule:evenodd;stroke:none;stroke-width:0.120345"
       d="m 27.078005,199.4022 -2.32938,4.65876 -2.32938,4.65876 -4.4953,-2.24764 2.32938,-4.65876 2.32938,-4.65876 z"
       id="path1689" />
    <path
       style="fill:#ffffff;fill-opacity:1;fill-rule:evenodd;stroke:none;stroke-width:0.120345"
       d="m 17.923945,206.47208 c -0.0908,-0.0454 -0.18617,-0.0954 -0.27244,-0.14984 -0.79462,-0.45407 -1.45302,-1.11248 -1.90709,-1.90255 -0.0318,-0.059 -0.0636,-0.11353 -0.0954,-0.16802 l 4.60427,-2.43835 z"
       id="path1691" />
    <path
       style="fill:#ffffff;fill-opacity:1;fill-rule:evenodd;stroke:none;stroke-width:0.120345"
       d="m 24.857605,199.37496 -4.60428,2.43836 -4.60427,2.43835 -2.24765,-4.24556 4.60428,-2.43835 4.60427,-2.43836 z"
       id="path1693" />
    <path
       style="fill:#ffffff;fill-opacity:1;fill-rule:evenodd;stroke:none;stroke-width:0.120345"
       d="m 13.401405,200.00611 c -0.39504,-0.75375 -0.60391,-1.58924 -0.60391,-2.43835 h 5.20819 z"
       id="path1695" />
    <path
       style="fill:#ffffff;fill-opacity:1;fill-rule:evenodd;stroke:none;stroke-width:0.120345"
       d="m 23.213865,197.56776 h -5.20818 -5.20819 V 53.218829 c 0,-0.91268 0.24066,-1.81174 0.69927,-2.60182 0.45407,-0.79463 1.11247,-1.45303 1.90255,-1.9071 0.79463,-0.45861 1.69368,-0.69927 2.60637,-0.69927 0.91268,0 1.81174,0.24066 2.60182,0.69927 0.79462,0.45407 1.45302,1.11247 1.90709,1.90256 0.45861,0.79462 0.69927,1.69368 0.69927,2.60636 z"
       id="path1697" />
    <path
       style="fill:#ffffff;fill-opacity:1;fill-rule:evenodd;stroke:none;stroke-width:0.120345"
       d="m 65.206285,93.39042 c -0.91268,0 -1.81174,-0.24065 -2.60182,-0.69927 -0.79463,-0.45407 -1.45303,-1.11247 -1.9071,-1.902553 -0.45861,-0.79462 -0.69927,-1.69368 -0.69927,-2.60636 0,-0.91268 0.24066,-1.81174 0.69927,-2.60182 0.45407,-0.79463 1.11247,-1.45303 1.9071,-1.9071 0.79008,-0.45861 1.68914,-0.69927 2.60182,-0.69927 H 220.5437 c 0.91268,0 1.81175,0.24066 2.60637,0.69927 0.79009,0.45407 1.44849,1.11247 1.90255,1.9071 0.45862,0.79008 0.69927,1.68914 0.69927,2.60182 0,0.91268 -0.24065,1.81174 -0.69927,2.60636 -0.45406,0.790083 -1.11246,1.448483 -1.90255,1.902553 -0.79462,0.45862 -1.69369,0.69927 -2.60637,0.69927 z"
       id="path1699" />
    <path
       style="fill:#ffffff;fill-opacity:1;fill-rule:evenodd;stroke:none;stroke-width:0.120345"
       d="m 65.206285,124.35801 c -0.91268,0 -1.81174,-0.24065 -2.60182,-0.69926 -0.79463,-0.45408 -1.45303,-1.11248 -1.9071,-1.90256 -0.45861,-0.79462 -0.69927,-1.69368 -0.69927,-2.60636 0,-0.91269 0.24066,-1.81174 0.69927,-2.60182 0.45407,-0.79463 1.11247,-1.45303 1.9071,-1.9071 0.79008,-0.45861 1.68914,-0.69927 2.60182,-0.69927 H 220.5437 c 0.91268,0 1.81175,0.24066 2.60637,0.69927 0.79009,0.45407 1.44849,1.11247 1.90255,1.9071 0.45862,0.79008 0.69927,1.68913 0.69927,2.60182 0,0.91268 -0.24065,1.81174 -0.69927,2.60636 -0.45406,0.79008 -1.11246,1.44848 -1.90255,1.90256 -0.79462,0.45861 -1.69369,0.69926 -2.60637,0.69926 z"
       id="path1701" />
    <path
       style="fill:#ffffff;fill-opacity:1;fill-rule:evenodd;stroke:none;stroke-width:0.120345"
       d="m 65.206285,155.3256 c -0.91268,0 -1.81174,-0.24065 -2.60182,-0.69926 -0.79463,-0.45407 -1.45303,-1.11248 -1.9071,-1.90256 -0.45861,-0.79462 -0.69927,-1.69368 -0.69927,-2.60636 0,-0.91268 0.24066,-1.81174 0.69927,-2.60182 0.45407,-0.79463 1.11247,-1.45303 1.9071,-1.9071 0.79008,-0.45861 1.68914,-0.69927 2.60182,-0.69927 H 180.33579 c 0.91268,0 1.81174,0.24066 2.60637,0.69927 0.79007,0.45407 1.44848,1.11247 1.90255,1.9071 0.45861,0.79008 0.69926,1.68914 0.69926,2.60182 0,0.91268 -0.24065,1.81174 -0.69926,2.60636 -0.45407,0.79008 -1.11248,1.44849 -1.90255,1.90256 -0.79463,0.45861 -1.69369,0.69926 -2.60637,0.69926 z"
       id="path1703" />
  </g>
</svg>
