<?xml version="1.0" encoding="UTF-8" standalone="no"?>
<svg
   xmlns:dc="http://purl.org/dc/elements/1.1/"
   xmlns:cc="http://creativecommons.org/ns#"
   xmlns:rdf="http://www.w3.org/1999/02/22-rdf-syntax-ns#"
   xmlns:svg="http://www.w3.org/2000/svg"
   xmlns="http://www.w3.org/2000/svg"
   xmlns:sodipodi="http://sodipodi.sourceforge.net/DTD/sodipodi-0.dtd"
   xmlns:inkscape="http://www.inkscape.org/namespaces/inkscape"
   width="1080"
   height="1080"
   viewBox="0 0 285.74999 285.75001"
   version="1.1"
   id="svg8"
   inkscape:version="1.0.2 (e86c870879, 2021-01-15)"
   sodipodi:docname="Cancelar.svg">
  <defs
     id="defs2">
    <pattern
       id="EMFhbasepattern"
       patternUnits="userSpaceOnUse"
       width="6"
       height="6"
       x="0"
       y="0" />
  </defs>
  <sodipodi:namedview
     id="base"
     pagecolor="#ffffff"
     bordercolor="#666666"
     borderopacity="1.0"
     inkscape:pageopacity="0.0"
     inkscape:pageshadow="2"
     inkscape:zoom="0.33602431"
     inkscape:cx="400"
     inkscape:cy="560"
     inkscape:document-units="mm"
     inkscape:current-layer="layer1"
     inkscape:document-rotation="0"
     showgrid="false"
     units="px"
     inkscape:pagecheckerboard="true"
     inkscape:window-width="1366"
     inkscape:window-height="705"
     inkscape:window-x="-8"
     inkscape:window-y="-8"
     inkscape:window-maximized="1" />
  <metadata
     id="metadata5">
    <rdf:RDF>
      <cc:Work
         rdf:about="">
        <dc:format>image/svg+xml</dc:format>
        <dc:type
           rdf:resource="http://purl.org/dc/dcmitype/StillImage" />
        <dc:title></dc:title>
      </cc:Work>
    </rdf:RDF>
  </metadata>
  <g
     inkscape:label="Capa 1"
     inkscape:groupmode="layer"
     id="layer1">
    <path
       style="fill:#ffffff;fill-opacity:1;fill-rule:evenodd;stroke:none;stroke-width:0.155637"
       d="m 238.33073,47.425152 c 0,0 0,0 0,0.0058 l -7.33191,7.326015 z"
       id="path9674" />
    <path
       style="fill:#ffffff;fill-opacity:1;fill-rule:evenodd;stroke:none;stroke-width:0.155637"
       d="m 230.99882,54.757047 7.33191,-7.326025 c 8.37176,8.377644 15.57441,17.783388 21.44347,27.952885 l -8.97688,5.181675 -8.97688,5.181686 C 236.85025,77.140499 230.75796,69.174112 223.66693,62.083082 Z"
       id="path9676" />
    <path
       style="fill:#ffffff;fill-opacity:1;fill-rule:evenodd;stroke:none;stroke-width:0.155637"
       d="m 250.79732,80.565582 8.97688,-5.181675 c 5.87491,10.175357 10.4221,21.114459 13.48294,32.552943 l -10.01086,2.68484 -10.01088,2.68484 c -2.59672,-9.68775 -6.44478,-18.946633 -11.41496,-27.559262 z"
       id="path9678" />
    <path
       style="fill:#ffffff;fill-opacity:1;fill-rule:evenodd;stroke:none;stroke-width:0.155637"
       d="m 263.24628,110.62169 10.01086,-2.68484 c 3.06671,11.44434 4.60007,23.19418 4.60007,34.93815 h -10.36336 -10.36924 c 0,-9.94036 -1.29835,-19.88661 -3.88921,-29.56847 z"
       id="path9680" />
    <path
       style="fill:#ffffff;fill-opacity:1;fill-rule:evenodd;stroke:none;stroke-width:0.155637"
       d="m 267.49385,142.875 h 10.36336 c 0,11.74397 -1.53336,23.49381 -4.60007,34.93816 l -10.01086,-2.68484 -10.01088,-2.68484 c 2.59086,-9.68187 3.88921,-19.62812 3.88921,-29.56848 z"
       id="path9682" />
    <path
       style="fill:#ffffff;fill-opacity:1;fill-rule:evenodd;stroke:none;stroke-width:0.155637"
       d="m 263.24628,175.12832 10.01086,2.68484 c -3.06084,11.43847 -7.60803,22.37758 -13.47707,32.55295 l -8.98275,-5.18168 -8.97688,-5.18169 c 4.97018,-8.61264 8.81824,-17.87152 11.41496,-27.55926 z"
       id="path9684" />
    <path
       style="fill:#ffffff;fill-opacity:1;fill-rule:evenodd;stroke:none;stroke-width:0.155637"
       d="m 250.79732,205.18443 8.98275,5.18168 c -5.87493,10.16948 -13.0717,19.58111 -21.44934,27.95875 l -7.33191,-7.33192 -7.33189,-7.33189 c 7.09103,-7.09102 13.18332,-15.05154 18.15351,-23.65831 z"
       id="path9686" />
    <path
       style="fill:#ffffff;fill-opacity:1;fill-rule:evenodd;stroke:none;stroke-width:0.155637"
       d="m 230.99882,230.99294 7.33191,7.33192 c -8.37764,8.37763 -17.78338,15.5744 -27.95875,21.44933 l -5.18167,-8.97687 -5.18169,-8.97689 c 8.60676,-4.97018 16.56728,-11.06834 23.65831,-18.15938 z"
       id="path9688" />
    <path
       style="fill:#ffffff;fill-opacity:1;fill-rule:evenodd;stroke:none;stroke-width:0.155637"
       d="m 205.19031,250.79732 5.18167,8.97687 c -10.16948,5.87493 -21.11447,10.42211 -32.55294,13.48296 l -2.68484,-10.01087 -2.68484,-10.01087 c 9.68774,-2.59672 18.94662,-6.44479 27.55926,-11.41498 z"
       id="path9690" />
    <path
       style="fill:#ffffff;fill-opacity:1;fill-rule:evenodd;stroke:none;stroke-width:0.155637"
       d="m 175.1342,263.24628 2.68484,10.01087 c -11.44435,3.06671 -23.19419,4.60005 -34.93816,4.60005 V 267.49384 257.1246 c 9.94036,0 19.88661,-1.29836 29.56848,-3.88919 z"
       id="path9692" />
    <path
       style="fill:#ffffff;fill-opacity:1;fill-rule:evenodd;stroke:none;stroke-width:0.155637"
       d="m 142.88088,267.49384 v 10.36336 c -11.74397,0 -23.49381,-1.53334 -34.93815,-4.60005 l 2.68484,-10.01087 2.68483,-10.01087 c 9.68186,2.59083 19.62811,3.88919 29.56848,3.88919 z"
       id="path9694" />
    <path
       style="fill:#ffffff;fill-opacity:1;fill-rule:evenodd;stroke:none;stroke-width:0.155637"
       d="m 110.62757,263.24628 -2.68484,10.01087 C 96.504238,270.1963 85.559257,265.64912 75.38977,259.77419 l 5.181679,-8.97687 5.181681,-8.97689 c 8.612639,4.97019 17.87152,8.81826 27.55927,11.41498 z"
       id="path9696" />
    <path
       style="fill:#ffffff;fill-opacity:1;fill-rule:evenodd;stroke:none;stroke-width:0.155637"
       d="m 80.571449,250.79732 -5.181679,8.97687 C 65.214404,253.89926 55.808654,246.70249 47.431016,238.32486 l 7.331902,-7.33192 7.331903,-7.33189 c 7.091029,7.09104 15.051547,13.1892 23.658309,18.15938 z"
       id="path9698" />
    <path
       style="fill:#ffffff;fill-opacity:1;fill-rule:evenodd;stroke:none;stroke-width:0.155637"
       d="m 54.762918,230.99294 -7.331902,7.33192 C 39.053378,229.94722 31.856599,220.53559 25.981677,210.36611 l 8.976881,-5.18168 8.97688,-5.18756 c 4.970184,8.61264 11.068352,16.57316 18.159383,23.66418 z"
       id="path9700" />
    <path
       style="fill:#ffffff;fill-opacity:1;fill-rule:evenodd;stroke:none;stroke-width:0.155637"
       d="m 34.958558,205.18443 -8.976881,5.18168 C 20.106755,200.19074 15.565441,189.25163 12.498732,177.81316 l 10.010866,-2.68484 10.010867,-2.68484 c 2.596716,9.68774 6.444788,18.94662 11.414973,27.55339 z"
       id="path9702" />
    <path
       style="fill:#ffffff;fill-opacity:1;fill-rule:evenodd;stroke:none;stroke-width:0.155637"
       d="m 12.498732,177.81316 c 0,0 0,0 0,0 l 10.010866,-2.68484 z"
       id="path9704" />
    <path
       style="fill:#ffffff;fill-opacity:1;fill-rule:evenodd;stroke:none;stroke-width:0.155637"
       d="m 22.509598,175.12832 -10.010866,2.68484 C 9.4320223,166.36881 7.8927939,154.61897 7.8927939,142.875 H 18.26203 28.631267 c 0,9.94036 1.292482,19.88074 3.889198,29.56848 z"
       id="path9706" />
    <path
       style="fill:#ffffff;fill-opacity:1;fill-rule:evenodd;stroke:none;stroke-width:0.155637"
       d="M 18.262029,142.875 H 7.8927939 c 0,-11.74397 1.5392284,-23.49381 4.6059381,-34.93815 l 10.010866,2.68484 10.010867,2.68484 c -2.596716,9.68773 -3.889198,19.62811 -3.889198,29.56847 z"
       id="path9708" />
    <path
       style="fill:#ffffff;fill-opacity:1;fill-rule:evenodd;stroke:none;stroke-width:0.155637"
       d="m 12.498732,107.93685 c 0,0 0,0 0,0 l 10.010866,2.68484 z"
       id="path9710" />
    <path
       style="fill:#ffffff;fill-opacity:1;fill-rule:evenodd;stroke:none;stroke-width:0.155637"
       d="M 22.509598,110.62169 12.498732,107.93685 C 15.565441,96.498366 20.106755,85.559264 25.981677,75.383907 l 8.976881,5.181675 8.97688,5.187556 c -4.970185,8.606759 -8.818257,17.865642 -11.414973,27.553392 z"
       id="path9712" />
    <path
       style="fill:#ffffff;fill-opacity:1;fill-rule:evenodd;stroke:none;stroke-width:0.155637"
       d="M 34.958558,80.565582 25.981677,75.383907 C 31.856599,65.21441 39.053378,55.802786 47.431016,47.425152 l 7.331902,7.331895 7.331903,7.331905 c -7.09103,7.091031 -13.189199,15.051547 -18.159382,23.664186 z"
       id="path9714" />
    <path
       style="fill:#ffffff;fill-opacity:1;fill-rule:evenodd;stroke:none;stroke-width:0.155637"
       d="M 54.762918,54.757047 47.431016,47.425152 C 55.808654,39.047508 65.214404,31.850732 75.38977,25.975811 l 5.181679,8.97688 5.181681,8.976877 C 77.146367,48.899759 69.18585,54.997922 62.094821,62.088952 Z"
       id="path9716" />
    <path
       style="fill:#ffffff;fill-opacity:1;fill-rule:evenodd;stroke:none;stroke-width:0.155637"
       d="M 80.571449,34.952691 75.38977,25.975811 C 85.559257,20.100889 96.498358,15.559574 107.94273,12.492865 l 2.68484,10.010866 2.68483,10.010867 c -9.68775,2.596715 -18.946631,6.444788 -27.55927,11.41497 z"
       id="path9718" />
    <path
       style="fill:#ffffff;fill-opacity:1;fill-rule:evenodd;stroke:none;stroke-width:0.155637"
       d="m 107.94273,12.492865 c 0,0 0,0 0.006,0 l 2.67896,10.010866 z"
       id="path9720" />
    <path
       style="fill:#ffffff;fill-opacity:1;fill-rule:evenodd;stroke:none;stroke-width:0.155637"
       d="M 110.62757,22.503731 107.9486,12.492865 C 119.38707,9.4261555 131.13103,7.8928013 142.88088,7.8928013 V 18.262038 28.6254 c -9.94624,0 -19.88662,1.298358 -29.57435,3.889198 z"
       id="path9722" />
    <path
       style="fill:#ffffff;fill-opacity:1;fill-rule:evenodd;stroke:none;stroke-width:0.155637"
       d="M 142.88088,18.262038 V 7.8928013 c 11.74397,0 23.48794,1.5333542 34.93229,4.6000637 l -2.67897,10.010866 -2.67896,10.010867 c -9.68775,-2.59084 -19.634,-3.889198 -29.57436,-3.889198 z"
       id="path9724" />
    <path
       style="fill:#ffffff;fill-opacity:1;fill-rule:evenodd;stroke:none;stroke-width:0.155637"
       d="m 177.81317,12.492865 c 0.006,0 0.006,0 0.006,0 l -2.68484,10.010866 z"
       id="path9726" />
    <path
       style="fill:#ffffff;fill-opacity:1;fill-rule:evenodd;stroke:none;stroke-width:0.155637"
       d="m 175.1342,22.503731 2.68484,-10.010866 c 11.43847,3.066709 22.37758,7.608024 32.55294,13.482946 l -5.18167,8.97688 -5.18756,8.976877 c -8.60677,-4.970182 -17.86565,-8.818255 -27.55339,-11.41497 z"
       id="path9728" />
    <path
       style="fill:#ffffff;fill-opacity:1;fill-rule:evenodd;stroke:none;stroke-width:0.155637"
       d="m 205.19031,34.952691 5.18167,-8.97688 c 10.16949,5.874921 19.58111,13.071697 27.95875,21.449341 l -7.33191,7.331895 -7.33189,7.331905 C 216.5759,54.997922 208.61538,48.899759 200.00275,43.929568 Z"
       id="path9730" />
    <path
       style="fill:#ffffff;fill-opacity:1;fill-rule:evenodd;stroke:none;stroke-width:0.155637"
       d="m 235.37564,220.71771 c 1.28662,1.28661 2.20898,2.89047 2.67898,4.64707 0.47586,1.7566 0.47586,3.6072 0,5.36968 -0.47,1.75659 -1.39236,3.36045 -2.67898,4.64706 -1.2866,1.28661 -2.89044,2.20897 -4.64705,2.67897 -1.7566,0.47586 -3.60721,0.47586 -5.36967,0 -1.7566,-0.47 -3.36047,-1.39236 -4.64708,-2.67897 L 50.374352,65.073417 l 7.331903,-7.331905 7.331902,-7.331905 z"
       id="path9732" />
    <path
       style="fill:#ffffff;fill-opacity:1;fill-rule:evenodd;stroke:none;stroke-width:0.155637"
       d="m 50.339103,65.032286 c -0.628617,-0.628611 -1.169109,-1.339474 -1.609729,-2.109098 -0.910613,-1.57447 -1.386482,-3.360452 -1.386482,-5.181676 0,-1.821224 0.475869,-3.607206 1.386482,-5.181685 0.910613,-1.57447 2.220719,-2.884583 3.7952,-3.7952 1.574478,-0.910607 3.360454,-1.386476 5.181681,-1.386476 1.821225,0 3.607202,0.475869 5.18168,1.386476 0.78724,0.452378 1.509855,1.004618 2.150222,1.64498 l -7.331902,7.331905 z"
       id="path9734" />
    <path
       style="fill:#ffffff;fill-opacity:1;fill-rule:evenodd;stroke:none;stroke-width:0.155637"
       d="m 50.339103,65.032286 7.367152,-7.290774 7.36715,-7.290774 0.534618,0.54049 c 1.280735,1.292483 2.197225,2.902213 2.661343,4.664686 0.458242,1.756602 0.452366,3.607206 -0.02935,5.363808 -0.481742,1.756603 -1.415855,3.354572 -2.70834,4.629436 -1.292482,1.280733 -2.902212,2.19722 -4.664688,2.661339 -1.756602,0.458248 -3.607202,0.452368 -5.363803,-0.0294 -1.756601,-0.481739 -3.35458,-1.415856 -4.629437,-2.70834 z"
       id="path9736" />
  </g>
</svg>
