<?xml version="1.0" encoding="UTF-8" standalone="no"?>
<svg
   xmlns:dc="http://purl.org/dc/elements/1.1/"
   xmlns:cc="http://creativecommons.org/ns#"
   xmlns:rdf="http://www.w3.org/1999/02/22-rdf-syntax-ns#"
   xmlns:svg="http://www.w3.org/2000/svg"
   xmlns="http://www.w3.org/2000/svg"
   xmlns:sodipodi="http://sodipodi.sourceforge.net/DTD/sodipodi-0.dtd"
   xmlns:inkscape="http://www.inkscape.org/namespaces/inkscape"
   width="1080"
   height="1080"
   viewBox="0 0 285.74999 285.75001"
   version="1.1"
   id="svg8"
   inkscape:version="1.0.2 (e86c870879, 2021-01-15)"
   sodipodi:docname="Expulsar.svg">
  <defs
     id="defs2">
    <pattern
       id="EMFhbasepattern"
       patternUnits="userSpaceOnUse"
       width="6"
       height="6"
       x="0"
       y="0" />
  </defs>
  <sodipodi:namedview
     id="base"
     pagecolor="#ffffff"
     bordercolor="#666666"
     borderopacity="1.0"
     inkscape:pageopacity="0.0"
     inkscape:pageshadow="2"
     inkscape:zoom="0.33602431"
     inkscape:cx="253.28356"
     inkscape:cy="510.62168"
     inkscape:document-units="mm"
     inkscape:current-layer="layer1"
     inkscape:document-rotation="0"
     showgrid="false"
     units="px"
     inkscape:pagecheckerboard="true"
     inkscape:window-width="1366"
     inkscape:window-height="705"
     inkscape:window-x="-8"
     inkscape:window-y="-8"
     inkscape:window-maximized="1" />
  <metadata
     id="metadata5">
    <rdf:RDF>
      <cc:Work
         rdf:about="">
        <dc:format>image/svg+xml</dc:format>
        <dc:type
           rdf:resource="http://purl.org/dc/dcmitype/StillImage" />
        <dc:title></dc:title>
      </cc:Work>
    </rdf:RDF>
  </metadata>
  <g
     inkscape:label="Capa 1"
     inkscape:groupmode="layer"
     id="layer1">
    <path
       style="fill:#ffffff;fill-opacity:1;fill-rule:evenodd;stroke:none;stroke-width:0.124541"
       d="m 195.93774,63.165691 h 3.73813 c 0,4.687952 -0.63948,9.33829 -1.88082,13.828757 l -3.60178,-0.996837 -3.59707,-0.992135 c 1.06266,-3.846283 1.6081,-7.824227 1.6081,-11.839785 z"
       id="path1466" />
    <path
       style="fill:#ffffff;fill-opacity:1;fill-rule:evenodd;stroke:none;stroke-width:0.124541"
       d="m 194.19327,75.997611 3.60178,0.996837 c -1.24135,4.485765 -3.08455,8.816362 -5.5014,12.878939 l -3.21152,-1.913739 -3.21149,-1.913735 c 2.0783,-3.479523 3.65818,-7.194154 4.72556,-11.040437 z"
       id="path1468" />
    <path
       style="fill:#ffffff;fill-opacity:1;fill-rule:evenodd;stroke:none;stroke-width:0.124541"
       d="m 189.08213,87.959648 3.21152,1.913739 c -2.41687,4.053177 -5.36036,7.758396 -8.74584,11.040433 l -2.60024,-2.680167 -2.60024,-2.684877 c 2.91528,-2.821236 5.44969,-6.013935 7.52331,-9.502863 z"
       id="path1470" />
    <path
       style="fill:#ffffff;fill-opacity:1;fill-rule:evenodd;stroke:none;stroke-width:0.124541"
       d="m 180.94757,98.233653 2.60024,2.680167 c -3.38077,3.27734 -7.19885,6.12208 -11.37428,8.459 l -1.8244,-3.25852 -1.8244,-3.25853 c 3.60648,-2.01718 6.90263,-4.476357 9.8226,-7.306993 z"
       id="path1472" />
    <path
       style="fill:#ffffff;fill-opacity:1;fill-rule:evenodd;stroke:none;stroke-width:0.124541"
       d="m 170.34913,106.1143 1.8244,3.25852 c -4.17073,2.33693 -8.61886,4.11431 -13.22689,5.31333 l -0.94041,-3.61588 -0.94041,-3.61588 c 3.99674,-1.03916 7.84774,-2.58143 11.45891,-4.59862 z"
       id="path1474" />
    <path
       style="fill:#ffffff;fill-opacity:1;fill-rule:evenodd;stroke:none;stroke-width:0.124541"
       d="m 158.00623,111.07027 0.94041,3.61588 c -4.60802,1.19433 -9.37591,1.81029 -14.18611,1.81029 v -3.73813 -3.73344 c 4.17543,0 8.30854,-0.53603 12.30529,-1.57048 z"
       id="path1476" />
    <path
       style="fill:#ffffff;fill-opacity:1;fill-rule:evenodd;stroke:none;stroke-width:0.124541"
       d="m 144.76053,112.75831 v 3.73813 c -4.81021,0 -9.57809,-0.61596 -14.18612,-1.81029 l 0.94042,-3.61588 0.9357,-3.61588 c 3.99676,1.03445 8.13457,1.57048 12.31,1.57048 z"
       id="path1478" />
    <path
       style="fill:#ffffff;fill-opacity:1;fill-rule:evenodd;stroke:none;stroke-width:0.124541"
       d="m 131.51483,111.07027 -0.94042,3.61588 c -4.61271,-1.19902 -9.06086,-2.9764 -13.23159,-5.31333 l 1.8244,-3.25852 1.8244,-3.25853 c 3.61118,2.01719 7.46687,3.55946 11.45891,4.59862 z"
       id="path1480" />
    <path
       style="fill:#ffffff;fill-opacity:1;fill-rule:evenodd;stroke:none;stroke-width:0.124541"
       d="m 119.16722,106.1143 -1.8244,3.25852 c -4.17543,-2.33692 -7.9935,-5.18166 -11.37428,-8.459 l 2.60024,-2.680167 2.60024,-2.684877 c 2.91997,2.830637 6.21612,5.289814 9.8226,7.306994 z"
       id="path1482" />
    <path
       style="fill:#ffffff;fill-opacity:1;fill-rule:evenodd;stroke:none;stroke-width:0.124541"
       d="m 108.56878,98.233653 -2.60024,2.680167 c -3.38548,-3.282037 -6.328972,-6.987256 -8.745829,-11.040433 l 3.211499,-1.913739 3.21151,-1.913735 c 2.07361,3.488928 4.60802,6.681627 7.5233,9.502863 z"
       id="path1484" />
    <path
       style="fill:#ffffff;fill-opacity:1;fill-rule:evenodd;stroke:none;stroke-width:0.124541"
       d="m 100.43421,87.959648 -3.211499,1.913739 C 94.805853,85.81081 92.962645,81.480213 91.721299,76.994448 l 3.60178,-0.996837 3.597072,-0.992135 c 1.067368,3.846283 2.647269,7.560914 4.725569,11.040437 z"
       id="path1486" />
    <path
       style="fill:#ffffff;fill-opacity:1;fill-rule:evenodd;stroke:none;stroke-width:0.124541"
       d="m 95.323079,75.997611 -3.60178,0.996837 c -1.24134,-4.490467 -1.87612,-9.140805 -1.87612,-13.828757 h 3.733436 3.738133 c 0,4.015558 0.540738,7.993502 1.603403,11.839785 z"
       id="path1488" />
    <path
       style="fill:#ffffff;fill-opacity:1;fill-rule:evenodd;stroke:none;stroke-width:0.124541"
       d="m 93.578615,63.165691 h -3.733436 c 0,-4.692654 0.63478,-9.34299 1.87612,-13.833457 l 3.60178,0.996836 3.601774,0.992136 c -1.062665,3.846284 -1.608105,7.828927 -1.608105,11.844485 z"
       id="path1490" />
    <path
       style="fill:#ffffff;fill-opacity:1;fill-rule:evenodd;stroke:none;stroke-width:0.124541"
       d="m 95.323079,50.32907 -3.60178,-0.996836 c 1.241346,-4.490466 3.084554,-8.821063 5.501412,-12.878939 l 3.211499,1.913737 3.21151,1.913739 c -2.07361,3.479523 -3.658201,7.19415 -4.720867,11.040435 z"
       id="path1492" />
    <path
       style="fill:#ffffff;fill-opacity:1;fill-rule:evenodd;stroke:none;stroke-width:0.124541"
       d="m 97.222711,36.453295 c 0,0 0,0 0.0047,0 l 3.206799,1.913737 z"
       id="path1494" />
    <path
       style="fill:#ffffff;fill-opacity:1;fill-rule:evenodd;stroke:none;stroke-width:0.124541"
       d="m 100.43421,38.367032 -3.206797,-1.913737 c 2.412155,-4.053175 5.355647,-7.763099 8.741127,-11.040438 l 2.60024,2.680176 2.60024,2.684876 c -2.91528,2.821236 -5.44499,6.013934 -7.528,9.502862 z"
       id="path1496" />
    <path
       style="fill:#ffffff;fill-opacity:1;fill-rule:evenodd;stroke:none;stroke-width:0.124541"
       d="m 108.56878,28.093033 -2.60024,-2.680176 c 3.38078,-3.277331 7.19885,-6.122079 11.37428,-8.459002 l 1.8244,3.258527 1.8244,3.258527 c -3.60648,2.017186 -6.90263,4.47636 -9.8226,7.307 z"
       id="path1498" />
    <path
       style="fill:#ffffff;fill-opacity:1;fill-rule:evenodd;stroke:none;stroke-width:0.124541"
       d="m 119.16722,20.212382 -1.8244,-3.258527 c 4.17073,-2.336922 8.61888,-4.114303 13.23159,-5.313327 l 0.93572,3.615882 0.9404,3.615887 c -3.99204,1.039153 -7.84773,2.58143 -11.45891,4.598612 z"
       id="path1500" />
    <path
       style="fill:#ffffff;fill-opacity:1;fill-rule:evenodd;stroke:none;stroke-width:0.124541"
       d="m 131.51013,15.25641 -0.93572,-3.615882 c 4.60332,-1.194321 9.37121,-1.8102915 14.18141,-1.8102915 v 3.7381375 3.738134 c -4.17072,0 -8.30853,0.531333 -12.30529,1.565789 z"
       id="path1502" />
    <path
       style="fill:#ffffff;fill-opacity:1;fill-rule:evenodd;stroke:none;stroke-width:0.124541"
       d="M 144.75582,13.568374 V 9.8302365 c 4.81021,0 9.5781,0.6159705 14.18612,1.8102915 l -0.93571,3.615882 -0.94041,3.615887 c -3.99675,-1.034456 -8.13457,-1.565789 -12.31,-1.565789 z"
       id="path1504" />
    <path
       style="fill:#ffffff;fill-opacity:1;fill-rule:evenodd;stroke:none;stroke-width:0.124541"
       d="m 158.00623,15.25641 0.93571,-3.615882 c 4.61273,1.199024 9.06086,2.976405 13.23159,5.313327 l -1.8244,3.258527 -1.8244,3.258527 c -3.61117,-2.017182 -7.46686,-3.559459 -11.45891,-4.598612 z"
       id="path1506" />
    <path
       style="fill:#ffffff;fill-opacity:1;fill-rule:evenodd;stroke:none;stroke-width:0.124541"
       d="m 170.34913,20.212382 1.8244,-3.258527 c 4.17543,2.336923 7.99351,5.181671 11.37428,8.459002 l -2.60024,2.680176 -2.60024,2.684876 c -2.91997,-2.83064 -6.21612,-5.289814 -9.8226,-7.307 z"
       id="path1508" />
    <path
       style="fill:#ffffff;fill-opacity:1;fill-rule:evenodd;stroke:none;stroke-width:0.124541"
       d="m 180.94757,28.093033 2.60024,-2.680176 c 3.38548,3.277339 6.32897,6.987263 8.74113,11.040438 l -3.20681,1.913737 -3.2068,1.913739 c -2.08301,-3.488928 -4.61272,-6.681626 -7.528,-9.502862 z"
       id="path1510" />
    <path
       style="fill:#ffffff;fill-opacity:1;fill-rule:evenodd;stroke:none;stroke-width:0.124541"
       d="m 192.28894,36.453295 c 0.005,0 0.005,0 0.005,0 l -3.21152,1.913737 z"
       id="path1512" />
    <path
       style="fill:#ffffff;fill-opacity:1;fill-rule:evenodd;stroke:none;stroke-width:0.124541"
       d="m 189.08213,38.367032 3.21152,-1.913737 c 2.41685,4.057876 4.26005,8.388473 5.5014,12.878939 l -3.60178,0.996836 -3.60178,0.992136 c -1.06267,-3.846285 -2.64725,-7.560912 -4.72085,-11.040435 z"
       id="path1514" />
    <path
       style="fill:#ffffff;fill-opacity:1;fill-rule:evenodd;stroke:none;stroke-width:0.124541"
       d="m 194.19327,50.32907 3.60178,-0.996836 c 1.24134,4.490467 1.88082,9.140803 1.88082,13.828755 h -3.73813 -3.73344 c 0,-4.015558 -0.55014,-7.993499 -1.61281,-11.839783 z"
       id="path1516" />
    <path
       style="fill:#ffffff;fill-opacity:1;fill-rule:evenodd;stroke:none;stroke-width:0.124541"
       d="m 192.2043,63.160989 h 3.73344 3.73813 v 0.0047 h -3.73813 -3.73344 z"
       id="path1518" />
    <path
       style="fill:#ffffff;fill-opacity:1;fill-rule:evenodd;stroke:none;stroke-width:0.124541"
       d="m 243.71536,62.272301 c 0.4655,-0.460802 1.04385,-0.794645 1.67393,-0.963921 0.63478,-0.173977 1.30248,-0.173977 1.93725,0 0.63008,0.169276 1.20843,0.503119 1.67393,0.963921 0.4608,0.465505 0.79466,1.043856 0.96392,1.673933 0.17398,0.63478 0.17398,1.302472 0,1.937247 -0.16926,0.630077 -0.50312,1.208428 -0.96392,1.673933 L 42.034643,274.46682 c -0.465505,0.46081 -1.043861,0.79465 -1.673933,0.96393 -0.63478,0.17397 -1.302472,0.17397 -1.937251,0 -0.630073,-0.16928 -1.208429,-0.50312 -1.673934,-0.96393 -0.460802,-0.4655 -0.794645,-1.04386 -0.96392,-1.67392 -0.173978,-0.63479 -0.173978,-1.30248 0,-1.93726 0.169275,-0.63007 0.503118,-1.20842 0.96392,-1.67393 z"
       id="path1520" />
    <path
       style="fill:#ffffff;fill-opacity:1;fill-rule:evenodd;stroke:none;stroke-width:0.124541"
       d="m 158.31186,124.66862 c 0.25861,0.0846 0.50783,0.19279 0.74293,0.32915 0.56895,0.32914 1.03915,0.79935 1.36829,1.3683 0.32915,0.56895 0.50312,1.21313 0.50312,1.86672 0,0.65358 -0.17397,1.29776 -0.50312,1.86671 -0.16926,0.29623 -0.38086,0.56895 -0.62537,0.80876 l -2.60964,-2.67547 z"
       id="path1522" />
    <path
       style="fill:#ffffff;fill-opacity:1;fill-rule:evenodd;stroke:none;stroke-width:0.124541"
       d="m 154.57843,125.55731 2.60964,2.67548 2.60964,2.67547 -76.436672,74.58876 -2.609641,-2.67548 -2.609643,-2.67546 z"
       id="path1524" />
    <path
       style="fill:#ffffff;fill-opacity:1;fill-rule:evenodd;stroke:none;stroke-width:0.124541"
       d="m 83.361038,205.49702 c -0.220997,0.2163 -0.470203,0.40438 -0.742924,0.55955 -0.568949,0.32913 -1.213132,0.50312 -1.866717,0.50312 -0.653587,0 -1.297769,-0.17399 -1.866718,-0.50312 -0.568948,-0.32915 -1.039155,-0.79935 -1.3683,-1.36831 -0.329143,-0.56894 -0.498417,-1.21313 -0.498417,-1.86672 0,-0.22098 0.01881,-0.44198 0.05643,-0.66298 l 3.67701,0.66298 z"
       id="path1526" />
    <path
       style="fill:#ffffff;fill-opacity:1;fill-rule:evenodd;stroke:none;stroke-width:0.124541"
       d="m 80.751397,202.82154 -3.67701,-0.66298 c 0,0 5.397963,-29.82517 11.313153,-44.87646 l 3.47482,1.36831 3.474826,1.36829 c -5.72711,14.57169 -10.908781,43.46584 -10.908781,43.46584 z"
       id="path1528" />
    <path
       style="fill:#ffffff;fill-opacity:1;fill-rule:evenodd;stroke:none;stroke-width:0.124541"
       d="m 95.351288,159.9905 c -0.0047,0.009 -0.0094,0.0188 -0.01412,0.0282 l -3.474825,-1.36829 z"
       id="path1530" />
    <path
       style="fill:#ffffff;fill-opacity:1;fill-rule:evenodd;stroke:none;stroke-width:0.124541"
       d="m 91.86236,158.65041 -3.488927,-1.34009 c 1.387108,-3.60178 5.252201,-10.53731 5.252201,-10.53731 l 3.258526,1.8244 3.25853,1.82439 c 0,0 -3.53595,6.29606 -4.791402,9.5687 z"
       id="path1532" />
    <path
       style="fill:#ffffff;fill-opacity:1;fill-rule:evenodd;stroke:none;stroke-width:0.124541"
       d="m 93.625634,146.77301 c 0.0047,-0.0141 0.01412,-0.0282 0.02349,-0.0423 0.05642,-0.0988 0.117549,-0.19279 0.17868,-0.28212 l 3.056335,2.14884 z"
       id="path1534" />
    <path
       style="fill:#ffffff;fill-opacity:1;fill-rule:evenodd;stroke:none;stroke-width:0.124541"
       d="m 99.9405,150.74624 -3.05634,-2.14883 -3.056335,-2.14885 5.026498,-7.13772 3.056337,2.14884 3.05634,2.14884 z"
       id="path1536" />
    <path
       style="fill:#ffffff;fill-opacity:1;fill-rule:evenodd;stroke:none;stroke-width:0.124541"
       d="m 98.854323,139.31084 c 0.126959,-0.17868 0.263317,-0.34325 0.413783,-0.49372 l 2.642554,2.64256 z"
       id="path1538" />
    <path
       style="fill:#ffffff;fill-opacity:1;fill-rule:evenodd;stroke:none;stroke-width:0.124541"
       d="m 104.55322,144.10224 -2.64256,-2.64256 -2.642554,-2.64256 5.026504,-5.0265 2.64256,2.64255 2.64255,2.64256 z"
       id="path1540" />
    <path
       style="fill:#ffffff;fill-opacity:1;fill-rule:evenodd;stroke:none;stroke-width:0.124541"
       d="m 104.29461,133.79062 c 0.18808,-0.18808 0.39967,-0.35736 0.62067,-0.49842 l 2.02189,3.14097 z"
       id="path1542" />
    <path
       style="fill:#ffffff;fill-opacity:1;fill-rule:evenodd;stroke:none;stroke-width:0.124541"
       d="m 108.95905,139.57415 -2.02188,-3.14098 -2.02189,-3.14097 7.40574,-4.76319 2.02189,3.14098 2.02189,3.14097 z"
       id="path1544" />
    <path
       style="fill:#ffffff;fill-opacity:1;fill-rule:evenodd;stroke:none;stroke-width:0.124541"
       d="m 112.32102,128.52901 c 0.0517,-0.0329 0.10345,-0.0658 0.15517,-0.094 0.0423,-0.0235 0.0846,-0.047 0.12696,-0.0705 l 1.73976,3.30555 z"
       id="path1546" />
    <path
       style="fill:#ffffff;fill-opacity:1;fill-rule:evenodd;stroke:none;stroke-width:0.124541"
       d="m 116.08267,134.97554 -1.73976,-3.30555 -1.73976,-3.30555 5.0265,-2.64255 1.73976,3.30554 1.73976,3.30555 z"
       id="path1548" />
    <path
       style="fill:#ffffff;fill-opacity:1;fill-rule:evenodd;stroke:none;stroke-width:0.124541"
       d="m 117.62965,125.72189 c 0.19748,-0.10345 0.39967,-0.18809 0.61127,-0.25392 l 1.12849,3.55946 z"
       id="path1550" />
    <path
       style="fill:#ffffff;fill-opacity:1;fill-rule:evenodd;stroke:none;stroke-width:0.124541"
       d="m 119.36941,129.02743 -1.12849,-3.55946 c 0,0 5.05941,-1.6034 7.73018,-2.39805 l 1.06737,3.57827 1.06737,3.57827 c -2.62376,0.78524 -7.60794,2.36043 -7.60794,2.36043 z"
       id="path1552" />
    <path
       style="fill:#ffffff;fill-opacity:1;fill-rule:evenodd;stroke:none;stroke-width:0.124541"
       d="m 128.14815,130.21706 c -0.0141,0.005 -0.0282,0.005 -0.0423,0.009 l -1.06737,-3.57826 z"
       id="path1554" />
    <path
       style="fill:#ffffff;fill-opacity:1;fill-rule:evenodd;stroke:none;stroke-width:0.124541"
       d="m 127.03847,126.64819 -1.10969,-3.56886 c 4.17073,-1.29307 8.99034,-1.95606 13.77233,-1.95606 v 3.73814 3.73343 c -4.01085,0 -8.05463,0.53134 -11.55296,1.62222 z"
       id="path1556" />
    <path
       style="fill:#ffffff;fill-opacity:1;fill-rule:evenodd;stroke:none;stroke-width:0.124541"
       d="m 139.70111,124.86141 v -3.73814 c 4.80081,0 9.56399,0.66769 13.60776,1.97017 l -1.1426,3.55475 -1.1426,3.55476 c -3.36197,-1.08148 -7.33051,-1.60811 -11.32256,-1.60811 z"
       id="path1558" />
    <path
       style="fill:#ffffff;fill-opacity:1;fill-rule:evenodd;stroke:none;stroke-width:0.124541"
       d="m 151.04248,130.21235 c -0.009,-0.005 -0.0141,-0.005 -0.0188,-0.009 l 1.1426,-3.55476 z"
       id="path1560" />
    <path
       style="fill:#ffffff;fill-opacity:1;fill-rule:evenodd;stroke:none;stroke-width:0.124541"
       d="m 151.04248,130.21235 1.12379,-3.56416 1.12379,-3.56416 5.0218,1.58459 -1.12379,3.56417 -1.12379,3.56416 z"
       id="path1562" />
    <path
       style="fill:#ffffff;fill-opacity:1;fill-rule:evenodd;stroke:none;stroke-width:0.124541"
       d="m 221.11256,271.26472 c 0.0752,0.30094 0.11756,0.60657 0.11756,0.9169 0,0.65359 -0.17398,1.29777 -0.50313,1.86672 -0.32914,0.56896 -0.79935,1.03916 -1.3683,1.36829 -0.56894,0.32915 -1.21313,0.50313 -1.86671,0.50313 v -3.73814 z"
       id="path1564" />
    <path
       style="fill:#ffffff;fill-opacity:1;fill-rule:evenodd;stroke:none;stroke-width:0.124541"
       d="m 221.11256,271.26472 -3.62058,0.9169 -3.62059,0.9169 -27.50705,-108.7022 3.62059,-0.9169 3.62059,-0.91689 z"
       id="path1566" />
    <path
       style="fill:#ffffff;fill-opacity:1;fill-rule:evenodd;stroke:none;stroke-width:0.124541"
       d="m 193.53969,162.32742 c 0.0235,0.0799 0.047,0.15516 0.0658,0.23511 l -3.62059,0.91689 z"
       id="path1568" />
    <path
       style="fill:#ffffff;fill-opacity:1;fill-rule:evenodd;stroke:none;stroke-width:0.124541"
       d="m 193.53969,162.32742 -3.55476,1.152 -3.55476,1.152 -2.91057,-8.99504 3.55476,-1.152 3.55476,-1.152 z"
       id="path1570" />
    <path
       style="fill:#ffffff;fill-opacity:1;fill-rule:evenodd;stroke:none;stroke-width:0.124541"
       d="m 184.46941,151.8089 c 0.221,-0.21629 0.47021,-0.40437 0.73823,-0.55953 0.56894,-0.32915 1.21313,-0.49843 1.86672,-0.49843 0.65358,0 1.29777,0.16928 1.86672,0.49843 0.56894,0.32913 1.03914,0.79935 1.36829,1.36829 0.13165,0.2257 0.2398,0.46551 0.31975,0.71472 l -3.55476,1.152 z"
       id="path1572" />
    <path
       style="fill:#ffffff;fill-opacity:1;fill-rule:evenodd;stroke:none;stroke-width:0.124541"
       d="m 184.46941,151.8089 2.60495,2.67548 2.60493,2.67547 -120.871123,117.69725 -2.604942,-2.67548 -2.604938,-2.67547 z"
       id="path1574" />
    <path
       style="fill:#ffffff;fill-opacity:1;fill-rule:evenodd;stroke:none;stroke-width:0.124541"
       d="m 66.203225,275.91976 c -0.653586,0 -1.297768,-0.17398 -1.866716,-0.50313 -0.568952,-0.32913 -1.039158,-0.79933 -1.368299,-1.36829 -0.329146,-0.56895 -0.498421,-1.21313 -0.498421,-1.86672 0,-0.65359 0.169275,-1.29776 0.498421,-1.86672 0.169275,-0.29623 0.380866,-0.56895 0.630077,-0.80875 l 2.604938,2.67547 z"
       id="path1576" />
    <path
       style="fill:#ffffff;fill-opacity:1;fill-rule:evenodd;stroke:none;stroke-width:0.124541"
       d="m 66.203225,275.91976 v -3.73814 -3.73343 H 217.49198 v 3.73343 3.73814 z"
       id="path1578" />
  </g>
</svg>
