<?xml version="1.0" encoding="UTF-8" standalone="no"?>
<svg
   xmlns:dc="http://purl.org/dc/elements/1.1/"
   xmlns:cc="http://creativecommons.org/ns#"
   xmlns:rdf="http://www.w3.org/1999/02/22-rdf-syntax-ns#"
   xmlns:svg="http://www.w3.org/2000/svg"
   xmlns="http://www.w3.org/2000/svg"
   xmlns:sodipodi="http://sodipodi.sourceforge.net/DTD/sodipodi-0.dtd"
   xmlns:inkscape="http://www.inkscape.org/namespaces/inkscape"
   width="1080"
   height="1080"
   viewBox="0 0 285.74999 285.75001"
   version="1.1"
   id="svg8"
   inkscape:version="1.0.2 (e86c870879, 2021-01-15)"
   sodipodi:docname="Flecha.svg">
  <defs
     id="defs2">
    <pattern
       id="EMFhbasepattern"
       patternUnits="userSpaceOnUse"
       width="6"
       height="6"
       x="0"
       y="0" />
  </defs>
  <sodipodi:namedview
     id="base"
     pagecolor="#ffffff"
     bordercolor="#666666"
     borderopacity="1.0"
     inkscape:pageopacity="0.0"
     inkscape:pageshadow="2"
     inkscape:zoom="0.33602431"
     inkscape:cx="400"
     inkscape:cy="560"
     inkscape:document-units="mm"
     inkscape:current-layer="layer1"
     inkscape:document-rotation="0"
     showgrid="false"
     units="px"
     inkscape:pagecheckerboard="true"
     inkscape:window-width="1366"
     inkscape:window-height="705"
     inkscape:window-x="-8"
     inkscape:window-y="-8"
     inkscape:window-maximized="1" />
  <metadata
     id="metadata5">
    <rdf:RDF>
      <cc:Work
         rdf:about="">
        <dc:format>image/svg+xml</dc:format>
        <dc:type
           rdf:resource="http://purl.org/dc/dcmitype/StillImage" />
        <dc:title></dc:title>
      </cc:Work>
    </rdf:RDF>
  </metadata>
  <g
     inkscape:label="Capa 1"
     inkscape:groupmode="layer"
     id="layer1">
    <path
       style="fill:#ffffff;fill-opacity:1;fill-rule:evenodd;stroke:none;stroke-width:0.217354"
       d="m 269.11028,190.63718 c 1.79625,1.79627 3.08399,4.03546 3.74018,6.48791 0.66437,2.45244 0.66437,5.03613 0,7.49677 -0.65619,2.45244 -1.94393,4.69163 -3.74018,6.48791 -1.79628,1.79627 -4.03546,3.084 -6.48791,3.74017 -2.45245,0.66438 -5.03613,0.66438 -7.49678,0 -2.45245,-0.65617 -4.69163,-1.9439 -6.48791,-3.74017 L 132.6346,95.114877 142.87089,84.878587 153.10718,74.642293 Z"
       id="path9089" />
    <path
       style="fill:#ffffff;fill-opacity:1;fill-rule:evenodd;stroke:none;stroke-width:0.217354"
       d="m 132.6346,74.642293 c 0.89404,-0.894035 1.9029,-1.665038 3.00199,-2.296604 2.19818,-1.271334 4.69163,-1.943911 7.2343,-1.943911 2.54267,0 5.03613,0.672577 7.2343,1.943911 1.09909,0.631566 2.10795,1.402569 3.00199,2.296604 l -10.23629,10.236294 z"
       id="path9091" />
    <path
       style="fill:#ffffff;fill-opacity:1;fill-rule:evenodd;stroke:none;stroke-width:0.217354"
       d="m 132.6346,74.642293 10.23629,10.236294 10.23629,10.23629 L 37.112303,211.10977 c -1.79627,1.79627 -4.03546,3.084 -6.4879,3.74017 -2.45245,0.66438 -5.04433,0.66438 -7.496775,0 -2.452444,-0.65617 -4.691632,-1.9439 -6.487904,-3.74017 -1.796272,-1.79628 -3.084011,-4.03547 -3.740184,-6.48791 -0.664374,-2.45245 -0.664374,-5.04433 0,-7.49677 0.656173,-2.45245 1.943912,-4.69164 3.740184,-6.48791 z"
       id="path9093" />
  </g>
</svg>
