<?xml version="1.0" encoding="UTF-8" standalone="no"?>
<svg
   xmlns:dc="http://purl.org/dc/elements/1.1/"
   xmlns:cc="http://creativecommons.org/ns#"
   xmlns:rdf="http://www.w3.org/1999/02/22-rdf-syntax-ns#"
   xmlns:svg="http://www.w3.org/2000/svg"
   xmlns="http://www.w3.org/2000/svg"
   xmlns:sodipodi="http://sodipodi.sourceforge.net/DTD/sodipodi-0.dtd"
   xmlns:inkscape="http://www.inkscape.org/namespaces/inkscape"
   width="1080"
   height="1080"
   viewBox="0 0 285.74999 285.75001"
   version="1.1"
   id="svg8"
   inkscape:version="1.0.2 (e86c870879, 2021-01-15)"
   sodipodi:docname="Logout.svg">
  <defs
     id="defs2">
    <pattern
       id="EMFhbasepattern"
       patternUnits="userSpaceOnUse"
       width="6"
       height="6"
       x="0"
       y="0" />
  </defs>
  <sodipodi:namedview
     id="base"
     pagecolor="#ffffff"
     bordercolor="#666666"
     borderopacity="1.0"
     inkscape:pageopacity="0.0"
     inkscape:pageshadow="2"
     inkscape:zoom="0.33602431"
     inkscape:cx="400"
     inkscape:cy="440.96099"
     inkscape:document-units="mm"
     inkscape:current-layer="layer1"
     inkscape:document-rotation="0"
     showgrid="false"
     units="px"
     inkscape:pagecheckerboard="true"
     inkscape:window-width="1366"
     inkscape:window-height="705"
     inkscape:window-x="-8"
     inkscape:window-y="-8"
     inkscape:window-maximized="1" />
  <metadata
     id="metadata5">
    <rdf:RDF>
      <cc:Work
         rdf:about="">
        <dc:format>image/svg+xml</dc:format>
        <dc:type
           rdf:resource="http://purl.org/dc/dcmitype/StillImage" />
        <dc:title></dc:title>
      </cc:Work>
    </rdf:RDF>
  </metadata>
  <g
     inkscape:label="Capa 1"
     inkscape:groupmode="layer"
     id="layer1">
    <path
       style="fill:#ffffff;fill-opacity:1;fill-rule:evenodd;stroke:none;stroke-width:0.165911"
       d="m 134.02857,8.7557106 h 8.84331 8.84958 V 121.56908 h -8.84958 -8.84331 z"
       id="path7991" />
    <path
       style="fill:#ffffff;fill-opacity:1;fill-rule:evenodd;stroke:none;stroke-width:0.165911"
       d="m 173.98957,68.972976 3.1149,-8.279245 3.1149,-8.279248 6.51811,2.450556 -3.11491,8.279249 -3.11489,8.279245 z"
       id="path7993" />
    <path
       style="fill:#ffffff;fill-opacity:1;fill-rule:evenodd;stroke:none;stroke-width:0.165911"
       d="m 186.73748,54.865039 c 0.18175,0.06894 0.35724,0.137884 0.53273,0.219361 l -3.64764,8.059888 z"
       id="path7995" />
    <path
       style="fill:#ffffff;fill-opacity:1;fill-rule:evenodd;stroke:none;stroke-width:0.165911"
       d="m 179.97494,71.20418 3.64763,-8.059892 3.64764,-8.059888 6.35516,2.876739 -3.64764,8.059891 -3.64763,8.059885 z"
       id="path7997" />
    <path
       style="fill:#ffffff;fill-opacity:1;fill-rule:evenodd;stroke:none;stroke-width:0.165911"
       d="m 193.62537,57.961139 c 0.17548,0.08148 0.35097,0.169221 0.52645,0.256965 l -4.17409,7.802926 z"
       id="path7999" />
    <path
       style="fill:#ffffff;fill-opacity:1;fill-rule:evenodd;stroke:none;stroke-width:0.165911"
       d="m 185.80364,73.823957 4.17409,-7.802927 4.17409,-7.802926 6.17339,3.302925 -4.17408,7.802921 -4.1741,7.802926 z"
       id="path8001" />
    <path
       style="fill:#ffffff;fill-opacity:1;fill-rule:evenodd;stroke:none;stroke-width:0.165911"
       d="m 200.32521,61.521029 c 0.0815,0.05014 0.16924,0.09401 0.25071,0.14415 0.0815,0.04386 0.16294,0.09401 0.24442,0.14415 l -4.66921,7.514621 z"
       id="path8003" />
    <path
       style="fill:#ffffff;fill-opacity:1;fill-rule:evenodd;stroke:none;stroke-width:0.165911"
       d="m 191.48191,76.838577 4.66922,-7.514627 4.66921,-7.514621 5.94151,3.691506 -4.66922,7.514621 -4.66921,7.514628 z"
       id="path8005" />
    <path
       style="fill:#ffffff;fill-opacity:1;fill-rule:evenodd;stroke:none;stroke-width:0.165911"
       d="m 206.76185,65.500835 c 0.16295,0.106545 0.32592,0.21309 0.48885,0.325905 l -5.15807,7.188716 z"
       id="path8007" />
    <path
       style="fill:#ffffff;fill-opacity:1;fill-rule:evenodd;stroke:none;stroke-width:0.165911"
       d="m 196.93456,80.204179 5.15807,-7.188723 5.15807,-7.188716 5.67201,4.067545 -5.15808,7.188722 -5.15807,7.188716 z"
       id="path8009" />
    <path
       style="fill:#ffffff;fill-opacity:1;fill-rule:evenodd;stroke:none;stroke-width:0.165911"
       d="m 212.92271,69.894285 c 0.15669,0.112815 0.30711,0.231894 0.45752,0.35098 l -5.6156,6.837742 z"
       id="path8011" />
    <path
       style="fill:#ffffff;fill-opacity:1;fill-rule:evenodd;stroke:none;stroke-width:0.165911"
       d="m 202.14904,83.920748 5.61559,-6.837741 5.6156,-6.837742 5.37744,4.41852 -5.6156,6.837747 -5.61559,6.837742 z"
       id="path8013" />
    <path
       style="fill:#ffffff;fill-opacity:1;fill-rule:evenodd;stroke:none;stroke-width:0.165911"
       d="m 218.75767,74.663785 c 0.15042,0.125349 0.2883,0.2507 0.42619,0.376044 l -6.04179,6.461703 z"
       id="path8015" />
    <path
       style="fill:#ffffff;fill-opacity:1;fill-rule:evenodd;stroke:none;stroke-width:0.165911"
       d="m 207.10029,87.96323 6.04178,-6.461698 6.04179,-6.461703 5.0766,4.750701 -6.04179,6.461697 -6.04178,6.461694 z"
       id="path8017" />
    <path
       style="fill:#ffffff;fill-opacity:1;fill-rule:evenodd;stroke:none;stroke-width:0.165911"
       d="m 224.26046,79.79053 c 0.14415,0.137878 0.28203,0.275764 0.41992,0.419913 l -6.46171,6.041784 z"
       id="path8019" />
    <path
       style="fill:#ffffff;fill-opacity:1;fill-rule:evenodd;stroke:none;stroke-width:0.165911"
       d="m 211.75698,92.294012 6.46169,-6.041785 6.46171,-6.041784 4.75069,5.076599 -6.4617,6.041783 -6.4617,6.041784 z"
       id="path8021" />
    <path
       style="fill:#ffffff;fill-opacity:1;fill-rule:evenodd;stroke:none;stroke-width:0.165911"
       d="m 229.43107,85.287042 c 0.12535,0.137885 0.25069,0.27577 0.37604,0.426184 l -6.83774,5.615599 z"
       id="path8023" />
    <path
       style="fill:#ffffff;fill-opacity:1;fill-rule:evenodd;stroke:none;stroke-width:0.165911"
       d="m 216.13164,96.944421 6.83773,-5.615596 6.83774,-5.615599 4.41852,5.377439 -6.83773,5.615595 -6.83774,5.6156 z"
       id="path8025" />
    <path
       style="fill:#ffffff;fill-opacity:1;fill-rule:evenodd;stroke:none;stroke-width:0.165911"
       d="m 234.22563,91.090665 c 0.11909,0.150421 0.23817,0.300835 0.35098,0.45752 l -7.18871,5.158075 z"
       id="path8027" />
    <path
       style="fill:#ffffff;fill-opacity:1;fill-rule:evenodd;stroke:none;stroke-width:0.165911"
       d="m 220.19917,101.86435 7.18873,-5.15809 7.18871,-5.158075 4.06754,5.672012 -7.18869,5.158073 -7.18873,5.15808 z"
       id="path8029" />
    <path
       style="fill:#ffffff;fill-opacity:1;fill-rule:evenodd;stroke:none;stroke-width:0.165911"
       d="m 238.64415,97.220197 c 0.11282,0.16295 0.21938,0.3259 0.32591,0.48885 l -7.5146,4.669223 z"
       id="path8031" />
    <path
       style="fill:#ffffff;fill-opacity:1;fill-rule:evenodd;stroke:none;stroke-width:0.165911"
       d="m 223.94081,107.04749 7.51465,-4.66922 7.5146,-4.669223 3.69151,5.941513 -7.51462,4.66922 -7.51461,4.66922 z"
       id="path8033" />
    <path
       style="fill:#ffffff;fill-opacity:1;fill-rule:evenodd;stroke:none;stroke-width:0.165911"
       d="m 242.66157,103.65056 c 0.0501,0.0814 0.10028,0.16295 0.14414,0.24442 0.0501,0.0815 0.094,0.16922 0.14416,0.2507 l -7.80292,4.1741 z"
       id="path8035" />
    <path
       style="fill:#ffffff;fill-opacity:1;fill-rule:evenodd;stroke:none;stroke-width:0.165911"
       d="m 227.34402,112.49387 7.80293,-4.17409 7.80292,-4.1741 3.30293,6.1734 -7.80293,4.1741 -7.80292,4.17409 z"
       id="path8037" />
    <path
       style="fill:#ffffff;fill-opacity:1;fill-rule:evenodd;stroke:none;stroke-width:0.165911"
       d="m 246.2528,110.31908 c 0.0877,0.17549 0.17549,0.35098 0.25696,0.52647 l -8.05989,3.64763 z"
       id="path8039" />
    <path
       style="fill:#ffffff;fill-opacity:1;fill-rule:evenodd;stroke:none;stroke-width:0.165911"
       d="m 230.38999,118.14081 8.05988,-3.64763 8.05989,-3.64763 2.87674,6.35515 -8.05988,3.64763 -8.05989,3.64763 z"
       id="path8041" />
    <path
       style="fill:#ffffff;fill-opacity:1;fill-rule:evenodd;stroke:none;stroke-width:0.165911"
       d="m 249.3865,117.2007 c 0.0815,0.17548 0.15041,0.35097 0.21936,0.53272 l -8.27924,3.11491 z"
       id="path8043" />
    <path
       style="fill:#ffffff;fill-opacity:1;fill-rule:evenodd;stroke:none;stroke-width:0.165911"
       d="m 233.04736,123.96324 8.27926,-3.11491 8.27924,-3.11491 2.45055,6.51811 -8.27924,3.11491 -8.27925,3.1149 z"
       id="path8045" />
    <path
       style="fill:#ffffff;fill-opacity:1;fill-rule:evenodd;stroke:none;stroke-width:0.165911"
       d="m 252.05641,124.25153 c 0.069,0.18176 0.13161,0.36352 0.18802,0.54526 l -8.46726,2.56965 z"
       id="path8047" />
    <path
       style="fill:#ffffff;fill-opacity:1;fill-rule:evenodd;stroke:none;stroke-width:0.165911"
       d="m 235.3099,129.93607 8.46727,-2.56963 8.46726,-2.56965 2.01811,6.64973 -8.46727,2.56964 -8.46727,2.56963 z"
       id="path8049" />
    <path
       style="fill:#ffffff;fill-opacity:1;fill-rule:evenodd;stroke:none;stroke-width:0.165911"
       d="m 254.26254,131.44652 c 0.0564,0.18802 0.10655,0.36977 0.15042,0.56407 l -8.61769,2.00557 z"
       id="path8051" />
    <path
       style="fill:#ffffff;fill-opacity:1;fill-rule:evenodd;stroke:none;stroke-width:0.165911"
       d="m 237.17758,136.02173 8.61769,-2.00557 8.61769,-2.00557 1.57938,6.77506 -8.61767,2.00557 -8.6177,2.00557 z"
       id="path8053" />
    <path
       style="fill:#ffffff;fill-opacity:1;fill-rule:evenodd;stroke:none;stroke-width:0.165911"
       d="m 255.99234,138.78565 c 0.0439,0.18176 0.0814,0.37605 0.11283,0.56406 l -8.7305,1.44151 z"
       id="path8055" />
    <path
       style="fill:#ffffff;fill-opacity:1;fill-rule:evenodd;stroke:none;stroke-width:0.165911"
       d="m 238.64415,142.23273 8.73052,-1.44151 8.7305,-1.44151 1.1344,6.86909 -8.73051,1.4415 -8.73049,1.44151 z"
       id="path8057" />
    <path
       style="fill:#ffffff;fill-opacity:1;fill-rule:evenodd;stroke:none;stroke-width:0.165911"
       d="m 257.23957,146.2188 c 0.0313,0.18803 0.0564,0.38231 0.0753,0.5766 l -8.80572,0.8649 z"
       id="path8059" />
    <path
       style="fill:#ffffff;fill-opacity:1;fill-rule:evenodd;stroke:none;stroke-width:0.165911"
       d="m 239.70336,148.52521 8.8057,-0.86491 8.80572,-0.8649 0.68315,6.93803 -8.80572,0.8649 -8.80571,0.8649 z"
       id="path8061" />
    <path
       style="fill:#ffffff;fill-opacity:1;fill-rule:evenodd;stroke:none;stroke-width:0.165911"
       d="m 257.99793,153.73343 c 0.0188,0.18801 0.0314,0.38231 0.0376,0.57033 l -8.84332,0.29457 z"
       id="path8063" />
    <path
       style="fill:#ffffff;fill-opacity:1;fill-rule:evenodd;stroke:none;stroke-width:0.165911"
       d="m 240.3489,154.8929 8.84331,-0.29457 8.84331,-0.29457 0.2319,6.99443 -8.84332,0.29456 -8.8433,0.29458 z"
       id="path8065" />
    <path
       style="fill:#ffffff;fill-opacity:1;fill-rule:evenodd;stroke:none;stroke-width:0.165911"
       d="m 258.26742,161.29819 c 0,0.10028 0.006,0.19429 0.006,0.29456 v 0 h -8.84959 z"
       id="path8067" />
    <path
       style="fill:#ffffff;fill-opacity:1;fill-rule:evenodd;stroke:none;stroke-width:0.165911"
       d="m 240.5808,161.59275 h 8.8433 8.84959 v 0.006 h -8.84959 -8.8433 z"
       id="path8069" />
    <path
       style="fill:#ffffff;fill-opacity:1;fill-rule:evenodd;stroke:none;stroke-width:0.165911"
       d="m 258.27369,161.59902 c 0,0.10029 -0.006,0.1943 -0.006,0.29457 l -8.84333,-0.29457 z"
       id="path8071" />
    <path
       style="fill:#ffffff;fill-opacity:1;fill-rule:evenodd;stroke:none;stroke-width:0.165911"
       d="m 240.5808,161.30446 8.8433,0.29456 8.84332,0.29457 -0.2319,6.99443 -8.84331,-0.29458 -8.84331,-0.29455 z"
       id="path8073" />
    <path
       style="fill:#ffffff;fill-opacity:1;fill-rule:evenodd;stroke:none;stroke-width:0.165911"
       d="m 258.03552,168.88802 c -0.006,0.18802 -0.0188,0.38231 -0.0376,0.57034 l -8.80571,-0.86492 z"
       id="path8075" />
    <path
       style="fill:#ffffff;fill-opacity:1;fill-rule:evenodd;stroke:none;stroke-width:0.165911"
       d="m 240.3865,167.72855 8.80571,0.86489 8.80572,0.86492 -0.68315,6.93801 -8.80572,-0.86489 -8.8057,-0.86491 z"
       id="path8077" />
    <path
       style="fill:#ffffff;fill-opacity:1;fill-rule:evenodd;stroke:none;stroke-width:0.165911"
       d="m 257.31478,176.39637 c -0.0188,0.1943 -0.0439,0.38858 -0.0752,0.5766 l -8.73051,-1.44149 z"
       id="path8079" />
    <path
       style="fill:#ffffff;fill-opacity:1;fill-rule:evenodd;stroke:none;stroke-width:0.165911"
       d="m 239.77857,174.08998 8.73049,1.4415 8.73051,1.44149 -1.1344,6.86908 -8.7305,-1.44149 -8.73052,-1.44151 z"
       id="path8081" />
    <path
       style="fill:#ffffff;fill-opacity:1;fill-rule:evenodd;stroke:none;stroke-width:0.165911"
       d="m 256.10517,183.84205 c -0.0314,0.18803 -0.069,0.38233 -0.11283,0.56407 l -8.61767,-2.00556 z"
       id="path8083" />
    <path
       style="fill:#ffffff;fill-opacity:1;fill-rule:evenodd;stroke:none;stroke-width:0.165911"
       d="m 238.75697,180.39499 8.6177,2.00557 8.61767,2.00556 -1.57938,6.77507 -8.61769,-2.00557 -8.61769,-2.00556 z"
       id="path8085" />
    <path
       style="fill:#ffffff;fill-opacity:1;fill-rule:evenodd;stroke:none;stroke-width:0.165911"
       d="m 254.41296,191.18119 c -0.0439,0.1943 -0.094,0.37606 -0.15042,0.56406 l -8.46727,-2.56963 z"
       id="path8087" />
    <path
       style="fill:#ffffff;fill-opacity:1;fill-rule:evenodd;stroke:none;stroke-width:0.165911"
       d="m 237.328,186.60598 8.46727,2.56964 8.46727,2.56963 -2.01811,6.64973 -8.46726,-2.56963 -8.46727,-2.56964 z"
       id="path8089" />
    <path
       style="fill:#ffffff;fill-opacity:1;fill-rule:evenodd;stroke:none;stroke-width:0.165911"
       d="m 252.24443,198.39498 c -0.0564,0.18176 -0.11907,0.36351 -0.18802,0.54526 l -8.27924,-3.11489 z"
       id="path8091" />
    <path
       style="fill:#ffffff;fill-opacity:1;fill-rule:evenodd;stroke:none;stroke-width:0.165911"
       d="m 235.49792,192.71044 8.27925,3.11491 8.27924,3.11489 -2.45055,6.51812 -8.27924,-3.11491 -8.27926,-3.1149 z"
       id="path8093" />
    <path
       style="fill:#ffffff;fill-opacity:1;fill-rule:evenodd;stroke:none;stroke-width:0.165911"
       d="m 249.60586,205.45836 c -0.069,0.18175 -0.13788,0.35724 -0.21936,0.53273 l -8.05988,-3.64764 z"
       id="path8095" />
    <path
       style="fill:#ffffff;fill-opacity:1;fill-rule:evenodd;stroke:none;stroke-width:0.165911"
       d="m 233.26673,198.69582 8.05989,3.64763 8.05988,3.64764 -2.87674,6.35514 -8.05989,-3.64764 -8.05988,-3.64761 z"
       id="path8097" />
    <path
       style="fill:#ffffff;fill-opacity:1;fill-rule:evenodd;stroke:none;stroke-width:0.165911"
       d="m 246.50976,212.34623 c -0.0814,0.17548 -0.16921,0.35098 -0.25696,0.52647 l -7.80293,-4.17411 z"
       id="path8099" />
    <path
       style="fill:#ffffff;fill-opacity:1;fill-rule:evenodd;stroke:none;stroke-width:0.165911"
       d="m 230.64695,204.52451 7.80292,4.17408 7.80293,4.17411 -3.30293,6.17339 -7.80292,-4.17408 -7.80293,-4.1741 z"
       id="path8101" />
    <path
       style="fill:#ffffff;fill-opacity:1;fill-rule:evenodd;stroke:none;stroke-width:0.165911"
       d="m 242.94987,219.04609 c -0.0501,0.0815 -0.094,0.16922 -0.14416,0.25069 -0.0438,0.0815 -0.094,0.16297 -0.14414,0.24444 l -7.51462,-4.66921 z"
       id="path8103" />
    <path
       style="fill:#ffffff;fill-opacity:1;fill-rule:evenodd;stroke:none;stroke-width:0.165911"
       d="m 227.63234,210.20278 7.51461,4.66923 7.51462,4.66921 -3.69151,5.9415 -7.5146,-4.6692 -7.51465,-4.66924 z"
       id="path8105" />
    <path
       style="fill:#ffffff;fill-opacity:1;fill-rule:evenodd;stroke:none;stroke-width:0.165911"
       d="m 238.97006,225.48272 c -0.10653,0.16296 -0.21309,0.3259 -0.32591,0.48886 l -7.18869,-5.15806 z"
       id="path8107" />
    <path
       style="fill:#ffffff;fill-opacity:1;fill-rule:evenodd;stroke:none;stroke-width:0.165911"
       d="m 224.26673,215.65543 7.18873,5.15809 7.18869,5.15806 -4.06754,5.67201 -7.18871,-5.15808 -7.18873,-5.15808 z"
       id="path8109" />
    <path
       style="fill:#ffffff;fill-opacity:1;fill-rule:evenodd;stroke:none;stroke-width:0.165911"
       d="m 234.57661,231.64359 c -0.11281,0.15668 -0.23189,0.30711 -0.35098,0.45752 l -6.83773,-5.6156 z"
       id="path8111" />
    <path
       style="fill:#ffffff;fill-opacity:1;fill-rule:evenodd;stroke:none;stroke-width:0.165911"
       d="m 220.55016,220.8699 6.83774,5.61561 6.83773,5.6156 -4.41852,5.37744 -6.83774,-5.6156 -6.83773,-5.61561 z"
       id="path8113" />
    <path
       style="fill:#ffffff;fill-opacity:1;fill-rule:evenodd;stroke:none;stroke-width:0.165911"
       d="m 229.80711,237.47855 c -0.12535,0.15042 -0.25069,0.28831 -0.37604,0.42618 l -6.4617,-6.04178 z"
       id="path8115" />
    <path
       style="fill:#ffffff;fill-opacity:1;fill-rule:evenodd;stroke:none;stroke-width:0.165911"
       d="m 216.50767,225.82117 6.4617,6.04178 6.4617,6.04178 -4.75069,5.0766 -6.46171,-6.04178 -6.46169,-6.04178 z"
       id="path8117" />
    <path
       style="fill:#ffffff;fill-opacity:1;fill-rule:evenodd;stroke:none;stroke-width:0.165911"
       d="m 224.68038,242.98133 c -0.13789,0.14414 -0.27577,0.28204 -0.41992,0.41993 l -6.04179,-6.46171 z"
       id="path8119" />
    <path
       style="fill:#ffffff;fill-opacity:1;fill-rule:evenodd;stroke:none;stroke-width:0.165911"
       d="m 212.17689,230.47786 6.04178,6.46169 6.04179,6.46171 -5.0766,4.75069 -6.04179,-6.4617 -6.04178,-6.46171 z"
       id="path8121" />
    <path
       style="fill:#ffffff;fill-opacity:1;fill-rule:evenodd;stroke:none;stroke-width:0.165911"
       d="m 219.18386,248.15195 c -0.13789,0.12534 -0.27577,0.2507 -0.42619,0.37604 l -5.6156,-6.83774 z"
       id="path8123" />
    <path
       style="fill:#ffffff;fill-opacity:1;fill-rule:evenodd;stroke:none;stroke-width:0.165911"
       d="m 207.52648,234.8525 5.61559,6.83775 5.6156,6.83774 -5.37744,4.41853 -5.6156,-6.83775 -5.61559,-6.83774 z"
       id="path8125" />
    <path
       style="fill:#ffffff;fill-opacity:1;fill-rule:evenodd;stroke:none;stroke-width:0.165911"
       d="m 213.38023,252.94652 c -0.15041,0.11908 -0.30083,0.23816 -0.45752,0.35097 l -5.15808,-7.18872 z"
       id="path8127" />
    <path
       style="fill:#ffffff;fill-opacity:1;fill-rule:evenodd;stroke:none;stroke-width:0.165911"
       d="m 202.60656,238.92005 5.15807,7.18872 5.15808,7.18872 -5.67201,4.06754 -5.15807,-7.18872 -5.15807,-7.18871 z"
       id="path8129" />
    <path
       style="fill:#ffffff;fill-opacity:1;fill-rule:evenodd;stroke:none;stroke-width:0.165911"
       d="m 207.2507,257.36503 c -0.16293,0.11282 -0.3259,0.21938 -0.48885,0.32591 l -4.66922,-7.51463 z"
       id="path8131" />
    <path
       style="fill:#ffffff;fill-opacity:1;fill-rule:evenodd;stroke:none;stroke-width:0.165911"
       d="m 197.42342,242.66169 4.66921,7.51462 4.66922,7.51463 -5.94151,3.69151 -4.66921,-7.51464 -4.66922,-7.51461 z"
       id="path8133" />
    <path
       style="fill:#ffffff;fill-opacity:1;fill-rule:evenodd;stroke:none;stroke-width:0.165911"
       d="m 200.82034,261.38245 c -0.0815,0.0501 -0.16294,0.10028 -0.24442,0.14414 -0.0814,0.0501 -0.16923,0.094 -0.25071,0.14417 l -4.17408,-7.80295 z"
       id="path8135" />
    <path
       style="fill:#ffffff;fill-opacity:1;fill-rule:evenodd;stroke:none;stroke-width:0.165911"
       d="m 191.97703,246.06489 4.1741,7.80292 4.17408,7.80295 -6.17339,3.30291 -4.17409,-7.80291 -4.17409,-7.80293 z"
       id="path8137" />
    <path
       style="fill:#ffffff;fill-opacity:1;fill-rule:evenodd;stroke:none;stroke-width:0.165911"
       d="m 194.15182,264.97367 c -0.17548,0.0877 -0.35097,0.17549 -0.52645,0.25697 l -3.64764,-8.05988 z"
       id="path8139" />
    <path
       style="fill:#ffffff;fill-opacity:1;fill-rule:evenodd;stroke:none;stroke-width:0.165911"
       d="m 186.3301,249.11086 3.64763,8.0599 3.64764,8.05988 -6.35516,2.87673 -3.64764,-8.05988 -3.64763,-8.05989 z"
       id="path8141" />
    <path
       style="fill:#ffffff;fill-opacity:1;fill-rule:evenodd;stroke:none;stroke-width:0.165911"
       d="m 187.27021,268.10737 c -0.17549,0.0814 -0.35098,0.15044 -0.53273,0.21937 l -3.11491,-8.27925 z"
       id="path8143" />
    <path
       style="fill:#ffffff;fill-opacity:1;fill-rule:evenodd;stroke:none;stroke-width:0.165911"
       d="m 180.50768,251.76824 3.11489,8.27925 3.11491,8.27925 -6.51811,2.45056 -3.1149,-8.27927 -3.1149,-8.27924 z"
       id="path8145" />
    <path
       style="fill:#ffffff;fill-opacity:1;fill-rule:evenodd;stroke:none;stroke-width:0.165911"
       d="m 180.21937,270.7773 c -0.18175,0.069 -0.3635,0.13161 -0.54526,0.18801 l -2.56964,-8.46728 z"
       id="path8147" />
    <path
       style="fill:#ffffff;fill-opacity:1;fill-rule:evenodd;stroke:none;stroke-width:0.165911"
       d="m 174.53483,254.03077 2.56964,8.46726 2.56964,8.46728 -6.64972,2.01812 -2.56964,-8.46728 -2.56963,-8.46727 z"
       id="path8149" />
    <path
       style="fill:#ffffff;fill-opacity:1;fill-rule:evenodd;stroke:none;stroke-width:0.165911"
       d="m 173.02439,272.98343 c -0.18803,0.0564 -0.36978,0.10654 -0.56407,0.15041 l -2.00557,-8.61769 z"
       id="path8151" />
    <path
       style="fill:#ffffff;fill-opacity:1;fill-rule:evenodd;stroke:none;stroke-width:0.165911"
       d="m 168.44918,255.89846 2.00557,8.61769 2.00557,8.61769 -6.77507,1.57939 -2.00557,-8.6177 -2.00557,-8.61768 z"
       id="path8153" />
    <path
       style="fill:#ffffff;fill-opacity:1;fill-rule:evenodd;stroke:none;stroke-width:0.165911"
       d="m 165.68525,274.71323 c -0.18175,0.0439 -0.37605,0.0815 -0.56406,0.1128 l -1.44151,-8.7305 z"
       id="path8155" />
    <path
       style="fill:#ffffff;fill-opacity:1;fill-rule:evenodd;stroke:none;stroke-width:0.165911"
       d="m 162.23817,257.36503 1.44151,8.7305 1.44151,8.7305 -6.86909,1.13442 -1.4415,-8.73052 -1.44151,-8.73049 z"
       id="path8157" />
    <path
       style="fill:#ffffff;fill-opacity:1;fill-rule:evenodd;stroke:none;stroke-width:0.165911"
       d="m 158.2521,275.96045 c -0.18802,0.0314 -0.38231,0.0564 -0.5766,0.0752 l -0.8649,-8.80572 z"
       id="path8159" />
    <path
       style="fill:#ffffff;fill-opacity:1;fill-rule:evenodd;stroke:none;stroke-width:0.165911"
       d="m 155.94569,258.42422 0.86491,8.80571 0.8649,8.80572 -6.93803,0.68315 -0.86489,-8.80571 -0.8649,-8.80571 z"
       id="path8161" />
    <path
       style="fill:#ffffff;fill-opacity:1;fill-rule:evenodd;stroke:none;stroke-width:0.165911"
       d="m 150.73747,276.7188 c -0.18801,0.0188 -0.3823,0.0314 -0.57032,0.0376 l -0.29457,-8.84332 z"
       id="path8163" />
    <path
       style="fill:#ffffff;fill-opacity:1;fill-rule:evenodd;stroke:none;stroke-width:0.165911"
       d="m 149.57801,259.06977 0.29457,8.84332 0.29457,8.84331 -6.99444,0.23189 -0.29456,-8.84331 -0.29456,-8.84332 z"
       id="path8165" />
    <path
       style="fill:#ffffff;fill-opacity:1;fill-rule:evenodd;stroke:none;stroke-width:0.165911"
       d="m 143.17271,276.98829 c -0.10027,0 -0.19428,0.006 -0.29456,0.006 -0.10028,0 -0.1943,-0.006 -0.29456,-0.006 l 0.29456,-8.84331 z"
       id="path8167" />
    <path
       style="fill:#ffffff;fill-opacity:1;fill-rule:evenodd;stroke:none;stroke-width:0.165911"
       d="m 143.17271,259.30166 -0.29456,8.84332 -0.29456,8.84331 -7.0007,-0.23189 0.29457,-8.84331 0.29456,-8.84332 z"
       id="path8169" />
    <path
       style="fill:#ffffff;fill-opacity:1;fill-rule:evenodd;stroke:none;stroke-width:0.165911"
       d="m 135.58289,276.7564 c -0.18803,-0.006 -0.38232,-0.0188 -0.57033,-0.0376 l 0.8649,-8.80572 z"
       id="path8171" />
    <path
       style="fill:#ffffff;fill-opacity:1;fill-rule:evenodd;stroke:none;stroke-width:0.165911"
       d="m 136.74235,259.10738 -0.86489,8.80571 -0.8649,8.80571 -6.93803,-0.68315 0.8649,-8.80572 0.86491,-8.80571 z"
       id="path8173" />
    <path
       style="fill:#ffffff;fill-opacity:1;fill-rule:evenodd;stroke:none;stroke-width:0.165911"
       d="m 128.07453,276.03565 c -0.19429,-0.0188 -0.38858,-0.0439 -0.57661,-0.0752 l 1.44151,-8.73052 z"
       id="path8175" />
    <path
       style="fill:#ffffff;fill-opacity:1;fill-rule:evenodd;stroke:none;stroke-width:0.165911"
       d="m 130.38093,258.49944 -1.4415,8.73049 -1.44151,8.73052 -6.86908,-1.13442 1.44152,-8.7305 1.4415,-8.7305 z"
       id="path8177" />
    <path
       style="fill:#ffffff;fill-opacity:1;fill-rule:evenodd;stroke:none;stroke-width:0.165911"
       d="m 120.62884,274.82603 c -0.18801,-0.0314 -0.38231,-0.069 -0.56406,-0.1128 l 2.00558,-8.6177 z"
       id="path8179" />
    <path
       style="fill:#ffffff;fill-opacity:1;fill-rule:evenodd;stroke:none;stroke-width:0.165911"
       d="m 124.07592,257.47785 -2.00556,8.61768 -2.00558,8.6177 -6.77507,-1.57939 2.00557,-8.61769 2.00557,-8.61769 z"
       id="path8181" />
    <path
       style="fill:#ffffff;fill-opacity:1;fill-rule:evenodd;stroke:none;stroke-width:0.165911"
       d="m 113.28971,273.13384 c -0.19429,-0.0439 -0.37604,-0.094 -0.56407,-0.15041 l 2.56964,-8.46728 z"
       id="path8183" />
    <path
       style="fill:#ffffff;fill-opacity:1;fill-rule:evenodd;stroke:none;stroke-width:0.165911"
       d="m 117.86492,256.04888 -2.56964,8.46727 -2.56964,8.46728 -6.64972,-2.01812 2.56965,-8.46728 2.56963,-8.46726 z"
       id="path8185" />
    <path
       style="fill:#ffffff;fill-opacity:1;fill-rule:evenodd;stroke:none;stroke-width:0.165911"
       d="m 106.07592,270.96531 c -0.18176,-0.0564 -0.3635,-0.11908 -0.54526,-0.18801 l 3.11491,-8.27927 z"
       id="path8187" />
    <path
       style="fill:#ffffff;fill-opacity:1;fill-rule:evenodd;stroke:none;stroke-width:0.165911"
       d="m 111.76046,254.21879 -3.11489,8.27924 -3.11491,8.27927 -6.518108,-2.45056 3.114908,-8.27925 3.11489,-8.27925 z"
       id="path8189" />
    <path
       style="fill:#ffffff;fill-opacity:1;fill-rule:evenodd;stroke:none;stroke-width:0.165911"
       d="m 99.012552,268.32674 c -0.181755,-0.069 -0.357245,-0.1379 -0.532728,-0.21937 l 3.647636,-8.05988 z"
       id="path8191" />
    <path
       style="fill:#ffffff;fill-opacity:1;fill-rule:evenodd;stroke:none;stroke-width:0.165911"
       d="m 105.77509,251.9876 -3.64763,8.05989 -3.647636,8.05988 -6.355154,-2.87673 3.647631,-8.05988 3.64763,-8.0599 z"
       id="path8193" />
    <path
       style="fill:#ffffff;fill-opacity:1;fill-rule:evenodd;stroke:none;stroke-width:0.165911"
       d="m 92.12467,265.23064 c -0.17549,-0.0814 -0.350974,-0.16923 -0.526464,-0.25697 l 4.174095,-7.80291 z"
       id="path8195" />
    <path
       style="fill:#ffffff;fill-opacity:1;fill-rule:evenodd;stroke:none;stroke-width:0.165911"
       d="m 99.946396,249.36783 -4.174095,7.80293 -4.174095,7.80291 -6.173397,-3.30291 4.174093,-7.80295 4.174097,-7.80292 z"
       id="path8197" />
    <path
       style="fill:#ffffff;fill-opacity:1;fill-rule:evenodd;stroke:none;stroke-width:0.165911"
       d="m 85.424809,261.67076 c -0.08148,-0.0501 -0.169221,-0.094 -0.250697,-0.14417 -0.08148,-0.0438 -0.162953,-0.094 -0.24443,-0.14414 l 4.66922,-7.51464 z"
       id="path8199" />
    <path
       style="fill:#ffffff;fill-opacity:1;fill-rule:evenodd;stroke:none;stroke-width:0.165911"
       d="m 94.268123,246.3532 -4.669221,7.51461 -4.66922,7.51464 -5.941504,-3.69151 4.669222,-7.51463 4.669219,-7.51462 z"
       id="path8201" />
    <path
       style="fill:#ffffff;fill-opacity:1;fill-rule:evenodd;stroke:none;stroke-width:0.165911"
       d="m 78.988178,257.69094 c -0.162951,-0.10653 -0.325904,-0.21309 -0.488856,-0.32591 l 5.158078,-7.18872 z"
       id="path8203" />
    <path
       style="fill:#ffffff;fill-opacity:1;fill-rule:evenodd;stroke:none;stroke-width:0.165911"
       d="m 88.815476,242.9876 -5.158076,7.18871 -5.158078,7.18872 -5.672006,-4.06754 5.158076,-7.18872 5.158078,-7.18872 z"
       id="path8205" />
    <path
       style="fill:#ffffff;fill-opacity:1;fill-rule:evenodd;stroke:none;stroke-width:0.165911"
       d="m 72.827316,253.29749 c -0.156685,-0.11281 -0.307104,-0.23189 -0.45752,-0.35097 l 5.615596,-6.83775 z"
       id="path8207" />
    <path
       style="fill:#ffffff;fill-opacity:1;fill-rule:evenodd;stroke:none;stroke-width:0.165911"
       d="m 83.600991,239.27103 -5.615599,6.83774 -5.615596,6.83775 -5.377438,-4.41853 5.615597,-6.83774 5.615598,-6.83775 z"
       id="path8209" />
    <path
       style="fill:#ffffff;fill-opacity:1;fill-rule:evenodd;stroke:none;stroke-width:0.165911"
       d="m 66.992358,248.52799 c -0.150418,-0.12534 -0.288301,-0.2507 -0.426185,-0.37604 l 6.041782,-6.4617 z"
       id="path8211" />
    <path
       style="fill:#ffffff;fill-opacity:1;fill-rule:evenodd;stroke:none;stroke-width:0.165911"
       d="m 78.649738,235.22854 -6.041783,6.46171 -6.041782,6.4617 -5.076601,-4.75069 6.041783,-6.46171 6.041782,-6.46169 z"
       id="path8213" />
    <path
       style="fill:#ffffff;fill-opacity:1;fill-rule:evenodd;stroke:none;stroke-width:0.165911"
       d="m 61.489572,243.40126 c -0.144149,-0.13789 -0.282033,-0.27579 -0.419915,-0.41993 l 6.461698,-6.04178 z"
       id="path8215" />
    <path
       style="fill:#ffffff;fill-opacity:1;fill-rule:evenodd;stroke:none;stroke-width:0.165911"
       d="m 73.993053,230.89777 -6.461698,6.04178 -6.461698,6.04178 -4.750697,-5.0766 6.461698,-6.04178 6.4617,-6.04178 z"
       id="path8217" />
    <path
       style="fill:#ffffff;fill-opacity:1;fill-rule:evenodd;stroke:none;stroke-width:0.165911"
       d="m 56.31896,237.90473 c -0.125349,-0.13787 -0.250696,-0.27576 -0.376045,-0.42618 l 6.837743,-5.6156 z"
       id="path8219" />
    <path
       style="fill:#ffffff;fill-opacity:1;fill-rule:evenodd;stroke:none;stroke-width:0.165911"
       d="m 69.618402,226.24734 -6.837744,5.61561 -6.837743,5.6156 -4.418523,-5.37744 6.837744,-5.6156 6.837743,-5.61561 z"
       id="path8221" />
    <path
       style="fill:#ffffff;fill-opacity:1;fill-rule:evenodd;stroke:none;stroke-width:0.165911"
       d="m 51.524392,232.10111 c -0.119081,-0.15041 -0.23816,-0.30084 -0.350975,-0.45752 l 7.188719,-5.15808 z"
       id="path8223" />
    <path
       style="fill:#ffffff;fill-opacity:1;fill-rule:evenodd;stroke:none;stroke-width:0.165911"
       d="m 65.550853,221.32743 -7.188717,5.15808 -7.188719,5.15808 -4.067548,-5.67201 7.188718,-5.15806 7.188717,-5.15809 z"
       id="path8225" />
    <path
       style="fill:#ffffff;fill-opacity:1;fill-rule:evenodd;stroke:none;stroke-width:0.165911"
       d="m 47.105869,225.97158 c -0.112813,-0.16296 -0.21936,-0.3259 -0.325906,-0.48886 l 7.514624,-4.6692 z"
       id="path8227" />
    <path
       style="fill:#ffffff;fill-opacity:1;fill-rule:evenodd;stroke:none;stroke-width:0.165911"
       d="m 61.80921,216.14428 -7.514623,4.66924 -7.514624,4.6692 -3.691504,-5.9415 7.514624,-4.66921 7.514624,-4.66923 z"
       id="path8229" />
    <path
       style="fill:#ffffff;fill-opacity:1;fill-rule:evenodd;stroke:none;stroke-width:0.165911"
       d="m 43.088459,219.54122 c -0.05014,-0.0814 -0.100277,-0.16296 -0.14415,-0.24444 -0.05014,-0.0814 -0.09401,-0.1692 -0.14415,-0.25069 l 7.802924,-4.17408 z"
       id="path8231" />
    <path
       style="fill:#ffffff;fill-opacity:1;fill-rule:evenodd;stroke:none;stroke-width:0.165911"
       d="m 58.406007,210.69791 -7.802924,4.1741 -7.802924,4.17408 -3.302925,-6.17339 7.802925,-4.17411 7.802923,-4.17408 z"
       id="path8233" />
    <path
       style="fill:#ffffff;fill-opacity:1;fill-rule:evenodd;stroke:none;stroke-width:0.165911"
       d="m 39.497234,212.8727 c -0.08774,-0.17549 -0.175488,-0.35099 -0.256965,-0.52647 l 8.05989,-3.64764 z"
       id="path8235" />
    <path
       style="fill:#ffffff;fill-opacity:1;fill-rule:evenodd;stroke:none;stroke-width:0.165911"
       d="m 55.360047,205.05098 -8.059888,3.64761 -8.05989,3.64764 -2.87674,-6.35514 8.059888,-3.64764 8.059889,-3.64763 z"
       id="path8237" />
    <path
       style="fill:#ffffff;fill-opacity:1;fill-rule:evenodd;stroke:none;stroke-width:0.165911"
       d="m 36.363529,205.99109 c -0.08148,-0.17549 -0.150418,-0.35098 -0.219359,-0.53273 l 8.279247,-3.11491 z"
       id="path8239" />
    <path
       style="fill:#ffffff;fill-opacity:1;fill-rule:evenodd;stroke:none;stroke-width:0.165911"
       d="m 52.702665,199.22855 -8.279248,3.1149 -8.279247,3.11491 -2.450557,-6.51812 8.279247,-3.11489 8.279249,-3.11491 z"
       id="path8241" />
    <path
       style="fill:#ffffff;fill-opacity:1;fill-rule:evenodd;stroke:none;stroke-width:0.165911"
       d="m 33.693613,198.94024 c -0.06894,-0.18175 -0.131616,-0.3635 -0.188023,-0.54526 l 8.46727,-2.56963 z"
       id="path8243" />
    <path
       style="fill:#ffffff;fill-opacity:1;fill-rule:evenodd;stroke:none;stroke-width:0.165911"
       d="m 50.44013,193.25571 -8.46727,2.56964 -8.46727,2.56963 -2.018105,-6.64973 8.467269,-2.56963 8.467271,-2.56964 z"
       id="path8245" />
    <path
       style="fill:#ffffff;fill-opacity:1;fill-rule:evenodd;stroke:none;stroke-width:0.165911"
       d="m 31.487485,191.74525 c -0.0564,-0.188 -0.106546,-0.36976 -0.150418,-0.56406 l 8.617687,-2.00557 z"
       id="path8247" />
    <path
       style="fill:#ffffff;fill-opacity:1;fill-rule:evenodd;stroke:none;stroke-width:0.165911"
       d="m 48.572444,187.17006 -8.61769,2.00556 -8.617687,2.00557 -1.579388,-6.77507 8.617688,-2.00556 8.617689,-2.00557 z"
       id="path8249" />
    <path
       style="fill:#ffffff;fill-opacity:1;fill-rule:evenodd;stroke:none;stroke-width:0.165911"
       d="m 29.757679,184.40612 c -0.04387,-0.18174 -0.08148,-0.37604 -0.112813,-0.56407 l 8.730501,-1.44149 z"
       id="path8251" />
    <path
       style="fill:#ffffff;fill-opacity:1;fill-rule:evenodd;stroke:none;stroke-width:0.165911"
       d="m 47.105869,180.95905 -8.730502,1.44151 -8.730501,1.44149 -1.134401,-6.86908 8.730502,-1.44149 8.730501,-1.4415 z"
       id="path8253" />
    <path
       style="fill:#ffffff;fill-opacity:1;fill-rule:evenodd;stroke:none;stroke-width:0.165911"
       d="m 28.510465,176.97297 c -0.03134,-0.18802 -0.0564,-0.3823 -0.07521,-0.5766 l 8.805711,-0.86489 z"
       id="path8255" />
    <path
       style="fill:#ffffff;fill-opacity:1;fill-rule:evenodd;stroke:none;stroke-width:0.165911"
       d="m 46.046677,174.66657 -8.80571,0.86491 -8.805711,0.86489 -0.683147,-6.93801 8.80571,-0.86492 8.805709,-0.86489 z"
       id="path8257" />
    <path
       style="fill:#ffffff;fill-opacity:1;fill-rule:evenodd;stroke:none;stroke-width:0.165911"
       d="m 27.752109,169.45836 c -0.0188,-0.18803 -0.03134,-0.38232 -0.03761,-0.57034 l 8.843315,-0.29458 z"
       id="path8259" />
    <path
       style="fill:#ffffff;fill-opacity:1;fill-rule:evenodd;stroke:none;stroke-width:0.165911"
       d="m 45.401134,168.29889 -8.843315,0.29455 -8.843315,0.29458 -0.231894,-6.99443 8.843314,-0.29457 8.843316,-0.29456 z"
       id="path8261" />
    <path
       style="fill:#ffffff;fill-opacity:1;fill-rule:evenodd;stroke:none;stroke-width:0.165911"
       d="m 27.48261,161.89359 c 0,-0.10027 -0.0063,-0.19428 -0.0063,-0.29457 0,-0.10028 0.0063,-0.19429 0.0063,-0.29456 l 8.843314,0.29456 z"
       id="path8263" />
    <path
       style="fill:#ffffff;fill-opacity:1;fill-rule:evenodd;stroke:none;stroke-width:0.165911"
       d="m 45.16924,161.89359 -8.843316,-0.29457 -8.843314,-0.29456 0.231894,-7.0007 8.843315,0.29457 8.843315,0.29457 z"
       id="path8265" />
    <path
       style="fill:#ffffff;fill-opacity:1;fill-rule:evenodd;stroke:none;stroke-width:0.165911"
       d="m 27.714504,154.30376 c 0.0063,-0.18802 0.0188,-0.38232 0.03761,-0.57033 l 8.805711,0.8649 z"
       id="path8267" />
    <path
       style="fill:#ffffff;fill-opacity:1;fill-rule:evenodd;stroke:none;stroke-width:0.165911"
       d="m 45.363528,155.46323 -8.805709,-0.8649 -8.80571,-0.8649 0.683147,-6.93803 8.805711,0.8649 8.80571,0.86491 z"
       id="path8269" />
    <path
       style="fill:#ffffff;fill-opacity:1;fill-rule:evenodd;stroke:none;stroke-width:0.165911"
       d="m 28.435256,146.7954 c 0.0188,-0.19429 0.04387,-0.38857 0.07521,-0.5766 l 8.730502,1.4415 z"
       id="path8271" />
    <path
       style="fill:#ffffff;fill-opacity:1;fill-rule:evenodd;stroke:none;stroke-width:0.165911"
       d="m 45.971468,149.10181 -8.730501,-1.44151 -8.730502,-1.4415 1.134401,-6.86909 8.730501,1.44151 8.730502,1.44151 z"
       id="path8273" />
    <path
       style="fill:#ffffff;fill-opacity:1;fill-rule:evenodd;stroke:none;stroke-width:0.165911"
       d="m 29.644866,139.34971 c 0.03134,-0.18801 0.06894,-0.3823 0.112813,-0.56406 l 8.617688,2.00557 z"
       id="path8275" />
    <path
       style="fill:#ffffff;fill-opacity:1;fill-rule:evenodd;stroke:none;stroke-width:0.165911"
       d="m 46.993056,142.79679 -8.617689,-2.00557 -8.617688,-2.00557 1.579388,-6.77506 8.617687,2.00557 8.61769,2.00557 z"
       id="path8277" />
    <path
       style="fill:#ffffff;fill-opacity:1;fill-rule:evenodd;stroke:none;stroke-width:0.165911"
       d="m 31.337067,132.01059 c 0.04387,-0.1943 0.09401,-0.37605 0.150418,-0.56407 l 8.467269,2.56964 z"
       id="path8279" />
    <path
       style="fill:#ffffff;fill-opacity:1;fill-rule:evenodd;stroke:none;stroke-width:0.165911"
       d="m 48.422025,136.58579 -8.467271,-2.56963 -8.467269,-2.56964 2.018105,-6.64973 8.46727,2.56965 8.46727,2.56963 z"
       id="path8281" />
    <path
       style="fill:#ffffff;fill-opacity:1;fill-rule:evenodd;stroke:none;stroke-width:0.165911"
       d="m 33.50559,124.79679 c 0.0564,-0.18174 0.119081,-0.3635 0.188023,-0.54526 l 8.279247,3.11491 z"
       id="path8283" />
    <path
       style="fill:#ffffff;fill-opacity:1;fill-rule:evenodd;stroke:none;stroke-width:0.165911"
       d="m 50.252109,130.48134 -8.279249,-3.1149 -8.279247,-3.11491 2.450557,-6.51811 8.279247,3.11491 8.279248,3.11491 z"
       id="path8285" />
    <path
       style="fill:#ffffff;fill-opacity:1;fill-rule:evenodd;stroke:none;stroke-width:0.165911"
       d="m 36.14417,117.73342 c 0.06894,-0.18175 0.137883,-0.35724 0.219359,-0.53272 l 8.059888,3.64763 z"
       id="path8287" />
    <path
       style="fill:#ffffff;fill-opacity:1;fill-rule:evenodd;stroke:none;stroke-width:0.165911"
       d="m 52.483306,124.49596 -8.059889,-3.64763 -8.059888,-3.64763 2.87674,-6.35515 8.05989,3.64763 8.059888,3.64763 z"
       id="path8289" />
    <path
       style="fill:#ffffff;fill-opacity:1;fill-rule:evenodd;stroke:none;stroke-width:0.165911"
       d="m 39.240269,110.84555 c 0.08148,-0.17549 0.169221,-0.35098 0.256965,-0.52647 l 7.802925,4.1741 z"
       id="path8291" />
    <path
       style="fill:#ffffff;fill-opacity:1;fill-rule:evenodd;stroke:none;stroke-width:0.165911"
       d="m 55.103082,118.66727 -7.802923,-4.17409 -7.802925,-4.1741 3.302925,-6.1734 7.802924,4.1741 7.802924,4.17409 z"
       id="path8293" />
    <path
       style="fill:#ffffff;fill-opacity:1;fill-rule:evenodd;stroke:none;stroke-width:0.165911"
       d="m 42.800159,104.14568 c 0.05014,-0.0815 0.09401,-0.16922 0.14415,-0.2507 0.04386,-0.0814 0.09401,-0.16295 0.14415,-0.24442 l 7.514624,4.66922 z"
       id="path8295" />
    <path
       style="fill:#ffffff;fill-opacity:1;fill-rule:evenodd;stroke:none;stroke-width:0.165911"
       d="m 58.117707,112.989 -7.514624,-4.66922 -7.514624,-4.66922 3.691504,-5.941513 7.514624,4.669223 7.514623,4.66922 z"
       id="path8297" />
    <path
       style="fill:#ffffff;fill-opacity:1;fill-rule:evenodd;stroke:none;stroke-width:0.165911"
       d="m 46.779963,97.709047 c 0.106546,-0.16295 0.213093,-0.3259 0.325906,-0.48885 l 7.188718,5.158073 z"
       id="path8299" />
    <path
       style="fill:#ffffff;fill-opacity:1;fill-rule:evenodd;stroke:none;stroke-width:0.165911"
       d="m 61.483304,107.53635 -7.188717,-5.15808 -7.188718,-5.158073 4.067548,-5.672012 7.188719,5.158075 7.188717,5.15809 z"
       id="path8301" />
    <path
       style="fill:#ffffff;fill-opacity:1;fill-rule:evenodd;stroke:none;stroke-width:0.165911"
       d="m 51.173417,91.548185 c 0.112815,-0.156685 0.231894,-0.307099 0.350975,-0.45752 l 6.837744,5.615595 z"
       id="path8303" />
    <path
       style="fill:#ffffff;fill-opacity:1;fill-rule:evenodd;stroke:none;stroke-width:0.165911"
       d="m 65.199879,102.32186 -6.837743,-5.6156 -6.837744,-5.615595 4.418523,-5.377439 6.837743,5.615599 6.837744,5.615596 z"
       id="path8305" />
    <path
       style="fill:#ffffff;fill-opacity:1;fill-rule:evenodd;stroke:none;stroke-width:0.165911"
       d="m 55.942915,85.713226 c 0.125349,-0.150414 0.250696,-0.288299 0.376045,-0.426184 l 6.461698,6.041783 z"
       id="path8307" />
    <path
       style="fill:#ffffff;fill-opacity:1;fill-rule:evenodd;stroke:none;stroke-width:0.165911"
       d="m 69.242358,97.370609 -6.4617,-6.041784 -6.461698,-6.041783 4.750697,-5.076599 6.461698,6.041784 6.461698,6.041785 z"
       id="path8309" />
    <path
       style="fill:#ffffff;fill-opacity:1;fill-rule:evenodd;stroke:none;stroke-width:0.165911"
       d="m 61.069657,80.210443 c 0.137882,-0.144149 0.275766,-0.282035 0.419915,-0.419913 l 6.041783,6.461697 z"
       id="path8311" />
    <path
       style="fill:#ffffff;fill-opacity:1;fill-rule:evenodd;stroke:none;stroke-width:0.165911"
       d="m 73.573137,92.713921 -6.041782,-6.461694 -6.041783,-6.461697 5.076601,-4.750701 6.041782,6.461703 6.041783,6.461698 z"
       id="path8313" />
    <path
       style="fill:#ffffff;fill-opacity:1;fill-rule:evenodd;stroke:none;stroke-width:0.165911"
       d="m 66.566173,75.039829 c 0.137884,-0.125344 0.275767,-0.250695 0.426185,-0.376044 l 5.615597,6.837747 z"
       id="path8315" />
    <path
       style="fill:#ffffff;fill-opacity:1;fill-rule:evenodd;stroke:none;stroke-width:0.165911"
       d="m 78.223553,88.339274 -5.615598,-6.837742 -5.615597,-6.837747 5.377438,-4.41852 5.615596,6.837742 5.615599,6.837741 z"
       id="path8317" />
    <path
       style="fill:#ffffff;fill-opacity:1;fill-rule:evenodd;stroke:none;stroke-width:0.165911"
       d="m 72.369796,70.245265 c 0.150416,-0.119086 0.300835,-0.238165 0.45752,-0.35098 l 5.158076,7.188722 z"
       id="path8319" />
    <path
       style="fill:#ffffff;fill-opacity:1;fill-rule:evenodd;stroke:none;stroke-width:0.165911"
       d="m 83.14347,84.271723 -5.158078,-7.188716 -5.158076,-7.188722 5.672006,-4.067545 5.158078,7.188716 5.158076,7.188723 z"
       id="path8321" />
    <path
       style="fill:#ffffff;fill-opacity:1;fill-rule:evenodd;stroke:none;stroke-width:0.165911"
       d="m 78.499322,65.82674 c 0.162952,-0.112815 0.325905,-0.21936 0.488856,-0.325905 l 4.669222,7.514621 z"
       id="path8323" />
    <path
       style="fill:#ffffff;fill-opacity:1;fill-rule:evenodd;stroke:none;stroke-width:0.165911"
       d="m 88.326619,80.530084 -4.669219,-7.514628 -4.669222,-7.514621 5.941504,-3.691506 4.66922,7.514621 4.669221,7.514627 z"
       id="path8325" />
    <path
       style="fill:#ffffff;fill-opacity:1;fill-rule:evenodd;stroke:none;stroke-width:0.165911"
       d="m 84.929682,61.809329 c 0.08148,-0.05014 0.162953,-0.100278 0.24443,-0.14415 0.08148,-0.05014 0.16922,-0.09401 0.250697,-0.14415 l 4.174093,7.802921 z"
       id="path8327" />
    <path
       style="fill:#ffffff;fill-opacity:1;fill-rule:evenodd;stroke:none;stroke-width:0.165911"
       d="m 93.772999,77.126876 -4.174097,-7.802926 -4.174093,-7.802921 6.173397,-3.302925 4.174095,7.802926 4.174095,7.802927 z"
       id="path8329" />
    <path
       style="fill:#ffffff;fill-opacity:1;fill-rule:evenodd;stroke:none;stroke-width:0.165911"
       d="m 91.598206,58.218104 c 0.17549,-0.08774 0.350974,-0.175487 0.526464,-0.256965 l 3.647631,8.059891 z"
       id="path8331" />
    <path
       style="fill:#ffffff;fill-opacity:1;fill-rule:evenodd;stroke:none;stroke-width:0.165911"
       d="m 99.419931,74.080915 -3.64763,-8.059885 -3.647631,-8.059891 6.355154,-2.876739 3.647636,8.059888 3.64763,8.059892 z"
       id="path8333" />
    <path
       style="fill:#ffffff;fill-opacity:1;fill-rule:evenodd;stroke:none;stroke-width:0.165911"
       d="m 98.479824,55.0844 c 0.175483,-0.08148 0.350973,-0.150418 0.532728,-0.219361 l 3.114908,8.279249 z"
       id="path8335" />
    <path
       style="fill:#ffffff;fill-opacity:1;fill-rule:evenodd;stroke:none;stroke-width:0.165911"
       d="m 105.24235,71.423533 -3.11489,-8.279245 -3.114908,-8.279249 6.518108,-2.450556 3.11491,8.279248 3.11489,8.279245 z"
       id="path8337" />
  </g>
</svg>
