<?xml version="1.0" encoding="UTF-8" standalone="no"?>
<svg
   xmlns:dc="http://purl.org/dc/elements/1.1/"
   xmlns:cc="http://creativecommons.org/ns#"
   xmlns:rdf="http://www.w3.org/1999/02/22-rdf-syntax-ns#"
   xmlns:svg="http://www.w3.org/2000/svg"
   xmlns="http://www.w3.org/2000/svg"
   xmlns:sodipodi="http://sodipodi.sourceforge.net/DTD/sodipodi-0.dtd"
   xmlns:inkscape="http://www.inkscape.org/namespaces/inkscape"
   width="1080"
   height="1080"
   viewBox="0 0 285.74999 285.75001"
   version="1.1"
   id="svg8"
   inkscape:version="1.0.2 (e86c870879, 2021-01-15)"
   sodipodi:docname="MapaDark.svg">
  <defs
     id="defs2">
    <pattern
       id="EMFhbasepattern"
       patternUnits="userSpaceOnUse"
       width="6"
       height="6"
       x="0"
       y="0" />
  </defs>
  <sodipodi:namedview
     id="base"
     pagecolor="#ffffff"
     bordercolor="#666666"
     borderopacity="1.0"
     inkscape:pageopacity="0.0"
     inkscape:pageshadow="2"
     inkscape:zoom="0.23760507"
     inkscape:cx="129.45128"
     inkscape:cy="183.76178"
     inkscape:document-units="mm"
     inkscape:current-layer="layer1"
     inkscape:document-rotation="0"
     showgrid="false"
     units="px"
     inkscape:pagecheckerboard="true"
     inkscape:window-width="1366"
     inkscape:window-height="705"
     inkscape:window-x="-8"
     inkscape:window-y="-8"
     inkscape:window-maximized="1" />
  <metadata
     id="metadata5">
    <rdf:RDF>
      <cc:Work
         rdf:about="">
        <dc:format>image/svg+xml</dc:format>
        <dc:type
           rdf:resource="http://purl.org/dc/dcmitype/StillImage" />
        <dc:title></dc:title>
      </cc:Work>
    </rdf:RDF>
  </metadata>
  <g
     inkscape:label="Capa 1"
     inkscape:groupmode="layer"
     id="layer1">
    <path
       style="fill:#000000;fill-opacity:1;fill-rule:evenodd;stroke:none;stroke-width:0.130531"
       d="m 142.56208,235.09629 c 0,0 -59.575481,-96.8188 -65.084613,-112.41979 -5.509133,-15.601 -8.928934,-24.815734 -8.928934,-37.785354 0,-12.969621 3.424729,-25.712567 9.934175,-36.94272 6.50945,-11.235086 15.872017,-20.563158 27.146522,-27.047966 11.2745,-6.484812 24.06672,-9.899682 37.08069,-9.899682 13.01889,0 25.81112,3.41487 37.08562,9.899682 11.2745,6.484808 20.63707,15.81288 27.14652,27.043038 6.50945,11.235081 9.93418,23.978027 9.93418,36.947648 0,12.96962 -1.45367,19.419934 -9.22952,37.785354 -7.77587,18.36541 -65.08464,112.41979 -65.08464,112.41979 z m 33.79396,-131.82002 c 3.11921,-5.385943 4.38068,-11.924954 4.38068,-18.1486 0,-7.258452 -3.24732,-14.374003 -6.88395,-20.651853 -2.8137,-4.858679 -7.65266,-8.465731 -12.51627,-11.264645 -5.79001,-3.331105 -12.72324,-5.006507 -19.40023,-5.006507 -5.81957,0 -11.85596,1.478296 -16.89697,4.380693 -6.01175,3.459222 -11.60465,8.357325 -15.01952,14.393715 -3.08965,5.459859 -5.00652,11.870753 -5.00652,18.148597 0,6.879025 1.56208,14.068493 5.00652,20.02604 3.25226,5.61755 8.14543,10.53042 13.7679,13.7679 5.61262,3.23255 12.29946,5.00652 18.7744,5.00652 6.47497,0 13.16181,-1.77397 18.77442,-5.00652 6.26307,-3.60705 11.39769,-9.3872 15.01954,-15.64534 z"
       id="path2213" />
    <path
       style="fill:#000000;fill-opacity:1;fill-rule:evenodd;stroke:none;stroke-width:0.130531"
       d="M 107.51652,198.39995 H 83.735602 L 22.405857,274.74923 H 263.34414 l -61.32975,-76.34928 h -23.78092 l -6.88395,11.26465 h 25.02761 l 43.18609,53.81998 H 45.560967 L 88.742113,209.6646 h 26.284177 z"
       id="path2215" />
  </g>
</svg>
