<?xml version="1.0" encoding="UTF-8" standalone="no"?>
<svg
   xmlns:dc="http://purl.org/dc/elements/1.1/"
   xmlns:cc="http://creativecommons.org/ns#"
   xmlns:rdf="http://www.w3.org/1999/02/22-rdf-syntax-ns#"
   xmlns:svg="http://www.w3.org/2000/svg"
   xmlns="http://www.w3.org/2000/svg"
   xmlns:sodipodi="http://sodipodi.sourceforge.net/DTD/sodipodi-0.dtd"
   xmlns:inkscape="http://www.inkscape.org/namespaces/inkscape"
   width="1080"
   height="1080"
   viewBox="0 0 285.74999 285.75001"
   version="1.1"
   id="svg8"
   inkscape:version="1.0.2 (e86c870879, 2021-01-15)"
   sodipodi:docname="Tienda.svg">
  <defs
     id="defs2">
    <pattern
       id="EMFhbasepattern"
       patternUnits="userSpaceOnUse"
       width="6"
       height="6"
       x="0"
       y="0" />
  </defs>
  <sodipodi:namedview
     id="base"
     pagecolor="#ffffff"
     bordercolor="#666666"
     borderopacity="1.0"
     inkscape:pageopacity="0.0"
     inkscape:pageshadow="2"
     inkscape:zoom="0.33602431"
     inkscape:cx="802.73275"
     inkscape:cy="367.27308"
     inkscape:document-units="mm"
     inkscape:current-layer="layer1"
     inkscape:document-rotation="0"
     showgrid="false"
     units="px"
     inkscape:pagecheckerboard="true"
     inkscape:window-width="1366"
     inkscape:window-height="705"
     inkscape:window-x="-8"
     inkscape:window-y="-8"
     inkscape:window-maximized="1" />
  <metadata
     id="metadata5">
    <rdf:RDF>
      <cc:Work
         rdf:about="">
        <dc:format>image/svg+xml</dc:format>
        <dc:type
           rdf:resource="http://purl.org/dc/dcmitype/StillImage" />
        <dc:title></dc:title>
      </cc:Work>
    </rdf:RDF>
  </metadata>
  <g
     inkscape:label="Capa 1"
     inkscape:groupmode="layer"
     id="layer1">
    <path
       style="fill:#ffffff;fill-opacity:1;fill-rule:evenodd;stroke:none;stroke-width:0.125236"
       d="m 13.139752,102.20456 c -1.126116,0 -2.238039,-0.29809 -3.2127437,-0.86589 C 8.9475703,100.77562 8.13847,99.96651 7.5754115,98.987078 7.0076218,98.012371 6.7142637,96.900449 6.7142637,95.774329 c 0,-1.126114 0.2933581,-2.238034 0.8611478,-3.212743 0.00475,-0.01419 0.014195,-0.0284 0.023656,-0.0426 l 5.5406815,3.255324 z"
       id="path3638" />
    <path
       style="fill:#ffffff;fill-opacity:1;fill-rule:evenodd;stroke:none;stroke-width:0.125236"
       d="M 13.139752,102.20456 V 95.774329 89.348843 H 272.79478 v 6.425486 6.430231 z"
       id="path3640" />
    <path
       style="fill:#ffffff;fill-opacity:1;fill-rule:evenodd;stroke:none;stroke-width:0.125236"
       d="m 278.32126,92.490614 c 0.0142,0.02367 0.0284,0.04733 0.0378,0.07098 0.56778,0.974709 0.86587,2.086628 0.86587,3.212742 0,1.12612 -0.29809,2.238038 -0.86587,3.212745 -0.56306,0.979432 -1.37216,1.788539 -2.3516,2.351589 -0.9747,0.5678 -2.08663,0.8659 -3.21274,0.8659 v -6.430234 z"
       id="path3642" />
    <path
       style="fill:#ffffff;fill-opacity:1;fill-rule:evenodd;stroke:none;stroke-width:0.125236"
       d="m 278.32126,92.490614 -5.52648,3.283715 -5.5265,3.283716 -40.52126,-68.186824 5.52648,-3.283718 5.5265,-3.283717 z"
       id="path3644" />
    <path
       style="fill:#ffffff;fill-opacity:1;fill-rule:evenodd;stroke:none;stroke-width:0.125236"
       d="m 232.2735,21.157282 c 1.12612,0 2.23804,0.298092 3.21274,0.865879 0.95579,0.548864 1.7507,1.334306 2.31376,2.280625 l -5.5265,3.283717 z"
       id="path3646" />
    <path
       style="fill:#ffffff;fill-opacity:1;fill-rule:evenodd;stroke:none;stroke-width:0.125236"
       d="m 232.2735,21.157282 v 6.430221 6.43022 H 53.202058 v -6.43022 -6.430221 z"
       id="path3648" />
    <path
       style="fill:#ffffff;fill-opacity:1;fill-rule:evenodd;stroke:none;stroke-width:0.125236"
       d="m 47.66137,24.332177 c 0.563061,-0.960514 1.362698,-1.755418 2.327944,-2.309016 0.974707,-0.567787 2.086623,-0.865879 3.212744,-0.865879 v 6.430221 z"
       id="path3650" />
    <path
       style="fill:#ffffff;fill-opacity:1;fill-rule:evenodd;stroke:none;stroke-width:0.125236"
       d="m 47.66137,24.332177 5.540688,3.255326 5.540678,3.255328 -40.062302,68.186824 -5.540682,-3.255326 -5.5406829,-3.255324 z"
       id="path3652" />
    <path
       style="fill:#ffffff;fill-opacity:1;fill-rule:evenodd;stroke:none;stroke-width:0.125236"
       d="m 13.144484,95.774329 6.378172,0.809104 c -0.227116,1.774343 -0.335943,3.477717 -0.335943,5.105377 h -6.43022 -6.4254878 c 0,-2.143407 0.1419478,-4.381443 0.4353059,-6.72358 z"
       id="path3654" />
    <path
       style="fill:#ffffff;fill-opacity:1;fill-rule:evenodd;stroke:none;stroke-width:0.125236"
       d="m 12.756493,101.68881 h 6.43022 c 0,2.19072 0.198727,4.23949 0.581985,6.15106 l -6.302467,1.26333 -6.3024679,1.26806 c -0.5393999,-2.697 -0.8327579,-5.588 -0.8327579,-8.68245 z"
       id="path3656" />
    <path
       style="fill:#ffffff;fill-opacity:1;fill-rule:evenodd;stroke:none;stroke-width:0.125236"
       d="m 13.466231,109.1032 6.302467,-1.26333 c 0.369063,1.82165 0.899001,3.51082 1.58508,5.06752 l -5.881356,2.58818 -5.8860881,2.5929 C 8.5453862,115.71795 7.7220905,113.1487 7.1637631,110.37126 Z"
       id="path3658" />
    <path
       style="fill:#ffffff;fill-opacity:1;fill-rule:evenodd;stroke:none;stroke-width:0.125236"
       d="m 15.472422,115.49557 5.881356,-2.58818 c 0.667152,1.50938 1.471522,2.891 2.398911,4.14013 l -5.162155,3.82785 -5.166887,3.82785 c -1.480985,-1.99672 -2.772708,-4.20164 -3.8373131,-6.61475 z"
       id="path3660" />
    <path
       style="fill:#ffffff;fill-opacity:1;fill-rule:evenodd;stroke:none;stroke-width:0.125236"
       d="m 18.590534,120.87537 5.162155,-3.82785 c 0.927391,1.24914 1.968339,2.3658 3.108651,3.35942 l -4.220572,4.84515 -4.220571,4.84987 c -1.831123,-1.59454 -3.510833,-3.39254 -4.99655,-5.39874 z"
       id="path3662" />
    <path
       style="fill:#ffffff;fill-opacity:1;fill-rule:evenodd;stroke:none;stroke-width:0.125236"
       d="m 22.640768,125.25209 4.220572,-4.84515 c 2.346864,2.03932 5.091182,3.54869 8.034225,4.55651 l -2.081895,6.0801 -2.086629,6.08008 c -4.513929,-1.54723 -8.710842,-3.88937 -12.306844,-7.02167 z"
       id="path3664" />
    <path
       style="fill:#ffffff;fill-opacity:1;fill-rule:evenodd;stroke:none;stroke-width:0.125236"
       d="m 32.81367,131.04355 2.081895,-6.0801 c 3.066066,1.05042 6.345052,1.56616 9.638234,1.56616 v 6.42549 6.43022 c -4.717389,0 -9.411118,-0.75231 -13.806758,-2.26169 z"
       id="path3666" />
    <path
       style="fill:#ffffff;fill-opacity:1;fill-rule:evenodd;stroke:none;stroke-width:0.125236"
       d="m 44.533799,132.9551 v -6.42549 c 3.430399,0 6.87972,-0.55832 10.116119,-1.66551 l 2.077162,6.08481 2.081898,6.08009 c -4.570707,1.56142 -9.434771,2.35632 -14.275179,2.35632 z"
       id="path3668" />
    <path
       style="fill:#ffffff;fill-opacity:1;fill-rule:evenodd;stroke:none;stroke-width:0.125236"
       d="m 56.72708,130.94891 -2.077162,-6.08481 c 3.151237,-1.07408 6.103748,-2.67335 8.635133,-4.80256 l 4.135404,4.92085 4.140139,4.92084 c -3.742678,3.1465 -8.095738,5.53595 -12.751616,7.12577 z"
       id="path3670" />
    <path
       style="fill:#ffffff;fill-opacity:1;fill-rule:evenodd;stroke:none;stroke-width:0.125236"
       d="m 67.420455,124.98239 -4.135404,-4.92085 c 1.230223,-1.02675 2.356335,-2.18599 3.349962,-3.46352 l 5.07226,3.95087 5.067525,3.95088 c -1.551963,1.99672 -3.307376,3.79946 -5.214204,5.40346 z"
       id="path3672" />
    <path
       style="fill:#ffffff;fill-opacity:1;fill-rule:evenodd;stroke:none;stroke-width:0.125236"
       d="m 71.707273,120.54889 -5.07226,-3.95087 c 0.988903,-1.26806 1.850047,-2.65915 2.559796,-4.16853 l 5.81984,2.73013 5.81985,2.73486 c -1.12612,2.39418 -2.493553,4.5991 -4.059701,6.60529 z"
       id="path3674" />
    <path
       style="fill:#ffffff;fill-opacity:1;fill-rule:evenodd;stroke:none;stroke-width:0.125236"
       d="m 75.014649,115.15962 -5.81984,-2.73013 c 0.71919,-1.53302 1.28225,-3.18907 1.670241,-4.96342 l 6.283543,1.36742 6.278808,1.3627 c -0.596176,2.75851 -1.480986,5.32303 -2.592902,7.69829 z"
       id="path3676" />
    <path
       style="fill:#ffffff;fill-opacity:1;fill-rule:evenodd;stroke:none;stroke-width:0.125236"
       d="m 77.148593,108.83349 -6.283543,-1.36742 c 0.397451,-1.83586 0.610372,-3.80419 0.610372,-5.89081 h 6.425497 6.430212 c 0,3.0566 -0.317014,5.92866 -0.90373,8.62093 z"
       id="path3678" />
    <path
       style="fill:#ffffff;fill-opacity:1;fill-rule:evenodd;stroke:none;stroke-width:0.125236"
       d="m 77.900919,101.57526 h -6.425497 c 0,-0.0568 0,-0.11357 0,-0.17035 l 6.425497,-0.0331 6.425487,-0.0331 c 0.0048,0.0757 0.0048,0.15613 0.0048,0.23657 z"
       id="path3680" />
    <path
       style="fill:#ffffff;fill-opacity:1;fill-rule:evenodd;stroke:none;stroke-width:0.125236"
       d="m 78.752602,101.20619 6.425487,0.0331 c 0,0.0663 0,0.13721 0,0.20346 H 78.752602 72.32238 c 0,-0.09 0,-0.1798 0.0048,-0.26971 z"
       id="path3682" />
    <path
       style="fill:#ffffff;fill-opacity:1;fill-rule:evenodd;stroke:none;stroke-width:0.125236"
       d="m 78.752602,101.44276 h 6.425487 c 0,4.5234 0.794902,8.47427 2.242772,11.84789 l -5.905022,2.53613 -5.905013,2.53139 C 73.538398,113.54142 72.32238,107.90611 72.32238,101.44276 Z"
       id="path3684" />
    <path
       style="fill:#ffffff;fill-opacity:1;fill-rule:evenodd;stroke:none;stroke-width:0.125236"
       d="m 81.515839,115.82678 5.905022,-2.53613 c 1.372158,3.19381 3.331032,5.85296 5.682632,7.97271 l -4.301014,4.7789 -4.301013,4.77417 c -3.676436,-3.31211 -6.747236,-7.45697 -8.89064,-12.45826 z"
       id="path3686" />
    <path
       style="fill:#ffffff;fill-opacity:1;fill-rule:evenodd;stroke:none;stroke-width:0.125236"
       d="m 88.802479,126.04226 4.301014,-4.7789 c 2.389441,2.15288 5.185813,3.75215 8.176167,4.82149 l -2.167062,6.05169 -2.167069,6.05169 c -4.556511,-1.6324 -8.800743,-4.09281 -12.444063,-7.3718 z"
       id="path3688" />
    <path
       style="fill:#ffffff;fill-opacity:1;fill-rule:evenodd;stroke:none;stroke-width:0.125236"
       d="m 99.112598,132.13654 2.167062,-6.05169 c 3.08026,1.10246 6.36871,1.64659 9.65242,1.64659 v 6.42548 6.43023 c -4.75997,0 -9.52466,-0.80438 -13.986551,-2.39892 z"
       id="path3690" />
    <path
       style="fill:#ffffff;fill-opacity:1;fill-rule:evenodd;stroke:none;stroke-width:0.125236"
       d="m 110.93208,134.15692 v -6.42548 c 3.31212,0 6.62422,-0.55359 9.72814,-1.65132 l 2.14814,6.05642 2.14814,6.06115 c -4.47608,1.58508 -9.25025,2.38946 -14.02442,2.38946 z"
       id="path3692" />
    <path
       style="fill:#ffffff;fill-opacity:1;fill-rule:evenodd;stroke:none;stroke-width:0.125236"
       d="m 122.80836,132.13654 -2.14814,-6.05642 c 3.01875,-1.07408 5.8435,-2.66388 8.26134,-4.7931 l 4.24896,4.82149 4.24896,4.82147 c -3.65278,3.21748 -7.90647,5.64951 -12.46298,7.26771 z"
       id="path3694" />
    <path
       style="fill:#ffffff;fill-opacity:1;fill-rule:evenodd;stroke:none;stroke-width:0.125236"
       d="m 133.17052,126.10851 -4.24896,-4.82149 c 2.36106,-2.0819 4.32466,-4.6748 5.70629,-7.77872 l 5.87189,2.61184 5.87664,2.60709 c -2.16234,4.8688 -5.25208,8.93796 -8.9569,12.20275 z"
       id="path3696" />
    <path
       style="fill:#ffffff;fill-opacity:1;fill-rule:evenodd;stroke:none;stroke-width:0.125236"
       d="m 140.49974,116.12014 -5.87189,-2.61184 c 0.70028,-1.58508 1.25388,-3.29791 1.63239,-5.14323 l 6.29301,1.28699 6.29773,1.287 c -0.56779,2.79162 -1.41001,5.38926 -2.4746,7.78817 z"
       id="path3698" />
    <path
       style="fill:#ffffff;fill-opacity:1;fill-rule:evenodd;stroke:none;stroke-width:0.125236"
       d="m 142.55325,109.65206 -6.29301,-1.28699 c 0.388,-1.91629 0.59618,-3.9698 0.59618,-6.15105 h 6.4255 6.43021 c 0,3.09918 -0.30281,6.0091 -0.86115,8.72504 z"
       id="path3700" />
    <path
       style="fill:#ffffff;fill-opacity:1;fill-rule:evenodd;stroke:none;stroke-width:0.125236"
       d="m 143.28192,102.21402 h -6.4255 c 0,-0.0615 0,-0.12302 0,-0.18454 l 6.4255,-0.0331 6.42548,-0.0331 c 0.005,0.0852 0.005,0.1656 0.005,0.25077 z"
       id="path3702" />
    <path
       style="fill:#ffffff;fill-opacity:1;fill-rule:evenodd;stroke:none;stroke-width:0.125236"
       d="m 143.95853,101.20145 6.42549,0.01 c 0,0.0142 0,0.0284 0,0.0426 h -6.42549 -6.43022 c 0,-0.0189 0,-0.0379 0.005,-0.0615 z"
       id="path3704" />
    <path
       style="fill:#ffffff;fill-opacity:1;fill-rule:evenodd;stroke:none;stroke-width:0.125236"
       d="m 143.95853,101.25351 h 6.42549 c 0,4.6464 0.80437,8.71083 2.26643,12.18854 l -5.92868,2.48882 -5.92394,2.48881 c -2.05823,-4.89718 -3.26952,-10.61294 -3.26952,-17.16617 z"
       id="path3706" />
    <path
       style="fill:#ffffff;fill-opacity:1;fill-rule:evenodd;stroke:none;stroke-width:0.125236"
       d="m 146.72177,115.93087 5.92868,-2.48882 c 1.38163,3.28846 3.34995,6.02804 5.72047,8.21876 l -4.36251,4.72212 -4.35778,4.72212 c -3.66225,-3.37835 -6.71885,-7.60365 -8.8528,-12.68537 z"
       id="path3708" />
    <path
       style="fill:#ffffff;fill-opacity:1;fill-rule:evenodd;stroke:none;stroke-width:0.125236"
       d="m 154.00841,126.38293 4.36251,-4.72212 c 2.38473,2.20019 5.17636,3.84205 8.16198,4.9445 l -2.21911,6.03278 -2.22384,6.02803 c -4.55178,-1.67497 -8.79601,-4.19691 -12.43932,-7.56107 z"
       id="path3710" />
    <path
       style="fill:#ffffff;fill-opacity:1;fill-rule:evenodd;stroke:none;stroke-width:0.125236"
       d="m 164.31379,132.63809 2.21911,-6.03278 c 3.06135,1.12613 6.32613,1.68445 9.59092,1.68445 v 6.42549 6.43022 c -4.77889,0 -9.55306,-0.82803 -14.03387,-2.47935 z"
       id="path3712" />
    <path
       style="fill:#ffffff;fill-opacity:1;fill-rule:evenodd;stroke:none;stroke-width:0.125236"
       d="m 176.12382,134.71525 v -6.42549 c 3.27426,0 6.54378,-0.56306 9.60985,-1.68445 l 2.20965,6.03751 2.20964,6.03276 c -4.47607,1.64186 -9.25025,2.46989 -14.02914,2.46989 z"
       id="path3714" />
    <path
       style="fill:#ffffff;fill-opacity:1;fill-rule:evenodd;stroke:none;stroke-width:0.125236"
       d="m 187.94332,132.64282 -2.20965,-6.03751 c 2.99509,-1.09772 5.79618,-2.73012 8.19036,-4.91611 l 4.33413,4.74578 4.33413,4.75051 c -3.64331,3.32157 -7.88755,5.82458 -12.43933,7.49009 z"
       id="path3716" />
    <path
       style="fill:#ffffff;fill-opacity:1;fill-rule:evenodd;stroke:none;stroke-width:0.125236"
       d="m 198.25816,126.43498 -4.33413,-4.74578 c 2.3658,-2.16233 4.33413,-4.86406 5.71575,-8.09573 l 5.90975,2.52667 5.91449,2.52666 c -2.14341,5.01075 -5.20475,9.18873 -8.87173,12.53869 z"
       id="path3718" />
    <path
       style="fill:#ffffff;fill-opacity:1;fill-rule:evenodd;stroke:none;stroke-width:0.125236"
       d="m 205.54953,116.12014 -5.90975,-2.52667 c 1.4526,-3.39254 2.25224,-7.35761 2.25224,-11.87154 h 6.42549 6.43021 c 0,6.44442 -1.21602,12.07973 -3.2837,16.92487 z"
       id="path3720" />
    <path
       style="fill:#ffffff;fill-opacity:1;fill-rule:evenodd;stroke:none;stroke-width:0.125236"
       d="m 208.31751,101.72193 h -6.42549 c 0,-0.0994 0,-0.19873 0,-0.29809 l 6.42549,-0.052 6.42549,-0.052 c 0.005,0.13721 0.005,0.2697 0.005,0.40217 z"
       id="path3722" />
    <path
       style="fill:#ffffff;fill-opacity:1;fill-rule:evenodd;stroke:none;stroke-width:0.125236"
       d="m 208.6771,101.20619 6.4255,0.0615 c 0,0.0994 0,0.20345 0,0.30282 h -6.4255 -6.4302 c 0,-0.14194 0,-0.2839 0.005,-0.42584 z"
       id="path3724" />
    <path
       style="fill:#ffffff;fill-opacity:1;fill-rule:evenodd;stroke:none;stroke-width:0.125236"
       d="m 208.6771,101.57052 h 6.4255 c 0,2.08662 0.20346,4.04077 0.58671,5.87189 l -6.28827,1.32012 -6.29301,1.32483 c -0.55831,-2.65441 -0.86113,-5.49336 -0.86113,-8.51684 z"
       id="path3726" />
    <path
       style="fill:#ffffff;fill-opacity:1;fill-rule:evenodd;stroke:none;stroke-width:0.125236"
       d="m 209.40104,108.76253 6.28827,-1.32012 c 0.36906,1.75542 0.90847,3.39255 1.59928,4.90666 l -5.84351,2.66861 -5.84823,2.67334 c -1.06934,-2.34214 -1.91629,-4.87826 -2.48882,-7.60366 z"
       id="path3728" />
    <path
       style="fill:#ffffff;fill-opacity:1;fill-rule:evenodd;stroke:none;stroke-width:0.125236"
       d="m 211.44508,115.01768 5.84351,-2.66861 c 1.36269,2.97615 3.30737,5.46024 5.63531,7.45696 l -4.18271,4.883 -4.18272,4.87826 c -3.70957,-3.17489 -6.79455,-7.13996 -8.96162,-11.87627 z"
       id="path3730" />
    <path
       style="fill:#ffffff;fill-opacity:1;fill-rule:evenodd;stroke:none;stroke-width:0.125236"
       d="m 218.74119,124.68903 4.18271,-4.883 c 2.40838,2.06297 5.22367,3.60547 8.23294,4.64169 l -2.09607,6.08008 -2.0961,6.07535 c -4.54232,-1.56615 -8.77235,-3.92248 -12.4062,-7.03586 z"
       id="path3732" />
    <path
       style="fill:#ffffff;fill-opacity:1;fill-rule:evenodd;stroke:none;stroke-width:0.125236"
       d="m 229.06077,130.5278 2.09607,-6.08008 c 3.10393,1.07407 6.41604,1.60874 9.72342,1.60874 v 6.42549 6.43022 c -4.73633,0 -9.47264,-0.77598 -13.91559,-2.30902 z"
       id="path3734" />
    <path
       style="fill:#ffffff;fill-opacity:1;fill-rule:evenodd;stroke:none;stroke-width:0.125236"
       d="m 240.88026,132.48195 v -6.42549 c 3.29317,0 6.59108,-0.52994 9.67608,-1.60874 l 2.11975,6.07062 2.11976,6.06588 c -4.44297,1.55197 -9.17455,2.32795 -13.91559,2.32795 z"
       id="path3736" />
    <path
       style="fill:#ffffff;fill-opacity:1;fill-rule:evenodd;stroke:none;stroke-width:0.125236"
       d="m 252.67609,130.51834 -2.11975,-6.07062 c 2.98562,-1.04094 5.77725,-2.59764 8.16198,-4.69373 l 4.24423,4.83094 4.2395,4.82622 c -3.63386,3.19381 -7.8639,5.588 -12.4062,7.17307 z"
       id="path3738" />
    <path
       style="fill:#ffffff;fill-opacity:1;fill-rule:evenodd;stroke:none;stroke-width:0.125236"
       d="m 262.96255,124.58493 -4.24423,-4.83094 c 1.16397,-1.02202 2.2333,-2.1718 3.17489,-3.45406 l 5.17635,3.81366 5.17162,3.81365 c -1.49991,2.03459 -3.1891,3.86098 -5.03913,5.48391 z"
       id="path3740" />
    <path
       style="fill:#ffffff;fill-opacity:1;fill-rule:evenodd;stroke:none;stroke-width:0.125236"
       d="m 267.06956,120.11359 -5.17635,-3.81366 c 0.95105,-1.28698 1.77434,-2.70646 2.45569,-4.25369 l 5.88609,2.58345 5.88609,2.58818 c -1.07881,2.44622 -2.38473,4.67952 -3.8799,6.70937 z"
       id="path3742" />
    <path
       style="fill:#ffffff;fill-opacity:1;fill-rule:evenodd;stroke:none;stroke-width:0.125236"
       d="m 270.23499,114.62969 -5.88609,-2.58345 c 0.70027,-1.59454 1.24914,-3.32156 1.62293,-5.18108 l 6.30247,1.26807 6.29774,1.26805 c -0.56305,2.81057 -1.39582,5.41766 -2.45096,7.81659 z"
       id="path3744" />
    <path
       style="fill:#ffffff;fill-opacity:1;fill-rule:evenodd;stroke:none;stroke-width:0.125236"
       d="m 272.2743,108.13323 -6.30247,-1.26807 c 0.38798,-1.94468 0.59145,-4.02658 0.59145,-6.25515 h 6.43023 6.42548 c 0,3.1323 -0.2981,6.06115 -0.84695,8.79127 z"
       id="path3746" />
    <path
       style="fill:#ffffff;fill-opacity:1;fill-rule:evenodd;stroke:none;stroke-width:0.125236"
       d="m 272.99351,100.61001 h -6.43023 c 0,-1.1687 -0.0521,-2.379992 -0.17033,-3.624395 l 6.40183,-0.59145 6.40182,-0.591446 c 0.15141,1.656052 0.22239,3.255326 0.22239,4.807291 z"
       id="path3748" />
    <path
       style="fill:#ffffff;fill-opacity:1;fill-rule:evenodd;stroke:none;stroke-width:0.125236"
       d="m 29.132499,134.34619 h 6.425488 6.43022 V 258.1575 h -6.43022 -6.425488 z"
       id="path3750" />
    <path
       style="fill:#ffffff;fill-opacity:1;fill-rule:evenodd;stroke:none;stroke-width:0.125236"
       d="m 35.557987,264.58772 c -1.126117,0 -2.238038,-0.29809 -3.212744,-0.86589 -0.979437,-0.56306 -1.788538,-1.37215 -2.351596,-2.3516 -0.567791,-0.97471 -0.861148,-2.08663 -0.861148,-3.21273 h 6.425488 z"
       id="path3752" />
    <path
       style="fill:#ffffff;fill-opacity:1;fill-rule:evenodd;stroke:none;stroke-width:0.125236"
       d="M 35.557987,264.58772 V 258.1575 251.732 H 253.49465 v 6.4255 6.43022 z"
       id="path3754" />
    <path
       style="fill:#ffffff;fill-opacity:1;fill-rule:evenodd;stroke:none;stroke-width:0.125236"
       d="m 259.92488,258.1575 c 0,1.1261 -0.2981,2.23802 -0.86589,3.21273 -0.56305,0.97945 -1.37215,1.78854 -2.35159,2.3516 -0.97472,0.5678 -2.08663,0.86589 -3.21275,0.86589 v -6.43022 z"
       id="path3756" />
    <path
       style="fill:#ffffff;fill-opacity:1;fill-rule:evenodd;stroke:none;stroke-width:0.125236"
       d="m 259.92488,258.1575 h -6.43023 -6.42549 V 132.48195 h 6.42549 6.43023 z"
       id="path3758" />
    <path
       style="fill:#ffffff;fill-opacity:1;fill-rule:evenodd;stroke:none;stroke-width:0.125236"
       d="m 81.217755,160.46925 v 6.43023 c -0.217656,0 -0.430577,0.0284 -0.638763,0.0804 l -1.67025,-6.20783 -1.665516,-6.2031 c 1.286985,-0.35014 2.626027,-0.52521 3.974529,-0.52521 z"
       id="path3760" />
    <path
       style="fill:#ffffff;fill-opacity:1;fill-rule:evenodd;stroke:none;stroke-width:0.125236"
       d="m 78.908742,160.77207 1.67025,6.20783 c -0.208195,0.0568 -0.411655,0.14196 -0.600911,0.25078 l -3.217479,-5.56435 -3.217469,-5.56433 c 1.168698,-0.67662 2.408372,-1.18762 3.700093,-1.53303 z"
       id="path3762" />
    <path
       style="fill:#ffffff;fill-opacity:1;fill-rule:evenodd;stroke:none;stroke-width:0.125236"
       d="m 76.760602,161.66633 3.217479,5.56435 c -0.194,0.11356 -0.364335,0.24604 -0.520474,0.39747 l -4.542316,-4.54234 -4.54706,-4.54704 c 0.946326,-0.94633 2.01093,-1.76488 3.174902,-2.43677 z"
       id="path3764" />
    <path
       style="fill:#ffffff;fill-opacity:1;fill-rule:evenodd;stroke:none;stroke-width:0.125236"
       d="m 74.915291,163.08581 4.542316,4.54234 c -0.151414,0.15612 -0.283898,0.32647 -0.397451,0.52046 l -5.564344,-3.21748 -5.564343,-3.21747 c 0.671888,-1.16397 1.490456,-2.22858 2.436762,-3.17489 z"
       id="path3766" />
    <path
       style="fill:#ffffff;fill-opacity:1;fill-rule:evenodd;stroke:none;stroke-width:0.125236"
       d="m 73.495812,164.93113 5.564344,3.21748 c -0.108828,0.18926 -0.194001,0.39272 -0.250782,0.60091 l -6.207831,-1.67025 -6.203106,-1.66552 c 0.345404,-1.29172 0.856418,-2.53139 1.533032,-3.70009 z"
       id="path3768" />
    <path
       style="fill:#ffffff;fill-opacity:1;fill-rule:evenodd;stroke:none;stroke-width:0.125236"
       d="m 72.601543,167.07927 6.207831,1.67025 c -0.05201,0.20819 -0.08044,0.42111 -0.08044,0.63876 h -6.430232 -6.425478 c 0,-1.34851 0.175061,-2.68753 0.5252,-3.97453 z"
       id="path3770" />
    <path
       style="fill:#ffffff;fill-opacity:1;fill-rule:evenodd;stroke:none;stroke-width:0.125236"
       d="m 65.873237,169.38828 h 6.425478 6.430231 v 79.85018 h -6.430231 -6.425478 z"
       id="path3772" />
    <path
       style="fill:#ffffff;fill-opacity:1;fill-rule:evenodd;stroke:none;stroke-width:0.125236"
       d="m 65.873237,249.23846 h 6.425478 6.430231 v 0.005 h -6.430231 -6.425478 z"
       id="path3774" />
    <path
       style="fill:#ffffff;fill-opacity:1;fill-rule:evenodd;stroke:none;stroke-width:0.125236"
       d="m 72.298715,249.24319 h 6.430231 c 0,0.21765 0.02843,0.4353 0.08044,0.64351 l -6.207832,1.66549 -6.207831,1.66553 c -0.345414,-1.29172 -0.520475,-2.62603 -0.520475,-3.97453 z"
       id="path3776" />
    <path
       style="fill:#ffffff;fill-opacity:1;fill-rule:evenodd;stroke:none;stroke-width:0.125236"
       d="m 72.601543,251.55219 6.207831,-1.66549 c 0.05676,0.20817 0.141954,0.41163 0.250782,0.6009 l -5.564344,3.21747 -5.564343,3.21748 c -0.676614,-1.1687 -1.187628,-2.41311 -1.537758,-3.70483 z"
       id="path3778" />
    <path
       style="fill:#ffffff;fill-opacity:1;fill-rule:evenodd;stroke:none;stroke-width:0.125236"
       d="m 73.495812,253.70507 5.564344,-3.21747 c 0.108818,0.18926 0.241311,0.35959 0.392716,0.511 l -4.537581,4.5518 -4.542325,4.55178 c -0.946316,-0.94633 -1.769609,-2.01566 -2.441497,-3.17963 z"
       id="path3780" />
    <path
       style="fill:#ffffff;fill-opacity:1;fill-rule:evenodd;stroke:none;stroke-width:0.125236"
       d="m 74.915291,255.5504 4.537581,-4.5518 c 0.156139,0.15614 0.331209,0.28864 0.525209,0.40219 l -3.217479,5.56434 -3.217469,5.56434 c -1.163972,-0.67188 -2.228576,-1.49044 -3.170167,-2.42729 z"
       id="path3782" />
    <path
       style="fill:#ffffff;fill-opacity:1;fill-rule:evenodd;stroke:none;stroke-width:0.125236"
       d="m 76.760602,256.96513 3.217479,-5.56434 c 0.189256,0.10883 0.392716,0.194 0.600911,0.25077 l -1.67025,6.20784 -1.665516,6.20312 c -1.291721,-0.34542 -2.531395,-0.85642 -3.700093,-1.53305 z"
       id="path3784" />
    <path
       style="fill:#ffffff;fill-opacity:1;fill-rule:evenodd;stroke:none;stroke-width:0.125236"
       d="m 78.908742,257.8594 1.67025,-6.20784 c 0.208186,0.052 0.421107,0.0852 0.638763,0.0852 v 6.42549 6.43021 c -1.348502,0 -2.687544,-0.17978 -3.974529,-0.52991 z"
       id="path3786" />
    <path
       style="fill:#ffffff;fill-opacity:1;fill-rule:evenodd;stroke:none;stroke-width:0.125236"
       d="m 81.217755,264.58772 c 0,0 0,0.005 0,0.005 v -6.43021 z"
       id="path3788" />
    <path
       style="fill:#ffffff;fill-opacity:1;fill-rule:evenodd;stroke:none;stroke-width:0.125236"
       d="m 81.217755,264.58772 v -6.4255 -6.42549 l 35.676125,-0.005 v 6.4255 6.42548 z"
       id="path3790" />
    <path
       style="fill:#ffffff;fill-opacity:1;fill-rule:evenodd;stroke:none;stroke-width:0.125236"
       d="m 116.89388,251.732 c 0,0 0,0 0,0 1.12612,0 2.23804,0.29337 3.21274,0.86115 0.97944,0.56306 1.78854,1.37217 2.3516,2.3516 0.56779,0.9747 0.86588,2.08663 0.86588,3.21275 v 0 h -6.43022 z"
       id="path3792" />
    <path
       style="fill:#ffffff;fill-opacity:1;fill-rule:evenodd;stroke:none;stroke-width:0.125236"
       d="m 110.46839,258.1575 h 6.42549 6.43022 v 0.005 h -6.43022 -6.42549 z"
       id="path3794" />
    <path
       style="fill:#ffffff;fill-opacity:1;fill-rule:evenodd;stroke:none;stroke-width:0.125236"
       d="m 116.89388,264.59243 c -1.12611,0 -2.23804,-0.29808 -3.21274,-0.86586 -0.97944,-0.56307 -1.78854,-1.37217 -2.3516,-2.3516 -0.56779,-0.9747 -0.86115,-2.08663 -0.86115,-3.21275 h 6.42549 z"
       id="path3796" />
    <path
       style="fill:#ffffff;fill-opacity:1;fill-rule:evenodd;stroke:none;stroke-width:0.125236"
       d="m 116.89388,258.16222 v -6.42549 c 0.21765,0 0.43531,-0.0332 0.6435,-0.0852 l 1.66551,6.20784 1.66552,6.20784 c -1.29172,0.34541 -2.62603,0.5252 -3.97453,0.5252 z"
       id="path3798" />
    <path
       style="fill:#ffffff;fill-opacity:1;fill-rule:evenodd;stroke:none;stroke-width:0.125236"
       d="m 119.20289,257.8594 -1.66551,-6.20784 c 0.20818,-0.0568 0.41164,-0.14194 0.60091,-0.25077 l 3.21747,5.56434 3.21748,5.56434 c -1.1687,0.67663 -2.41311,1.18763 -3.70483,1.53776 z"
       id="path3800" />
    <path
       style="fill:#ffffff;fill-opacity:1;fill-rule:evenodd;stroke:none;stroke-width:0.125236"
       d="m 121.35576,256.96513 -3.21747,-5.56434 c 0.18925,-0.10882 0.36433,-0.24131 0.51574,-0.39745 l 4.54705,4.54706 4.54232,4.54231 c -0.94159,0.94632 -2.00619,1.76488 -3.17016,2.43676 z"
       id="path3802" />
    <path
       style="fill:#ffffff;fill-opacity:1;fill-rule:evenodd;stroke:none;stroke-width:0.125236"
       d="m 123.20108,255.5504 -4.54705,-4.54706 c 0.15615,-0.15141 0.28862,-0.32648 0.39745,-0.51574 l 5.56434,3.21747 5.56435,3.21748 c -0.67189,1.16397 -1.49046,2.22858 -2.43677,3.17016 z"
       id="path3804" />
    <path
       style="fill:#ffffff;fill-opacity:1;fill-rule:evenodd;stroke:none;stroke-width:0.125236"
       d="m 124.61582,253.70507 -5.56434,-3.21747 c 0.10883,-0.18927 0.194,-0.39273 0.25078,-0.6009 l 6.20783,1.66549 6.20783,1.66553 c -0.35013,1.29172 -0.86114,2.53613 -1.53775,3.70483 z"
       id="path3806" />
    <path
       style="fill:#ffffff;fill-opacity:1;fill-rule:evenodd;stroke:none;stroke-width:0.125236"
       d="m 125.51009,251.55219 -6.20783,-1.66549 c 0.052,-0.20821 0.0852,-0.42586 0.0852,-0.64351 h 6.42549 6.43022 c 0,1.3485 -0.1798,2.68281 -0.52521,3.97453 z"
       id="path3808" />
    <path
       style="fill:#ffffff;fill-opacity:1;fill-rule:evenodd;stroke:none;stroke-width:0.125236"
       d="m 132.24313,249.24319 h -6.43022 -6.42549 v -79.85964 h 6.42549 6.43022 z"
       id="path3810" />
    <path
       style="fill:#ffffff;fill-opacity:1;fill-rule:evenodd;stroke:none;stroke-width:0.125236"
       d="m 119.38742,169.38355 c 0,-1.12611 0.29336,-2.23804 0.86115,-3.21273 0.56306,-0.97946 1.37215,-1.78854 2.3516,-2.35161 0.9747,-0.56778 2.08663,-0.86115 3.21274,-0.86115 1.12612,0 2.23805,0.29337 3.21274,0.86115 0.97945,0.56307 1.78854,1.37215 2.3516,2.35161 0.56779,0.97469 0.86588,2.08662 0.86588,3.21273 v 0 h -6.43022 z"
       id="path3812" />
    <path
       style="fill:#ffffff;fill-opacity:1;fill-rule:evenodd;stroke:none;stroke-width:0.125236"
       d="m 119.38742,169.38355 h 6.42549 6.43022 v 0.005 h -6.43022 -6.42549 z"
       id="path3814" />
    <path
       style="fill:#ffffff;fill-opacity:1;fill-rule:evenodd;stroke:none;stroke-width:0.125236"
       d="m 132.24313,169.38828 c 0,1.12613 -0.29809,2.23804 -0.86588,3.21275 -0.56306,0.97943 -1.37215,1.78853 -2.3516,2.3516 -0.97469,0.56778 -2.08662,0.86587 -3.21274,0.86587 -1.12611,0 -2.23804,-0.29809 -3.21274,-0.86587 -0.97945,-0.56307 -1.78854,-1.37217 -2.3516,-2.3516 -0.56779,-0.97471 -0.86115,-2.08662 -0.86115,-3.21275 h 6.42549 z"
       id="path3816" />
    <path
       style="fill:#ffffff;fill-opacity:1;fill-rule:evenodd;stroke:none;stroke-width:0.125236"
       d="m 125.81291,169.38828 h -6.42549 c 0,-0.21765 -0.0331,-0.43057 -0.0852,-0.63876 l 6.20783,-1.67025 6.20311,-1.66552 c 0.35013,1.287 0.52993,2.62602 0.52993,3.97453 z"
       id="path3818" />
    <path
       style="fill:#ffffff;fill-opacity:1;fill-rule:evenodd;stroke:none;stroke-width:0.125236"
       d="m 125.51009,167.07927 -6.20783,1.67025 c -0.0568,-0.20819 -0.14195,-0.41165 -0.25078,-0.60091 l 5.56434,-3.21748 5.56435,-3.21747 c 0.67661,1.1687 1.18762,2.40837 1.53303,3.70009 z"
       id="path3820" />
    <path
       style="fill:#ffffff;fill-opacity:1;fill-rule:evenodd;stroke:none;stroke-width:0.125236"
       d="m 124.61582,164.93113 -5.56434,3.21748 c -0.11355,-0.19399 -0.24604,-0.36906 -0.40219,-0.52521 l 4.55179,-4.53759 4.55178,-4.54231 c 0.93685,0.94158 1.75542,2.00619 2.42731,3.17016 z"
       id="path3822" />
    <path
       style="fill:#ffffff;fill-opacity:1;fill-rule:evenodd;stroke:none;stroke-width:0.125236"
       d="m 123.20108,163.08581 -4.55179,4.53759 c -0.1514,-0.1514 -0.32175,-0.2839 -0.511,-0.39272 l 3.21747,-5.56435 3.21748,-5.56433 c 1.16397,0.67189 2.23331,1.49518 3.17962,2.4415 z"
       id="path3824" />
    <path
       style="fill:#ffffff;fill-opacity:1;fill-rule:evenodd;stroke:none;stroke-width:0.125236"
       d="m 121.35576,161.66633 -3.21747,5.56435 c -0.18927,-0.10882 -0.39273,-0.194 -0.60091,-0.25078 l 1.66551,-6.20783 1.66552,-6.20783 c 1.29172,0.35014 2.53613,0.86114 3.70483,1.53776 z"
       id="path3826" />
    <path
       style="fill:#ffffff;fill-opacity:1;fill-rule:evenodd;stroke:none;stroke-width:0.125236"
       d="m 119.20289,160.77207 -1.66551,6.20783 c -0.20819,-0.052 -0.42585,-0.0804 -0.6435,-0.0804 v -6.43023 -6.42549 c 1.3485,0 2.68281,0.17507 3.97453,0.52048 z"
       id="path3828" />
    <path
       style="fill:#ffffff;fill-opacity:1;fill-rule:evenodd;stroke:none;stroke-width:0.125236"
       d="m 116.89388,154.04376 v 6.42549 6.43023 H 81.217755 v -6.43023 -6.42549 z"
       id="path3830" />
    <path
       style="fill:#ffffff;fill-opacity:1;fill-rule:evenodd;stroke:none;stroke-width:0.125236"
       d="m 160.92598,168.78737 c -1.12611,0 -2.23803,-0.29809 -3.21275,-0.86588 -0.97943,-0.56306 -1.78854,-1.37215 -2.35159,-2.35161 -0.5678,-0.97469 -0.86114,-2.08662 -0.86114,-3.21273 0,-1.12611 0.29334,-2.23804 0.86114,-3.21273 0.56305,-0.97945 1.37216,-1.78854 2.35159,-2.35161 0.97472,-0.56778 2.08664,-0.86115 3.21275,-0.86115 v 6.42549 z"
       id="path3832" />
    <path
       style="fill:#ffffff;fill-opacity:1;fill-rule:evenodd;stroke:none;stroke-width:0.125236"
       d="m 160.92598,168.78737 v -6.43022 -6.42549 h 0.005 v 6.42549 6.43022 z"
       id="path3834" />
    <path
       style="fill:#ffffff;fill-opacity:1;fill-rule:evenodd;stroke:none;stroke-width:0.125236"
       d="m 160.93072,155.93166 c 1.12611,0 2.23803,0.29337 3.21274,0.86115 0.97943,0.56307 1.78853,1.37216 2.3516,2.35161 0.56778,0.97469 0.86587,2.08662 0.86587,3.21273 0,1.12611 -0.29809,2.23804 -0.86587,3.21273 -0.56307,0.97946 -1.37217,1.78855 -2.3516,2.35161 -0.97471,0.56779 -2.08663,0.86588 -3.21274,0.86588 v -6.43022 z"
       id="path3836" />
    <path
       style="fill:#ffffff;fill-opacity:1;fill-rule:evenodd;stroke:none;stroke-width:0.125236"
       d="m 160.93072,162.35715 v 6.43022 c -0.16561,0 -0.32648,0.0189 -0.48736,0.0615 l -1.66078,-6.20783 -1.66552,-6.20784 c 1.23968,-0.33594 2.52194,-0.50155 3.81366,-0.50155 z"
       id="path3838" />
    <path
       style="fill:#ffffff;fill-opacity:1;fill-rule:evenodd;stroke:none;stroke-width:0.125236"
       d="m 158.78258,162.64105 1.66078,6.20783 c -0.15614,0.0426 -0.30282,0.10409 -0.44476,0.18454 l -3.21749,-5.56434 -3.21747,-5.56435 c 1.12139,-0.64822 2.31847,-1.14031 3.55342,-1.47152 z"
       id="path3840" />
    <path
       style="fill:#ffffff;fill-opacity:1;fill-rule:evenodd;stroke:none;stroke-width:0.125236"
       d="m 156.78111,163.46908 3.21749,5.56434 c -0.14196,0.0852 -0.27443,0.18453 -0.38799,0.29808 l -4.54705,-4.54705 -4.54233,-4.54231 c 0.90373,-0.90373 1.92576,-1.69392 3.04241,-2.33741 z"
       id="path3842" />
    <path
       style="fill:#ffffff;fill-opacity:1;fill-rule:evenodd;stroke:none;stroke-width:0.125236"
       d="m 155.06356,164.78445 4.54705,4.54705 c -0.11356,0.11357 -0.21292,0.24604 -0.2981,0.38799 l -5.56434,-3.21748 -5.56433,-3.21747 c 0.64348,-1.11665 1.43366,-2.13867 2.33739,-3.0424 z"
       id="path3844" />
    <path
       style="fill:#ffffff;fill-opacity:1;fill-rule:evenodd;stroke:none;stroke-width:0.125236"
       d="m 153.74817,166.50201 5.56434,3.21748 c -0.0804,0.14195 -0.14194,0.28863 -0.18454,0.44478 l -6.20782,-1.6608 -6.20785,-1.66551 c 0.33122,-1.23494 0.82331,-2.43203 1.47154,-3.55342 z"
       id="path3846" />
    <path
       style="fill:#ffffff;fill-opacity:1;fill-rule:evenodd;stroke:none;stroke-width:0.125236"
       d="m 152.92015,168.50347 6.20782,1.6608 c -0.0426,0.16087 -0.0615,0.32173 -0.0615,0.48735 h -6.43023 -6.42549 c 0,-1.29173 0.16562,-2.57399 0.50154,-3.81366 z"
       id="path3848" />
    <path
       style="fill:#ffffff;fill-opacity:1;fill-rule:evenodd;stroke:none;stroke-width:0.125236"
       d="m 146.21076,170.65162 h 6.42548 6.43024 v 33.16365 h -6.43024 -6.42548 z"
       id="path3850" />
    <path
       style="fill:#ffffff;fill-opacity:1;fill-rule:evenodd;stroke:none;stroke-width:0.125236"
       d="m 146.21076,203.81527 h 6.42548 6.43024 v 0.005 h -6.43024 -6.42548 z"
       id="path3852" />
    <path
       style="fill:#ffffff;fill-opacity:1;fill-rule:evenodd;stroke:none;stroke-width:0.125236"
       d="m 152.63624,203.82 h 6.43024 c 0,0.16088 0.0189,0.32175 0.0615,0.47789 l -6.20782,1.66552 -6.20785,1.66552 c -0.33592,-1.23968 -0.50154,-2.5172 -0.50154,-3.80893 z"
       id="path3854" />
    <path
       style="fill:#ffffff;fill-opacity:1;fill-rule:evenodd;stroke:none;stroke-width:0.125236"
       d="m 152.92015,205.96341 6.20782,-1.66552 c 0.0426,0.15615 0.10411,0.30756 0.18454,0.4495 l -5.56434,3.21749 -5.56433,3.21747 c -0.64823,-1.12139 -1.14032,-2.31375 -1.47154,-3.55342 z"
       id="path3856" />
    <path
       style="fill:#ffffff;fill-opacity:1;fill-rule:evenodd;stroke:none;stroke-width:0.125236"
       d="m 153.74817,207.96488 5.56434,-3.21749 c 0.0852,0.14196 0.18454,0.27443 0.2981,0.38799 l -4.54705,4.54705 -4.54233,4.54232 c -0.90373,-0.90373 -1.69391,-1.92576 -2.33739,-3.0424 z"
       id="path3858" />
    <path
       style="fill:#ffffff;fill-opacity:1;fill-rule:evenodd;stroke:none;stroke-width:0.125236"
       d="m 155.06356,209.68243 4.54705,-4.54705 c 0.11356,0.11356 0.24603,0.21294 0.38799,0.29809 l -3.21749,5.56434 -3.21747,5.56434 c -1.11665,-0.64348 -2.13868,-1.43366 -3.04241,-2.3374 z"
       id="path3860" />
    <path
       style="fill:#ffffff;fill-opacity:1;fill-rule:evenodd;stroke:none;stroke-width:0.125236"
       d="m 156.78111,210.99781 3.21749,-5.56434 c 0.14194,0.0804 0.28862,0.14196 0.44476,0.18454 l -1.66078,6.20783 -1.66552,6.20784 c -1.23495,-0.33121 -2.43203,-0.8233 -3.55342,-1.47153 z"
       id="path3862" />
    <path
       style="fill:#ffffff;fill-opacity:1;fill-rule:evenodd;stroke:none;stroke-width:0.125236"
       d="m 158.78258,211.82584 1.66078,-6.20783 c 0.16088,0.0426 0.32175,0.0663 0.48736,0.0663 v 6.4255 6.43022 c -1.29172,0 -2.57398,-0.17035 -3.81366,-0.50628 z"
       id="path3864" />
    <path
       style="fill:#ffffff;fill-opacity:1;fill-rule:evenodd;stroke:none;stroke-width:0.125236"
       d="m 160.93072,218.53996 v -6.43022 -6.4255 h 42.52273 v 6.4255 6.43022 z"
       id="path3866" />
    <path
       style="fill:#ffffff;fill-opacity:1;fill-rule:evenodd;stroke:none;stroke-width:0.125236"
       d="m 203.45345,218.53996 v -6.43022 -6.4255 h 0.005 v 6.4255 6.43022 z"
       id="path3868" />
    <path
       style="fill:#ffffff;fill-opacity:1;fill-rule:evenodd;stroke:none;stroke-width:0.125236"
       d="m 203.45818,212.10974 v -6.4255 c 0.16086,0 0.32175,-0.0237 0.47789,-0.0663 l 1.6655,6.20783 1.66552,6.20784 c -1.23967,0.33594 -2.5172,0.50628 -3.80891,0.50628 z"
       id="path3870" />
    <path
       style="fill:#ffffff;fill-opacity:1;fill-rule:evenodd;stroke:none;stroke-width:0.125236"
       d="m 205.60157,211.82584 -1.6655,-6.20783 c 0.15613,-0.0426 0.30754,-0.1041 0.4495,-0.18454 l 3.21746,5.56434 3.21748,5.56434 c -1.12138,0.64823 -2.31375,1.14032 -3.55342,1.47153 z"
       id="path3872" />
    <path
       style="fill:#ffffff;fill-opacity:1;fill-rule:evenodd;stroke:none;stroke-width:0.125236"
       d="m 207.60303,210.99781 -3.21746,-5.56434 c 0.14194,-0.0852 0.27442,-0.18453 0.38798,-0.29809 l 4.54706,4.54705 4.5423,4.54232 c -0.90373,0.90374 -1.92574,1.69392 -3.0424,2.3374 z"
       id="path3874" />
    <path
       style="fill:#ffffff;fill-opacity:1;fill-rule:evenodd;stroke:none;stroke-width:0.125236"
       d="m 209.32061,209.68243 -4.54706,-4.54705 c 0.11356,-0.11356 0.21293,-0.24603 0.29809,-0.38799 l 5.56433,3.21749 5.56435,3.21747 c -0.64349,1.11664 -1.43367,2.13867 -2.33741,3.0424 z"
       id="path3876" />
    <path
       style="fill:#ffffff;fill-opacity:1;fill-rule:evenodd;stroke:none;stroke-width:0.125236"
       d="m 210.63597,207.96488 -5.56433,-3.21749 c 0.0804,-0.14194 0.14195,-0.29335 0.18453,-0.4495 l 6.20785,1.66552 6.20782,1.66552 c -0.33121,1.23967 -0.82328,2.43203 -1.47152,3.55342 z"
       id="path3878" />
    <path
       style="fill:#ffffff;fill-opacity:1;fill-rule:evenodd;stroke:none;stroke-width:0.125236"
       d="m 211.46402,205.96341 -6.20785,-1.66552 c 0.0426,-0.15614 0.0663,-0.31701 0.0663,-0.47789 h 6.42549 6.43023 c 0,1.29173 -0.17034,2.56925 -0.50629,3.80893 z"
       id="path3880" />
    <path
       style="fill:#ffffff;fill-opacity:1;fill-rule:evenodd;stroke:none;stroke-width:0.125236"
       d="m 218.17813,203.82 h -6.43023 -6.42549 v -33.17311 h 6.42549 6.43023 z"
       id="path3882" />
    <path
       style="fill:#ffffff;fill-opacity:1;fill-rule:evenodd;stroke:none;stroke-width:0.125236"
       d="m 205.32241,170.64689 c 0,-1.12611 0.29337,-2.23804 0.86115,-3.21275 0.56307,-0.97945 1.37216,-1.78854 2.3516,-2.35159 0.9747,-0.5678 2.08663,-0.86115 3.21274,-0.86115 1.12613,0 2.23804,0.29335 3.21275,0.86115 0.97943,0.56305 1.78854,1.37214 2.35159,2.35159 0.5678,0.97471 0.86589,2.08664 0.86589,3.21275 v 0 h -6.43023 z"
       id="path3884" />
    <path
       style="fill:#ffffff;fill-opacity:1;fill-rule:evenodd;stroke:none;stroke-width:0.125236"
       d="m 205.32241,170.64689 h 6.42549 6.43023 v 0.005 h -6.43023 -6.42549 z"
       id="path3886" />
    <path
       style="fill:#ffffff;fill-opacity:1;fill-rule:evenodd;stroke:none;stroke-width:0.125236"
       d="m 218.17813,170.65162 c 0,1.12611 -0.29809,2.23804 -0.86589,3.21274 -0.56305,0.97944 -1.37216,1.78854 -2.35159,2.3516 -0.97471,0.56778 -2.08662,0.86587 -3.21275,0.86587 -1.12611,0 -2.23804,-0.29809 -3.21274,-0.86587 -0.97944,-0.56306 -1.78853,-1.37216 -2.3516,-2.3516 -0.56778,-0.9747 -0.86115,-2.08663 -0.86115,-3.21274 h 6.42549 z"
       id="path3888" />
    <path
       style="fill:#ffffff;fill-opacity:1;fill-rule:evenodd;stroke:none;stroke-width:0.125236"
       d="m 211.7479,170.65162 h -6.42549 c 0,-0.16562 -0.0237,-0.32648 -0.0663,-0.48735 l 6.20785,-1.6608 6.20782,-1.66551 c 0.33596,1.23967 0.50629,2.52193 0.50629,3.81366 z"
       id="path3890" />
    <path
       style="fill:#ffffff;fill-opacity:1;fill-rule:evenodd;stroke:none;stroke-width:0.125236"
       d="m 211.46402,168.50347 -6.20785,1.6608 c -0.0426,-0.15615 -0.10409,-0.30283 -0.18453,-0.44478 l 5.56433,-3.21748 5.56435,-3.21747 c 0.64824,1.12139 1.14031,2.31848 1.47152,3.55342 z"
       id="path3892" />
    <path
       style="fill:#ffffff;fill-opacity:1;fill-rule:evenodd;stroke:none;stroke-width:0.125236"
       d="m 210.63597,166.50201 -5.56433,3.21748 c -0.0852,-0.14195 -0.18453,-0.27442 -0.29809,-0.38799 l 4.54232,-4.54705 4.54704,-4.54705 c 0.90374,0.90847 1.69392,1.93049 2.33741,3.04714 z"
       id="path3894" />
    <path
       style="fill:#ffffff;fill-opacity:1;fill-rule:evenodd;stroke:none;stroke-width:0.125236"
       d="m 209.31587,164.78445 -4.54232,4.54705 c -0.11356,-0.11355 -0.24604,-0.21764 -0.39272,-0.29808 l 3.2222,-5.56434 3.22222,-5.56435 c 1.11192,0.64823 2.13393,1.43368 3.03766,2.33267 z"
       id="path3896" />
    <path
       style="fill:#ffffff;fill-opacity:1;fill-rule:evenodd;stroke:none;stroke-width:0.125236"
       d="m 210.81578,157.9 c 0,0 0,0 0,0.005 0.005,0 0.005,0 0.01,0 l -3.22222,5.56434 z"
       id="path3898" />
    <path
       style="fill:#ffffff;fill-opacity:1;fill-rule:evenodd;stroke:none;stroke-width:0.125236"
       d="m 207.60303,163.46908 -3.21273,5.56907 c -0.14195,-0.0852 -0.29337,-0.14667 -0.45423,-0.18927 l 1.6655,-6.20783 1.66552,-6.20784 c 1.23495,0.33121 2.42731,0.8233 3.54869,1.46679 z"
       id="path3900" />
    <path
       style="fill:#ffffff;fill-opacity:1;fill-rule:evenodd;stroke:none;stroke-width:0.125236"
       d="m 205.60157,162.64105 -1.6655,6.20783 c -0.15614,-0.0426 -0.31703,-0.0615 -0.47789,-0.0615 v -6.43022 -6.42549 c 1.29171,0 2.56924,0.16561 3.80891,0.50155 z"
       id="path3902" />
    <path
       style="fill:#ffffff;fill-opacity:1;fill-rule:evenodd;stroke:none;stroke-width:0.125236"
       d="m 203.45818,155.93166 v 6.42549 6.43022 h -42.5322 v -6.43022 -6.42549 z"
       id="path3904" />
  </g>
</svg>
