<?xml version="1.0" encoding="UTF-8" standalone="no"?>
<svg
   xmlns:dc="http://purl.org/dc/elements/1.1/"
   xmlns:cc="http://creativecommons.org/ns#"
   xmlns:rdf="http://www.w3.org/1999/02/22-rdf-syntax-ns#"
   xmlns:svg="http://www.w3.org/2000/svg"
   xmlns="http://www.w3.org/2000/svg"
   xmlns:sodipodi="http://sodipodi.sourceforge.net/DTD/sodipodi-0.dtd"
   xmlns:inkscape="http://www.inkscape.org/namespaces/inkscape"
   width="1080"
   height="1080"
   viewBox="0 0 285.74999 285.75001"
   version="1.1"
   id="svg8"
   inkscape:version="1.0.2 (e86c870879, 2021-01-15)"
   sodipodi:docname="lapiz.svg">
  <defs
     id="defs2">
    <pattern
       id="EMFhbasepattern"
       patternUnits="userSpaceOnUse"
       width="6"
       height="6"
       x="0"
       y="0" />
  </defs>
  <sodipodi:namedview
     id="base"
     pagecolor="#ffffff"
     bordercolor="#666666"
     borderopacity="1.0"
     inkscape:pageopacity="0.0"
     inkscape:pageshadow="2"
     inkscape:zoom="0.33602431"
     inkscape:cx="704.68317"
     inkscape:cy="416.91346"
     inkscape:document-units="mm"
     inkscape:current-layer="layer1"
     inkscape:document-rotation="0"
     showgrid="false"
     units="px"
     inkscape:pagecheckerboard="true"
     inkscape:window-width="1366"
     inkscape:window-height="705"
     inkscape:window-x="-8"
     inkscape:window-y="-8"
     inkscape:window-maximized="1" />
  <metadata
     id="metadata5">
    <rdf:RDF>
      <cc:Work
         rdf:about="">
        <dc:format>image/svg+xml</dc:format>
        <dc:type
           rdf:resource="http://purl.org/dc/dcmitype/StillImage" />
        <dc:title></dc:title>
      </cc:Work>
    </rdf:RDF>
  </metadata>
  <g
     inkscape:label="Capa 1"
     inkscape:groupmode="layer"
     id="layer1">
    <path
       style="fill:#ffffff;fill-opacity:1;fill-rule:evenodd;stroke:none;stroke-width:0.125972"
       d="m 18.642267,260.6211 5.231153,1.55032 1.588368,5.21688 z"
       id="path833" />
    <path
       style="fill:#ffffff;fill-opacity:1;fill-rule:evenodd;stroke:none;stroke-width:0.125972"
       d="m 25.461788,267.3883 -1.588368,-5.21688 -1.588369,-5.21689 93.000379,-28.34334 1.58837,5.21689 1.58836,5.21689 z"
       id="path835" />
    <path
       style="fill:#ffffff;fill-opacity:1;fill-rule:evenodd;stroke:none;stroke-width:0.125972"
       d="m 118.46216,239.04497 -1.58836,-5.21689 3.85678,-3.85678 z"
       id="path837" />
    <path
       style="fill:#ffffff;fill-opacity:1;fill-rule:evenodd;stroke:none;stroke-width:0.125972"
       d="m 120.73058,229.9713 -3.85678,3.85678 -3.85679,3.8568 -65.289538,-65.26577 3.856788,-3.85677 3.856785,-3.8568 z"
       id="path839" />
    <path
       style="fill:#ffffff;fill-opacity:1;fill-rule:evenodd;stroke:none;stroke-width:0.125972"
       d="m 55.441045,164.70554 -3.856785,3.8568 -5.231153,-1.55032 z"
       id="path841" />
    <path
       style="fill:#ffffff;fill-opacity:1;fill-rule:evenodd;stroke:none;stroke-width:0.125972"
       d="m 46.353107,167.01202 5.231153,1.55032 5.231152,1.55032 -27.71084,93.60909 -5.231152,-1.55033 -5.231153,-1.55032 z"
       id="path843" />
    <path
       style="fill:#ffffff;fill-opacity:1;fill-rule:evenodd;stroke:none;stroke-width:0.125972"
       d="m 250.61057,107.7811 c -0.0523,0.0571 -0.10457,0.11412 -0.16169,0.1712 l -3.85678,-3.85679 z"
       id="path845" />
    <path
       style="fill:#ffffff;fill-opacity:1;fill-rule:evenodd;stroke:none;stroke-width:0.125972"
       d="m 246.5921,104.09551 -4.01847,-3.68558 c 4.81741,-5.254926 8.2557,-10.671543 10.47181,-16.088167 l 5.05045,2.063923 5.04567,2.068685 c -2.65837,6.500888 -6.74819,13.025569 -12.53099,19.326729 z"
       id="path847" />
    <path
       style="fill:#ffffff;fill-opacity:1;fill-rule:evenodd;stroke:none;stroke-width:0.125972"
       d="m 258.09589,86.385686 -5.05045,-2.063923 c 2.15429,-5.264447 3.15295,-10.509867 3.15295,-15.565056 h 5.45467 5.45467 c 0,6.396276 -1.23646,13.039832 -3.96617,19.697664 z"
       id="path849" />
    <path
       style="fill:#ffffff;fill-opacity:1;fill-rule:evenodd;stroke:none;stroke-width:0.125972"
       d="m 261.65306,68.756707 h -5.45467 c 0,-5.369065 -1.12232,-10.509855 -3.13869,-15.208383 l 5.0124,-2.149536 5.01714,-2.149524 c 2.58229,6.025338 4.01849,12.621347 4.01849,19.507443 z"
       id="path851" />
    <path
       style="fill:#ffffff;fill-opacity:1;fill-rule:evenodd;stroke:none;stroke-width:0.125972"
       d="m 258.0721,51.398788 -5.0124,2.149536 c -2.02587,-4.722307 -4.95057,-8.992825 -8.55056,-12.592818 l 3.8568,-3.856786 3.85677,-3.856786 c 4.5749,4.574882 8.28901,10.00577 10.86653,16.00733 z"
       id="path853" />
    <path
       style="fill:#ffffff;fill-opacity:1;fill-rule:evenodd;stroke:none;stroke-width:0.125972"
       d="m 248.36594,37.09872 -3.8568,3.856786 c -3.59997,-3.59523 -7.8705,-6.524672 -12.5928,-8.5458 l 2.14477,-5.017144 2.14953,-5.012394 c 6.00632,2.572771 11.43719,6.286895 16.01207,10.861766 z"
       id="path855" />
    <path
       style="fill:#ffffff;fill-opacity:1;fill-rule:evenodd;stroke:none;stroke-width:0.125972"
       d="m 234.06111,27.392562 -2.14477,5.017144 c -4.70328,-2.016365 -9.84882,-3.13869 -15.2179,-3.13869 v -5.454668 -5.454656 c 6.88611,0 13.48687,1.43618 19.5122,4.018476 z"
       id="path857" />
    <path
       style="fill:#ffffff;fill-opacity:1;fill-rule:evenodd;stroke:none;stroke-width:0.125972"
       d="m 216.69844,23.816348 v 5.454668 c -5.05519,0 -10.30536,0.99868 -15.5698,3.148204 l -2.06394,-5.045686 -2.06393,-5.050437 c 6.65784,-2.724959 13.3014,-3.961405 19.69767,-3.961405 z"
       id="path859" />
    <path
       style="fill:#ffffff;fill-opacity:1;fill-rule:evenodd;stroke:none;stroke-width:0.125972"
       d="m 199.0647,27.373534 2.06394,5.045686 c -5.41663,2.220861 -10.83801,5.659152 -16.09294,10.476575 l -3.68557,-4.023239 -3.6856,-4.023227 c 6.30593,-5.773284 12.83059,-9.863097 19.33624,-12.526232 z"
       id="path861" />
    <path
       style="fill:#ffffff;fill-opacity:1;fill-rule:evenodd;stroke:none;stroke-width:0.125972"
       d="m 177.49809,35.011018 c 0.0524,-0.05234 0.10941,-0.109404 0.16644,-0.161689 l 3.6856,4.023227 z"
       id="path863" />
    <path
       style="fill:#ffffff;fill-opacity:1;fill-rule:evenodd;stroke:none;stroke-width:0.125972"
       d="m 181.35013,38.872556 3.85202,3.861549 C 179.09121,48.830768 92.653559,135.2494 55.536157,172.36205 l -3.856786,-3.85679 -3.856785,-3.85679 C 84.939988,127.53583 171.38715,41.107694 177.49809,35.011018 Z"
       id="path865" />
    <path
       style="fill:#ffffff;fill-opacity:1;fill-rule:evenodd;stroke:none;stroke-width:0.125972"
       d="m 47.822586,172.36205 c -0.337648,-0.33765 -0.627738,-0.7181 -0.865518,-1.12708 -0.480315,-0.83222 -0.732362,-1.77384 -0.732362,-2.72971 0,-0.95588 0.252047,-1.89747 0.732362,-2.72495 0.23778,-0.41374 0.52787,-0.7942 0.865518,-1.13184 l 3.856785,3.85679 z"
       id="path867" />
    <path
       style="fill:#ffffff;fill-opacity:1;fill-rule:evenodd;stroke:none;stroke-width:0.125972"
       d="m 47.822586,172.36205 3.856785,-3.85679 3.856786,-3.85679 65.241983,65.22296 -3.85679,3.85679 -3.85678,3.85678 z"
       id="path869" />
    <path
       style="fill:#ffffff;fill-opacity:1;fill-rule:evenodd;stroke:none;stroke-width:0.125972"
       d="m 120.77814,237.585 c -0.33766,0.33765 -0.7181,0.62774 -1.12708,0.86552 -0.83223,0.48032 -1.77383,0.73236 -2.72971,0.73236 -0.95588,0 -1.89749,-0.25204 -2.72496,-0.73236 -0.41374,-0.23778 -0.79418,-0.52787 -1.13182,-0.86552 l 3.85678,-3.85678 z"
       id="path871" />
    <path
       style="fill:#ffffff;fill-opacity:1;fill-rule:evenodd;stroke:none;stroke-width:0.125972"
       d="m 120.77814,237.585 -3.85679,-3.85678 -3.85678,-3.85679 129.67074,-129.63271 3.85679,3.85679 3.85678,3.85679 z"
       id="path873" />
    <path
       style="fill:#ffffff;fill-opacity:1;fill-rule:evenodd;stroke:none;stroke-width:0.125972"
       d="m 250.46315,100.24824 -3.85678,3.85678 -3.85679,3.85679 -65.24197,-65.222954 3.85677,-3.856786 3.85679,-3.856787 z"
       id="path875" />
    <path
       style="fill:#ffffff;fill-opacity:1;fill-rule:evenodd;stroke:none;stroke-width:0.125972"
       d="m 157.47229,62.764662 3.85678,-3.856786 3.85679,-3.856787 65.24197,65.222951 -3.85677,3.85679 -3.8568,3.85678 z"
       id="path877" />
    <path
       style="fill:#ffffff;fill-opacity:1;fill-rule:evenodd;stroke:none;stroke-width:0.125972"
       d="m 156.03134,84.131532 c 0.67531,-0.68004 1.5218,-1.165109 2.44438,-1.412401 0.92734,-0.247292 1.90223,-0.247292 2.82481,0 0.92735,0.247292 1.7691,0.737112 2.44439,1.412401 0.68005,0.6753 1.16512,1.521793 1.41241,2.444385 0.24728,0.927344 0.24728,1.902233 0,2.824813 -0.24729,0.927344 -0.73712,1.769085 -1.41241,2.444374 l -57.68534,57.666316 c -0.6753,0.68006 -1.5218,1.16511 -2.44438,1.41242 -0.92734,0.24729 -1.90224,0.24729 -2.82482,0 -0.927346,-0.24731 -1.769087,-0.73712 -2.444376,-1.41242 -0.680052,-0.6753 -1.165121,-1.52179 -1.412413,-2.44437 -0.247291,-0.92734 -0.247291,-1.90223 0,-2.82483 0.247292,-0.92734 0.737112,-1.76908 1.412413,-2.44437 z"
       id="path879" />
  </g>
</svg>
