<?xml version="1.0" encoding="UTF-8" standalone="no"?>
<svg
   xmlns:dc="http://purl.org/dc/elements/1.1/"
   xmlns:cc="http://creativecommons.org/ns#"
   xmlns:rdf="http://www.w3.org/1999/02/22-rdf-syntax-ns#"
   xmlns:svg="http://www.w3.org/2000/svg"
   xmlns="http://www.w3.org/2000/svg"
   xmlns:sodipodi="http://sodipodi.sourceforge.net/DTD/sodipodi-0.dtd"
   xmlns:inkscape="http://www.inkscape.org/namespaces/inkscape"
   width="1080"
   height="1080"
   viewBox="0 0 285.74999 285.75001"
   version="1.1"
   id="svg8"
   inkscape:version="1.0.2 (e86c870879, 2021-01-15)"
   sodipodi:docname="Perfil.svg">
  <defs
     id="defs2">
    <pattern
       id="EMFhbasepattern"
       patternUnits="userSpaceOnUse"
       width="6"
       height="6"
       x="0"
       y="0" />
  </defs>
  <sodipodi:namedview
     id="base"
     pagecolor="#ffffff"
     bordercolor="#666666"
     borderopacity="1.0"
     inkscape:pageopacity="0.0"
     inkscape:pageshadow="2"
     inkscape:zoom="0.33602431"
     inkscape:cx="921.03206"
     inkscape:cy="418.80629"
     inkscape:document-units="mm"
     inkscape:current-layer="layer1"
     inkscape:document-rotation="0"
     showgrid="false"
     units="px"
     inkscape:pagecheckerboard="true"
     inkscape:window-width="1366"
     inkscape:window-height="705"
     inkscape:window-x="-8"
     inkscape:window-y="-8"
     inkscape:window-maximized="1" />
  <metadata
     id="metadata5">
    <rdf:RDF>
      <cc:Work
         rdf:about="">
        <dc:format>image/svg+xml</dc:format>
        <dc:type
           rdf:resource="http://purl.org/dc/dcmitype/StillImage" />
        <dc:title></dc:title>
      </cc:Work>
    </rdf:RDF>
  </metadata>
  <g
     inkscape:label="Capa 1"
     inkscape:groupmode="layer"
     id="layer1">
    <path
       style="fill:#ffffff;fill-opacity:1;fill-rule:evenodd;stroke:none;stroke-width:0.125715"
       d="m 275.8794,142.87262 h 6.7071 c 0,12.26469 -1.61503,24.42013 -4.76433,36.1623 l -6.47434,-1.73376 -6.47434,-1.73378 c 2.84054,-10.62116 4.30356,-21.60809 4.30356,-32.69476 z"
       id="path7220" />
    <path
       style="fill:#ffffff;fill-opacity:1;fill-rule:evenodd;stroke:none;stroke-width:0.125715"
       d="m 271.34783,177.30116 6.47434,1.73376 c -3.14454,11.74218 -7.82335,23.07586 -13.9557,33.69703 l -5.8046,-3.35355 -5.80458,-3.35357 c 5.53859,-9.59989 9.7709,-19.84104 12.6162,-30.45745 z"
       id="path7222" />
    <path
       style="fill:#ffffff;fill-opacity:1;fill-rule:evenodd;stroke:none;stroke-width:0.125715"
       d="m 258.06187,209.3784 5.8046,3.35355 c -6.12759,10.61641 -13.60421,20.33504 -22.20185,28.93267 l -4.74056,-4.74056 -4.74058,-4.74058 c 7.77111,-7.77111 14.53048,-16.55875 20.07381,-26.15865 z"
       id="path7224" />
    <path
       style="fill:#ffffff;fill-opacity:1;fill-rule:evenodd;stroke:none;stroke-width:0.125715"
       d="m 236.92406,236.92406 4.74056,4.74056 c -8.59763,8.59764 -18.31626,16.07426 -28.93267,22.20185 l -3.35355,-5.8046 -3.35357,-5.80458 c 9.5999,-5.54333 18.38754,-12.3027 26.15865,-20.07381 z"
       id="path7226" />
    <path
       style="fill:#ffffff;fill-opacity:1;fill-rule:evenodd;stroke:none;stroke-width:0.125715"
       d="m 209.3784,258.06187 3.35355,5.8046 c -10.62117,6.13235 -21.95009,10.81116 -33.69703,13.9557 l -1.73376,-6.47434 -1.73378,-6.47434 c 10.6164,-2.8453 20.85756,-7.07761 30.45745,-12.6162 z"
       id="path7228" />
    <path
       style="fill:#ffffff;fill-opacity:1;fill-rule:evenodd;stroke:none;stroke-width:0.125715"
       d="m 177.30116,271.34783 1.73376,6.47434 c -11.74217,3.1493 -23.89286,4.76433 -36.15754,4.76433 v -6.7071 -6.70235 c 11.08667,0 22.07358,-1.46302 32.69,-4.30356 z"
       id="path7230" />
    <path
       style="fill:#ffffff;fill-opacity:1;fill-rule:evenodd;stroke:none;stroke-width:0.125715"
       d="m 142.87738,275.8794 v 6.7071 c -12.2647,0 -24.42012,-1.61503 -36.1623,-4.76433 l 1.73377,-6.47434 1.73853,-6.47434 c 10.61641,2.84054 21.60332,4.30356 32.69,4.30356 z"
       id="path7232" />
    <path
       style="fill:#ffffff;fill-opacity:1;fill-rule:evenodd;stroke:none;stroke-width:0.125715"
       d="m 108.44885,271.34783 -1.73377,6.47434 c -11.742181,-3.14454 -23.075852,-7.82335 -33.697015,-13.9557 l 3.353548,-5.8046 3.353555,-5.80458 c 9.599894,5.53859 19.8458,9.7709 30.462212,12.6162 z"
       id="path7234" />
    <path
       style="fill:#ffffff;fill-opacity:1;fill-rule:evenodd;stroke:none;stroke-width:0.125715"
       d="m 76.371613,258.06187 -3.353548,5.8046 C 62.401653,257.73888 52.683005,250.26226 44.085379,241.66462 l 4.740569,-4.74056 4.740572,-4.74058 c 7.771115,7.77111 16.558752,14.53048 26.158648,20.07381 z"
       id="path7236" />
    <path
       style="fill:#ffffff;fill-opacity:1;fill-rule:evenodd;stroke:none;stroke-width:0.125715"
       d="m 48.825948,236.92406 -4.740569,4.74056 C 35.487746,233.06699 28.01113,223.34836 21.883536,212.73195 l 5.804591,-3.35355 5.804587,-3.35357 c 5.543333,9.5999 12.302687,18.38754 20.073806,26.15865 z"
       id="path7238" />
    <path
       style="fill:#ffffff;fill-opacity:1;fill-rule:evenodd;stroke:none;stroke-width:0.125715"
       d="m 27.688127,209.3784 -5.804591,3.35355 C 15.751196,202.11078 11.072372,190.7771 7.9278252,179.03492 l 6.4743478,-1.73376 6.474349,-1.73378 c 2.845292,10.61641 7.077609,20.85756 12.616192,30.45745 z"
       id="path7240" />
    <path
       style="fill:#ffffff;fill-opacity:1;fill-rule:evenodd;stroke:none;stroke-width:0.125715"
       d="m 14.402173,177.30116 -6.4743478,1.73376 C 4.778531,167.29275 3.1635043,155.13731 3.1635043,142.87738 h 6.707102 6.7071017 c 0,11.08667 1.458272,22.07359 4.298814,32.69 z"
       id="path7242" />
    <path
       style="fill:#ffffff;fill-opacity:1;fill-rule:evenodd;stroke:none;stroke-width:0.125715"
       d="m 9.8706063,142.87738 h -6.707102 c 0,-12.26469 1.6150267,-24.42012 4.7643209,-36.1623 l 6.4743478,1.73377 6.479101,1.73853 c -2.845294,10.61641 -4.303566,21.60333 -4.303566,32.69 z"
       id="path7244" />
    <path
       style="fill:#ffffff;fill-opacity:1;fill-rule:evenodd;stroke:none;stroke-width:0.125715"
       d="M 14.402173,108.44885 7.9278252,106.71508 C 11.072372,94.972896 15.751196,83.639225 21.883536,73.018063 l 5.804591,3.353549 5.804587,3.35356 c -5.538583,9.599895 -9.7709,19.845798 -12.61144,30.462208 z"
       id="path7246" />
    <path
       style="fill:#ffffff;fill-opacity:1;fill-rule:evenodd;stroke:none;stroke-width:0.125715"
       d="m 21.883536,73.018063 c 0,0 0,0 0,0 0,0 0,0 0,0 l 5.804591,3.353549 z"
       id="path7248" />
    <path
       style="fill:#ffffff;fill-opacity:1;fill-rule:evenodd;stroke:none;stroke-width:0.125715"
       d="m 27.688127,76.371612 -5.804591,-3.353549 c 6.132345,-10.61641 13.60421,-20.335059 22.201843,-28.932689 l 4.740569,4.740572 4.740572,4.740571 C 45.795401,61.337639 39.036047,70.125276 33.492714,79.725172 Z"
       id="path7250" />
    <path
       style="fill:#ffffff;fill-opacity:1;fill-rule:evenodd;stroke:none;stroke-width:0.125715"
       d="M 48.825948,48.825946 44.085379,44.085374 C 52.683005,35.487745 62.401653,28.011132 73.018065,21.883538 l 3.353548,5.80459 3.353555,5.804587 C 70.125272,39.036049 61.337635,45.795404 53.56652,53.566517 Z"
       id="path7252" />
    <path
       style="fill:#ffffff;fill-opacity:1;fill-rule:evenodd;stroke:none;stroke-width:0.125715"
       d="m 76.371613,27.688128 -3.353548,-5.80459 C 83.639228,15.751196 94.972899,11.072375 106.71508,7.9278267 l 1.73377,6.4743493 1.73378,6.474348 C 99.566221,23.721817 89.325062,27.954131 79.725168,33.492715 Z"
       id="path7254" />
    <path
       style="fill:#ffffff;fill-opacity:1;fill-rule:evenodd;stroke:none;stroke-width:0.125715"
       d="m 108.44885,14.402176 -1.73377,-6.4743493 c 11.74218,-3.1492971 23.8976,-4.7643219 36.15754,-4.7643219 v 6.707102 6.7071012 c -11.08666,0 -22.07358,1.458272 -32.68999,4.298816 z"
       id="path7256" />
    <path
       style="fill:#ffffff;fill-opacity:1;fill-rule:evenodd;stroke:none;stroke-width:0.125715"
       d="m 142.87262,9.8706068 v -6.707102 c 12.26469,0 24.42013,1.6150248 36.1623,4.7643219 l -1.73376,6.4743493 -1.73378,6.474348 C 164.94622,18.03598 153.95929,16.577708 142.87262,16.577708 Z"
       id="path7258" />
    <path
       style="fill:#ffffff;fill-opacity:1;fill-rule:evenodd;stroke:none;stroke-width:0.125715"
       d="m 177.30116,14.402176 1.73376,-6.4743493 c 11.74218,3.1445483 23.07586,7.8233693 33.69703,13.9557113 l -3.35355,5.80459 -3.35357,5.804587 c -9.59989,-5.538584 -19.84105,-9.770898 -30.45745,-12.616191 z"
       id="path7260" />
    <path
       style="fill:#ffffff;fill-opacity:1;fill-rule:evenodd;stroke:none;stroke-width:0.125715"
       d="m 209.3784,27.688128 3.35355,-5.80459 c 10.61641,6.127594 20.33504,13.604207 28.93267,22.201836 l -4.74056,4.740572 -4.74058,4.740571 C 224.41237,45.795404 215.62473,39.036049 206.02483,33.492715 Z"
       id="path7262" />
    <path
       style="fill:#ffffff;fill-opacity:1;fill-rule:evenodd;stroke:none;stroke-width:0.125715"
       d="m 236.92406,48.825946 4.74056,-4.740572 c 8.59764,8.59763 16.0695,18.316279 22.20185,28.932689 l -5.8046,3.353549 -5.80458,3.35356 c -5.54333,-9.599896 -12.3027,-18.387533 -20.07381,-26.158655 z"
       id="path7264" />
    <path
       style="fill:#ffffff;fill-opacity:1;fill-rule:evenodd;stroke:none;stroke-width:0.125715"
       d="m 263.86647,73.018063 c 0,0 0,0 0,0 0,0 0,0 0,0 l -5.8046,3.353549 z"
       id="path7266" />
    <path
       style="fill:#ffffff;fill-opacity:1;fill-rule:evenodd;stroke:none;stroke-width:0.125715"
       d="m 258.06187,76.371612 5.8046,-3.353549 c 6.13235,10.621162 10.81116,21.954833 13.9557,33.697017 l -6.47434,1.73377 -6.47909,1.73853 C 262.02819,99.57097 257.79588,89.325067 252.25729,79.725172 Z"
       id="path7268" />
    <path
       style="fill:#ffffff;fill-opacity:1;fill-rule:evenodd;stroke:none;stroke-width:0.125715"
       d="m 271.34783,108.44885 6.47434,-1.73377 c 3.1493,11.74218 4.76433,23.89761 4.76433,36.15754 h -6.7071 -6.70235 c 0,-11.08666 -1.46302,-22.07357 -4.30831,-32.68524 z"
       id="path7270" />
    <path
       style="fill:#ffffff;fill-opacity:1;fill-rule:evenodd;stroke:none;stroke-width:0.125715"
       d="m 185.62802,108.32535 h 6.70711 c 0,4.33682 -0.57476,8.64038 -1.68629,12.7967 l -6.47908,-1.73378 -6.47435,-1.73377 c 0.81226,-3.03055 1.23026,-6.1656 1.23026,-9.32915 z"
       id="path7272" />
    <path
       style="fill:#ffffff;fill-opacity:1;fill-rule:evenodd;stroke:none;stroke-width:0.125715"
       d="m 184.16976,119.38827 6.47908,1.73378 c -1.11625,4.16106 -2.77403,8.17487 -4.94482,11.93218 l -5.80458,-3.35356 -5.80459,-3.35355 c 1.58177,-2.74079 2.7883,-5.66208 3.60056,-8.69262 z"
       id="path7274" />
    <path
       style="fill:#ffffff;fill-opacity:1;fill-rule:evenodd;stroke:none;stroke-width:0.125715"
       d="m 179.89944,129.70067 5.80458,3.35356 c -2.17077,3.75731 -4.81657,7.19635 -7.85661,10.24115 l -4.74058,-4.74057 -4.74056,-4.74057 c 2.21828,-2.21828 4.14681,-4.72632 5.72858,-7.46712 z"
       id="path7276" />
    <path
       style="fill:#ffffff;fill-opacity:1;fill-rule:evenodd;stroke:none;stroke-width:0.125715"
       d="m 173.10683,138.55481 4.74058,4.74057 c -3.0448,3.04005 -6.48385,5.68584 -10.24115,7.85663 l -3.35355,-5.8046 -3.35357,-5.80458 c 2.74081,-1.58178 5.24884,-3.51031 7.46713,-5.72859 z"
       id="path7278" />
    <path
       style="fill:#ffffff;fill-opacity:1;fill-rule:evenodd;stroke:none;stroke-width:0.125715"
       d="m 164.25271,145.34741 3.35355,5.8046 c -3.75731,2.17078 -7.77113,3.82855 -11.92743,4.94481 l -1.73853,-6.47909 -1.73378,-6.47435 c 3.03055,-0.81226 5.95184,-2.01877 8.69262,-3.60055 z"
       id="path7280" />
    <path
       style="fill:#ffffff;fill-opacity:1;fill-rule:evenodd;stroke:none;stroke-width:0.125715"
       d="m 153.9403,149.61773 1.73853,6.47909 c -4.16107,1.11152 -8.45989,1.68629 -12.80145,1.68629 v -6.70711 -6.70234 c 3.16354,0 6.29859,-0.41801 9.32914,-1.23028 z"
       id="path7282" />
    <path
       style="fill:#ffffff;fill-opacity:1;fill-rule:evenodd;stroke:none;stroke-width:0.125715"
       d="m 142.87738,151.076 v 6.70711 c -4.34157,0 -8.64514,-0.57477 -12.80145,-1.68629 l 1.73378,-6.47909 1.73377,-6.47435 c 3.03531,0.81227 6.17035,1.23028 9.3339,1.23028 z"
       id="path7284" />
    <path
       style="fill:#ffffff;fill-opacity:1;fill-rule:evenodd;stroke:none;stroke-width:0.125715"
       d="m 131.80971,149.61773 -1.73378,6.47909 c -4.16106,-1.11626 -8.17487,-2.77403 -11.93218,-4.94481 l 3.35356,-5.8046 3.35355,-5.80458 c 2.74079,1.58178 5.66207,2.78829 8.69262,3.60055 z"
       id="path7286" />
    <path
       style="fill:#ffffff;fill-opacity:1;fill-rule:evenodd;stroke:none;stroke-width:0.125715"
       d="m 121.49731,145.34741 -3.35356,5.8046 c -3.75731,-2.17079 -7.19636,-4.81658 -10.24115,-7.85663 l 4.74057,-4.74057 4.74057,-4.74057 c 2.21828,2.21828 4.72632,4.14681 7.46712,5.72859 z"
       id="path7288" />
    <path
       style="fill:#ffffff;fill-opacity:1;fill-rule:evenodd;stroke:none;stroke-width:0.125715"
       d="m 112.64317,138.55481 -4.74057,4.74057 c -3.04005,-3.0448 -5.68584,-6.48384 -7.85662,-10.24115 l 5.80459,-3.35356 5.80458,-3.35355 c 1.58177,2.7408 3.51031,5.24884 5.72859,7.46712 z"
       id="path7290" />
    <path
       style="fill:#ffffff;fill-opacity:1;fill-rule:evenodd;stroke:none;stroke-width:0.125715"
       d="m 105.85057,129.70067 -5.80459,3.35356 c -2.170786,-3.75731 -3.828562,-7.77112 -4.94483,-11.93218 l 6.4791,-1.73378 6.47435,-1.73377 c 0.81226,3.03054 2.01878,5.95183 3.60055,8.69262 z"
       id="path7292" />
    <path
       style="fill:#ffffff;fill-opacity:1;fill-rule:evenodd;stroke:none;stroke-width:0.125715"
       d="m 101.58025,119.38827 -6.4791,1.73378 c -1.111518,-4.15632 -1.681524,-8.45988 -1.681524,-12.7967 h 6.702354 6.7071 c 0,3.16355 0.41325,6.2986 1.22552,9.32915 z"
       id="path7294" />
    <path
       style="fill:#ffffff;fill-opacity:1;fill-rule:evenodd;stroke:none;stroke-width:0.125715"
       d="m 100.12198,108.32535 h -6.702354 c 0,-4.34156 0.570006,-8.645123 1.681524,-12.801436 l 6.4791,1.733775 6.47435,1.733775 c -0.81227,3.030546 -1.22552,6.170336 -1.22552,9.333886 z"
       id="path7296" />
    <path
       style="fill:#ffffff;fill-opacity:1;fill-rule:evenodd;stroke:none;stroke-width:0.125715"
       d="m 101.58025,97.257689 -6.4791,-1.733775 c 1.116268,-4.161065 2.774044,-8.17488 4.94483,-11.932188 l 5.80459,3.35355 5.80458,3.353549 c -1.58177,2.740794 -2.78829,5.662088 -3.60055,8.692639 z"
       id="path7298" />
    <path
       style="fill:#ffffff;fill-opacity:1;fill-rule:evenodd;stroke:none;stroke-width:0.125715"
       d="m 105.85057,86.945276 -5.80459,-3.35355 c 2.17078,-3.757307 4.81657,-7.196359 7.85662,-10.241159 l 4.74057,4.740581 4.74057,4.740562 c -2.21828,2.218292 -4.14682,4.726332 -5.72859,7.467115 z"
       id="path7300" />
    <path
       style="fill:#ffffff;fill-opacity:1;fill-rule:evenodd;stroke:none;stroke-width:0.125715"
       d="m 112.64317,78.091148 -4.74057,-4.740581 c 3.04479,-3.040047 6.48384,-5.685832 10.24115,-7.856615 l 3.35356,5.804585 3.35355,5.804594 c -2.7408,1.581772 -5.24884,3.510296 -7.46712,5.728579 z"
       id="path7302" />
    <path
       style="fill:#ffffff;fill-opacity:1;fill-rule:evenodd;stroke:none;stroke-width:0.125715"
       d="m 121.49731,71.298537 -3.35356,-5.804585 c 3.75731,-2.170783 7.77112,-3.828561 11.93218,-4.944827 l 1.73378,6.479099 1.73377,6.474346 c -3.03055,0.812269 -5.95183,2.01878 -8.69262,3.600561 z"
       id="path7304" />
    <path
       style="fill:#ffffff;fill-opacity:1;fill-rule:evenodd;stroke:none;stroke-width:0.125715"
       d="m 131.80971,67.028224 -1.73378,-6.479099 c 4.15631,-1.111513 8.45988,-1.681523 12.79669,-1.681523 v 6.702347 6.707108 c -3.16354,0 -6.29858,0.413254 -9.32914,1.225513 z"
       id="path7306" />
    <path
       style="fill:#ffffff;fill-opacity:1;fill-rule:evenodd;stroke:none;stroke-width:0.125715"
       d="m 142.87262,65.569949 v -6.702347 c 4.34158,0 8.64514,0.57001 12.80146,1.681523 l -1.73378,6.479099 -1.73378,6.474346 c -3.03055,-0.812259 -6.17033,-1.225513 -9.3339,-1.225513 z"
       id="path7308" />
    <path
       style="fill:#ffffff;fill-opacity:1;fill-rule:evenodd;stroke:none;stroke-width:0.125715"
       d="m 153.9403,67.028224 1.73378,-6.479099 c 4.16105,1.116266 8.17487,2.774044 11.93218,4.944827 l -3.35355,5.804585 -3.35357,5.804594 c -2.74078,-1.581781 -5.66207,-2.788292 -8.69262,-3.600561 z"
       id="path7310" />
    <path
       style="fill:#ffffff;fill-opacity:1;fill-rule:evenodd;stroke:none;stroke-width:0.125715"
       d="m 164.25271,71.298537 3.35355,-5.804585 c 3.7573,2.170783 7.19635,4.816568 10.24115,7.856615 l -4.74058,4.740581 -4.74056,4.740562 c -2.21829,-2.218283 -4.72632,-4.146807 -7.46713,-5.728579 z"
       id="path7312" />
    <path
       style="fill:#ffffff;fill-opacity:1;fill-rule:evenodd;stroke:none;stroke-width:0.125715"
       d="m 173.10683,78.091148 4.74058,-4.740581 c 3.04004,3.0448 5.68584,6.483852 7.85661,10.241159 l -5.80458,3.35355 -5.80459,3.353549 c -1.58177,-2.740783 -3.5103,-5.248823 -5.72858,-7.467115 z"
       id="path7314" />
    <path
       style="fill:#ffffff;fill-opacity:1;fill-rule:evenodd;stroke:none;stroke-width:0.125715"
       d="m 179.89944,86.945276 5.80458,-3.35355 c 2.17079,3.757308 3.82857,7.771123 4.94482,11.932188 l -6.47908,1.733775 -6.47435,1.733775 c -0.81226,-3.030551 -2.01879,-5.951845 -3.60056,-8.692639 z"
       id="path7316" />
    <path
       style="fill:#ffffff;fill-opacity:1;fill-rule:evenodd;stroke:none;stroke-width:0.125715"
       d="m 184.16976,97.257689 6.47908,-1.733775 c 1.11153,4.156313 1.68629,8.459876 1.68629,12.796686 h -6.70711 -6.70235 c 0,-3.16354 -0.418,-6.29859 -1.23026,-9.329136 z"
       id="path7318" />
    <path
       style="fill:#ffffff;fill-opacity:1;fill-rule:evenodd;stroke:none;stroke-width:0.125715"
       d="m 178.92567,108.3206 h 6.70235 6.70711 v 0.005 h -6.70711 -6.70235 z"
       id="path7320" />
    <path
       style="fill:#ffffff;fill-opacity:1;fill-rule:evenodd;stroke:none;stroke-width:0.125715"
       d="m 142.87262,169.21653 v -6.70234 c 8.85889,0 17.77953,1.18752 26.44366,3.58155 l -1.78603,6.46484 -1.78602,6.4601 c -7.49562,-2.06629 -15.20973,-3.09705 -22.87161,-3.09705 z"
       id="path7322" />
    <path
       style="fill:#ffffff;fill-opacity:1;fill-rule:evenodd;stroke:none;stroke-width:0.125715"
       d="m 167.53025,172.56058 1.78603,-6.46484 c 8.67363,2.39878 17.0955,5.99932 24.95213,10.81115 l -3.5008,5.71909 -3.50557,5.71434 c -6.7736,-4.15156 -14.03646,-7.25336 -21.51781,-9.31964 z"
       id="path7324" />
    <path
       style="fill:#ffffff;fill-opacity:1;fill-rule:evenodd;stroke:none;stroke-width:0.125715"
       d="m 190.76761,182.62598 3.5008,-5.71909 c 7.87087,4.82133 15.17173,10.85392 21.59383,18.11678 l -5.02558,4.44131 -5.02083,4.44133 c -5.51483,-6.23685 -11.78967,-11.42393 -18.55379,-15.56599 z"
       id="path7326" />
    <path
       style="fill:#ffffff;fill-opacity:1;fill-rule:evenodd;stroke:none;stroke-width:0.125715"
       d="m 210.83666,199.46498 5.02558,-4.44131 c 6.39834,7.23436 11.92267,15.68474 16.25474,25.37488 l -6.11809,2.73605 -6.11809,2.73605 c -3.75257,-8.37913 -8.52638,-15.70375 -14.06497,-21.96434 z"
       id="path7328" />
    <path
       style="fill:#ffffff;fill-opacity:1;fill-rule:evenodd;stroke:none;stroke-width:0.125715"
       d="m 232.11698,220.39855 c 0.38951,0.85977 0.58901,1.79078 0.58901,2.73605 0,1.17801 -0.31351,2.33228 -0.90251,3.35355 -0.30875,0.53675 -0.69352,1.03077 -1.14002,1.46302 l -4.66457,-4.81657 z"
       id="path7330" />
    <path
       style="fill:#ffffff;fill-opacity:1;fill-rule:evenodd;stroke:none;stroke-width:0.125715"
       d="m 225.99889,223.1346 4.66457,4.81657 c -12.07943,11.70893 -26.06365,20.46331 -40.99313,26.2869 l -2.43678,-6.24635 -2.43679,-6.24634 c 13.30496,-5.19182 25.76915,-12.99144 36.53756,-23.42735 z"
       id="path7332" />
    <path
       style="fill:#ffffff;fill-opacity:1;fill-rule:evenodd;stroke:none;stroke-width:0.125715"
       d="m 187.23355,247.99172 2.43678,6.24635 c -14.90097,5.8141 -30.74721,8.70688 -46.59344,8.70688 v -6.7071 -6.70236 c 14.18846,0 28.37693,-2.58403 41.71987,-7.79011 z"
       id="path7334" />
    <path
       style="fill:#ffffff;fill-opacity:1;fill-rule:evenodd;stroke:none;stroke-width:0.125715"
       d="m 143.07689,256.23785 v 6.7071 c -15.946,0 -31.88724,-2.9308 -46.859472,-8.76389 l 2.432037,-6.24633 2.432035,-6.24635 c 13.41895,5.22508 27.70717,7.84711 41.9954,7.84711 z"
       id="path7336" />
    <path
       style="fill:#ffffff;fill-opacity:1;fill-rule:evenodd;stroke:none;stroke-width:0.125715"
       d="m 98.649455,247.93473 -2.432037,6.24633 C 81.211939,248.34323 67.184974,239.59359 55.100792,227.96541 l 4.645573,-4.83081 4.645569,-4.83082 c 10.787416,10.3694 23.303852,18.17377 36.689556,23.3846 z"
       id="path7338" />
    <path
       style="fill:#ffffff;fill-opacity:1;fill-rule:evenodd;stroke:none;stroke-width:0.125715"
       d="m 55.100792,227.96541 c -0.456005,-0.437 -0.845513,-0.931 -1.159018,-1.47726 -0.589006,-1.02127 -0.897764,-2.17554 -0.897764,-3.35355 0,-0.95952 0.204254,-1.90954 0.60326,-2.78354 l 6.099095,2.78354 z"
       id="path7340" />
    <path
       style="fill:#ffffff;fill-opacity:1;fill-rule:evenodd;stroke:none;stroke-width:0.125715"
       d="m 59.746365,223.1346 -6.099095,-2.78354 c 4.412816,-9.67115 9.97515,-18.11203 16.382997,-25.33689 l 5.016076,4.45081 5.016076,4.44608 c -5.562334,6.27484 -10.383653,13.60896 -14.216964,22.00707 z"
       id="path7342" />
    <path
       style="fill:#ffffff;fill-opacity:1;fill-rule:evenodd;stroke:none;stroke-width:0.125715"
       d="m 75.046343,199.46498 -5.016076,-4.45081 c 6.431601,-7.25336 13.718212,-13.28595 21.560579,-18.10252 l 3.510304,5.71433 3.510303,5.70958 c -6.749851,4.14682 -13.015199,9.3339 -18.549034,15.5755 z"
       id="path7344" />
    <path
       style="fill:#ffffff;fill-opacity:1;fill-rule:evenodd;stroke:none;stroke-width:0.125715"
       d="m 95.10115,182.62598 -3.510304,-5.71433 c 7.837621,-4.81659 16.226244,-8.41713 24.880874,-10.81591 l 1.78604,6.46484 1.79077,6.4601 c -7.45286,2.06628 -14.68722,5.16808 -21.437077,9.31488 z"
       id="path7346" />
    <path
       style="fill:#ffffff;fill-opacity:1;fill-rule:evenodd;stroke:none;stroke-width:0.125715"
       d="m 118.25776,172.56058 -1.78604,-6.46484 c 8.63563,-2.3893 17.53728,-3.58155 26.4009,-3.58155 v 6.70234 6.7071 c -7.66186,0 -15.35222,1.02601 -22.82409,3.09705 z"
       id="path7348" />
  </g>
</svg>
